M48
; DRILL file {KiCad (5.1.5)-2} date 28/02/2021 22:07:03
; FORMAT={3:3/ absolute / metric / suppress leading zeros}
; #@! TF.CreationDate,2021-02-28T22:07:03+01:00
; #@! TF.GenerationSoftware,Kicad,Pcbnew,(5.1.5)-2
; #@! TF.FileFunction,Plated,1,2,PTH
FMAT,2
METRIC,TZ
T1C0.400
T2C1.000
%
G90
G05
T1
X122540Y-65080
X122540Y-70160
X122540Y-75240
X122540Y-80320
X122540Y-85400
X122540Y-90480
X122540Y-95560
X122540Y-100640
X122540Y-105720
X122540Y-110800
X122540Y-115880
X122540Y-120960
X122540Y-126040
X122540Y-131120
X122540Y-136200
X127620Y-65080
X127620Y-70160
X127620Y-75240
X127620Y-136200
X129144Y-82860
X129144Y-85400
X132700Y-70160
X132700Y-90480
X132700Y-95560
X132700Y-100640
X132700Y-105720
X132700Y-110800
X132700Y-115880
X132700Y-120960
X132700Y-131374
X132700Y-136200
X133716Y-84892
X135240Y-131374
X137780Y-70160
X137780Y-90480
X137780Y-95560
X137780Y-100640
X137780Y-105720
X137780Y-110800
X137780Y-115880
X137780Y-120960
X137780Y-126040
X138542Y-82860
X138542Y-85400
X140828Y-66604
X142098Y-80828
X142460Y-123246
X142860Y-70160
X142860Y-90480
X142860Y-95560
X142860Y-100640
X142860Y-105720
X142860Y-110800
X144384Y-84130
X145000Y-123246
X146416Y-71430
X146416Y-76256
X147540Y-123246
X147931Y-95569
X147940Y-85400
X147940Y-90480
X147940Y-99116
X148448Y-101656
X148448Y-106736
X149718Y-65334
X149972Y-76256
X150080Y-123246
X150480Y-108006
X150988Y-65334
X150988Y-71430
X151750Y-96068
X153020Y-75240
X153020Y-80320
X153020Y-88448
X153020Y-90226
X154544Y-72192
X154798Y-99878
X155306Y-93020
X155560Y-64318
X156322Y-109022
X157338Y-110038
X157460Y-123246
X158100Y-80320
X158100Y-85400
X158354Y-111054
X158862Y-61270
X159624Y-92258
X159878Y-71303
X159878Y-76256
X159878Y-94798
X159878Y-105466
X159878Y-108006
X160000Y-123246
X160386Y-99878
X160386Y-100894
X160386Y-101910
X160386Y-102926
X160894Y-98354
X161148Y-90734
X161402Y-61270
X161656Y-76256
X161910Y-97338
X162164Y-71176
X162540Y-123246
X162672Y-109022
X162926Y-108006
X163434Y-92258
X163942Y-86670
X164450Y-64318
X164450Y-69398
X164704Y-94290
X165080Y-123246
X165212Y-100386
X166736Y-105466
X167752Y-104704
X168260Y-101402
X168514Y-97338
X169276Y-93274
X169276Y-102926
X169530Y-66858
X170292Y-94290
X170292Y-101910
X171308Y-95306
X172070Y-99116
X172324Y-75762
X172324Y-96322
X172460Y-128444
X173594Y-66858
X174474Y-81844
X175000Y-128444
X175880Y-100640
X175880Y-105720
X175880Y-110800
X177150Y-72446
X177540Y-130104
X177540Y-134930
X178166Y-76002
X180080Y-128072
X180198Y-130104
X180960Y-69652
X180960Y-77018
X180960Y-84384
X180960Y-86670
X180960Y-88956
X180960Y-91242
X180960Y-93528
X180960Y-100640
X180960Y-105720
X180960Y-110800
X182992Y-114864
X182992Y-116896
X182992Y-118928
X182992Y-120960
X184516Y-73462
X186040Y-70160
X186040Y-75240
X186040Y-80320
X186040Y-136200
X189088Y-82098
X189088Y-95814
X191120Y-65080
X191120Y-70160
X191120Y-75240
X191120Y-80320
X191120Y-85400
X191120Y-90226
X191120Y-95560
X191120Y-100640
X191120Y-105720
X191120Y-110800
X191120Y-112832
X191120Y-122992
X191120Y-128580
X191120Y-136200
X196200Y-70160
X196200Y-75240
X196200Y-80320
X196200Y-85400
X196200Y-90480
X196200Y-95560
X196200Y-100640
X196200Y-105720
X196200Y-110800
X196200Y-115880
X196200Y-120960
X196200Y-126040
X196200Y-131120
T2
X131049Y-77526
X133589Y-77526
X136129Y-77526
X130160Y-129088
X132700Y-129088
X135240Y-129088
X137780Y-129088
X171054Y-62540
X173594Y-62540
X176134Y-62540
X178674Y-62540
X157460Y-132390
X160000Y-132390
X162540Y-132390
X165080Y-132390
X138288Y-62794
X140828Y-62794
X143368Y-62794
X145908Y-62794
X148448Y-62794
X150988Y-62794
X172460Y-132390
X175000Y-132390
X177540Y-132390
X180080Y-132390
X142460Y-132644
X145000Y-132644
X147540Y-132644
X150080Y-132644
T0
M30
