G04 #@! TF.GenerationSoftware,KiCad,Pcbnew,(5.1.5)-2*
G04 #@! TF.CreationDate,2021-02-28T22:06:59+01:00*
G04 #@! TF.ProjectId,USB_TO_I2C,5553425f-544f-45f4-9932-432e6b696361,rev?*
G04 #@! TF.SameCoordinates,Original*
G04 #@! TF.FileFunction,Soldermask,Top*
G04 #@! TF.FilePolarity,Negative*
%FSLAX46Y46*%
G04 Gerber Fmt 4.6, Leading zero omitted, Abs format (unit mm)*
G04 Created by KiCad (PCBNEW (5.1.5)-2) date 2021-02-28 22:06:59*
%MOMM*%
%LPD*%
G04 APERTURE LIST*
%ADD10C,0.100000*%
G04 APERTURE END LIST*
D10*
G36*
X200000000Y-65000000D02*
G01*
X200000000Y-135000000D01*
X195000000Y-140000000D01*
X185000000Y-140000000D01*
X185000000Y-135000000D01*
X189948223Y-135000000D01*
X189972609Y-134997598D01*
X189996058Y-134990485D01*
X190017669Y-134978934D01*
X190036611Y-134963389D01*
X194963389Y-130036611D01*
X194978934Y-130017669D01*
X194990485Y-129996058D01*
X194997598Y-129972609D01*
X195000000Y-129948223D01*
X195000000Y-70051777D01*
X194997598Y-70027391D01*
X194990485Y-70003942D01*
X194978934Y-69982331D01*
X194963389Y-69963389D01*
X190036611Y-65036611D01*
X190017669Y-65021066D01*
X189996058Y-65009515D01*
X189972609Y-65002402D01*
X189948223Y-65000000D01*
X185000000Y-65000000D01*
X185000000Y-60000000D01*
X195000000Y-60000000D01*
X200000000Y-65000000D01*
G37*
G36*
X135000000Y-65000000D02*
G01*
X130051777Y-65000000D01*
X130027391Y-65002402D01*
X130003942Y-65009515D01*
X129982331Y-65021066D01*
X129963389Y-65036611D01*
X125036611Y-69963389D01*
X125021066Y-69982331D01*
X125009515Y-70003942D01*
X125002402Y-70027391D01*
X125000000Y-70051777D01*
X125000000Y-129948223D01*
X125002402Y-129972609D01*
X125009515Y-129996058D01*
X125021066Y-130017669D01*
X125036611Y-130036611D01*
X129963389Y-134963389D01*
X129982331Y-134978934D01*
X130003942Y-134990485D01*
X130027391Y-134997598D01*
X130051777Y-135000000D01*
X135000000Y-135000000D01*
X135000000Y-140000000D01*
X125000000Y-140000000D01*
X120000000Y-135000000D01*
X120000000Y-65000000D01*
X125000000Y-60000000D01*
X135000000Y-60000000D01*
X135000000Y-65000000D01*
G37*
G36*
X150981000Y-133545000D02*
G01*
X149179000Y-133545000D01*
X149179000Y-131743000D01*
X150981000Y-131743000D01*
X150981000Y-133545000D01*
G37*
G36*
X145113512Y-131747927D02*
G01*
X145262812Y-131777624D01*
X145426784Y-131845544D01*
X145574354Y-131944147D01*
X145699853Y-132069646D01*
X145798456Y-132217216D01*
X145866376Y-132381188D01*
X145901000Y-132555259D01*
X145901000Y-132732741D01*
X145866376Y-132906812D01*
X145798456Y-133070784D01*
X145699853Y-133218354D01*
X145574354Y-133343853D01*
X145426784Y-133442456D01*
X145262812Y-133510376D01*
X145113512Y-133540073D01*
X145088742Y-133545000D01*
X144911258Y-133545000D01*
X144886488Y-133540073D01*
X144737188Y-133510376D01*
X144573216Y-133442456D01*
X144425646Y-133343853D01*
X144300147Y-133218354D01*
X144201544Y-133070784D01*
X144133624Y-132906812D01*
X144099000Y-132732741D01*
X144099000Y-132555259D01*
X144133624Y-132381188D01*
X144201544Y-132217216D01*
X144300147Y-132069646D01*
X144425646Y-131944147D01*
X144573216Y-131845544D01*
X144737188Y-131777624D01*
X144886488Y-131747927D01*
X144911258Y-131743000D01*
X145088742Y-131743000D01*
X145113512Y-131747927D01*
G37*
G36*
X142573512Y-131747927D02*
G01*
X142722812Y-131777624D01*
X142886784Y-131845544D01*
X143034354Y-131944147D01*
X143159853Y-132069646D01*
X143258456Y-132217216D01*
X143326376Y-132381188D01*
X143361000Y-132555259D01*
X143361000Y-132732741D01*
X143326376Y-132906812D01*
X143258456Y-133070784D01*
X143159853Y-133218354D01*
X143034354Y-133343853D01*
X142886784Y-133442456D01*
X142722812Y-133510376D01*
X142573512Y-133540073D01*
X142548742Y-133545000D01*
X142371258Y-133545000D01*
X142346488Y-133540073D01*
X142197188Y-133510376D01*
X142033216Y-133442456D01*
X141885646Y-133343853D01*
X141760147Y-133218354D01*
X141661544Y-133070784D01*
X141593624Y-132906812D01*
X141559000Y-132732741D01*
X141559000Y-132555259D01*
X141593624Y-132381188D01*
X141661544Y-132217216D01*
X141760147Y-132069646D01*
X141885646Y-131944147D01*
X142033216Y-131845544D01*
X142197188Y-131777624D01*
X142346488Y-131747927D01*
X142371258Y-131743000D01*
X142548742Y-131743000D01*
X142573512Y-131747927D01*
G37*
G36*
X147653512Y-131747927D02*
G01*
X147802812Y-131777624D01*
X147966784Y-131845544D01*
X148114354Y-131944147D01*
X148239853Y-132069646D01*
X148338456Y-132217216D01*
X148406376Y-132381188D01*
X148441000Y-132555259D01*
X148441000Y-132732741D01*
X148406376Y-132906812D01*
X148338456Y-133070784D01*
X148239853Y-133218354D01*
X148114354Y-133343853D01*
X147966784Y-133442456D01*
X147802812Y-133510376D01*
X147653512Y-133540073D01*
X147628742Y-133545000D01*
X147451258Y-133545000D01*
X147426488Y-133540073D01*
X147277188Y-133510376D01*
X147113216Y-133442456D01*
X146965646Y-133343853D01*
X146840147Y-133218354D01*
X146741544Y-133070784D01*
X146673624Y-132906812D01*
X146639000Y-132732741D01*
X146639000Y-132555259D01*
X146673624Y-132381188D01*
X146741544Y-132217216D01*
X146840147Y-132069646D01*
X146965646Y-131944147D01*
X147113216Y-131845544D01*
X147277188Y-131777624D01*
X147426488Y-131747927D01*
X147451258Y-131743000D01*
X147628742Y-131743000D01*
X147653512Y-131747927D01*
G37*
G36*
X162653512Y-131493927D02*
G01*
X162802812Y-131523624D01*
X162966784Y-131591544D01*
X163114354Y-131690147D01*
X163239853Y-131815646D01*
X163338456Y-131963216D01*
X163406376Y-132127188D01*
X163441000Y-132301259D01*
X163441000Y-132478741D01*
X163406376Y-132652812D01*
X163338456Y-132816784D01*
X163239853Y-132964354D01*
X163114354Y-133089853D01*
X162966784Y-133188456D01*
X162802812Y-133256376D01*
X162653512Y-133286073D01*
X162628742Y-133291000D01*
X162451258Y-133291000D01*
X162426488Y-133286073D01*
X162277188Y-133256376D01*
X162113216Y-133188456D01*
X161965646Y-133089853D01*
X161840147Y-132964354D01*
X161741544Y-132816784D01*
X161673624Y-132652812D01*
X161639000Y-132478741D01*
X161639000Y-132301259D01*
X161673624Y-132127188D01*
X161741544Y-131963216D01*
X161840147Y-131815646D01*
X161965646Y-131690147D01*
X162113216Y-131591544D01*
X162277188Y-131523624D01*
X162426488Y-131493927D01*
X162451258Y-131489000D01*
X162628742Y-131489000D01*
X162653512Y-131493927D01*
G37*
G36*
X157573512Y-131493927D02*
G01*
X157722812Y-131523624D01*
X157886784Y-131591544D01*
X158034354Y-131690147D01*
X158159853Y-131815646D01*
X158258456Y-131963216D01*
X158326376Y-132127188D01*
X158361000Y-132301259D01*
X158361000Y-132478741D01*
X158326376Y-132652812D01*
X158258456Y-132816784D01*
X158159853Y-132964354D01*
X158034354Y-133089853D01*
X157886784Y-133188456D01*
X157722812Y-133256376D01*
X157573512Y-133286073D01*
X157548742Y-133291000D01*
X157371258Y-133291000D01*
X157346488Y-133286073D01*
X157197188Y-133256376D01*
X157033216Y-133188456D01*
X156885646Y-133089853D01*
X156760147Y-132964354D01*
X156661544Y-132816784D01*
X156593624Y-132652812D01*
X156559000Y-132478741D01*
X156559000Y-132301259D01*
X156593624Y-132127188D01*
X156661544Y-131963216D01*
X156760147Y-131815646D01*
X156885646Y-131690147D01*
X157033216Y-131591544D01*
X157197188Y-131523624D01*
X157346488Y-131493927D01*
X157371258Y-131489000D01*
X157548742Y-131489000D01*
X157573512Y-131493927D01*
G37*
G36*
X160113512Y-131493927D02*
G01*
X160262812Y-131523624D01*
X160426784Y-131591544D01*
X160574354Y-131690147D01*
X160699853Y-131815646D01*
X160798456Y-131963216D01*
X160866376Y-132127188D01*
X160901000Y-132301259D01*
X160901000Y-132478741D01*
X160866376Y-132652812D01*
X160798456Y-132816784D01*
X160699853Y-132964354D01*
X160574354Y-133089853D01*
X160426784Y-133188456D01*
X160262812Y-133256376D01*
X160113512Y-133286073D01*
X160088742Y-133291000D01*
X159911258Y-133291000D01*
X159886488Y-133286073D01*
X159737188Y-133256376D01*
X159573216Y-133188456D01*
X159425646Y-133089853D01*
X159300147Y-132964354D01*
X159201544Y-132816784D01*
X159133624Y-132652812D01*
X159099000Y-132478741D01*
X159099000Y-132301259D01*
X159133624Y-132127188D01*
X159201544Y-131963216D01*
X159300147Y-131815646D01*
X159425646Y-131690147D01*
X159573216Y-131591544D01*
X159737188Y-131523624D01*
X159886488Y-131493927D01*
X159911258Y-131489000D01*
X160088742Y-131489000D01*
X160113512Y-131493927D01*
G37*
G36*
X165981000Y-133291000D02*
G01*
X164179000Y-133291000D01*
X164179000Y-131489000D01*
X165981000Y-131489000D01*
X165981000Y-133291000D01*
G37*
G36*
X172573512Y-131493927D02*
G01*
X172722812Y-131523624D01*
X172886784Y-131591544D01*
X173034354Y-131690147D01*
X173159853Y-131815646D01*
X173258456Y-131963216D01*
X173326376Y-132127188D01*
X173361000Y-132301259D01*
X173361000Y-132478741D01*
X173326376Y-132652812D01*
X173258456Y-132816784D01*
X173159853Y-132964354D01*
X173034354Y-133089853D01*
X172886784Y-133188456D01*
X172722812Y-133256376D01*
X172573512Y-133286073D01*
X172548742Y-133291000D01*
X172371258Y-133291000D01*
X172346488Y-133286073D01*
X172197188Y-133256376D01*
X172033216Y-133188456D01*
X171885646Y-133089853D01*
X171760147Y-132964354D01*
X171661544Y-132816784D01*
X171593624Y-132652812D01*
X171559000Y-132478741D01*
X171559000Y-132301259D01*
X171593624Y-132127188D01*
X171661544Y-131963216D01*
X171760147Y-131815646D01*
X171885646Y-131690147D01*
X172033216Y-131591544D01*
X172197188Y-131523624D01*
X172346488Y-131493927D01*
X172371258Y-131489000D01*
X172548742Y-131489000D01*
X172573512Y-131493927D01*
G37*
G36*
X175113512Y-131493927D02*
G01*
X175262812Y-131523624D01*
X175426784Y-131591544D01*
X175574354Y-131690147D01*
X175699853Y-131815646D01*
X175798456Y-131963216D01*
X175866376Y-132127188D01*
X175901000Y-132301259D01*
X175901000Y-132478741D01*
X175866376Y-132652812D01*
X175798456Y-132816784D01*
X175699853Y-132964354D01*
X175574354Y-133089853D01*
X175426784Y-133188456D01*
X175262812Y-133256376D01*
X175113512Y-133286073D01*
X175088742Y-133291000D01*
X174911258Y-133291000D01*
X174886488Y-133286073D01*
X174737188Y-133256376D01*
X174573216Y-133188456D01*
X174425646Y-133089853D01*
X174300147Y-132964354D01*
X174201544Y-132816784D01*
X174133624Y-132652812D01*
X174099000Y-132478741D01*
X174099000Y-132301259D01*
X174133624Y-132127188D01*
X174201544Y-131963216D01*
X174300147Y-131815646D01*
X174425646Y-131690147D01*
X174573216Y-131591544D01*
X174737188Y-131523624D01*
X174886488Y-131493927D01*
X174911258Y-131489000D01*
X175088742Y-131489000D01*
X175113512Y-131493927D01*
G37*
G36*
X177653512Y-131493927D02*
G01*
X177802812Y-131523624D01*
X177966784Y-131591544D01*
X178114354Y-131690147D01*
X178239853Y-131815646D01*
X178338456Y-131963216D01*
X178406376Y-132127188D01*
X178441000Y-132301259D01*
X178441000Y-132478741D01*
X178406376Y-132652812D01*
X178338456Y-132816784D01*
X178239853Y-132964354D01*
X178114354Y-133089853D01*
X177966784Y-133188456D01*
X177802812Y-133256376D01*
X177653512Y-133286073D01*
X177628742Y-133291000D01*
X177451258Y-133291000D01*
X177426488Y-133286073D01*
X177277188Y-133256376D01*
X177113216Y-133188456D01*
X176965646Y-133089853D01*
X176840147Y-132964354D01*
X176741544Y-132816784D01*
X176673624Y-132652812D01*
X176639000Y-132478741D01*
X176639000Y-132301259D01*
X176673624Y-132127188D01*
X176741544Y-131963216D01*
X176840147Y-131815646D01*
X176965646Y-131690147D01*
X177113216Y-131591544D01*
X177277188Y-131523624D01*
X177426488Y-131493927D01*
X177451258Y-131489000D01*
X177628742Y-131489000D01*
X177653512Y-131493927D01*
G37*
G36*
X180981000Y-133291000D02*
G01*
X179179000Y-133291000D01*
X179179000Y-131489000D01*
X180981000Y-131489000D01*
X180981000Y-133291000D01*
G37*
G36*
X182176674Y-129357465D02*
G01*
X182214367Y-129368899D01*
X182249103Y-129387466D01*
X182279548Y-129412452D01*
X182304534Y-129442897D01*
X182323101Y-129477633D01*
X182334535Y-129515326D01*
X182339000Y-129560661D01*
X182339000Y-130647339D01*
X182334535Y-130692674D01*
X182323101Y-130730367D01*
X182304534Y-130765103D01*
X182279548Y-130795548D01*
X182249103Y-130820534D01*
X182214367Y-130839101D01*
X182176674Y-130850535D01*
X182131339Y-130855000D01*
X181294661Y-130855000D01*
X181249326Y-130850535D01*
X181211633Y-130839101D01*
X181176897Y-130820534D01*
X181146452Y-130795548D01*
X181121466Y-130765103D01*
X181102899Y-130730367D01*
X181091465Y-130692674D01*
X181087000Y-130647339D01*
X181087000Y-129560661D01*
X181091465Y-129515326D01*
X181102899Y-129477633D01*
X181121466Y-129442897D01*
X181146452Y-129412452D01*
X181176897Y-129387466D01*
X181211633Y-129368899D01*
X181249326Y-129357465D01*
X181294661Y-129353000D01*
X182131339Y-129353000D01*
X182176674Y-129357465D01*
G37*
G36*
X184226674Y-129357465D02*
G01*
X184264367Y-129368899D01*
X184299103Y-129387466D01*
X184329548Y-129412452D01*
X184354534Y-129442897D01*
X184373101Y-129477633D01*
X184384535Y-129515326D01*
X184389000Y-129560661D01*
X184389000Y-130647339D01*
X184384535Y-130692674D01*
X184373101Y-130730367D01*
X184354534Y-130765103D01*
X184329548Y-130795548D01*
X184299103Y-130820534D01*
X184264367Y-130839101D01*
X184226674Y-130850535D01*
X184181339Y-130855000D01*
X183344661Y-130855000D01*
X183299326Y-130850535D01*
X183261633Y-130839101D01*
X183226897Y-130820534D01*
X183196452Y-130795548D01*
X183171466Y-130765103D01*
X183152899Y-130730367D01*
X183141465Y-130692674D01*
X183137000Y-130647339D01*
X183137000Y-129560661D01*
X183141465Y-129515326D01*
X183152899Y-129477633D01*
X183171466Y-129442897D01*
X183196452Y-129412452D01*
X183226897Y-129387466D01*
X183261633Y-129368899D01*
X183299326Y-129357465D01*
X183344661Y-129353000D01*
X184181339Y-129353000D01*
X184226674Y-129357465D01*
G37*
G36*
X170960721Y-129066174D02*
G01*
X171060995Y-129107709D01*
X171060996Y-129107710D01*
X171151242Y-129168010D01*
X171227990Y-129244758D01*
X171258345Y-129290188D01*
X171288291Y-129335005D01*
X171329826Y-129435279D01*
X171351000Y-129541730D01*
X171351000Y-129650270D01*
X171329826Y-129756721D01*
X171288291Y-129856995D01*
X171288290Y-129856996D01*
X171227990Y-129947242D01*
X171151242Y-130023990D01*
X171132353Y-130036611D01*
X171060995Y-130084291D01*
X170960721Y-130125826D01*
X170854270Y-130147000D01*
X170745730Y-130147000D01*
X170639279Y-130125826D01*
X170539005Y-130084291D01*
X170467647Y-130036611D01*
X170448758Y-130023990D01*
X170372010Y-129947242D01*
X170311710Y-129856996D01*
X170311709Y-129856995D01*
X170270174Y-129756721D01*
X170249000Y-129650270D01*
X170249000Y-129541730D01*
X170270174Y-129435279D01*
X170311709Y-129335005D01*
X170341655Y-129290188D01*
X170372010Y-129244758D01*
X170448758Y-129168010D01*
X170539004Y-129107710D01*
X170539005Y-129107709D01*
X170639279Y-129066174D01*
X170745730Y-129045000D01*
X170854270Y-129045000D01*
X170960721Y-129066174D01*
G37*
G36*
X138681000Y-129989000D02*
G01*
X136879000Y-129989000D01*
X136879000Y-128187000D01*
X138681000Y-128187000D01*
X138681000Y-129989000D01*
G37*
G36*
X135353512Y-128191927D02*
G01*
X135502812Y-128221624D01*
X135666784Y-128289544D01*
X135814354Y-128388147D01*
X135939853Y-128513646D01*
X136038456Y-128661216D01*
X136106376Y-128825188D01*
X136135941Y-128973825D01*
X136141000Y-128999258D01*
X136141000Y-129176742D01*
X136139309Y-129185242D01*
X136106376Y-129350812D01*
X136038456Y-129514784D01*
X135939853Y-129662354D01*
X135814354Y-129787853D01*
X135666784Y-129886456D01*
X135502812Y-129954376D01*
X135353512Y-129984073D01*
X135328742Y-129989000D01*
X135151258Y-129989000D01*
X135126488Y-129984073D01*
X134977188Y-129954376D01*
X134813216Y-129886456D01*
X134665646Y-129787853D01*
X134540147Y-129662354D01*
X134441544Y-129514784D01*
X134373624Y-129350812D01*
X134340691Y-129185242D01*
X134339000Y-129176742D01*
X134339000Y-128999258D01*
X134344059Y-128973825D01*
X134373624Y-128825188D01*
X134441544Y-128661216D01*
X134540147Y-128513646D01*
X134665646Y-128388147D01*
X134813216Y-128289544D01*
X134977188Y-128221624D01*
X135126488Y-128191927D01*
X135151258Y-128187000D01*
X135328742Y-128187000D01*
X135353512Y-128191927D01*
G37*
G36*
X132813512Y-128191927D02*
G01*
X132962812Y-128221624D01*
X133126784Y-128289544D01*
X133274354Y-128388147D01*
X133399853Y-128513646D01*
X133498456Y-128661216D01*
X133566376Y-128825188D01*
X133595941Y-128973825D01*
X133601000Y-128999258D01*
X133601000Y-129176742D01*
X133599309Y-129185242D01*
X133566376Y-129350812D01*
X133498456Y-129514784D01*
X133399853Y-129662354D01*
X133274354Y-129787853D01*
X133126784Y-129886456D01*
X132962812Y-129954376D01*
X132813512Y-129984073D01*
X132788742Y-129989000D01*
X132611258Y-129989000D01*
X132586488Y-129984073D01*
X132437188Y-129954376D01*
X132273216Y-129886456D01*
X132125646Y-129787853D01*
X132000147Y-129662354D01*
X131901544Y-129514784D01*
X131833624Y-129350812D01*
X131800691Y-129185242D01*
X131799000Y-129176742D01*
X131799000Y-128999258D01*
X131804059Y-128973825D01*
X131833624Y-128825188D01*
X131901544Y-128661216D01*
X132000147Y-128513646D01*
X132125646Y-128388147D01*
X132273216Y-128289544D01*
X132437188Y-128221624D01*
X132586488Y-128191927D01*
X132611258Y-128187000D01*
X132788742Y-128187000D01*
X132813512Y-128191927D01*
G37*
G36*
X131061000Y-129989000D02*
G01*
X129259000Y-129989000D01*
X129259000Y-128187000D01*
X131061000Y-128187000D01*
X131061000Y-129989000D01*
G37*
G36*
X142620721Y-128304174D02*
G01*
X142720995Y-128345709D01*
X142720996Y-128345710D01*
X142811242Y-128406010D01*
X142887990Y-128482758D01*
X142908629Y-128513647D01*
X142948291Y-128573005D01*
X142989826Y-128673279D01*
X143011000Y-128779730D01*
X143011000Y-128888270D01*
X142989826Y-128994721D01*
X142948291Y-129094995D01*
X142948290Y-129094996D01*
X142887990Y-129185242D01*
X142811242Y-129261990D01*
X142765812Y-129292345D01*
X142720995Y-129322291D01*
X142620721Y-129363826D01*
X142514270Y-129385000D01*
X142405730Y-129385000D01*
X142299279Y-129363826D01*
X142199005Y-129322291D01*
X142154188Y-129292345D01*
X142108758Y-129261990D01*
X142032010Y-129185242D01*
X141971710Y-129094996D01*
X141971709Y-129094995D01*
X141930174Y-128994721D01*
X141909000Y-128888270D01*
X141909000Y-128779730D01*
X141930174Y-128673279D01*
X141971709Y-128573005D01*
X142011371Y-128513647D01*
X142032010Y-128482758D01*
X142108758Y-128406010D01*
X142199004Y-128345710D01*
X142199005Y-128345709D01*
X142299279Y-128304174D01*
X142405730Y-128283000D01*
X142514270Y-128283000D01*
X142620721Y-128304174D01*
G37*
G36*
X145160721Y-128304174D02*
G01*
X145260995Y-128345709D01*
X145260996Y-128345710D01*
X145351242Y-128406010D01*
X145427990Y-128482758D01*
X145448629Y-128513647D01*
X145488291Y-128573005D01*
X145529826Y-128673279D01*
X145551000Y-128779730D01*
X145551000Y-128888270D01*
X145529826Y-128994721D01*
X145488291Y-129094995D01*
X145488290Y-129094996D01*
X145427990Y-129185242D01*
X145351242Y-129261990D01*
X145305812Y-129292345D01*
X145260995Y-129322291D01*
X145160721Y-129363826D01*
X145054270Y-129385000D01*
X144945730Y-129385000D01*
X144839279Y-129363826D01*
X144739005Y-129322291D01*
X144694188Y-129292345D01*
X144648758Y-129261990D01*
X144572010Y-129185242D01*
X144511710Y-129094996D01*
X144511709Y-129094995D01*
X144470174Y-128994721D01*
X144449000Y-128888270D01*
X144449000Y-128779730D01*
X144470174Y-128673279D01*
X144511709Y-128573005D01*
X144551371Y-128513647D01*
X144572010Y-128482758D01*
X144648758Y-128406010D01*
X144739004Y-128345710D01*
X144739005Y-128345709D01*
X144839279Y-128304174D01*
X144945730Y-128283000D01*
X145054270Y-128283000D01*
X145160721Y-128304174D01*
G37*
G36*
X150240721Y-128304174D02*
G01*
X150340995Y-128345709D01*
X150340996Y-128345710D01*
X150431242Y-128406010D01*
X150507990Y-128482758D01*
X150528629Y-128513647D01*
X150568291Y-128573005D01*
X150609826Y-128673279D01*
X150631000Y-128779730D01*
X150631000Y-128888270D01*
X150609826Y-128994721D01*
X150568291Y-129094995D01*
X150568290Y-129094996D01*
X150507990Y-129185242D01*
X150431242Y-129261990D01*
X150385812Y-129292345D01*
X150340995Y-129322291D01*
X150240721Y-129363826D01*
X150134270Y-129385000D01*
X150025730Y-129385000D01*
X149919279Y-129363826D01*
X149819005Y-129322291D01*
X149774188Y-129292345D01*
X149728758Y-129261990D01*
X149652010Y-129185242D01*
X149591710Y-129094996D01*
X149591709Y-129094995D01*
X149550174Y-128994721D01*
X149529000Y-128888270D01*
X149529000Y-128779730D01*
X149550174Y-128673279D01*
X149591709Y-128573005D01*
X149631371Y-128513647D01*
X149652010Y-128482758D01*
X149728758Y-128406010D01*
X149819004Y-128345710D01*
X149819005Y-128345709D01*
X149919279Y-128304174D01*
X150025730Y-128283000D01*
X150134270Y-128283000D01*
X150240721Y-128304174D01*
G37*
G36*
X160160721Y-128304174D02*
G01*
X160260995Y-128345709D01*
X160260996Y-128345710D01*
X160351242Y-128406010D01*
X160427990Y-128482758D01*
X160448629Y-128513647D01*
X160488291Y-128573005D01*
X160529826Y-128673279D01*
X160551000Y-128779730D01*
X160551000Y-128888270D01*
X160529826Y-128994721D01*
X160488291Y-129094995D01*
X160488290Y-129094996D01*
X160427990Y-129185242D01*
X160351242Y-129261990D01*
X160305812Y-129292345D01*
X160260995Y-129322291D01*
X160160721Y-129363826D01*
X160054270Y-129385000D01*
X159945730Y-129385000D01*
X159839279Y-129363826D01*
X159739005Y-129322291D01*
X159694188Y-129292345D01*
X159648758Y-129261990D01*
X159572010Y-129185242D01*
X159511710Y-129094996D01*
X159511709Y-129094995D01*
X159470174Y-128994721D01*
X159449000Y-128888270D01*
X159449000Y-128779730D01*
X159470174Y-128673279D01*
X159511709Y-128573005D01*
X159551371Y-128513647D01*
X159572010Y-128482758D01*
X159648758Y-128406010D01*
X159739004Y-128345710D01*
X159739005Y-128345709D01*
X159839279Y-128304174D01*
X159945730Y-128283000D01*
X160054270Y-128283000D01*
X160160721Y-128304174D01*
G37*
G36*
X165240721Y-128304174D02*
G01*
X165340995Y-128345709D01*
X165340996Y-128345710D01*
X165431242Y-128406010D01*
X165507990Y-128482758D01*
X165528629Y-128513647D01*
X165568291Y-128573005D01*
X165609826Y-128673279D01*
X165631000Y-128779730D01*
X165631000Y-128888270D01*
X165609826Y-128994721D01*
X165568291Y-129094995D01*
X165568290Y-129094996D01*
X165507990Y-129185242D01*
X165431242Y-129261990D01*
X165385812Y-129292345D01*
X165340995Y-129322291D01*
X165240721Y-129363826D01*
X165134270Y-129385000D01*
X165025730Y-129385000D01*
X164919279Y-129363826D01*
X164819005Y-129322291D01*
X164774188Y-129292345D01*
X164728758Y-129261990D01*
X164652010Y-129185242D01*
X164591710Y-129094996D01*
X164591709Y-129094995D01*
X164550174Y-128994721D01*
X164529000Y-128888270D01*
X164529000Y-128779730D01*
X164550174Y-128673279D01*
X164591709Y-128573005D01*
X164631371Y-128513647D01*
X164652010Y-128482758D01*
X164728758Y-128406010D01*
X164819004Y-128345710D01*
X164819005Y-128345709D01*
X164919279Y-128304174D01*
X165025730Y-128283000D01*
X165134270Y-128283000D01*
X165240721Y-128304174D01*
G37*
G36*
X147700721Y-128304174D02*
G01*
X147800995Y-128345709D01*
X147800996Y-128345710D01*
X147891242Y-128406010D01*
X147967990Y-128482758D01*
X147988629Y-128513647D01*
X148028291Y-128573005D01*
X148069826Y-128673279D01*
X148091000Y-128779730D01*
X148091000Y-128888270D01*
X148069826Y-128994721D01*
X148028291Y-129094995D01*
X148028290Y-129094996D01*
X147967990Y-129185242D01*
X147891242Y-129261990D01*
X147845812Y-129292345D01*
X147800995Y-129322291D01*
X147700721Y-129363826D01*
X147594270Y-129385000D01*
X147485730Y-129385000D01*
X147379279Y-129363826D01*
X147279005Y-129322291D01*
X147234188Y-129292345D01*
X147188758Y-129261990D01*
X147112010Y-129185242D01*
X147051710Y-129094996D01*
X147051709Y-129094995D01*
X147010174Y-128994721D01*
X146989000Y-128888270D01*
X146989000Y-128779730D01*
X147010174Y-128673279D01*
X147051709Y-128573005D01*
X147091371Y-128513647D01*
X147112010Y-128482758D01*
X147188758Y-128406010D01*
X147279004Y-128345710D01*
X147279005Y-128345709D01*
X147379279Y-128304174D01*
X147485730Y-128283000D01*
X147594270Y-128283000D01*
X147700721Y-128304174D01*
G37*
G36*
X157620721Y-128304174D02*
G01*
X157720995Y-128345709D01*
X157720996Y-128345710D01*
X157811242Y-128406010D01*
X157887990Y-128482758D01*
X157908629Y-128513647D01*
X157948291Y-128573005D01*
X157989826Y-128673279D01*
X158011000Y-128779730D01*
X158011000Y-128888270D01*
X157989826Y-128994721D01*
X157948291Y-129094995D01*
X157948290Y-129094996D01*
X157887990Y-129185242D01*
X157811242Y-129261990D01*
X157765812Y-129292345D01*
X157720995Y-129322291D01*
X157620721Y-129363826D01*
X157514270Y-129385000D01*
X157405730Y-129385000D01*
X157299279Y-129363826D01*
X157199005Y-129322291D01*
X157154188Y-129292345D01*
X157108758Y-129261990D01*
X157032010Y-129185242D01*
X156971710Y-129094996D01*
X156971709Y-129094995D01*
X156930174Y-128994721D01*
X156909000Y-128888270D01*
X156909000Y-128779730D01*
X156930174Y-128673279D01*
X156971709Y-128573005D01*
X157011371Y-128513647D01*
X157032010Y-128482758D01*
X157108758Y-128406010D01*
X157199004Y-128345710D01*
X157199005Y-128345709D01*
X157299279Y-128304174D01*
X157405730Y-128283000D01*
X157514270Y-128283000D01*
X157620721Y-128304174D01*
G37*
G36*
X162700721Y-128304174D02*
G01*
X162800995Y-128345709D01*
X162800996Y-128345710D01*
X162891242Y-128406010D01*
X162967990Y-128482758D01*
X162988629Y-128513647D01*
X163028291Y-128573005D01*
X163069826Y-128673279D01*
X163091000Y-128779730D01*
X163091000Y-128888270D01*
X163069826Y-128994721D01*
X163028291Y-129094995D01*
X163028290Y-129094996D01*
X162967990Y-129185242D01*
X162891242Y-129261990D01*
X162845812Y-129292345D01*
X162800995Y-129322291D01*
X162700721Y-129363826D01*
X162594270Y-129385000D01*
X162485730Y-129385000D01*
X162379279Y-129363826D01*
X162279005Y-129322291D01*
X162234188Y-129292345D01*
X162188758Y-129261990D01*
X162112010Y-129185242D01*
X162051710Y-129094996D01*
X162051709Y-129094995D01*
X162010174Y-128994721D01*
X161989000Y-128888270D01*
X161989000Y-128779730D01*
X162010174Y-128673279D01*
X162051709Y-128573005D01*
X162091371Y-128513647D01*
X162112010Y-128482758D01*
X162188758Y-128406010D01*
X162279004Y-128345710D01*
X162279005Y-128345709D01*
X162379279Y-128304174D01*
X162485730Y-128283000D01*
X162594270Y-128283000D01*
X162700721Y-128304174D01*
G37*
G36*
X177564721Y-127914174D02*
G01*
X177664995Y-127955709D01*
X177664996Y-127955710D01*
X177755242Y-128016010D01*
X177831990Y-128092758D01*
X177831991Y-128092760D01*
X177892291Y-128183005D01*
X177933826Y-128283279D01*
X177955000Y-128389730D01*
X177955000Y-128498270D01*
X177933826Y-128604721D01*
X177892291Y-128704995D01*
X177892290Y-128704996D01*
X177831990Y-128795242D01*
X177755242Y-128871990D01*
X177730877Y-128888270D01*
X177664995Y-128932291D01*
X177564721Y-128973826D01*
X177458270Y-128995000D01*
X177349730Y-128995000D01*
X177243279Y-128973826D01*
X177143005Y-128932291D01*
X177077123Y-128888270D01*
X177052758Y-128871990D01*
X176976010Y-128795242D01*
X176915710Y-128704996D01*
X176915709Y-128704995D01*
X176874174Y-128604721D01*
X176853000Y-128498270D01*
X176853000Y-128389730D01*
X176874174Y-128283279D01*
X176915709Y-128183005D01*
X176976009Y-128092760D01*
X176976010Y-128092758D01*
X177052758Y-128016010D01*
X177143004Y-127955710D01*
X177143005Y-127955709D01*
X177243279Y-127914174D01*
X177349730Y-127893000D01*
X177458270Y-127893000D01*
X177564721Y-127914174D01*
G37*
G36*
X182176674Y-127325465D02*
G01*
X182214367Y-127336899D01*
X182249103Y-127355466D01*
X182279548Y-127380452D01*
X182304534Y-127410897D01*
X182323101Y-127445633D01*
X182334535Y-127483326D01*
X182339000Y-127528661D01*
X182339000Y-128615339D01*
X182334535Y-128660674D01*
X182323101Y-128698367D01*
X182304534Y-128733103D01*
X182279548Y-128763548D01*
X182249103Y-128788534D01*
X182214367Y-128807101D01*
X182176674Y-128818535D01*
X182131339Y-128823000D01*
X181294661Y-128823000D01*
X181249326Y-128818535D01*
X181211633Y-128807101D01*
X181176897Y-128788534D01*
X181146452Y-128763548D01*
X181121466Y-128733103D01*
X181102899Y-128698367D01*
X181091465Y-128660674D01*
X181087000Y-128615339D01*
X181087000Y-127528661D01*
X181091465Y-127483326D01*
X181102899Y-127445633D01*
X181121466Y-127410897D01*
X181146452Y-127380452D01*
X181176897Y-127355466D01*
X181211633Y-127336899D01*
X181249326Y-127325465D01*
X181294661Y-127321000D01*
X182131339Y-127321000D01*
X182176674Y-127325465D01*
G37*
G36*
X184226674Y-127325465D02*
G01*
X184264367Y-127336899D01*
X184299103Y-127355466D01*
X184329548Y-127380452D01*
X184354534Y-127410897D01*
X184373101Y-127445633D01*
X184384535Y-127483326D01*
X184389000Y-127528661D01*
X184389000Y-128615339D01*
X184384535Y-128660674D01*
X184373101Y-128698367D01*
X184354534Y-128733103D01*
X184329548Y-128763548D01*
X184299103Y-128788534D01*
X184264367Y-128807101D01*
X184226674Y-128818535D01*
X184181339Y-128823000D01*
X183344661Y-128823000D01*
X183299326Y-128818535D01*
X183261633Y-128807101D01*
X183226897Y-128788534D01*
X183196452Y-128763548D01*
X183171466Y-128733103D01*
X183152899Y-128698367D01*
X183141465Y-128660674D01*
X183137000Y-128615339D01*
X183137000Y-127528661D01*
X183141465Y-127483326D01*
X183152899Y-127445633D01*
X183171466Y-127410897D01*
X183196452Y-127380452D01*
X183226897Y-127355466D01*
X183261633Y-127336899D01*
X183299326Y-127325465D01*
X183344661Y-127321000D01*
X184181339Y-127321000D01*
X184226674Y-127325465D01*
G37*
G36*
X145589148Y-126189454D02*
G01*
X145626728Y-126200854D01*
X145661364Y-126219367D01*
X145691720Y-126244280D01*
X145716633Y-126274636D01*
X145735146Y-126309272D01*
X145746546Y-126346852D01*
X145751000Y-126392075D01*
X145751000Y-127229925D01*
X145746546Y-127275148D01*
X145735146Y-127312728D01*
X145716633Y-127347364D01*
X145691720Y-127377720D01*
X145661364Y-127402633D01*
X145626728Y-127421146D01*
X145589148Y-127432546D01*
X145543925Y-127437000D01*
X144456075Y-127437000D01*
X144410852Y-127432546D01*
X144373272Y-127421146D01*
X144338636Y-127402633D01*
X144308280Y-127377720D01*
X144283367Y-127347364D01*
X144264854Y-127312728D01*
X144253454Y-127275148D01*
X144249000Y-127229925D01*
X144249000Y-126392075D01*
X144253454Y-126346852D01*
X144264854Y-126309272D01*
X144283367Y-126274636D01*
X144308280Y-126244280D01*
X144338636Y-126219367D01*
X144373272Y-126200854D01*
X144410852Y-126189454D01*
X144456075Y-126185000D01*
X145543925Y-126185000D01*
X145589148Y-126189454D01*
G37*
G36*
X163128674Y-126189465D02*
G01*
X163166367Y-126200899D01*
X163201103Y-126219466D01*
X163231548Y-126244452D01*
X163256534Y-126274897D01*
X163275101Y-126309633D01*
X163286535Y-126347326D01*
X163291000Y-126392661D01*
X163291000Y-127229339D01*
X163286535Y-127274674D01*
X163275101Y-127312367D01*
X163256534Y-127347103D01*
X163231548Y-127377548D01*
X163201103Y-127402534D01*
X163166367Y-127421101D01*
X163128674Y-127432535D01*
X163083339Y-127437000D01*
X161996661Y-127437000D01*
X161951326Y-127432535D01*
X161913633Y-127421101D01*
X161878897Y-127402534D01*
X161848452Y-127377548D01*
X161823466Y-127347103D01*
X161804899Y-127312367D01*
X161793465Y-127274674D01*
X161789000Y-127229339D01*
X161789000Y-126392661D01*
X161793465Y-126347326D01*
X161804899Y-126309633D01*
X161823466Y-126274897D01*
X161848452Y-126244452D01*
X161878897Y-126219466D01*
X161913633Y-126200899D01*
X161951326Y-126189465D01*
X161996661Y-126185000D01*
X163083339Y-126185000D01*
X163128674Y-126189465D01*
G37*
G36*
X160589148Y-126189454D02*
G01*
X160626728Y-126200854D01*
X160661364Y-126219367D01*
X160691720Y-126244280D01*
X160716633Y-126274636D01*
X160735146Y-126309272D01*
X160746546Y-126346852D01*
X160751000Y-126392075D01*
X160751000Y-127229925D01*
X160746546Y-127275148D01*
X160735146Y-127312728D01*
X160716633Y-127347364D01*
X160691720Y-127377720D01*
X160661364Y-127402633D01*
X160626728Y-127421146D01*
X160589148Y-127432546D01*
X160543925Y-127437000D01*
X159456075Y-127437000D01*
X159410852Y-127432546D01*
X159373272Y-127421146D01*
X159338636Y-127402633D01*
X159308280Y-127377720D01*
X159283367Y-127347364D01*
X159264854Y-127312728D01*
X159253454Y-127275148D01*
X159249000Y-127229925D01*
X159249000Y-126392075D01*
X159253454Y-126346852D01*
X159264854Y-126309272D01*
X159283367Y-126274636D01*
X159308280Y-126244280D01*
X159338636Y-126219367D01*
X159373272Y-126200854D01*
X159410852Y-126189454D01*
X159456075Y-126185000D01*
X160543925Y-126185000D01*
X160589148Y-126189454D01*
G37*
G36*
X158049148Y-126189454D02*
G01*
X158086728Y-126200854D01*
X158121364Y-126219367D01*
X158151720Y-126244280D01*
X158176633Y-126274636D01*
X158195146Y-126309272D01*
X158206546Y-126346852D01*
X158211000Y-126392075D01*
X158211000Y-127229925D01*
X158206546Y-127275148D01*
X158195146Y-127312728D01*
X158176633Y-127347364D01*
X158151720Y-127377720D01*
X158121364Y-127402633D01*
X158086728Y-127421146D01*
X158049148Y-127432546D01*
X158003925Y-127437000D01*
X156916075Y-127437000D01*
X156870852Y-127432546D01*
X156833272Y-127421146D01*
X156798636Y-127402633D01*
X156768280Y-127377720D01*
X156743367Y-127347364D01*
X156724854Y-127312728D01*
X156713454Y-127275148D01*
X156709000Y-127229925D01*
X156709000Y-126392075D01*
X156713454Y-126346852D01*
X156724854Y-126309272D01*
X156743367Y-126274636D01*
X156768280Y-126244280D01*
X156798636Y-126219367D01*
X156833272Y-126200854D01*
X156870852Y-126189454D01*
X156916075Y-126185000D01*
X158003925Y-126185000D01*
X158049148Y-126189454D01*
G37*
G36*
X150669148Y-126189454D02*
G01*
X150706728Y-126200854D01*
X150741364Y-126219367D01*
X150771720Y-126244280D01*
X150796633Y-126274636D01*
X150815146Y-126309272D01*
X150826546Y-126346852D01*
X150831000Y-126392075D01*
X150831000Y-127229925D01*
X150826546Y-127275148D01*
X150815146Y-127312728D01*
X150796633Y-127347364D01*
X150771720Y-127377720D01*
X150741364Y-127402633D01*
X150706728Y-127421146D01*
X150669148Y-127432546D01*
X150623925Y-127437000D01*
X149536075Y-127437000D01*
X149490852Y-127432546D01*
X149453272Y-127421146D01*
X149418636Y-127402633D01*
X149388280Y-127377720D01*
X149363367Y-127347364D01*
X149344854Y-127312728D01*
X149333454Y-127275148D01*
X149329000Y-127229925D01*
X149329000Y-126392075D01*
X149333454Y-126346852D01*
X149344854Y-126309272D01*
X149363367Y-126274636D01*
X149388280Y-126244280D01*
X149418636Y-126219367D01*
X149453272Y-126200854D01*
X149490852Y-126189454D01*
X149536075Y-126185000D01*
X150623925Y-126185000D01*
X150669148Y-126189454D01*
G37*
G36*
X148128674Y-126189465D02*
G01*
X148166367Y-126200899D01*
X148201103Y-126219466D01*
X148231548Y-126244452D01*
X148256534Y-126274897D01*
X148275101Y-126309633D01*
X148286535Y-126347326D01*
X148291000Y-126392661D01*
X148291000Y-127229339D01*
X148286535Y-127274674D01*
X148275101Y-127312367D01*
X148256534Y-127347103D01*
X148231548Y-127377548D01*
X148201103Y-127402534D01*
X148166367Y-127421101D01*
X148128674Y-127432535D01*
X148083339Y-127437000D01*
X146996661Y-127437000D01*
X146951326Y-127432535D01*
X146913633Y-127421101D01*
X146878897Y-127402534D01*
X146848452Y-127377548D01*
X146823466Y-127347103D01*
X146804899Y-127312367D01*
X146793465Y-127274674D01*
X146789000Y-127229339D01*
X146789000Y-126392661D01*
X146793465Y-126347326D01*
X146804899Y-126309633D01*
X146823466Y-126274897D01*
X146848452Y-126244452D01*
X146878897Y-126219466D01*
X146913633Y-126200899D01*
X146951326Y-126189465D01*
X146996661Y-126185000D01*
X148083339Y-126185000D01*
X148128674Y-126189465D01*
G37*
G36*
X143049148Y-126189454D02*
G01*
X143086728Y-126200854D01*
X143121364Y-126219367D01*
X143151720Y-126244280D01*
X143176633Y-126274636D01*
X143195146Y-126309272D01*
X143206546Y-126346852D01*
X143211000Y-126392075D01*
X143211000Y-127229925D01*
X143206546Y-127275148D01*
X143195146Y-127312728D01*
X143176633Y-127347364D01*
X143151720Y-127377720D01*
X143121364Y-127402633D01*
X143086728Y-127421146D01*
X143049148Y-127432546D01*
X143003925Y-127437000D01*
X141916075Y-127437000D01*
X141870852Y-127432546D01*
X141833272Y-127421146D01*
X141798636Y-127402633D01*
X141768280Y-127377720D01*
X141743367Y-127347364D01*
X141724854Y-127312728D01*
X141713454Y-127275148D01*
X141709000Y-127229925D01*
X141709000Y-126392075D01*
X141713454Y-126346852D01*
X141724854Y-126309272D01*
X141743367Y-126274636D01*
X141768280Y-126244280D01*
X141798636Y-126219367D01*
X141833272Y-126200854D01*
X141870852Y-126189454D01*
X141916075Y-126185000D01*
X143003925Y-126185000D01*
X143049148Y-126189454D01*
G37*
G36*
X165669148Y-126189454D02*
G01*
X165706728Y-126200854D01*
X165741364Y-126219367D01*
X165771720Y-126244280D01*
X165796633Y-126274636D01*
X165815146Y-126309272D01*
X165826546Y-126346852D01*
X165831000Y-126392075D01*
X165831000Y-127229925D01*
X165826546Y-127275148D01*
X165815146Y-127312728D01*
X165796633Y-127347364D01*
X165771720Y-127377720D01*
X165741364Y-127402633D01*
X165706728Y-127421146D01*
X165669148Y-127432546D01*
X165623925Y-127437000D01*
X164536075Y-127437000D01*
X164490852Y-127432546D01*
X164453272Y-127421146D01*
X164418636Y-127402633D01*
X164388280Y-127377720D01*
X164363367Y-127347364D01*
X164344854Y-127312728D01*
X164333454Y-127275148D01*
X164329000Y-127229925D01*
X164329000Y-126392075D01*
X164333454Y-126346852D01*
X164344854Y-126309272D01*
X164363367Y-126274636D01*
X164388280Y-126244280D01*
X164418636Y-126219367D01*
X164453272Y-126200854D01*
X164490852Y-126189454D01*
X164536075Y-126185000D01*
X165623925Y-126185000D01*
X165669148Y-126189454D01*
G37*
G36*
X145589148Y-124139454D02*
G01*
X145626728Y-124150854D01*
X145661364Y-124169367D01*
X145691720Y-124194280D01*
X145716633Y-124224636D01*
X145735146Y-124259272D01*
X145746546Y-124296852D01*
X145751000Y-124342075D01*
X145751000Y-125179925D01*
X145746546Y-125225148D01*
X145735146Y-125262728D01*
X145716633Y-125297364D01*
X145691720Y-125327720D01*
X145661364Y-125352633D01*
X145626728Y-125371146D01*
X145589148Y-125382546D01*
X145543925Y-125387000D01*
X144456075Y-125387000D01*
X144410852Y-125382546D01*
X144373272Y-125371146D01*
X144338636Y-125352633D01*
X144308280Y-125327720D01*
X144283367Y-125297364D01*
X144264854Y-125262728D01*
X144253454Y-125225148D01*
X144249000Y-125179925D01*
X144249000Y-124342075D01*
X144253454Y-124296852D01*
X144264854Y-124259272D01*
X144283367Y-124224636D01*
X144308280Y-124194280D01*
X144338636Y-124169367D01*
X144373272Y-124150854D01*
X144410852Y-124139454D01*
X144456075Y-124135000D01*
X145543925Y-124135000D01*
X145589148Y-124139454D01*
G37*
G36*
X148129148Y-124139454D02*
G01*
X148166728Y-124150854D01*
X148201364Y-124169367D01*
X148231720Y-124194280D01*
X148256633Y-124224636D01*
X148275146Y-124259272D01*
X148286546Y-124296852D01*
X148291000Y-124342075D01*
X148291000Y-125179925D01*
X148286546Y-125225148D01*
X148275146Y-125262728D01*
X148256633Y-125297364D01*
X148231720Y-125327720D01*
X148201364Y-125352633D01*
X148166728Y-125371146D01*
X148129148Y-125382546D01*
X148083925Y-125387000D01*
X146996075Y-125387000D01*
X146950852Y-125382546D01*
X146913272Y-125371146D01*
X146878636Y-125352633D01*
X146848280Y-125327720D01*
X146823367Y-125297364D01*
X146804854Y-125262728D01*
X146793454Y-125225148D01*
X146789000Y-125179925D01*
X146789000Y-124342075D01*
X146793454Y-124296852D01*
X146804854Y-124259272D01*
X146823367Y-124224636D01*
X146848280Y-124194280D01*
X146878636Y-124169367D01*
X146913272Y-124150854D01*
X146950852Y-124139454D01*
X146996075Y-124135000D01*
X148083925Y-124135000D01*
X148129148Y-124139454D01*
G37*
G36*
X150669148Y-124139454D02*
G01*
X150706728Y-124150854D01*
X150741364Y-124169367D01*
X150771720Y-124194280D01*
X150796633Y-124224636D01*
X150815146Y-124259272D01*
X150826546Y-124296852D01*
X150831000Y-124342075D01*
X150831000Y-125179925D01*
X150826546Y-125225148D01*
X150815146Y-125262728D01*
X150796633Y-125297364D01*
X150771720Y-125327720D01*
X150741364Y-125352633D01*
X150706728Y-125371146D01*
X150669148Y-125382546D01*
X150623925Y-125387000D01*
X149536075Y-125387000D01*
X149490852Y-125382546D01*
X149453272Y-125371146D01*
X149418636Y-125352633D01*
X149388280Y-125327720D01*
X149363367Y-125297364D01*
X149344854Y-125262728D01*
X149333454Y-125225148D01*
X149329000Y-125179925D01*
X149329000Y-124342075D01*
X149333454Y-124296852D01*
X149344854Y-124259272D01*
X149363367Y-124224636D01*
X149388280Y-124194280D01*
X149418636Y-124169367D01*
X149453272Y-124150854D01*
X149490852Y-124139454D01*
X149536075Y-124135000D01*
X150623925Y-124135000D01*
X150669148Y-124139454D01*
G37*
G36*
X160589148Y-124139454D02*
G01*
X160626728Y-124150854D01*
X160661364Y-124169367D01*
X160691720Y-124194280D01*
X160716633Y-124224636D01*
X160735146Y-124259272D01*
X160746546Y-124296852D01*
X160751000Y-124342075D01*
X160751000Y-125179925D01*
X160746546Y-125225148D01*
X160735146Y-125262728D01*
X160716633Y-125297364D01*
X160691720Y-125327720D01*
X160661364Y-125352633D01*
X160626728Y-125371146D01*
X160589148Y-125382546D01*
X160543925Y-125387000D01*
X159456075Y-125387000D01*
X159410852Y-125382546D01*
X159373272Y-125371146D01*
X159338636Y-125352633D01*
X159308280Y-125327720D01*
X159283367Y-125297364D01*
X159264854Y-125262728D01*
X159253454Y-125225148D01*
X159249000Y-125179925D01*
X159249000Y-124342075D01*
X159253454Y-124296852D01*
X159264854Y-124259272D01*
X159283367Y-124224636D01*
X159308280Y-124194280D01*
X159338636Y-124169367D01*
X159373272Y-124150854D01*
X159410852Y-124139454D01*
X159456075Y-124135000D01*
X160543925Y-124135000D01*
X160589148Y-124139454D01*
G37*
G36*
X165669148Y-124139454D02*
G01*
X165706728Y-124150854D01*
X165741364Y-124169367D01*
X165771720Y-124194280D01*
X165796633Y-124224636D01*
X165815146Y-124259272D01*
X165826546Y-124296852D01*
X165831000Y-124342075D01*
X165831000Y-125179925D01*
X165826546Y-125225148D01*
X165815146Y-125262728D01*
X165796633Y-125297364D01*
X165771720Y-125327720D01*
X165741364Y-125352633D01*
X165706728Y-125371146D01*
X165669148Y-125382546D01*
X165623925Y-125387000D01*
X164536075Y-125387000D01*
X164490852Y-125382546D01*
X164453272Y-125371146D01*
X164418636Y-125352633D01*
X164388280Y-125327720D01*
X164363367Y-125297364D01*
X164344854Y-125262728D01*
X164333454Y-125225148D01*
X164329000Y-125179925D01*
X164329000Y-124342075D01*
X164333454Y-124296852D01*
X164344854Y-124259272D01*
X164363367Y-124224636D01*
X164388280Y-124194280D01*
X164418636Y-124169367D01*
X164453272Y-124150854D01*
X164490852Y-124139454D01*
X164536075Y-124135000D01*
X165623925Y-124135000D01*
X165669148Y-124139454D01*
G37*
G36*
X158049148Y-124139454D02*
G01*
X158086728Y-124150854D01*
X158121364Y-124169367D01*
X158151720Y-124194280D01*
X158176633Y-124224636D01*
X158195146Y-124259272D01*
X158206546Y-124296852D01*
X158211000Y-124342075D01*
X158211000Y-125179925D01*
X158206546Y-125225148D01*
X158195146Y-125262728D01*
X158176633Y-125297364D01*
X158151720Y-125327720D01*
X158121364Y-125352633D01*
X158086728Y-125371146D01*
X158049148Y-125382546D01*
X158003925Y-125387000D01*
X156916075Y-125387000D01*
X156870852Y-125382546D01*
X156833272Y-125371146D01*
X156798636Y-125352633D01*
X156768280Y-125327720D01*
X156743367Y-125297364D01*
X156724854Y-125262728D01*
X156713454Y-125225148D01*
X156709000Y-125179925D01*
X156709000Y-124342075D01*
X156713454Y-124296852D01*
X156724854Y-124259272D01*
X156743367Y-124224636D01*
X156768280Y-124194280D01*
X156798636Y-124169367D01*
X156833272Y-124150854D01*
X156870852Y-124139454D01*
X156916075Y-124135000D01*
X158003925Y-124135000D01*
X158049148Y-124139454D01*
G37*
G36*
X143049148Y-124139454D02*
G01*
X143086728Y-124150854D01*
X143121364Y-124169367D01*
X143151720Y-124194280D01*
X143176633Y-124224636D01*
X143195146Y-124259272D01*
X143206546Y-124296852D01*
X143211000Y-124342075D01*
X143211000Y-125179925D01*
X143206546Y-125225148D01*
X143195146Y-125262728D01*
X143176633Y-125297364D01*
X143151720Y-125327720D01*
X143121364Y-125352633D01*
X143086728Y-125371146D01*
X143049148Y-125382546D01*
X143003925Y-125387000D01*
X141916075Y-125387000D01*
X141870852Y-125382546D01*
X141833272Y-125371146D01*
X141798636Y-125352633D01*
X141768280Y-125327720D01*
X141743367Y-125297364D01*
X141724854Y-125262728D01*
X141713454Y-125225148D01*
X141709000Y-125179925D01*
X141709000Y-124342075D01*
X141713454Y-124296852D01*
X141724854Y-124259272D01*
X141743367Y-124224636D01*
X141768280Y-124194280D01*
X141798636Y-124169367D01*
X141833272Y-124150854D01*
X141870852Y-124139454D01*
X141916075Y-124135000D01*
X143003925Y-124135000D01*
X143049148Y-124139454D01*
G37*
G36*
X163129148Y-124139454D02*
G01*
X163166728Y-124150854D01*
X163201364Y-124169367D01*
X163231720Y-124194280D01*
X163256633Y-124224636D01*
X163275146Y-124259272D01*
X163286546Y-124296852D01*
X163291000Y-124342075D01*
X163291000Y-125179925D01*
X163286546Y-125225148D01*
X163275146Y-125262728D01*
X163256633Y-125297364D01*
X163231720Y-125327720D01*
X163201364Y-125352633D01*
X163166728Y-125371146D01*
X163129148Y-125382546D01*
X163083925Y-125387000D01*
X161996075Y-125387000D01*
X161950852Y-125382546D01*
X161913272Y-125371146D01*
X161878636Y-125352633D01*
X161848280Y-125327720D01*
X161823367Y-125297364D01*
X161804854Y-125262728D01*
X161793454Y-125225148D01*
X161789000Y-125179925D01*
X161789000Y-124342075D01*
X161793454Y-124296852D01*
X161804854Y-124259272D01*
X161823367Y-124224636D01*
X161848280Y-124194280D01*
X161878636Y-124169367D01*
X161913272Y-124150854D01*
X161950852Y-124139454D01*
X161996075Y-124135000D01*
X163083925Y-124135000D01*
X163129148Y-124139454D01*
G37*
G36*
X189542674Y-120213465D02*
G01*
X189580367Y-120224899D01*
X189615103Y-120243466D01*
X189645548Y-120268452D01*
X189670534Y-120298897D01*
X189689101Y-120333633D01*
X189700535Y-120371326D01*
X189705000Y-120416661D01*
X189705000Y-121503339D01*
X189700535Y-121548674D01*
X189689101Y-121586367D01*
X189670534Y-121621103D01*
X189645548Y-121651548D01*
X189615103Y-121676534D01*
X189580367Y-121695101D01*
X189542674Y-121706535D01*
X189497339Y-121711000D01*
X188660661Y-121711000D01*
X188615326Y-121706535D01*
X188577633Y-121695101D01*
X188542897Y-121676534D01*
X188512452Y-121651548D01*
X188487466Y-121621103D01*
X188468899Y-121586367D01*
X188457465Y-121548674D01*
X188453000Y-121503339D01*
X188453000Y-120416661D01*
X188457465Y-120371326D01*
X188468899Y-120333633D01*
X188487466Y-120298897D01*
X188512452Y-120268452D01*
X188542897Y-120243466D01*
X188577633Y-120224899D01*
X188615326Y-120213465D01*
X188660661Y-120209000D01*
X189497339Y-120209000D01*
X189542674Y-120213465D01*
G37*
G36*
X187020674Y-120213465D02*
G01*
X187058367Y-120224899D01*
X187093103Y-120243466D01*
X187123548Y-120268452D01*
X187148534Y-120298897D01*
X187167101Y-120333633D01*
X187178535Y-120371326D01*
X187183000Y-120416661D01*
X187183000Y-121503339D01*
X187178535Y-121548674D01*
X187167101Y-121586367D01*
X187148534Y-121621103D01*
X187123548Y-121651548D01*
X187093103Y-121676534D01*
X187058367Y-121695101D01*
X187020674Y-121706535D01*
X186975339Y-121711000D01*
X186138661Y-121711000D01*
X186093326Y-121706535D01*
X186055633Y-121695101D01*
X186020897Y-121676534D01*
X185990452Y-121651548D01*
X185965466Y-121621103D01*
X185946899Y-121586367D01*
X185935465Y-121548674D01*
X185931000Y-121503339D01*
X185931000Y-120416661D01*
X185935465Y-120371326D01*
X185946899Y-120333633D01*
X185965466Y-120298897D01*
X185990452Y-120268452D01*
X186020897Y-120243466D01*
X186055633Y-120224899D01*
X186093326Y-120213465D01*
X186138661Y-120209000D01*
X186975339Y-120209000D01*
X187020674Y-120213465D01*
G37*
G36*
X184970674Y-120213465D02*
G01*
X185008367Y-120224899D01*
X185043103Y-120243466D01*
X185073548Y-120268452D01*
X185098534Y-120298897D01*
X185117101Y-120333633D01*
X185128535Y-120371326D01*
X185133000Y-120416661D01*
X185133000Y-121503339D01*
X185128535Y-121548674D01*
X185117101Y-121586367D01*
X185098534Y-121621103D01*
X185073548Y-121651548D01*
X185043103Y-121676534D01*
X185008367Y-121695101D01*
X184970674Y-121706535D01*
X184925339Y-121711000D01*
X184088661Y-121711000D01*
X184043326Y-121706535D01*
X184005633Y-121695101D01*
X183970897Y-121676534D01*
X183940452Y-121651548D01*
X183915466Y-121621103D01*
X183896899Y-121586367D01*
X183885465Y-121548674D01*
X183881000Y-121503339D01*
X183881000Y-120416661D01*
X183885465Y-120371326D01*
X183896899Y-120333633D01*
X183915466Y-120298897D01*
X183940452Y-120268452D01*
X183970897Y-120243466D01*
X184005633Y-120224899D01*
X184043326Y-120213465D01*
X184088661Y-120209000D01*
X184925339Y-120209000D01*
X184970674Y-120213465D01*
G37*
G36*
X191592674Y-120213465D02*
G01*
X191630367Y-120224899D01*
X191665103Y-120243466D01*
X191695548Y-120268452D01*
X191720534Y-120298897D01*
X191739101Y-120333633D01*
X191750535Y-120371326D01*
X191755000Y-120416661D01*
X191755000Y-121503339D01*
X191750535Y-121548674D01*
X191739101Y-121586367D01*
X191720534Y-121621103D01*
X191695548Y-121651548D01*
X191665103Y-121676534D01*
X191630367Y-121695101D01*
X191592674Y-121706535D01*
X191547339Y-121711000D01*
X190710661Y-121711000D01*
X190665326Y-121706535D01*
X190627633Y-121695101D01*
X190592897Y-121676534D01*
X190562452Y-121651548D01*
X190537466Y-121621103D01*
X190518899Y-121586367D01*
X190507465Y-121548674D01*
X190503000Y-121503339D01*
X190503000Y-120416661D01*
X190507465Y-120371326D01*
X190518899Y-120333633D01*
X190537466Y-120298897D01*
X190562452Y-120268452D01*
X190592897Y-120243466D01*
X190627633Y-120224899D01*
X190665326Y-120213465D01*
X190710661Y-120209000D01*
X191547339Y-120209000D01*
X191592674Y-120213465D01*
G37*
G36*
X147488000Y-120101000D02*
G01*
X144836000Y-120101000D01*
X144836000Y-118939000D01*
X147488000Y-118939000D01*
X147488000Y-120101000D01*
G37*
G36*
X189533674Y-118181465D02*
G01*
X189571367Y-118192899D01*
X189606103Y-118211466D01*
X189636548Y-118236452D01*
X189661534Y-118266897D01*
X189680101Y-118301633D01*
X189691535Y-118339326D01*
X189696000Y-118384661D01*
X189696000Y-119471339D01*
X189691535Y-119516674D01*
X189680101Y-119554367D01*
X189661534Y-119589103D01*
X189636548Y-119619548D01*
X189606103Y-119644534D01*
X189571367Y-119663101D01*
X189533674Y-119674535D01*
X189488339Y-119679000D01*
X188651661Y-119679000D01*
X188606326Y-119674535D01*
X188568633Y-119663101D01*
X188533897Y-119644534D01*
X188503452Y-119619548D01*
X188478466Y-119589103D01*
X188459899Y-119554367D01*
X188448465Y-119516674D01*
X188444000Y-119471339D01*
X188444000Y-118384661D01*
X188448465Y-118339326D01*
X188459899Y-118301633D01*
X188478466Y-118266897D01*
X188503452Y-118236452D01*
X188533897Y-118211466D01*
X188568633Y-118192899D01*
X188606326Y-118181465D01*
X188651661Y-118177000D01*
X189488339Y-118177000D01*
X189533674Y-118181465D01*
G37*
G36*
X191583674Y-118181465D02*
G01*
X191621367Y-118192899D01*
X191656103Y-118211466D01*
X191686548Y-118236452D01*
X191711534Y-118266897D01*
X191730101Y-118301633D01*
X191741535Y-118339326D01*
X191746000Y-118384661D01*
X191746000Y-119471339D01*
X191741535Y-119516674D01*
X191730101Y-119554367D01*
X191711534Y-119589103D01*
X191686548Y-119619548D01*
X191656103Y-119644534D01*
X191621367Y-119663101D01*
X191583674Y-119674535D01*
X191538339Y-119679000D01*
X190701661Y-119679000D01*
X190656326Y-119674535D01*
X190618633Y-119663101D01*
X190583897Y-119644534D01*
X190553452Y-119619548D01*
X190528466Y-119589103D01*
X190509899Y-119554367D01*
X190498465Y-119516674D01*
X190494000Y-119471339D01*
X190494000Y-118384661D01*
X190498465Y-118339326D01*
X190509899Y-118301633D01*
X190528466Y-118266897D01*
X190553452Y-118236452D01*
X190583897Y-118211466D01*
X190618633Y-118192899D01*
X190656326Y-118181465D01*
X190701661Y-118177000D01*
X191538339Y-118177000D01*
X191583674Y-118181465D01*
G37*
G36*
X184970674Y-118181465D02*
G01*
X185008367Y-118192899D01*
X185043103Y-118211466D01*
X185073548Y-118236452D01*
X185098534Y-118266897D01*
X185117101Y-118301633D01*
X185128535Y-118339326D01*
X185133000Y-118384661D01*
X185133000Y-119471339D01*
X185128535Y-119516674D01*
X185117101Y-119554367D01*
X185098534Y-119589103D01*
X185073548Y-119619548D01*
X185043103Y-119644534D01*
X185008367Y-119663101D01*
X184970674Y-119674535D01*
X184925339Y-119679000D01*
X184088661Y-119679000D01*
X184043326Y-119674535D01*
X184005633Y-119663101D01*
X183970897Y-119644534D01*
X183940452Y-119619548D01*
X183915466Y-119589103D01*
X183896899Y-119554367D01*
X183885465Y-119516674D01*
X183881000Y-119471339D01*
X183881000Y-118384661D01*
X183885465Y-118339326D01*
X183896899Y-118301633D01*
X183915466Y-118266897D01*
X183940452Y-118236452D01*
X183970897Y-118211466D01*
X184005633Y-118192899D01*
X184043326Y-118181465D01*
X184088661Y-118177000D01*
X184925339Y-118177000D01*
X184970674Y-118181465D01*
G37*
G36*
X187020674Y-118181465D02*
G01*
X187058367Y-118192899D01*
X187093103Y-118211466D01*
X187123548Y-118236452D01*
X187148534Y-118266897D01*
X187167101Y-118301633D01*
X187178535Y-118339326D01*
X187183000Y-118384661D01*
X187183000Y-119471339D01*
X187178535Y-119516674D01*
X187167101Y-119554367D01*
X187148534Y-119589103D01*
X187123548Y-119619548D01*
X187093103Y-119644534D01*
X187058367Y-119663101D01*
X187020674Y-119674535D01*
X186975339Y-119679000D01*
X186138661Y-119679000D01*
X186093326Y-119674535D01*
X186055633Y-119663101D01*
X186020897Y-119644534D01*
X185990452Y-119619548D01*
X185965466Y-119589103D01*
X185946899Y-119554367D01*
X185935465Y-119516674D01*
X185931000Y-119471339D01*
X185931000Y-118384661D01*
X185935465Y-118339326D01*
X185946899Y-118301633D01*
X185965466Y-118266897D01*
X185990452Y-118236452D01*
X186020897Y-118211466D01*
X186055633Y-118192899D01*
X186093326Y-118181465D01*
X186138661Y-118177000D01*
X186975339Y-118177000D01*
X187020674Y-118181465D01*
G37*
G36*
X147488000Y-117901000D02*
G01*
X144836000Y-117901000D01*
X144836000Y-116739000D01*
X147488000Y-116739000D01*
X147488000Y-117901000D01*
G37*
G36*
X184961674Y-116149465D02*
G01*
X184999367Y-116160899D01*
X185034103Y-116179466D01*
X185064548Y-116204452D01*
X185089534Y-116234897D01*
X185108101Y-116269633D01*
X185119535Y-116307326D01*
X185124000Y-116352661D01*
X185124000Y-117439339D01*
X185119535Y-117484674D01*
X185108101Y-117522367D01*
X185089534Y-117557103D01*
X185064548Y-117587548D01*
X185034103Y-117612534D01*
X184999367Y-117631101D01*
X184961674Y-117642535D01*
X184916339Y-117647000D01*
X184079661Y-117647000D01*
X184034326Y-117642535D01*
X183996633Y-117631101D01*
X183961897Y-117612534D01*
X183931452Y-117587548D01*
X183906466Y-117557103D01*
X183887899Y-117522367D01*
X183876465Y-117484674D01*
X183872000Y-117439339D01*
X183872000Y-116352661D01*
X183876465Y-116307326D01*
X183887899Y-116269633D01*
X183906466Y-116234897D01*
X183931452Y-116204452D01*
X183961897Y-116179466D01*
X183996633Y-116160899D01*
X184034326Y-116149465D01*
X184079661Y-116145000D01*
X184916339Y-116145000D01*
X184961674Y-116149465D01*
G37*
G36*
X187011674Y-116149465D02*
G01*
X187049367Y-116160899D01*
X187084103Y-116179466D01*
X187114548Y-116204452D01*
X187139534Y-116234897D01*
X187158101Y-116269633D01*
X187169535Y-116307326D01*
X187174000Y-116352661D01*
X187174000Y-117439339D01*
X187169535Y-117484674D01*
X187158101Y-117522367D01*
X187139534Y-117557103D01*
X187114548Y-117587548D01*
X187084103Y-117612534D01*
X187049367Y-117631101D01*
X187011674Y-117642535D01*
X186966339Y-117647000D01*
X186129661Y-117647000D01*
X186084326Y-117642535D01*
X186046633Y-117631101D01*
X186011897Y-117612534D01*
X185981452Y-117587548D01*
X185956466Y-117557103D01*
X185937899Y-117522367D01*
X185926465Y-117484674D01*
X185922000Y-117439339D01*
X185922000Y-116352661D01*
X185926465Y-116307326D01*
X185937899Y-116269633D01*
X185956466Y-116234897D01*
X185981452Y-116204452D01*
X186011897Y-116179466D01*
X186046633Y-116160899D01*
X186084326Y-116149465D01*
X186129661Y-116145000D01*
X186966339Y-116145000D01*
X187011674Y-116149465D01*
G37*
G36*
X189551674Y-116149465D02*
G01*
X189589367Y-116160899D01*
X189624103Y-116179466D01*
X189654548Y-116204452D01*
X189679534Y-116234897D01*
X189698101Y-116269633D01*
X189709535Y-116307326D01*
X189714000Y-116352661D01*
X189714000Y-117439339D01*
X189709535Y-117484674D01*
X189698101Y-117522367D01*
X189679534Y-117557103D01*
X189654548Y-117587548D01*
X189624103Y-117612534D01*
X189589367Y-117631101D01*
X189551674Y-117642535D01*
X189506339Y-117647000D01*
X188669661Y-117647000D01*
X188624326Y-117642535D01*
X188586633Y-117631101D01*
X188551897Y-117612534D01*
X188521452Y-117587548D01*
X188496466Y-117557103D01*
X188477899Y-117522367D01*
X188466465Y-117484674D01*
X188462000Y-117439339D01*
X188462000Y-116352661D01*
X188466465Y-116307326D01*
X188477899Y-116269633D01*
X188496466Y-116234897D01*
X188521452Y-116204452D01*
X188551897Y-116179466D01*
X188586633Y-116160899D01*
X188624326Y-116149465D01*
X188669661Y-116145000D01*
X189506339Y-116145000D01*
X189551674Y-116149465D01*
G37*
G36*
X191601674Y-116149465D02*
G01*
X191639367Y-116160899D01*
X191674103Y-116179466D01*
X191704548Y-116204452D01*
X191729534Y-116234897D01*
X191748101Y-116269633D01*
X191759535Y-116307326D01*
X191764000Y-116352661D01*
X191764000Y-117439339D01*
X191759535Y-117484674D01*
X191748101Y-117522367D01*
X191729534Y-117557103D01*
X191704548Y-117587548D01*
X191674103Y-117612534D01*
X191639367Y-117631101D01*
X191601674Y-117642535D01*
X191556339Y-117647000D01*
X190719661Y-117647000D01*
X190674326Y-117642535D01*
X190636633Y-117631101D01*
X190601897Y-117612534D01*
X190571452Y-117587548D01*
X190546466Y-117557103D01*
X190527899Y-117522367D01*
X190516465Y-117484674D01*
X190512000Y-117439339D01*
X190512000Y-116352661D01*
X190516465Y-116307326D01*
X190527899Y-116269633D01*
X190546466Y-116234897D01*
X190571452Y-116204452D01*
X190601897Y-116179466D01*
X190636633Y-116160899D01*
X190674326Y-116149465D01*
X190719661Y-116145000D01*
X191556339Y-116145000D01*
X191601674Y-116149465D01*
G37*
G36*
X184961674Y-114117465D02*
G01*
X184999367Y-114128899D01*
X185034103Y-114147466D01*
X185064548Y-114172452D01*
X185089534Y-114202897D01*
X185108101Y-114237633D01*
X185119535Y-114275326D01*
X185124000Y-114320661D01*
X185124000Y-115407339D01*
X185119535Y-115452674D01*
X185108101Y-115490367D01*
X185089534Y-115525103D01*
X185064548Y-115555548D01*
X185034103Y-115580534D01*
X184999367Y-115599101D01*
X184961674Y-115610535D01*
X184916339Y-115615000D01*
X184079661Y-115615000D01*
X184034326Y-115610535D01*
X183996633Y-115599101D01*
X183961897Y-115580534D01*
X183931452Y-115555548D01*
X183906466Y-115525103D01*
X183887899Y-115490367D01*
X183876465Y-115452674D01*
X183872000Y-115407339D01*
X183872000Y-114320661D01*
X183876465Y-114275326D01*
X183887899Y-114237633D01*
X183906466Y-114202897D01*
X183931452Y-114172452D01*
X183961897Y-114147466D01*
X183996633Y-114128899D01*
X184034326Y-114117465D01*
X184079661Y-114113000D01*
X184916339Y-114113000D01*
X184961674Y-114117465D01*
G37*
G36*
X187011674Y-114117465D02*
G01*
X187049367Y-114128899D01*
X187084103Y-114147466D01*
X187114548Y-114172452D01*
X187139534Y-114202897D01*
X187158101Y-114237633D01*
X187169535Y-114275326D01*
X187174000Y-114320661D01*
X187174000Y-115407339D01*
X187169535Y-115452674D01*
X187158101Y-115490367D01*
X187139534Y-115525103D01*
X187114548Y-115555548D01*
X187084103Y-115580534D01*
X187049367Y-115599101D01*
X187011674Y-115610535D01*
X186966339Y-115615000D01*
X186129661Y-115615000D01*
X186084326Y-115610535D01*
X186046633Y-115599101D01*
X186011897Y-115580534D01*
X185981452Y-115555548D01*
X185956466Y-115525103D01*
X185937899Y-115490367D01*
X185926465Y-115452674D01*
X185922000Y-115407339D01*
X185922000Y-114320661D01*
X185926465Y-114275326D01*
X185937899Y-114237633D01*
X185956466Y-114202897D01*
X185981452Y-114172452D01*
X186011897Y-114147466D01*
X186046633Y-114128899D01*
X186084326Y-114117465D01*
X186129661Y-114113000D01*
X186966339Y-114113000D01*
X187011674Y-114117465D01*
G37*
G36*
X191601674Y-114117465D02*
G01*
X191639367Y-114128899D01*
X191674103Y-114147466D01*
X191704548Y-114172452D01*
X191729534Y-114202897D01*
X191748101Y-114237633D01*
X191759535Y-114275326D01*
X191764000Y-114320661D01*
X191764000Y-115407339D01*
X191759535Y-115452674D01*
X191748101Y-115490367D01*
X191729534Y-115525103D01*
X191704548Y-115555548D01*
X191674103Y-115580534D01*
X191639367Y-115599101D01*
X191601674Y-115610535D01*
X191556339Y-115615000D01*
X190719661Y-115615000D01*
X190674326Y-115610535D01*
X190636633Y-115599101D01*
X190601897Y-115580534D01*
X190571452Y-115555548D01*
X190546466Y-115525103D01*
X190527899Y-115490367D01*
X190516465Y-115452674D01*
X190512000Y-115407339D01*
X190512000Y-114320661D01*
X190516465Y-114275326D01*
X190527899Y-114237633D01*
X190546466Y-114202897D01*
X190571452Y-114172452D01*
X190601897Y-114147466D01*
X190636633Y-114128899D01*
X190674326Y-114117465D01*
X190719661Y-114113000D01*
X191556339Y-114113000D01*
X191601674Y-114117465D01*
G37*
G36*
X189551674Y-114117465D02*
G01*
X189589367Y-114128899D01*
X189624103Y-114147466D01*
X189654548Y-114172452D01*
X189679534Y-114202897D01*
X189698101Y-114237633D01*
X189709535Y-114275326D01*
X189714000Y-114320661D01*
X189714000Y-115407339D01*
X189709535Y-115452674D01*
X189698101Y-115490367D01*
X189679534Y-115525103D01*
X189654548Y-115555548D01*
X189624103Y-115580534D01*
X189589367Y-115599101D01*
X189551674Y-115610535D01*
X189506339Y-115615000D01*
X188669661Y-115615000D01*
X188624326Y-115610535D01*
X188586633Y-115599101D01*
X188551897Y-115580534D01*
X188521452Y-115555548D01*
X188496466Y-115525103D01*
X188477899Y-115490367D01*
X188466465Y-115452674D01*
X188462000Y-115407339D01*
X188462000Y-114320661D01*
X188466465Y-114275326D01*
X188477899Y-114237633D01*
X188496466Y-114202897D01*
X188521452Y-114172452D01*
X188551897Y-114147466D01*
X188586633Y-114128899D01*
X188624326Y-114117465D01*
X188669661Y-114113000D01*
X189506339Y-114113000D01*
X189551674Y-114117465D01*
G37*
G36*
X165292674Y-108663465D02*
G01*
X165330367Y-108674899D01*
X165365103Y-108693466D01*
X165395548Y-108718452D01*
X165420534Y-108748897D01*
X165439101Y-108783633D01*
X165450535Y-108821326D01*
X165455000Y-108866661D01*
X165455000Y-109703339D01*
X165450535Y-109748674D01*
X165439101Y-109786367D01*
X165420534Y-109821103D01*
X165395548Y-109851548D01*
X165365103Y-109876534D01*
X165330367Y-109895101D01*
X165292674Y-109906535D01*
X165247339Y-109911000D01*
X164160661Y-109911000D01*
X164115326Y-109906535D01*
X164077633Y-109895101D01*
X164042897Y-109876534D01*
X164012452Y-109851548D01*
X163987466Y-109821103D01*
X163968899Y-109786367D01*
X163957465Y-109748674D01*
X163953000Y-109703339D01*
X163953000Y-108866661D01*
X163957465Y-108821326D01*
X163968899Y-108783633D01*
X163987466Y-108748897D01*
X164012452Y-108718452D01*
X164042897Y-108693466D01*
X164077633Y-108674899D01*
X164115326Y-108663465D01*
X164160661Y-108659000D01*
X165247339Y-108659000D01*
X165292674Y-108663465D01*
G37*
G36*
X165292674Y-106613465D02*
G01*
X165330367Y-106624899D01*
X165365103Y-106643466D01*
X165395548Y-106668452D01*
X165420534Y-106698897D01*
X165439101Y-106733633D01*
X165450535Y-106771326D01*
X165455000Y-106816661D01*
X165455000Y-107653339D01*
X165450535Y-107698674D01*
X165439101Y-107736367D01*
X165420534Y-107771103D01*
X165395548Y-107801548D01*
X165365103Y-107826534D01*
X165330367Y-107845101D01*
X165292674Y-107856535D01*
X165247339Y-107861000D01*
X164160661Y-107861000D01*
X164115326Y-107856535D01*
X164077633Y-107845101D01*
X164042897Y-107826534D01*
X164012452Y-107801548D01*
X163987466Y-107771103D01*
X163968899Y-107736367D01*
X163957465Y-107698674D01*
X163953000Y-107653339D01*
X163953000Y-106816661D01*
X163957465Y-106771326D01*
X163968899Y-106733633D01*
X163987466Y-106698897D01*
X164012452Y-106668452D01*
X164042897Y-106643466D01*
X164077633Y-106624899D01*
X164115326Y-106613465D01*
X164160661Y-106609000D01*
X165247339Y-106609000D01*
X165292674Y-106613465D01*
G37*
G36*
X166229834Y-100652045D02*
G01*
X166236849Y-100654173D01*
X166243315Y-100657630D01*
X166253749Y-100666192D01*
X167359470Y-101771913D01*
X167368032Y-101782347D01*
X167371489Y-101788813D01*
X167373617Y-101795828D01*
X167374335Y-101803123D01*
X167373617Y-101810418D01*
X167371489Y-101817433D01*
X167368032Y-101823899D01*
X167359470Y-101834333D01*
X167137633Y-102056170D01*
X167127199Y-102064732D01*
X167120733Y-102068189D01*
X167105796Y-102072720D01*
X167083157Y-102082098D01*
X167062783Y-102095712D01*
X167045456Y-102113039D01*
X167031843Y-102133414D01*
X167022467Y-102156049D01*
X167017936Y-102170986D01*
X167014479Y-102177452D01*
X167005917Y-102187886D01*
X166784080Y-102409723D01*
X166773646Y-102418285D01*
X166767180Y-102421742D01*
X166752243Y-102426273D01*
X166729604Y-102435651D01*
X166709230Y-102449265D01*
X166691903Y-102466592D01*
X166678290Y-102486967D01*
X166668914Y-102509602D01*
X166664383Y-102524539D01*
X166660926Y-102531005D01*
X166652364Y-102541439D01*
X166430527Y-102763276D01*
X166420093Y-102771838D01*
X166413626Y-102775295D01*
X166398690Y-102779826D01*
X166376051Y-102789203D01*
X166355677Y-102802817D01*
X166338350Y-102820144D01*
X166324736Y-102840519D01*
X166315360Y-102863156D01*
X166310829Y-102878092D01*
X166307372Y-102884559D01*
X166298810Y-102894993D01*
X166076973Y-103116830D01*
X166066539Y-103125392D01*
X166060073Y-103128849D01*
X166045136Y-103133380D01*
X166022497Y-103142758D01*
X166002123Y-103156372D01*
X165984796Y-103173699D01*
X165971183Y-103194074D01*
X165961807Y-103216709D01*
X165957276Y-103231646D01*
X165953819Y-103238112D01*
X165945257Y-103248546D01*
X165723420Y-103470383D01*
X165712986Y-103478945D01*
X165706519Y-103482402D01*
X165691583Y-103486933D01*
X165668944Y-103496310D01*
X165648570Y-103509924D01*
X165631243Y-103527251D01*
X165617629Y-103547626D01*
X165608253Y-103570263D01*
X165603722Y-103585199D01*
X165600265Y-103591666D01*
X165591703Y-103602100D01*
X165369866Y-103823937D01*
X165359432Y-103832499D01*
X165352966Y-103835956D01*
X165338029Y-103840487D01*
X165315390Y-103849865D01*
X165295016Y-103863479D01*
X165277689Y-103880806D01*
X165264076Y-103901181D01*
X165254700Y-103923816D01*
X165250169Y-103938753D01*
X165246712Y-103945219D01*
X165238150Y-103955653D01*
X165016313Y-104177490D01*
X165005879Y-104186052D01*
X164999413Y-104189509D01*
X164984476Y-104194040D01*
X164961837Y-104203418D01*
X164941463Y-104217032D01*
X164924136Y-104234359D01*
X164910523Y-104254734D01*
X164901147Y-104277369D01*
X164896616Y-104292306D01*
X164893159Y-104298772D01*
X164884597Y-104309206D01*
X164662760Y-104531043D01*
X164652326Y-104539605D01*
X164645859Y-104543062D01*
X164630923Y-104547593D01*
X164608284Y-104556970D01*
X164587910Y-104570584D01*
X164570583Y-104587911D01*
X164556969Y-104608286D01*
X164547593Y-104630923D01*
X164543062Y-104645859D01*
X164539605Y-104652326D01*
X164531043Y-104662760D01*
X164309206Y-104884597D01*
X164298772Y-104893159D01*
X164292306Y-104896616D01*
X164277369Y-104901147D01*
X164254730Y-104910525D01*
X164234356Y-104924139D01*
X164217029Y-104941466D01*
X164203416Y-104961841D01*
X164194040Y-104984476D01*
X164189509Y-104999413D01*
X164186052Y-105005879D01*
X164177490Y-105016313D01*
X163955653Y-105238150D01*
X163945219Y-105246712D01*
X163938753Y-105250169D01*
X163923816Y-105254700D01*
X163901177Y-105264078D01*
X163880803Y-105277692D01*
X163863476Y-105295019D01*
X163849863Y-105315394D01*
X163840487Y-105338029D01*
X163835956Y-105352966D01*
X163832499Y-105359432D01*
X163823937Y-105369866D01*
X163602100Y-105591703D01*
X163591666Y-105600265D01*
X163585199Y-105603722D01*
X163570263Y-105608253D01*
X163547624Y-105617630D01*
X163527250Y-105631244D01*
X163509923Y-105648571D01*
X163496309Y-105668946D01*
X163486933Y-105691583D01*
X163482402Y-105706519D01*
X163478945Y-105712986D01*
X163470383Y-105723420D01*
X163248546Y-105945257D01*
X163238112Y-105953819D01*
X163231646Y-105957276D01*
X163216709Y-105961807D01*
X163194070Y-105971185D01*
X163173696Y-105984799D01*
X163156369Y-106002126D01*
X163142756Y-106022501D01*
X163133380Y-106045136D01*
X163128849Y-106060073D01*
X163125392Y-106066539D01*
X163116830Y-106076973D01*
X162894993Y-106298810D01*
X162884559Y-106307372D01*
X162878092Y-106310829D01*
X162863156Y-106315360D01*
X162840517Y-106324737D01*
X162820143Y-106338351D01*
X162802816Y-106355678D01*
X162789202Y-106376053D01*
X162779826Y-106398690D01*
X162775295Y-106413626D01*
X162771838Y-106420093D01*
X162763276Y-106430527D01*
X162541439Y-106652364D01*
X162531005Y-106660926D01*
X162524539Y-106664383D01*
X162509602Y-106668914D01*
X162486963Y-106678292D01*
X162466589Y-106691906D01*
X162449262Y-106709233D01*
X162435649Y-106729608D01*
X162426273Y-106752243D01*
X162421742Y-106767180D01*
X162418285Y-106773646D01*
X162409723Y-106784080D01*
X162187886Y-107005917D01*
X162177452Y-107014479D01*
X162170986Y-107017936D01*
X162156049Y-107022467D01*
X162133410Y-107031845D01*
X162113036Y-107045459D01*
X162095709Y-107062786D01*
X162082096Y-107083161D01*
X162072720Y-107105796D01*
X162068189Y-107120733D01*
X162064732Y-107127199D01*
X162056170Y-107137633D01*
X161834333Y-107359470D01*
X161823899Y-107368032D01*
X161817433Y-107371489D01*
X161810418Y-107373617D01*
X161803123Y-107374335D01*
X161795828Y-107373617D01*
X161788813Y-107371489D01*
X161782347Y-107368032D01*
X161771913Y-107359470D01*
X160666192Y-106253749D01*
X160657630Y-106243315D01*
X160654173Y-106236849D01*
X160652045Y-106229834D01*
X160651327Y-106222539D01*
X160652045Y-106215244D01*
X160654173Y-106208229D01*
X160657630Y-106201763D01*
X160666192Y-106191329D01*
X160888029Y-105969492D01*
X160898463Y-105960930D01*
X160904929Y-105957473D01*
X160919866Y-105952942D01*
X160942505Y-105943564D01*
X160962879Y-105929950D01*
X160980206Y-105912623D01*
X160993819Y-105892248D01*
X161003195Y-105869613D01*
X161007726Y-105854676D01*
X161011183Y-105848210D01*
X161019745Y-105837776D01*
X161241582Y-105615939D01*
X161252016Y-105607377D01*
X161258482Y-105603920D01*
X161273419Y-105599389D01*
X161296058Y-105590011D01*
X161316432Y-105576397D01*
X161333759Y-105559070D01*
X161347372Y-105538695D01*
X161356748Y-105516060D01*
X161361279Y-105501123D01*
X161364736Y-105494657D01*
X161373298Y-105484223D01*
X161595135Y-105262386D01*
X161605569Y-105253824D01*
X161612036Y-105250367D01*
X161626972Y-105245836D01*
X161649611Y-105236459D01*
X161669985Y-105222845D01*
X161687312Y-105205518D01*
X161700926Y-105185143D01*
X161710302Y-105162506D01*
X161714833Y-105147570D01*
X161718290Y-105141103D01*
X161726852Y-105130669D01*
X161948689Y-104908832D01*
X161959123Y-104900270D01*
X161965589Y-104896813D01*
X161980526Y-104892282D01*
X162003165Y-104882904D01*
X162023539Y-104869290D01*
X162040866Y-104851963D01*
X162054479Y-104831588D01*
X162063855Y-104808953D01*
X162068386Y-104794016D01*
X162071843Y-104787550D01*
X162080405Y-104777116D01*
X162302242Y-104555279D01*
X162312676Y-104546717D01*
X162319143Y-104543260D01*
X162334079Y-104538729D01*
X162356718Y-104529352D01*
X162377092Y-104515738D01*
X162394419Y-104498411D01*
X162408033Y-104478036D01*
X162417409Y-104455399D01*
X162421940Y-104440463D01*
X162425397Y-104433996D01*
X162433959Y-104423562D01*
X162655796Y-104201725D01*
X162666230Y-104193163D01*
X162672696Y-104189706D01*
X162687633Y-104185175D01*
X162710272Y-104175797D01*
X162730646Y-104162183D01*
X162747973Y-104144856D01*
X162761586Y-104124481D01*
X162770962Y-104101846D01*
X162775493Y-104086909D01*
X162778950Y-104080443D01*
X162787512Y-104070009D01*
X163009349Y-103848172D01*
X163019783Y-103839610D01*
X163026249Y-103836153D01*
X163041186Y-103831622D01*
X163063825Y-103822244D01*
X163084199Y-103808630D01*
X163101526Y-103791303D01*
X163115139Y-103770928D01*
X163124515Y-103748293D01*
X163129046Y-103733356D01*
X163132503Y-103726890D01*
X163141065Y-103716456D01*
X163362902Y-103494619D01*
X163373336Y-103486057D01*
X163379803Y-103482600D01*
X163394739Y-103478069D01*
X163417378Y-103468692D01*
X163437752Y-103455078D01*
X163455079Y-103437751D01*
X163468693Y-103417376D01*
X163478069Y-103394739D01*
X163482600Y-103379803D01*
X163486057Y-103373336D01*
X163494619Y-103362902D01*
X163716456Y-103141065D01*
X163726890Y-103132503D01*
X163733356Y-103129046D01*
X163748293Y-103124515D01*
X163770932Y-103115137D01*
X163791306Y-103101523D01*
X163808633Y-103084196D01*
X163822246Y-103063821D01*
X163831622Y-103041186D01*
X163836153Y-103026249D01*
X163839610Y-103019783D01*
X163848172Y-103009349D01*
X164070009Y-102787512D01*
X164080443Y-102778950D01*
X164086909Y-102775493D01*
X164101846Y-102770962D01*
X164124485Y-102761584D01*
X164144859Y-102747970D01*
X164162186Y-102730643D01*
X164175799Y-102710268D01*
X164185175Y-102687633D01*
X164189706Y-102672696D01*
X164193163Y-102666230D01*
X164201725Y-102655796D01*
X164423562Y-102433959D01*
X164433996Y-102425397D01*
X164440463Y-102421940D01*
X164455399Y-102417409D01*
X164478038Y-102408032D01*
X164498412Y-102394418D01*
X164515739Y-102377091D01*
X164529353Y-102356716D01*
X164538729Y-102334079D01*
X164543260Y-102319143D01*
X164546717Y-102312676D01*
X164555279Y-102302242D01*
X164777116Y-102080405D01*
X164787550Y-102071843D01*
X164794016Y-102068386D01*
X164808953Y-102063855D01*
X164831592Y-102054477D01*
X164851966Y-102040863D01*
X164869293Y-102023536D01*
X164882906Y-102003161D01*
X164892282Y-101980526D01*
X164896813Y-101965589D01*
X164900270Y-101959123D01*
X164908832Y-101948689D01*
X165130669Y-101726852D01*
X165141103Y-101718290D01*
X165147570Y-101714833D01*
X165162506Y-101710302D01*
X165185145Y-101700925D01*
X165205519Y-101687311D01*
X165222846Y-101669984D01*
X165236460Y-101649609D01*
X165245836Y-101626972D01*
X165250367Y-101612036D01*
X165253824Y-101605569D01*
X165262386Y-101595135D01*
X165484223Y-101373298D01*
X165494657Y-101364736D01*
X165501123Y-101361279D01*
X165516060Y-101356748D01*
X165538699Y-101347370D01*
X165559073Y-101333756D01*
X165576400Y-101316429D01*
X165590013Y-101296054D01*
X165599389Y-101273419D01*
X165603920Y-101258482D01*
X165607377Y-101252016D01*
X165615939Y-101241582D01*
X165837776Y-101019745D01*
X165848210Y-101011183D01*
X165854676Y-101007726D01*
X165869613Y-101003195D01*
X165892252Y-100993817D01*
X165912626Y-100980203D01*
X165929953Y-100962876D01*
X165943566Y-100942501D01*
X165952942Y-100919866D01*
X165957473Y-100904929D01*
X165960930Y-100898463D01*
X165969492Y-100888029D01*
X166191329Y-100666192D01*
X166201763Y-100657630D01*
X166208229Y-100654173D01*
X166215244Y-100652045D01*
X166222539Y-100651327D01*
X166229834Y-100652045D01*
G37*
G36*
X153784756Y-100652045D02*
G01*
X153791771Y-100654173D01*
X153798237Y-100657630D01*
X153808671Y-100666192D01*
X154030508Y-100888029D01*
X154039070Y-100898463D01*
X154042527Y-100904929D01*
X154047058Y-100919866D01*
X154056436Y-100942505D01*
X154070050Y-100962879D01*
X154087377Y-100980206D01*
X154107752Y-100993819D01*
X154130387Y-101003195D01*
X154145324Y-101007726D01*
X154151790Y-101011183D01*
X154162224Y-101019745D01*
X154384061Y-101241582D01*
X154392623Y-101252016D01*
X154396080Y-101258482D01*
X154400611Y-101273419D01*
X154409989Y-101296058D01*
X154423603Y-101316432D01*
X154440930Y-101333759D01*
X154461305Y-101347372D01*
X154483940Y-101356748D01*
X154498877Y-101361279D01*
X154505343Y-101364736D01*
X154515777Y-101373298D01*
X154737614Y-101595135D01*
X154746176Y-101605569D01*
X154749633Y-101612036D01*
X154754164Y-101626972D01*
X154763541Y-101649611D01*
X154777155Y-101669985D01*
X154794482Y-101687312D01*
X154814857Y-101700926D01*
X154837494Y-101710302D01*
X154852430Y-101714833D01*
X154858897Y-101718290D01*
X154869331Y-101726852D01*
X155091168Y-101948689D01*
X155099730Y-101959123D01*
X155103187Y-101965589D01*
X155107718Y-101980526D01*
X155117096Y-102003165D01*
X155130710Y-102023539D01*
X155148037Y-102040866D01*
X155168412Y-102054479D01*
X155191047Y-102063855D01*
X155205984Y-102068386D01*
X155212450Y-102071843D01*
X155222884Y-102080405D01*
X155444721Y-102302242D01*
X155453283Y-102312676D01*
X155456740Y-102319143D01*
X155461271Y-102334079D01*
X155470648Y-102356718D01*
X155484262Y-102377092D01*
X155501589Y-102394419D01*
X155521964Y-102408033D01*
X155544601Y-102417409D01*
X155559537Y-102421940D01*
X155566004Y-102425397D01*
X155576438Y-102433959D01*
X155798275Y-102655796D01*
X155806837Y-102666230D01*
X155810294Y-102672696D01*
X155814825Y-102687633D01*
X155824203Y-102710272D01*
X155837817Y-102730646D01*
X155855144Y-102747973D01*
X155875519Y-102761586D01*
X155898154Y-102770962D01*
X155913091Y-102775493D01*
X155919557Y-102778950D01*
X155929991Y-102787512D01*
X156151828Y-103009349D01*
X156160390Y-103019783D01*
X156163847Y-103026249D01*
X156168378Y-103041186D01*
X156177756Y-103063825D01*
X156191370Y-103084199D01*
X156208697Y-103101526D01*
X156229072Y-103115139D01*
X156251707Y-103124515D01*
X156266644Y-103129046D01*
X156273110Y-103132503D01*
X156283544Y-103141065D01*
X156505381Y-103362902D01*
X156513943Y-103373336D01*
X156517400Y-103379803D01*
X156521931Y-103394739D01*
X156531308Y-103417378D01*
X156544922Y-103437752D01*
X156562249Y-103455079D01*
X156582624Y-103468693D01*
X156605261Y-103478069D01*
X156620197Y-103482600D01*
X156626664Y-103486057D01*
X156637098Y-103494619D01*
X156858935Y-103716456D01*
X156867497Y-103726890D01*
X156870954Y-103733356D01*
X156875485Y-103748293D01*
X156884863Y-103770932D01*
X156898477Y-103791306D01*
X156915804Y-103808633D01*
X156936179Y-103822246D01*
X156958814Y-103831622D01*
X156973751Y-103836153D01*
X156980217Y-103839610D01*
X156990651Y-103848172D01*
X157212488Y-104070009D01*
X157221050Y-104080443D01*
X157224507Y-104086909D01*
X157229038Y-104101846D01*
X157238416Y-104124485D01*
X157252030Y-104144859D01*
X157269357Y-104162186D01*
X157289732Y-104175799D01*
X157312367Y-104185175D01*
X157327304Y-104189706D01*
X157333770Y-104193163D01*
X157344204Y-104201725D01*
X157566041Y-104423562D01*
X157574603Y-104433996D01*
X157578060Y-104440463D01*
X157582591Y-104455399D01*
X157591968Y-104478038D01*
X157605582Y-104498412D01*
X157622909Y-104515739D01*
X157643284Y-104529353D01*
X157665921Y-104538729D01*
X157680857Y-104543260D01*
X157687324Y-104546717D01*
X157697758Y-104555279D01*
X157919595Y-104777116D01*
X157928157Y-104787550D01*
X157931614Y-104794016D01*
X157936145Y-104808953D01*
X157945523Y-104831592D01*
X157959137Y-104851966D01*
X157976464Y-104869293D01*
X157996839Y-104882906D01*
X158019474Y-104892282D01*
X158034411Y-104896813D01*
X158040877Y-104900270D01*
X158051311Y-104908832D01*
X158273148Y-105130669D01*
X158281710Y-105141103D01*
X158285167Y-105147570D01*
X158289698Y-105162506D01*
X158299075Y-105185145D01*
X158312689Y-105205519D01*
X158330016Y-105222846D01*
X158350391Y-105236460D01*
X158373028Y-105245836D01*
X158387964Y-105250367D01*
X158394431Y-105253824D01*
X158404865Y-105262386D01*
X158626702Y-105484223D01*
X158635264Y-105494657D01*
X158638721Y-105501123D01*
X158643252Y-105516060D01*
X158652630Y-105538699D01*
X158666244Y-105559073D01*
X158683571Y-105576400D01*
X158703946Y-105590013D01*
X158726581Y-105599389D01*
X158741518Y-105603920D01*
X158747984Y-105607377D01*
X158758418Y-105615939D01*
X158980255Y-105837776D01*
X158988817Y-105848210D01*
X158992274Y-105854676D01*
X158996805Y-105869613D01*
X159006183Y-105892252D01*
X159019797Y-105912626D01*
X159037124Y-105929953D01*
X159057499Y-105943566D01*
X159080134Y-105952942D01*
X159095071Y-105957473D01*
X159101537Y-105960930D01*
X159111971Y-105969492D01*
X159333808Y-106191329D01*
X159342370Y-106201763D01*
X159345827Y-106208229D01*
X159347955Y-106215244D01*
X159348673Y-106222539D01*
X159347955Y-106229834D01*
X159345827Y-106236849D01*
X159342370Y-106243315D01*
X159333808Y-106253749D01*
X158228087Y-107359470D01*
X158217653Y-107368032D01*
X158211187Y-107371489D01*
X158204172Y-107373617D01*
X158196877Y-107374335D01*
X158189582Y-107373617D01*
X158182567Y-107371489D01*
X158176101Y-107368032D01*
X158165667Y-107359470D01*
X157943830Y-107137633D01*
X157935268Y-107127199D01*
X157931811Y-107120733D01*
X157927280Y-107105796D01*
X157917902Y-107083157D01*
X157904288Y-107062783D01*
X157886961Y-107045456D01*
X157866586Y-107031843D01*
X157843951Y-107022467D01*
X157829014Y-107017936D01*
X157822548Y-107014479D01*
X157812114Y-107005917D01*
X157590277Y-106784080D01*
X157581715Y-106773646D01*
X157578258Y-106767180D01*
X157573727Y-106752243D01*
X157564349Y-106729604D01*
X157550735Y-106709230D01*
X157533408Y-106691903D01*
X157513033Y-106678290D01*
X157490398Y-106668914D01*
X157475461Y-106664383D01*
X157468995Y-106660926D01*
X157458561Y-106652364D01*
X157236724Y-106430527D01*
X157228162Y-106420093D01*
X157224705Y-106413626D01*
X157220174Y-106398690D01*
X157210797Y-106376051D01*
X157197183Y-106355677D01*
X157179856Y-106338350D01*
X157159481Y-106324736D01*
X157136844Y-106315360D01*
X157121908Y-106310829D01*
X157115441Y-106307372D01*
X157105007Y-106298810D01*
X156883170Y-106076973D01*
X156874608Y-106066539D01*
X156871151Y-106060073D01*
X156866620Y-106045136D01*
X156857242Y-106022497D01*
X156843628Y-106002123D01*
X156826301Y-105984796D01*
X156805926Y-105971183D01*
X156783291Y-105961807D01*
X156768354Y-105957276D01*
X156761888Y-105953819D01*
X156751454Y-105945257D01*
X156529617Y-105723420D01*
X156521055Y-105712986D01*
X156517598Y-105706519D01*
X156513067Y-105691583D01*
X156503690Y-105668944D01*
X156490076Y-105648570D01*
X156472749Y-105631243D01*
X156452374Y-105617629D01*
X156429737Y-105608253D01*
X156414801Y-105603722D01*
X156408334Y-105600265D01*
X156397900Y-105591703D01*
X156176063Y-105369866D01*
X156167501Y-105359432D01*
X156164044Y-105352966D01*
X156159513Y-105338029D01*
X156150135Y-105315390D01*
X156136521Y-105295016D01*
X156119194Y-105277689D01*
X156098819Y-105264076D01*
X156076184Y-105254700D01*
X156061247Y-105250169D01*
X156054781Y-105246712D01*
X156044347Y-105238150D01*
X155822510Y-105016313D01*
X155813948Y-105005879D01*
X155810491Y-104999413D01*
X155805960Y-104984476D01*
X155796582Y-104961837D01*
X155782968Y-104941463D01*
X155765641Y-104924136D01*
X155745266Y-104910523D01*
X155722631Y-104901147D01*
X155707694Y-104896616D01*
X155701228Y-104893159D01*
X155690794Y-104884597D01*
X155468957Y-104662760D01*
X155460395Y-104652326D01*
X155456938Y-104645859D01*
X155452407Y-104630923D01*
X155443030Y-104608284D01*
X155429416Y-104587910D01*
X155412089Y-104570583D01*
X155391714Y-104556969D01*
X155369077Y-104547593D01*
X155354141Y-104543062D01*
X155347674Y-104539605D01*
X155337240Y-104531043D01*
X155115403Y-104309206D01*
X155106841Y-104298772D01*
X155103384Y-104292306D01*
X155098853Y-104277369D01*
X155089475Y-104254730D01*
X155075861Y-104234356D01*
X155058534Y-104217029D01*
X155038159Y-104203416D01*
X155015524Y-104194040D01*
X155000587Y-104189509D01*
X154994121Y-104186052D01*
X154983687Y-104177490D01*
X154761850Y-103955653D01*
X154753288Y-103945219D01*
X154749831Y-103938753D01*
X154745300Y-103923816D01*
X154735922Y-103901177D01*
X154722308Y-103880803D01*
X154704981Y-103863476D01*
X154684606Y-103849863D01*
X154661971Y-103840487D01*
X154647034Y-103835956D01*
X154640568Y-103832499D01*
X154630134Y-103823937D01*
X154408297Y-103602100D01*
X154399735Y-103591666D01*
X154396278Y-103585199D01*
X154391747Y-103570263D01*
X154382370Y-103547624D01*
X154368756Y-103527250D01*
X154351429Y-103509923D01*
X154331054Y-103496309D01*
X154308417Y-103486933D01*
X154293481Y-103482402D01*
X154287014Y-103478945D01*
X154276580Y-103470383D01*
X154054743Y-103248546D01*
X154046181Y-103238112D01*
X154042724Y-103231646D01*
X154038193Y-103216709D01*
X154028815Y-103194070D01*
X154015201Y-103173696D01*
X153997874Y-103156369D01*
X153977499Y-103142756D01*
X153954864Y-103133380D01*
X153939927Y-103128849D01*
X153933461Y-103125392D01*
X153923027Y-103116830D01*
X153701190Y-102894993D01*
X153692628Y-102884559D01*
X153689171Y-102878092D01*
X153684640Y-102863156D01*
X153675263Y-102840517D01*
X153661649Y-102820143D01*
X153644322Y-102802816D01*
X153623947Y-102789202D01*
X153601310Y-102779826D01*
X153586374Y-102775295D01*
X153579907Y-102771838D01*
X153569473Y-102763276D01*
X153347636Y-102541439D01*
X153339074Y-102531005D01*
X153335617Y-102524539D01*
X153331086Y-102509602D01*
X153321708Y-102486963D01*
X153308094Y-102466589D01*
X153290767Y-102449262D01*
X153270392Y-102435649D01*
X153247757Y-102426273D01*
X153232820Y-102421742D01*
X153226354Y-102418285D01*
X153215920Y-102409723D01*
X152994083Y-102187886D01*
X152985521Y-102177452D01*
X152982064Y-102170986D01*
X152977533Y-102156049D01*
X152968155Y-102133410D01*
X152954541Y-102113036D01*
X152937214Y-102095709D01*
X152916839Y-102082096D01*
X152894204Y-102072720D01*
X152879267Y-102068189D01*
X152872801Y-102064732D01*
X152862367Y-102056170D01*
X152640530Y-101834333D01*
X152631968Y-101823899D01*
X152628511Y-101817433D01*
X152626383Y-101810418D01*
X152625665Y-101803123D01*
X152626383Y-101795828D01*
X152628511Y-101788813D01*
X152631968Y-101782347D01*
X152640530Y-101771913D01*
X153746251Y-100666192D01*
X153756685Y-100657630D01*
X153763151Y-100654173D01*
X153770166Y-100652045D01*
X153777461Y-100651327D01*
X153784756Y-100652045D01*
G37*
G36*
X151843000Y-105697000D02*
G01*
X150641000Y-105697000D01*
X150641000Y-104545000D01*
X151843000Y-104545000D01*
X151843000Y-105697000D01*
G37*
G36*
X152934813Y-104588438D02*
G01*
X152955432Y-104594693D01*
X152974428Y-104604846D01*
X152995849Y-104622426D01*
X153355574Y-104982151D01*
X153373154Y-105003572D01*
X153383307Y-105022568D01*
X153389562Y-105043187D01*
X153391673Y-105064625D01*
X153389562Y-105086063D01*
X153383307Y-105106682D01*
X153373154Y-105125678D01*
X153355574Y-105147099D01*
X153031205Y-105471468D01*
X153009784Y-105489048D01*
X152990788Y-105499201D01*
X152970169Y-105505456D01*
X152948731Y-105507567D01*
X152927293Y-105505456D01*
X152906674Y-105499201D01*
X152887678Y-105489048D01*
X152866257Y-105471468D01*
X152506532Y-105111743D01*
X152488952Y-105090322D01*
X152478799Y-105071326D01*
X152472544Y-105050707D01*
X152470433Y-105029269D01*
X152472544Y-105007831D01*
X152478799Y-104987212D01*
X152488952Y-104968216D01*
X152506532Y-104946795D01*
X152830901Y-104622426D01*
X152852322Y-104604846D01*
X152871318Y-104594693D01*
X152891937Y-104588438D01*
X152913375Y-104586327D01*
X152934813Y-104588438D01*
G37*
G36*
X148727938Y-104752716D02*
G01*
X148748557Y-104758971D01*
X148767553Y-104769124D01*
X148784208Y-104782792D01*
X148797876Y-104799447D01*
X148808029Y-104818443D01*
X148814284Y-104839062D01*
X148817000Y-104866640D01*
X148817000Y-105375360D01*
X148814284Y-105402938D01*
X148808029Y-105423557D01*
X148797876Y-105442553D01*
X148784208Y-105459208D01*
X148767553Y-105472876D01*
X148748557Y-105483029D01*
X148727938Y-105489284D01*
X148700360Y-105492000D01*
X148241640Y-105492000D01*
X148214062Y-105489284D01*
X148193443Y-105483029D01*
X148174447Y-105472876D01*
X148157792Y-105459208D01*
X148144124Y-105442553D01*
X148133971Y-105423557D01*
X148127716Y-105402938D01*
X148125000Y-105375360D01*
X148125000Y-104866640D01*
X148127716Y-104839062D01*
X148133971Y-104818443D01*
X148144124Y-104799447D01*
X148157792Y-104782792D01*
X148174447Y-104769124D01*
X148193443Y-104758971D01*
X148214062Y-104752716D01*
X148241640Y-104750000D01*
X148700360Y-104750000D01*
X148727938Y-104752716D01*
G37*
G36*
X149697938Y-104752716D02*
G01*
X149718557Y-104758971D01*
X149737553Y-104769124D01*
X149754208Y-104782792D01*
X149767876Y-104799447D01*
X149778029Y-104818443D01*
X149784284Y-104839062D01*
X149787000Y-104866640D01*
X149787000Y-105375360D01*
X149784284Y-105402938D01*
X149778029Y-105423557D01*
X149767876Y-105442553D01*
X149754208Y-105459208D01*
X149737553Y-105472876D01*
X149718557Y-105483029D01*
X149697938Y-105489284D01*
X149670360Y-105492000D01*
X149211640Y-105492000D01*
X149184062Y-105489284D01*
X149163443Y-105483029D01*
X149144447Y-105472876D01*
X149127792Y-105459208D01*
X149114124Y-105442553D01*
X149103971Y-105423557D01*
X149097716Y-105402938D01*
X149095000Y-105375360D01*
X149095000Y-104866640D01*
X149097716Y-104839062D01*
X149103971Y-104818443D01*
X149114124Y-104799447D01*
X149127792Y-104782792D01*
X149144447Y-104769124D01*
X149163443Y-104758971D01*
X149184062Y-104752716D01*
X149211640Y-104750000D01*
X149670360Y-104750000D01*
X149697938Y-104752716D01*
G37*
G36*
X153620707Y-103902544D02*
G01*
X153641326Y-103908799D01*
X153660322Y-103918952D01*
X153681743Y-103936532D01*
X154041468Y-104296257D01*
X154059048Y-104317678D01*
X154069201Y-104336674D01*
X154075456Y-104357293D01*
X154077567Y-104378731D01*
X154075456Y-104400169D01*
X154069201Y-104420788D01*
X154059048Y-104439784D01*
X154041468Y-104461205D01*
X153717099Y-104785574D01*
X153695678Y-104803154D01*
X153676682Y-104813307D01*
X153656063Y-104819562D01*
X153634625Y-104821673D01*
X153613187Y-104819562D01*
X153592568Y-104813307D01*
X153573572Y-104803154D01*
X153552151Y-104785574D01*
X153192426Y-104425849D01*
X153174846Y-104404428D01*
X153164693Y-104385432D01*
X153158438Y-104364813D01*
X153156327Y-104343375D01*
X153158438Y-104321937D01*
X153164693Y-104301318D01*
X153174846Y-104282322D01*
X153192426Y-104260901D01*
X153516795Y-103936532D01*
X153538216Y-103918952D01*
X153557212Y-103908799D01*
X153577831Y-103902544D01*
X153599269Y-103900433D01*
X153620707Y-103902544D01*
G37*
G36*
X151843000Y-103847000D02*
G01*
X150641000Y-103847000D01*
X150641000Y-102695000D01*
X151843000Y-102695000D01*
X151843000Y-103847000D01*
G37*
G36*
X148727938Y-102902716D02*
G01*
X148748557Y-102908971D01*
X148767553Y-102919124D01*
X148784208Y-102932792D01*
X148797876Y-102949447D01*
X148808029Y-102968443D01*
X148814284Y-102989062D01*
X148817000Y-103016640D01*
X148817000Y-103525360D01*
X148814284Y-103552938D01*
X148808029Y-103573557D01*
X148797876Y-103592553D01*
X148784208Y-103609208D01*
X148767553Y-103622876D01*
X148748557Y-103633029D01*
X148727938Y-103639284D01*
X148700360Y-103642000D01*
X148241640Y-103642000D01*
X148214062Y-103639284D01*
X148193443Y-103633029D01*
X148174447Y-103622876D01*
X148157792Y-103609208D01*
X148144124Y-103592553D01*
X148133971Y-103573557D01*
X148127716Y-103552938D01*
X148125000Y-103525360D01*
X148125000Y-103016640D01*
X148127716Y-102989062D01*
X148133971Y-102968443D01*
X148144124Y-102949447D01*
X148157792Y-102932792D01*
X148174447Y-102919124D01*
X148193443Y-102908971D01*
X148214062Y-102902716D01*
X148241640Y-102900000D01*
X148700360Y-102900000D01*
X148727938Y-102902716D01*
G37*
G36*
X149697938Y-102902716D02*
G01*
X149718557Y-102908971D01*
X149737553Y-102919124D01*
X149754208Y-102932792D01*
X149767876Y-102949447D01*
X149778029Y-102968443D01*
X149784284Y-102989062D01*
X149787000Y-103016640D01*
X149787000Y-103525360D01*
X149784284Y-103552938D01*
X149778029Y-103573557D01*
X149767876Y-103592553D01*
X149754208Y-103609208D01*
X149737553Y-103622876D01*
X149718557Y-103633029D01*
X149697938Y-103639284D01*
X149670360Y-103642000D01*
X149211640Y-103642000D01*
X149184062Y-103639284D01*
X149163443Y-103633029D01*
X149144447Y-103622876D01*
X149127792Y-103609208D01*
X149114124Y-103592553D01*
X149103971Y-103573557D01*
X149097716Y-103552938D01*
X149095000Y-103525360D01*
X149095000Y-103016640D01*
X149097716Y-102989062D01*
X149103971Y-102968443D01*
X149114124Y-102949447D01*
X149127792Y-102932792D01*
X149144447Y-102919124D01*
X149163443Y-102908971D01*
X149184062Y-102902716D01*
X149211640Y-102900000D01*
X149670360Y-102900000D01*
X149697938Y-102902716D01*
G37*
G36*
X169010023Y-98447036D02*
G01*
X169047716Y-98458470D01*
X169082452Y-98477037D01*
X169117665Y-98505935D01*
X169886065Y-99274335D01*
X169914963Y-99309548D01*
X169933530Y-99344284D01*
X169944964Y-99381977D01*
X169948824Y-99421172D01*
X169944964Y-99460367D01*
X169933530Y-99498060D01*
X169914963Y-99532796D01*
X169886065Y-99568009D01*
X169294441Y-100159633D01*
X169259228Y-100188531D01*
X169224492Y-100207098D01*
X169186799Y-100218532D01*
X169147604Y-100222392D01*
X169108409Y-100218532D01*
X169070716Y-100207098D01*
X169035980Y-100188531D01*
X169000767Y-100159633D01*
X168232367Y-99391233D01*
X168203469Y-99356020D01*
X168184902Y-99321284D01*
X168173468Y-99283591D01*
X168169608Y-99244396D01*
X168173468Y-99205201D01*
X168184902Y-99167508D01*
X168203469Y-99132772D01*
X168232367Y-99097559D01*
X168823991Y-98505935D01*
X168859204Y-98477037D01*
X168893940Y-98458470D01*
X168931633Y-98447036D01*
X168970828Y-98443176D01*
X169010023Y-98447036D01*
G37*
G36*
X150560674Y-98503465D02*
G01*
X150598367Y-98514899D01*
X150633103Y-98533466D01*
X150663548Y-98558452D01*
X150688534Y-98588897D01*
X150707101Y-98623633D01*
X150718535Y-98661326D01*
X150723000Y-98706661D01*
X150723000Y-99543339D01*
X150718535Y-99588674D01*
X150707101Y-99626367D01*
X150688534Y-99661103D01*
X150663548Y-99691548D01*
X150633103Y-99716534D01*
X150598367Y-99735101D01*
X150560674Y-99746535D01*
X150515339Y-99751000D01*
X149428661Y-99751000D01*
X149383326Y-99746535D01*
X149345633Y-99735101D01*
X149310897Y-99716534D01*
X149280452Y-99691548D01*
X149255466Y-99661103D01*
X149236899Y-99626367D01*
X149225465Y-99588674D01*
X149221000Y-99543339D01*
X149221000Y-98706661D01*
X149225465Y-98661326D01*
X149236899Y-98623633D01*
X149255466Y-98588897D01*
X149280452Y-98558452D01*
X149310897Y-98533466D01*
X149345633Y-98514899D01*
X149383326Y-98503465D01*
X149428661Y-98499000D01*
X150515339Y-98499000D01*
X150560674Y-98503465D01*
G37*
G36*
X158204172Y-92626383D02*
G01*
X158211187Y-92628511D01*
X158217653Y-92631968D01*
X158228087Y-92640530D01*
X159333808Y-93746251D01*
X159342370Y-93756685D01*
X159345827Y-93763151D01*
X159347955Y-93770166D01*
X159348673Y-93777461D01*
X159347955Y-93784756D01*
X159345827Y-93791771D01*
X159342370Y-93798237D01*
X159333808Y-93808671D01*
X159111971Y-94030508D01*
X159101537Y-94039070D01*
X159095071Y-94042527D01*
X159080134Y-94047058D01*
X159057495Y-94056436D01*
X159037121Y-94070050D01*
X159019794Y-94087377D01*
X159006181Y-94107752D01*
X158996805Y-94130387D01*
X158992274Y-94145324D01*
X158988817Y-94151790D01*
X158980255Y-94162224D01*
X158758418Y-94384061D01*
X158747984Y-94392623D01*
X158741518Y-94396080D01*
X158726581Y-94400611D01*
X158703942Y-94409989D01*
X158683568Y-94423603D01*
X158666241Y-94440930D01*
X158652628Y-94461305D01*
X158643252Y-94483940D01*
X158638721Y-94498877D01*
X158635264Y-94505343D01*
X158626702Y-94515777D01*
X158404865Y-94737614D01*
X158394431Y-94746176D01*
X158387964Y-94749633D01*
X158373028Y-94754164D01*
X158350389Y-94763541D01*
X158330015Y-94777155D01*
X158312688Y-94794482D01*
X158299074Y-94814857D01*
X158289698Y-94837494D01*
X158285167Y-94852430D01*
X158281710Y-94858897D01*
X158273148Y-94869331D01*
X158051311Y-95091168D01*
X158040877Y-95099730D01*
X158034411Y-95103187D01*
X158019474Y-95107718D01*
X157996835Y-95117096D01*
X157976461Y-95130710D01*
X157959134Y-95148037D01*
X157945521Y-95168412D01*
X157936145Y-95191047D01*
X157931614Y-95205984D01*
X157928157Y-95212450D01*
X157919595Y-95222884D01*
X157697758Y-95444721D01*
X157687324Y-95453283D01*
X157680857Y-95456740D01*
X157665921Y-95461271D01*
X157643282Y-95470648D01*
X157622908Y-95484262D01*
X157605581Y-95501589D01*
X157591967Y-95521964D01*
X157582591Y-95544601D01*
X157578060Y-95559537D01*
X157574603Y-95566004D01*
X157566041Y-95576438D01*
X157344204Y-95798275D01*
X157333770Y-95806837D01*
X157327304Y-95810294D01*
X157312367Y-95814825D01*
X157289728Y-95824203D01*
X157269354Y-95837817D01*
X157252027Y-95855144D01*
X157238414Y-95875519D01*
X157229038Y-95898154D01*
X157224507Y-95913091D01*
X157221050Y-95919557D01*
X157212488Y-95929991D01*
X156990651Y-96151828D01*
X156980217Y-96160390D01*
X156973751Y-96163847D01*
X156958814Y-96168378D01*
X156936175Y-96177756D01*
X156915801Y-96191370D01*
X156898474Y-96208697D01*
X156884861Y-96229072D01*
X156875485Y-96251707D01*
X156870954Y-96266644D01*
X156867497Y-96273110D01*
X156858935Y-96283544D01*
X156637098Y-96505381D01*
X156626664Y-96513943D01*
X156620197Y-96517400D01*
X156605261Y-96521931D01*
X156582622Y-96531308D01*
X156562248Y-96544922D01*
X156544921Y-96562249D01*
X156531307Y-96582624D01*
X156521931Y-96605261D01*
X156517400Y-96620197D01*
X156513943Y-96626664D01*
X156505381Y-96637098D01*
X156283544Y-96858935D01*
X156273110Y-96867497D01*
X156266644Y-96870954D01*
X156251707Y-96875485D01*
X156229068Y-96884863D01*
X156208694Y-96898477D01*
X156191367Y-96915804D01*
X156177754Y-96936179D01*
X156168378Y-96958814D01*
X156163847Y-96973751D01*
X156160390Y-96980217D01*
X156151828Y-96990651D01*
X155929991Y-97212488D01*
X155919557Y-97221050D01*
X155913091Y-97224507D01*
X155898154Y-97229038D01*
X155875515Y-97238416D01*
X155855141Y-97252030D01*
X155837814Y-97269357D01*
X155824201Y-97289732D01*
X155814825Y-97312367D01*
X155810294Y-97327304D01*
X155806837Y-97333770D01*
X155798275Y-97344204D01*
X155576438Y-97566041D01*
X155566004Y-97574603D01*
X155559537Y-97578060D01*
X155544601Y-97582591D01*
X155521962Y-97591968D01*
X155501588Y-97605582D01*
X155484261Y-97622909D01*
X155470647Y-97643284D01*
X155461271Y-97665921D01*
X155456740Y-97680857D01*
X155453283Y-97687324D01*
X155444721Y-97697758D01*
X155222884Y-97919595D01*
X155212450Y-97928157D01*
X155205984Y-97931614D01*
X155191047Y-97936145D01*
X155168408Y-97945523D01*
X155148034Y-97959137D01*
X155130707Y-97976464D01*
X155117094Y-97996839D01*
X155107718Y-98019474D01*
X155103187Y-98034411D01*
X155099730Y-98040877D01*
X155091168Y-98051311D01*
X154869331Y-98273148D01*
X154858897Y-98281710D01*
X154852430Y-98285167D01*
X154837494Y-98289698D01*
X154814855Y-98299075D01*
X154794481Y-98312689D01*
X154777154Y-98330016D01*
X154763540Y-98350391D01*
X154754164Y-98373028D01*
X154749633Y-98387964D01*
X154746176Y-98394431D01*
X154737614Y-98404865D01*
X154515777Y-98626702D01*
X154505343Y-98635264D01*
X154498877Y-98638721D01*
X154483940Y-98643252D01*
X154461301Y-98652630D01*
X154440927Y-98666244D01*
X154423600Y-98683571D01*
X154409987Y-98703946D01*
X154400611Y-98726581D01*
X154396080Y-98741518D01*
X154392623Y-98747984D01*
X154384061Y-98758418D01*
X154162224Y-98980255D01*
X154151790Y-98988817D01*
X154145324Y-98992274D01*
X154130387Y-98996805D01*
X154107748Y-99006183D01*
X154087374Y-99019797D01*
X154070047Y-99037124D01*
X154056434Y-99057499D01*
X154047058Y-99080134D01*
X154042527Y-99095071D01*
X154039070Y-99101537D01*
X154030508Y-99111971D01*
X153808671Y-99333808D01*
X153798237Y-99342370D01*
X153791771Y-99345827D01*
X153784756Y-99347955D01*
X153777461Y-99348673D01*
X153770166Y-99347955D01*
X153763151Y-99345827D01*
X153756685Y-99342370D01*
X153746251Y-99333808D01*
X152640530Y-98228087D01*
X152631968Y-98217653D01*
X152628511Y-98211187D01*
X152626383Y-98204172D01*
X152625665Y-98196877D01*
X152626383Y-98189582D01*
X152628511Y-98182567D01*
X152631968Y-98176101D01*
X152640530Y-98165667D01*
X152862367Y-97943830D01*
X152872801Y-97935268D01*
X152879267Y-97931811D01*
X152894204Y-97927280D01*
X152916843Y-97917902D01*
X152937217Y-97904288D01*
X152954544Y-97886961D01*
X152968157Y-97866586D01*
X152977533Y-97843951D01*
X152982064Y-97829014D01*
X152985521Y-97822548D01*
X152994083Y-97812114D01*
X153215920Y-97590277D01*
X153226354Y-97581715D01*
X153232820Y-97578258D01*
X153247757Y-97573727D01*
X153270396Y-97564349D01*
X153290770Y-97550735D01*
X153308097Y-97533408D01*
X153321710Y-97513033D01*
X153331086Y-97490398D01*
X153335617Y-97475461D01*
X153339074Y-97468995D01*
X153347636Y-97458561D01*
X153569473Y-97236724D01*
X153579907Y-97228162D01*
X153586374Y-97224705D01*
X153601310Y-97220174D01*
X153623949Y-97210797D01*
X153644323Y-97197183D01*
X153661650Y-97179856D01*
X153675264Y-97159481D01*
X153684640Y-97136844D01*
X153689171Y-97121908D01*
X153692628Y-97115441D01*
X153701190Y-97105007D01*
X153923027Y-96883170D01*
X153933461Y-96874608D01*
X153939927Y-96871151D01*
X153954864Y-96866620D01*
X153977503Y-96857242D01*
X153997877Y-96843628D01*
X154015204Y-96826301D01*
X154028817Y-96805926D01*
X154038193Y-96783291D01*
X154042724Y-96768354D01*
X154046181Y-96761888D01*
X154054743Y-96751454D01*
X154276580Y-96529617D01*
X154287014Y-96521055D01*
X154293481Y-96517598D01*
X154308417Y-96513067D01*
X154331056Y-96503690D01*
X154351430Y-96490076D01*
X154368757Y-96472749D01*
X154382371Y-96452374D01*
X154391747Y-96429737D01*
X154396278Y-96414801D01*
X154399735Y-96408334D01*
X154408297Y-96397900D01*
X154630134Y-96176063D01*
X154640568Y-96167501D01*
X154647034Y-96164044D01*
X154661971Y-96159513D01*
X154684610Y-96150135D01*
X154704984Y-96136521D01*
X154722311Y-96119194D01*
X154735924Y-96098819D01*
X154745300Y-96076184D01*
X154749831Y-96061247D01*
X154753288Y-96054781D01*
X154761850Y-96044347D01*
X154983687Y-95822510D01*
X154994121Y-95813948D01*
X155000587Y-95810491D01*
X155015524Y-95805960D01*
X155038163Y-95796582D01*
X155058537Y-95782968D01*
X155075864Y-95765641D01*
X155089477Y-95745266D01*
X155098853Y-95722631D01*
X155103384Y-95707694D01*
X155106841Y-95701228D01*
X155115403Y-95690794D01*
X155337240Y-95468957D01*
X155347674Y-95460395D01*
X155354141Y-95456938D01*
X155369077Y-95452407D01*
X155391716Y-95443030D01*
X155412090Y-95429416D01*
X155429417Y-95412089D01*
X155443031Y-95391714D01*
X155452407Y-95369077D01*
X155456938Y-95354141D01*
X155460395Y-95347674D01*
X155468957Y-95337240D01*
X155690794Y-95115403D01*
X155701228Y-95106841D01*
X155707694Y-95103384D01*
X155722631Y-95098853D01*
X155745270Y-95089475D01*
X155765644Y-95075861D01*
X155782971Y-95058534D01*
X155796584Y-95038159D01*
X155805960Y-95015524D01*
X155810491Y-95000587D01*
X155813948Y-94994121D01*
X155822510Y-94983687D01*
X156044347Y-94761850D01*
X156054781Y-94753288D01*
X156061247Y-94749831D01*
X156076184Y-94745300D01*
X156098823Y-94735922D01*
X156119197Y-94722308D01*
X156136524Y-94704981D01*
X156150137Y-94684606D01*
X156159513Y-94661971D01*
X156164044Y-94647034D01*
X156167501Y-94640568D01*
X156176063Y-94630134D01*
X156397900Y-94408297D01*
X156408334Y-94399735D01*
X156414801Y-94396278D01*
X156429737Y-94391747D01*
X156452376Y-94382370D01*
X156472750Y-94368756D01*
X156490077Y-94351429D01*
X156503691Y-94331054D01*
X156513067Y-94308417D01*
X156517598Y-94293481D01*
X156521055Y-94287014D01*
X156529617Y-94276580D01*
X156751454Y-94054743D01*
X156761888Y-94046181D01*
X156768354Y-94042724D01*
X156783291Y-94038193D01*
X156805930Y-94028815D01*
X156826304Y-94015201D01*
X156843631Y-93997874D01*
X156857244Y-93977499D01*
X156866620Y-93954864D01*
X156871151Y-93939927D01*
X156874608Y-93933461D01*
X156883170Y-93923027D01*
X157105007Y-93701190D01*
X157115441Y-93692628D01*
X157121908Y-93689171D01*
X157136844Y-93684640D01*
X157159483Y-93675263D01*
X157179857Y-93661649D01*
X157197184Y-93644322D01*
X157210798Y-93623947D01*
X157220174Y-93601310D01*
X157224705Y-93586374D01*
X157228162Y-93579907D01*
X157236724Y-93569473D01*
X157458561Y-93347636D01*
X157468995Y-93339074D01*
X157475461Y-93335617D01*
X157490398Y-93331086D01*
X157513037Y-93321708D01*
X157533411Y-93308094D01*
X157550738Y-93290767D01*
X157564351Y-93270392D01*
X157573727Y-93247757D01*
X157578258Y-93232820D01*
X157581715Y-93226354D01*
X157590277Y-93215920D01*
X157812114Y-92994083D01*
X157822548Y-92985521D01*
X157829014Y-92982064D01*
X157843951Y-92977533D01*
X157866590Y-92968155D01*
X157886964Y-92954541D01*
X157904291Y-92937214D01*
X157917904Y-92916839D01*
X157927280Y-92894204D01*
X157931811Y-92879267D01*
X157935268Y-92872801D01*
X157943830Y-92862367D01*
X158165667Y-92640530D01*
X158176101Y-92631968D01*
X158182567Y-92628511D01*
X158189582Y-92626383D01*
X158196877Y-92625665D01*
X158204172Y-92626383D01*
G37*
G36*
X161810418Y-92626383D02*
G01*
X161817433Y-92628511D01*
X161823899Y-92631968D01*
X161834333Y-92640530D01*
X162056170Y-92862367D01*
X162064732Y-92872801D01*
X162068189Y-92879267D01*
X162072720Y-92894204D01*
X162082098Y-92916843D01*
X162095712Y-92937217D01*
X162113039Y-92954544D01*
X162133414Y-92968157D01*
X162156049Y-92977533D01*
X162170986Y-92982064D01*
X162177452Y-92985521D01*
X162187886Y-92994083D01*
X162409723Y-93215920D01*
X162418285Y-93226354D01*
X162421742Y-93232820D01*
X162426273Y-93247757D01*
X162435651Y-93270396D01*
X162449265Y-93290770D01*
X162466592Y-93308097D01*
X162486967Y-93321710D01*
X162509602Y-93331086D01*
X162524539Y-93335617D01*
X162531005Y-93339074D01*
X162541439Y-93347636D01*
X162763276Y-93569473D01*
X162771838Y-93579907D01*
X162775295Y-93586374D01*
X162779826Y-93601310D01*
X162789203Y-93623949D01*
X162802817Y-93644323D01*
X162820144Y-93661650D01*
X162840519Y-93675264D01*
X162863156Y-93684640D01*
X162878092Y-93689171D01*
X162884559Y-93692628D01*
X162894993Y-93701190D01*
X163116830Y-93923027D01*
X163125392Y-93933461D01*
X163128849Y-93939927D01*
X163133380Y-93954864D01*
X163142758Y-93977503D01*
X163156372Y-93997877D01*
X163173699Y-94015204D01*
X163194074Y-94028817D01*
X163216709Y-94038193D01*
X163231646Y-94042724D01*
X163238112Y-94046181D01*
X163248546Y-94054743D01*
X163470383Y-94276580D01*
X163478945Y-94287014D01*
X163482402Y-94293481D01*
X163486933Y-94308417D01*
X163496310Y-94331056D01*
X163509924Y-94351430D01*
X163527251Y-94368757D01*
X163547626Y-94382371D01*
X163570263Y-94391747D01*
X163585199Y-94396278D01*
X163591666Y-94399735D01*
X163602100Y-94408297D01*
X163823937Y-94630134D01*
X163832499Y-94640568D01*
X163835956Y-94647034D01*
X163840487Y-94661971D01*
X163849865Y-94684610D01*
X163863479Y-94704984D01*
X163880806Y-94722311D01*
X163901181Y-94735924D01*
X163923816Y-94745300D01*
X163938753Y-94749831D01*
X163945219Y-94753288D01*
X163955653Y-94761850D01*
X164177490Y-94983687D01*
X164186052Y-94994121D01*
X164189509Y-95000587D01*
X164194040Y-95015524D01*
X164203418Y-95038163D01*
X164217032Y-95058537D01*
X164234359Y-95075864D01*
X164254734Y-95089477D01*
X164277369Y-95098853D01*
X164292306Y-95103384D01*
X164298772Y-95106841D01*
X164309206Y-95115403D01*
X164531043Y-95337240D01*
X164539605Y-95347674D01*
X164543062Y-95354141D01*
X164547593Y-95369077D01*
X164556970Y-95391716D01*
X164570584Y-95412090D01*
X164587911Y-95429417D01*
X164608286Y-95443031D01*
X164630923Y-95452407D01*
X164645859Y-95456938D01*
X164652326Y-95460395D01*
X164662760Y-95468957D01*
X164884597Y-95690794D01*
X164893159Y-95701228D01*
X164896616Y-95707694D01*
X164901147Y-95722631D01*
X164910525Y-95745270D01*
X164924139Y-95765644D01*
X164941466Y-95782971D01*
X164961841Y-95796584D01*
X164984476Y-95805960D01*
X164999413Y-95810491D01*
X165005879Y-95813948D01*
X165016313Y-95822510D01*
X165238150Y-96044347D01*
X165246712Y-96054781D01*
X165250169Y-96061247D01*
X165254700Y-96076184D01*
X165264078Y-96098823D01*
X165277692Y-96119197D01*
X165295019Y-96136524D01*
X165315394Y-96150137D01*
X165338029Y-96159513D01*
X165352966Y-96164044D01*
X165359432Y-96167501D01*
X165369866Y-96176063D01*
X165591703Y-96397900D01*
X165600265Y-96408334D01*
X165603722Y-96414801D01*
X165608253Y-96429737D01*
X165617630Y-96452376D01*
X165631244Y-96472750D01*
X165648571Y-96490077D01*
X165668946Y-96503691D01*
X165691583Y-96513067D01*
X165706519Y-96517598D01*
X165712986Y-96521055D01*
X165723420Y-96529617D01*
X165945257Y-96751454D01*
X165953819Y-96761888D01*
X165957276Y-96768354D01*
X165961807Y-96783291D01*
X165971185Y-96805930D01*
X165984799Y-96826304D01*
X166002126Y-96843631D01*
X166022501Y-96857244D01*
X166045136Y-96866620D01*
X166060073Y-96871151D01*
X166066539Y-96874608D01*
X166076973Y-96883170D01*
X166298810Y-97105007D01*
X166307372Y-97115441D01*
X166310829Y-97121908D01*
X166315360Y-97136844D01*
X166324737Y-97159483D01*
X166338351Y-97179857D01*
X166355678Y-97197184D01*
X166376053Y-97210798D01*
X166398690Y-97220174D01*
X166413626Y-97224705D01*
X166420093Y-97228162D01*
X166430527Y-97236724D01*
X166652364Y-97458561D01*
X166660926Y-97468995D01*
X166664383Y-97475461D01*
X166668914Y-97490398D01*
X166678292Y-97513037D01*
X166691906Y-97533411D01*
X166709233Y-97550738D01*
X166729608Y-97564351D01*
X166752243Y-97573727D01*
X166767180Y-97578258D01*
X166773646Y-97581715D01*
X166784080Y-97590277D01*
X167005917Y-97812114D01*
X167014479Y-97822548D01*
X167017936Y-97829014D01*
X167022467Y-97843951D01*
X167031845Y-97866590D01*
X167045459Y-97886964D01*
X167062786Y-97904291D01*
X167083161Y-97917904D01*
X167105796Y-97927280D01*
X167120733Y-97931811D01*
X167127199Y-97935268D01*
X167137633Y-97943830D01*
X167359470Y-98165667D01*
X167368032Y-98176101D01*
X167371489Y-98182567D01*
X167373617Y-98189582D01*
X167374335Y-98196877D01*
X167373617Y-98204172D01*
X167371489Y-98211187D01*
X167368032Y-98217653D01*
X167359470Y-98228087D01*
X166253749Y-99333808D01*
X166243315Y-99342370D01*
X166236849Y-99345827D01*
X166229834Y-99347955D01*
X166222539Y-99348673D01*
X166215244Y-99347955D01*
X166208229Y-99345827D01*
X166201763Y-99342370D01*
X166191329Y-99333808D01*
X165969492Y-99111971D01*
X165960930Y-99101537D01*
X165957473Y-99095071D01*
X165952942Y-99080134D01*
X165943564Y-99057495D01*
X165929950Y-99037121D01*
X165912623Y-99019794D01*
X165892248Y-99006181D01*
X165869613Y-98996805D01*
X165854676Y-98992274D01*
X165848210Y-98988817D01*
X165837776Y-98980255D01*
X165615939Y-98758418D01*
X165607377Y-98747984D01*
X165603920Y-98741518D01*
X165599389Y-98726581D01*
X165590011Y-98703942D01*
X165576397Y-98683568D01*
X165559070Y-98666241D01*
X165538695Y-98652628D01*
X165516060Y-98643252D01*
X165501123Y-98638721D01*
X165494657Y-98635264D01*
X165484223Y-98626702D01*
X165262386Y-98404865D01*
X165253824Y-98394431D01*
X165250367Y-98387964D01*
X165245836Y-98373028D01*
X165236459Y-98350389D01*
X165222845Y-98330015D01*
X165205518Y-98312688D01*
X165185143Y-98299074D01*
X165162506Y-98289698D01*
X165147570Y-98285167D01*
X165141103Y-98281710D01*
X165130669Y-98273148D01*
X164908832Y-98051311D01*
X164900270Y-98040877D01*
X164896813Y-98034411D01*
X164892282Y-98019474D01*
X164882904Y-97996835D01*
X164869290Y-97976461D01*
X164851963Y-97959134D01*
X164831588Y-97945521D01*
X164808953Y-97936145D01*
X164794016Y-97931614D01*
X164787550Y-97928157D01*
X164777116Y-97919595D01*
X164555279Y-97697758D01*
X164546717Y-97687324D01*
X164543260Y-97680857D01*
X164538729Y-97665921D01*
X164529352Y-97643282D01*
X164515738Y-97622908D01*
X164498411Y-97605581D01*
X164478036Y-97591967D01*
X164455399Y-97582591D01*
X164440463Y-97578060D01*
X164433996Y-97574603D01*
X164423562Y-97566041D01*
X164201725Y-97344204D01*
X164193163Y-97333770D01*
X164189706Y-97327304D01*
X164185175Y-97312367D01*
X164175797Y-97289728D01*
X164162183Y-97269354D01*
X164144856Y-97252027D01*
X164124481Y-97238414D01*
X164101846Y-97229038D01*
X164086909Y-97224507D01*
X164080443Y-97221050D01*
X164070009Y-97212488D01*
X163848172Y-96990651D01*
X163839610Y-96980217D01*
X163836153Y-96973751D01*
X163831622Y-96958814D01*
X163822244Y-96936175D01*
X163808630Y-96915801D01*
X163791303Y-96898474D01*
X163770928Y-96884861D01*
X163748293Y-96875485D01*
X163733356Y-96870954D01*
X163726890Y-96867497D01*
X163716456Y-96858935D01*
X163494619Y-96637098D01*
X163486057Y-96626664D01*
X163482600Y-96620197D01*
X163478069Y-96605261D01*
X163468692Y-96582622D01*
X163455078Y-96562248D01*
X163437751Y-96544921D01*
X163417376Y-96531307D01*
X163394739Y-96521931D01*
X163379803Y-96517400D01*
X163373336Y-96513943D01*
X163362902Y-96505381D01*
X163141065Y-96283544D01*
X163132503Y-96273110D01*
X163129046Y-96266644D01*
X163124515Y-96251707D01*
X163115137Y-96229068D01*
X163101523Y-96208694D01*
X163084196Y-96191367D01*
X163063821Y-96177754D01*
X163041186Y-96168378D01*
X163026249Y-96163847D01*
X163019783Y-96160390D01*
X163009349Y-96151828D01*
X162787512Y-95929991D01*
X162778950Y-95919557D01*
X162775493Y-95913091D01*
X162770962Y-95898154D01*
X162761584Y-95875515D01*
X162747970Y-95855141D01*
X162730643Y-95837814D01*
X162710268Y-95824201D01*
X162687633Y-95814825D01*
X162672696Y-95810294D01*
X162666230Y-95806837D01*
X162655796Y-95798275D01*
X162433959Y-95576438D01*
X162425397Y-95566004D01*
X162421940Y-95559537D01*
X162417409Y-95544601D01*
X162408032Y-95521962D01*
X162394418Y-95501588D01*
X162377091Y-95484261D01*
X162356716Y-95470647D01*
X162334079Y-95461271D01*
X162319143Y-95456740D01*
X162312676Y-95453283D01*
X162302242Y-95444721D01*
X162080405Y-95222884D01*
X162071843Y-95212450D01*
X162068386Y-95205984D01*
X162063855Y-95191047D01*
X162054477Y-95168408D01*
X162040863Y-95148034D01*
X162023536Y-95130707D01*
X162003161Y-95117094D01*
X161980526Y-95107718D01*
X161965589Y-95103187D01*
X161959123Y-95099730D01*
X161948689Y-95091168D01*
X161726852Y-94869331D01*
X161718290Y-94858897D01*
X161714833Y-94852430D01*
X161710302Y-94837494D01*
X161700925Y-94814855D01*
X161687311Y-94794481D01*
X161669984Y-94777154D01*
X161649609Y-94763540D01*
X161626972Y-94754164D01*
X161612036Y-94749633D01*
X161605569Y-94746176D01*
X161595135Y-94737614D01*
X161373298Y-94515777D01*
X161364736Y-94505343D01*
X161361279Y-94498877D01*
X161356748Y-94483940D01*
X161347370Y-94461301D01*
X161333756Y-94440927D01*
X161316429Y-94423600D01*
X161296054Y-94409987D01*
X161273419Y-94400611D01*
X161258482Y-94396080D01*
X161252016Y-94392623D01*
X161241582Y-94384061D01*
X161019745Y-94162224D01*
X161011183Y-94151790D01*
X161007726Y-94145324D01*
X161003195Y-94130387D01*
X160993817Y-94107748D01*
X160980203Y-94087374D01*
X160962876Y-94070047D01*
X160942501Y-94056434D01*
X160919866Y-94047058D01*
X160904929Y-94042527D01*
X160898463Y-94039070D01*
X160888029Y-94030508D01*
X160666192Y-93808671D01*
X160657630Y-93798237D01*
X160654173Y-93791771D01*
X160652045Y-93784756D01*
X160651327Y-93777461D01*
X160652045Y-93770166D01*
X160654173Y-93763151D01*
X160657630Y-93756685D01*
X160666192Y-93746251D01*
X161771913Y-92640530D01*
X161782347Y-92631968D01*
X161788813Y-92628511D01*
X161795828Y-92626383D01*
X161803123Y-92625665D01*
X161810418Y-92626383D01*
G37*
G36*
X170459591Y-96997468D02*
G01*
X170497284Y-97008902D01*
X170532020Y-97027469D01*
X170567233Y-97056367D01*
X171335633Y-97824767D01*
X171364531Y-97859980D01*
X171383098Y-97894716D01*
X171394532Y-97932409D01*
X171398392Y-97971604D01*
X171394532Y-98010799D01*
X171383098Y-98048492D01*
X171364531Y-98083228D01*
X171335633Y-98118441D01*
X170744009Y-98710065D01*
X170708796Y-98738963D01*
X170674060Y-98757530D01*
X170636367Y-98768964D01*
X170597172Y-98772824D01*
X170557977Y-98768964D01*
X170520284Y-98757530D01*
X170485548Y-98738963D01*
X170450335Y-98710065D01*
X169681935Y-97941665D01*
X169653037Y-97906452D01*
X169634470Y-97871716D01*
X169623036Y-97834023D01*
X169619176Y-97794828D01*
X169623036Y-97755633D01*
X169634470Y-97717940D01*
X169653037Y-97683204D01*
X169681935Y-97647991D01*
X170273559Y-97056367D01*
X170308772Y-97027469D01*
X170343508Y-97008902D01*
X170381201Y-96997468D01*
X170420396Y-96993608D01*
X170459591Y-96997468D01*
G37*
G36*
X150560674Y-96453465D02*
G01*
X150598367Y-96464899D01*
X150633103Y-96483466D01*
X150663548Y-96508452D01*
X150688534Y-96538897D01*
X150707101Y-96573633D01*
X150718535Y-96611326D01*
X150723000Y-96656661D01*
X150723000Y-97493339D01*
X150718535Y-97538674D01*
X150707101Y-97576367D01*
X150688534Y-97611103D01*
X150663548Y-97641548D01*
X150633103Y-97666534D01*
X150598367Y-97685101D01*
X150560674Y-97696535D01*
X150515339Y-97701000D01*
X149428661Y-97701000D01*
X149383326Y-97696535D01*
X149345633Y-97685101D01*
X149310897Y-97666534D01*
X149280452Y-97641548D01*
X149255466Y-97611103D01*
X149236899Y-97576367D01*
X149225465Y-97538674D01*
X149221000Y-97493339D01*
X149221000Y-96656661D01*
X149225465Y-96611326D01*
X149236899Y-96573633D01*
X149255466Y-96538897D01*
X149280452Y-96508452D01*
X149310897Y-96483466D01*
X149345633Y-96464899D01*
X149383326Y-96453465D01*
X149428661Y-96449000D01*
X150515339Y-96449000D01*
X150560674Y-96453465D01*
G37*
G36*
X150444674Y-93543465D02*
G01*
X150482367Y-93554899D01*
X150517103Y-93573466D01*
X150547548Y-93598452D01*
X150572534Y-93628897D01*
X150591101Y-93663633D01*
X150602535Y-93701326D01*
X150607000Y-93746661D01*
X150607000Y-94833339D01*
X150602535Y-94878674D01*
X150591101Y-94916367D01*
X150572534Y-94951103D01*
X150547548Y-94981548D01*
X150517103Y-95006534D01*
X150482367Y-95025101D01*
X150444674Y-95036535D01*
X150399339Y-95041000D01*
X149562661Y-95041000D01*
X149517326Y-95036535D01*
X149479633Y-95025101D01*
X149444897Y-95006534D01*
X149414452Y-94981548D01*
X149389466Y-94951103D01*
X149370899Y-94916367D01*
X149359465Y-94878674D01*
X149355000Y-94833339D01*
X149355000Y-93746661D01*
X149359465Y-93701326D01*
X149370899Y-93663633D01*
X149389466Y-93628897D01*
X149414452Y-93598452D01*
X149444897Y-93573466D01*
X149479633Y-93554899D01*
X149517326Y-93543465D01*
X149562661Y-93539000D01*
X150399339Y-93539000D01*
X150444674Y-93543465D01*
G37*
G36*
X148394674Y-93543465D02*
G01*
X148432367Y-93554899D01*
X148467103Y-93573466D01*
X148497548Y-93598452D01*
X148522534Y-93628897D01*
X148541101Y-93663633D01*
X148552535Y-93701326D01*
X148557000Y-93746661D01*
X148557000Y-94833339D01*
X148552535Y-94878674D01*
X148541101Y-94916367D01*
X148522534Y-94951103D01*
X148497548Y-94981548D01*
X148467103Y-95006534D01*
X148432367Y-95025101D01*
X148394674Y-95036535D01*
X148349339Y-95041000D01*
X147512661Y-95041000D01*
X147467326Y-95036535D01*
X147429633Y-95025101D01*
X147394897Y-95006534D01*
X147364452Y-94981548D01*
X147339466Y-94951103D01*
X147320899Y-94916367D01*
X147309465Y-94878674D01*
X147305000Y-94833339D01*
X147305000Y-93746661D01*
X147309465Y-93701326D01*
X147320899Y-93663633D01*
X147339466Y-93628897D01*
X147364452Y-93598452D01*
X147394897Y-93573466D01*
X147429633Y-93554899D01*
X147467326Y-93543465D01*
X147512661Y-93539000D01*
X148349339Y-93539000D01*
X148394674Y-93543465D01*
G37*
G36*
X184988674Y-92781465D02*
G01*
X185026367Y-92792899D01*
X185061103Y-92811466D01*
X185091548Y-92836452D01*
X185116534Y-92866897D01*
X185135101Y-92901633D01*
X185146535Y-92939326D01*
X185151000Y-92984661D01*
X185151000Y-94071339D01*
X185146535Y-94116674D01*
X185135101Y-94154367D01*
X185116534Y-94189103D01*
X185091548Y-94219548D01*
X185061103Y-94244534D01*
X185026367Y-94263101D01*
X184988674Y-94274535D01*
X184943339Y-94279000D01*
X184106661Y-94279000D01*
X184061326Y-94274535D01*
X184023633Y-94263101D01*
X183988897Y-94244534D01*
X183958452Y-94219548D01*
X183933466Y-94189103D01*
X183914899Y-94154367D01*
X183903465Y-94116674D01*
X183899000Y-94071339D01*
X183899000Y-92984661D01*
X183903465Y-92939326D01*
X183914899Y-92901633D01*
X183933466Y-92866897D01*
X183958452Y-92836452D01*
X183988897Y-92811466D01*
X184023633Y-92792899D01*
X184061326Y-92781465D01*
X184106661Y-92777000D01*
X184943339Y-92777000D01*
X184988674Y-92781465D01*
G37*
G36*
X187510674Y-92781465D02*
G01*
X187548367Y-92792899D01*
X187583103Y-92811466D01*
X187613548Y-92836452D01*
X187638534Y-92866897D01*
X187657101Y-92901633D01*
X187668535Y-92939326D01*
X187673000Y-92984661D01*
X187673000Y-94071339D01*
X187668535Y-94116674D01*
X187657101Y-94154367D01*
X187638534Y-94189103D01*
X187613548Y-94219548D01*
X187583103Y-94244534D01*
X187548367Y-94263101D01*
X187510674Y-94274535D01*
X187465339Y-94279000D01*
X186628661Y-94279000D01*
X186583326Y-94274535D01*
X186545633Y-94263101D01*
X186510897Y-94244534D01*
X186480452Y-94219548D01*
X186455466Y-94189103D01*
X186436899Y-94154367D01*
X186425465Y-94116674D01*
X186421000Y-94071339D01*
X186421000Y-92984661D01*
X186425465Y-92939326D01*
X186436899Y-92901633D01*
X186455466Y-92866897D01*
X186480452Y-92836452D01*
X186510897Y-92811466D01*
X186545633Y-92792899D01*
X186583326Y-92781465D01*
X186628661Y-92777000D01*
X187465339Y-92777000D01*
X187510674Y-92781465D01*
G37*
G36*
X189560674Y-92781465D02*
G01*
X189598367Y-92792899D01*
X189633103Y-92811466D01*
X189663548Y-92836452D01*
X189688534Y-92866897D01*
X189707101Y-92901633D01*
X189718535Y-92939326D01*
X189723000Y-92984661D01*
X189723000Y-94071339D01*
X189718535Y-94116674D01*
X189707101Y-94154367D01*
X189688534Y-94189103D01*
X189663548Y-94219548D01*
X189633103Y-94244534D01*
X189598367Y-94263101D01*
X189560674Y-94274535D01*
X189515339Y-94279000D01*
X188678661Y-94279000D01*
X188633326Y-94274535D01*
X188595633Y-94263101D01*
X188560897Y-94244534D01*
X188530452Y-94219548D01*
X188505466Y-94189103D01*
X188486899Y-94154367D01*
X188475465Y-94116674D01*
X188471000Y-94071339D01*
X188471000Y-92984661D01*
X188475465Y-92939326D01*
X188486899Y-92901633D01*
X188505466Y-92866897D01*
X188530452Y-92836452D01*
X188560897Y-92811466D01*
X188595633Y-92792899D01*
X188633326Y-92781465D01*
X188678661Y-92777000D01*
X189515339Y-92777000D01*
X189560674Y-92781465D01*
G37*
G36*
X182938674Y-92781465D02*
G01*
X182976367Y-92792899D01*
X183011103Y-92811466D01*
X183041548Y-92836452D01*
X183066534Y-92866897D01*
X183085101Y-92901633D01*
X183096535Y-92939326D01*
X183101000Y-92984661D01*
X183101000Y-94071339D01*
X183096535Y-94116674D01*
X183085101Y-94154367D01*
X183066534Y-94189103D01*
X183041548Y-94219548D01*
X183011103Y-94244534D01*
X182976367Y-94263101D01*
X182938674Y-94274535D01*
X182893339Y-94279000D01*
X182056661Y-94279000D01*
X182011326Y-94274535D01*
X181973633Y-94263101D01*
X181938897Y-94244534D01*
X181908452Y-94219548D01*
X181883466Y-94189103D01*
X181864899Y-94154367D01*
X181853465Y-94116674D01*
X181849000Y-94071339D01*
X181849000Y-92984661D01*
X181853465Y-92939326D01*
X181864899Y-92901633D01*
X181883466Y-92866897D01*
X181908452Y-92836452D01*
X181938897Y-92811466D01*
X181973633Y-92792899D01*
X182011326Y-92781465D01*
X182056661Y-92777000D01*
X182893339Y-92777000D01*
X182938674Y-92781465D01*
G37*
G36*
X148394674Y-91257465D02*
G01*
X148432367Y-91268899D01*
X148467103Y-91287466D01*
X148497548Y-91312452D01*
X148522534Y-91342897D01*
X148541101Y-91377633D01*
X148552535Y-91415326D01*
X148557000Y-91460661D01*
X148557000Y-92547339D01*
X148552535Y-92592674D01*
X148541101Y-92630367D01*
X148522534Y-92665103D01*
X148497548Y-92695548D01*
X148467103Y-92720534D01*
X148432367Y-92739101D01*
X148394674Y-92750535D01*
X148349339Y-92755000D01*
X147512661Y-92755000D01*
X147467326Y-92750535D01*
X147429633Y-92739101D01*
X147394897Y-92720534D01*
X147364452Y-92695548D01*
X147339466Y-92665103D01*
X147320899Y-92630367D01*
X147309465Y-92592674D01*
X147305000Y-92547339D01*
X147305000Y-91460661D01*
X147309465Y-91415326D01*
X147320899Y-91377633D01*
X147339466Y-91342897D01*
X147364452Y-91312452D01*
X147394897Y-91287466D01*
X147429633Y-91268899D01*
X147467326Y-91257465D01*
X147512661Y-91253000D01*
X148349339Y-91253000D01*
X148394674Y-91257465D01*
G37*
G36*
X150444674Y-91257465D02*
G01*
X150482367Y-91268899D01*
X150517103Y-91287466D01*
X150547548Y-91312452D01*
X150572534Y-91342897D01*
X150591101Y-91377633D01*
X150602535Y-91415326D01*
X150607000Y-91460661D01*
X150607000Y-92547339D01*
X150602535Y-92592674D01*
X150591101Y-92630367D01*
X150572534Y-92665103D01*
X150547548Y-92695548D01*
X150517103Y-92720534D01*
X150482367Y-92739101D01*
X150444674Y-92750535D01*
X150399339Y-92755000D01*
X149562661Y-92755000D01*
X149517326Y-92750535D01*
X149479633Y-92739101D01*
X149444897Y-92720534D01*
X149414452Y-92695548D01*
X149389466Y-92665103D01*
X149370899Y-92630367D01*
X149359465Y-92592674D01*
X149355000Y-92547339D01*
X149355000Y-91460661D01*
X149359465Y-91415326D01*
X149370899Y-91377633D01*
X149389466Y-91342897D01*
X149414452Y-91312452D01*
X149444897Y-91287466D01*
X149479633Y-91268899D01*
X149517326Y-91257465D01*
X149562661Y-91253000D01*
X150399339Y-91253000D01*
X150444674Y-91257465D01*
G37*
G36*
X187510674Y-90495465D02*
G01*
X187548367Y-90506899D01*
X187583103Y-90525466D01*
X187613548Y-90550452D01*
X187638534Y-90580897D01*
X187657101Y-90615633D01*
X187668535Y-90653326D01*
X187673000Y-90698661D01*
X187673000Y-91785339D01*
X187668535Y-91830674D01*
X187657101Y-91868367D01*
X187638534Y-91903103D01*
X187613548Y-91933548D01*
X187583103Y-91958534D01*
X187548367Y-91977101D01*
X187510674Y-91988535D01*
X187465339Y-91993000D01*
X186628661Y-91993000D01*
X186583326Y-91988535D01*
X186545633Y-91977101D01*
X186510897Y-91958534D01*
X186480452Y-91933548D01*
X186455466Y-91903103D01*
X186436899Y-91868367D01*
X186425465Y-91830674D01*
X186421000Y-91785339D01*
X186421000Y-90698661D01*
X186425465Y-90653326D01*
X186436899Y-90615633D01*
X186455466Y-90580897D01*
X186480452Y-90550452D01*
X186510897Y-90525466D01*
X186545633Y-90506899D01*
X186583326Y-90495465D01*
X186628661Y-90491000D01*
X187465339Y-90491000D01*
X187510674Y-90495465D01*
G37*
G36*
X189560674Y-90495465D02*
G01*
X189598367Y-90506899D01*
X189633103Y-90525466D01*
X189663548Y-90550452D01*
X189688534Y-90580897D01*
X189707101Y-90615633D01*
X189718535Y-90653326D01*
X189723000Y-90698661D01*
X189723000Y-91785339D01*
X189718535Y-91830674D01*
X189707101Y-91868367D01*
X189688534Y-91903103D01*
X189663548Y-91933548D01*
X189633103Y-91958534D01*
X189598367Y-91977101D01*
X189560674Y-91988535D01*
X189515339Y-91993000D01*
X188678661Y-91993000D01*
X188633326Y-91988535D01*
X188595633Y-91977101D01*
X188560897Y-91958534D01*
X188530452Y-91933548D01*
X188505466Y-91903103D01*
X188486899Y-91868367D01*
X188475465Y-91830674D01*
X188471000Y-91785339D01*
X188471000Y-90698661D01*
X188475465Y-90653326D01*
X188486899Y-90615633D01*
X188505466Y-90580897D01*
X188530452Y-90550452D01*
X188560897Y-90525466D01*
X188595633Y-90506899D01*
X188633326Y-90495465D01*
X188678661Y-90491000D01*
X189515339Y-90491000D01*
X189560674Y-90495465D01*
G37*
G36*
X184988674Y-90495465D02*
G01*
X185026367Y-90506899D01*
X185061103Y-90525466D01*
X185091548Y-90550452D01*
X185116534Y-90580897D01*
X185135101Y-90615633D01*
X185146535Y-90653326D01*
X185151000Y-90698661D01*
X185151000Y-91785339D01*
X185146535Y-91830674D01*
X185135101Y-91868367D01*
X185116534Y-91903103D01*
X185091548Y-91933548D01*
X185061103Y-91958534D01*
X185026367Y-91977101D01*
X184988674Y-91988535D01*
X184943339Y-91993000D01*
X184106661Y-91993000D01*
X184061326Y-91988535D01*
X184023633Y-91977101D01*
X183988897Y-91958534D01*
X183958452Y-91933548D01*
X183933466Y-91903103D01*
X183914899Y-91868367D01*
X183903465Y-91830674D01*
X183899000Y-91785339D01*
X183899000Y-90698661D01*
X183903465Y-90653326D01*
X183914899Y-90615633D01*
X183933466Y-90580897D01*
X183958452Y-90550452D01*
X183988897Y-90525466D01*
X184023633Y-90506899D01*
X184061326Y-90495465D01*
X184106661Y-90491000D01*
X184943339Y-90491000D01*
X184988674Y-90495465D01*
G37*
G36*
X182938674Y-90495465D02*
G01*
X182976367Y-90506899D01*
X183011103Y-90525466D01*
X183041548Y-90550452D01*
X183066534Y-90580897D01*
X183085101Y-90615633D01*
X183096535Y-90653326D01*
X183101000Y-90698661D01*
X183101000Y-91785339D01*
X183096535Y-91830674D01*
X183085101Y-91868367D01*
X183066534Y-91903103D01*
X183041548Y-91933548D01*
X183011103Y-91958534D01*
X182976367Y-91977101D01*
X182938674Y-91988535D01*
X182893339Y-91993000D01*
X182056661Y-91993000D01*
X182011326Y-91988535D01*
X181973633Y-91977101D01*
X181938897Y-91958534D01*
X181908452Y-91933548D01*
X181883466Y-91903103D01*
X181864899Y-91868367D01*
X181853465Y-91830674D01*
X181849000Y-91785339D01*
X181849000Y-90698661D01*
X181853465Y-90653326D01*
X181864899Y-90615633D01*
X181883466Y-90580897D01*
X181908452Y-90550452D01*
X181938897Y-90525466D01*
X181973633Y-90506899D01*
X182011326Y-90495465D01*
X182056661Y-90491000D01*
X182893339Y-90491000D01*
X182938674Y-90495465D01*
G37*
G36*
X163260674Y-90121465D02*
G01*
X163298367Y-90132899D01*
X163333103Y-90151466D01*
X163363548Y-90176452D01*
X163388534Y-90206897D01*
X163407101Y-90241633D01*
X163418535Y-90279326D01*
X163423000Y-90324661D01*
X163423000Y-91161339D01*
X163418535Y-91206674D01*
X163407101Y-91244367D01*
X163388534Y-91279103D01*
X163363548Y-91309548D01*
X163333103Y-91334534D01*
X163298367Y-91353101D01*
X163260674Y-91364535D01*
X163215339Y-91369000D01*
X162128661Y-91369000D01*
X162083326Y-91364535D01*
X162045633Y-91353101D01*
X162010897Y-91334534D01*
X161980452Y-91309548D01*
X161955466Y-91279103D01*
X161936899Y-91244367D01*
X161925465Y-91206674D01*
X161921000Y-91161339D01*
X161921000Y-90324661D01*
X161925465Y-90279326D01*
X161936899Y-90241633D01*
X161955466Y-90206897D01*
X161980452Y-90176452D01*
X162010897Y-90151466D01*
X162045633Y-90132899D01*
X162083326Y-90121465D01*
X162128661Y-90117000D01*
X163215339Y-90117000D01*
X163260674Y-90121465D01*
G37*
G36*
X189551674Y-88209465D02*
G01*
X189589367Y-88220899D01*
X189624103Y-88239466D01*
X189654548Y-88264452D01*
X189679534Y-88294897D01*
X189698101Y-88329633D01*
X189709535Y-88367326D01*
X189714000Y-88412661D01*
X189714000Y-89499339D01*
X189709535Y-89544674D01*
X189698101Y-89582367D01*
X189679534Y-89617103D01*
X189654548Y-89647548D01*
X189624103Y-89672534D01*
X189589367Y-89691101D01*
X189551674Y-89702535D01*
X189506339Y-89707000D01*
X188669661Y-89707000D01*
X188624326Y-89702535D01*
X188586633Y-89691101D01*
X188551897Y-89672534D01*
X188521452Y-89647548D01*
X188496466Y-89617103D01*
X188477899Y-89582367D01*
X188466465Y-89544674D01*
X188462000Y-89499339D01*
X188462000Y-88412661D01*
X188466465Y-88367326D01*
X188477899Y-88329633D01*
X188496466Y-88294897D01*
X188521452Y-88264452D01*
X188551897Y-88239466D01*
X188586633Y-88220899D01*
X188624326Y-88209465D01*
X188669661Y-88205000D01*
X189506339Y-88205000D01*
X189551674Y-88209465D01*
G37*
G36*
X187501674Y-88209465D02*
G01*
X187539367Y-88220899D01*
X187574103Y-88239466D01*
X187604548Y-88264452D01*
X187629534Y-88294897D01*
X187648101Y-88329633D01*
X187659535Y-88367326D01*
X187664000Y-88412661D01*
X187664000Y-89499339D01*
X187659535Y-89544674D01*
X187648101Y-89582367D01*
X187629534Y-89617103D01*
X187604548Y-89647548D01*
X187574103Y-89672534D01*
X187539367Y-89691101D01*
X187501674Y-89702535D01*
X187456339Y-89707000D01*
X186619661Y-89707000D01*
X186574326Y-89702535D01*
X186536633Y-89691101D01*
X186501897Y-89672534D01*
X186471452Y-89647548D01*
X186446466Y-89617103D01*
X186427899Y-89582367D01*
X186416465Y-89544674D01*
X186412000Y-89499339D01*
X186412000Y-88412661D01*
X186416465Y-88367326D01*
X186427899Y-88329633D01*
X186446466Y-88294897D01*
X186471452Y-88264452D01*
X186501897Y-88239466D01*
X186536633Y-88220899D01*
X186574326Y-88209465D01*
X186619661Y-88205000D01*
X187456339Y-88205000D01*
X187501674Y-88209465D01*
G37*
G36*
X184988674Y-88209465D02*
G01*
X185026367Y-88220899D01*
X185061103Y-88239466D01*
X185091548Y-88264452D01*
X185116534Y-88294897D01*
X185135101Y-88329633D01*
X185146535Y-88367326D01*
X185151000Y-88412661D01*
X185151000Y-89499339D01*
X185146535Y-89544674D01*
X185135101Y-89582367D01*
X185116534Y-89617103D01*
X185091548Y-89647548D01*
X185061103Y-89672534D01*
X185026367Y-89691101D01*
X184988674Y-89702535D01*
X184943339Y-89707000D01*
X184106661Y-89707000D01*
X184061326Y-89702535D01*
X184023633Y-89691101D01*
X183988897Y-89672534D01*
X183958452Y-89647548D01*
X183933466Y-89617103D01*
X183914899Y-89582367D01*
X183903465Y-89544674D01*
X183899000Y-89499339D01*
X183899000Y-88412661D01*
X183903465Y-88367326D01*
X183914899Y-88329633D01*
X183933466Y-88294897D01*
X183958452Y-88264452D01*
X183988897Y-88239466D01*
X184023633Y-88220899D01*
X184061326Y-88209465D01*
X184106661Y-88205000D01*
X184943339Y-88205000D01*
X184988674Y-88209465D01*
G37*
G36*
X182938674Y-88209465D02*
G01*
X182976367Y-88220899D01*
X183011103Y-88239466D01*
X183041548Y-88264452D01*
X183066534Y-88294897D01*
X183085101Y-88329633D01*
X183096535Y-88367326D01*
X183101000Y-88412661D01*
X183101000Y-89499339D01*
X183096535Y-89544674D01*
X183085101Y-89582367D01*
X183066534Y-89617103D01*
X183041548Y-89647548D01*
X183011103Y-89672534D01*
X182976367Y-89691101D01*
X182938674Y-89702535D01*
X182893339Y-89707000D01*
X182056661Y-89707000D01*
X182011326Y-89702535D01*
X181973633Y-89691101D01*
X181938897Y-89672534D01*
X181908452Y-89647548D01*
X181883466Y-89617103D01*
X181864899Y-89582367D01*
X181853465Y-89544674D01*
X181849000Y-89499339D01*
X181849000Y-88412661D01*
X181853465Y-88367326D01*
X181864899Y-88329633D01*
X181883466Y-88294897D01*
X181908452Y-88264452D01*
X181938897Y-88239466D01*
X181973633Y-88220899D01*
X182011326Y-88209465D01*
X182056661Y-88205000D01*
X182893339Y-88205000D01*
X182938674Y-88209465D01*
G37*
G36*
X163260674Y-88071465D02*
G01*
X163298367Y-88082899D01*
X163333103Y-88101466D01*
X163363548Y-88126452D01*
X163388534Y-88156897D01*
X163407101Y-88191633D01*
X163418535Y-88229326D01*
X163423000Y-88274661D01*
X163423000Y-89111339D01*
X163418535Y-89156674D01*
X163407101Y-89194367D01*
X163388534Y-89229103D01*
X163363548Y-89259548D01*
X163333103Y-89284534D01*
X163298367Y-89303101D01*
X163260674Y-89314535D01*
X163215339Y-89319000D01*
X162128661Y-89319000D01*
X162083326Y-89314535D01*
X162045633Y-89303101D01*
X162010897Y-89284534D01*
X161980452Y-89259548D01*
X161955466Y-89229103D01*
X161936899Y-89194367D01*
X161925465Y-89156674D01*
X161921000Y-89111339D01*
X161921000Y-88274661D01*
X161925465Y-88229326D01*
X161936899Y-88191633D01*
X161955466Y-88156897D01*
X161980452Y-88126452D01*
X162010897Y-88101466D01*
X162045633Y-88082899D01*
X162083326Y-88071465D01*
X162128661Y-88067000D01*
X163215339Y-88067000D01*
X163260674Y-88071465D01*
G37*
G36*
X182938674Y-85923465D02*
G01*
X182976367Y-85934899D01*
X183011103Y-85953466D01*
X183041548Y-85978452D01*
X183066534Y-86008897D01*
X183085101Y-86043633D01*
X183096535Y-86081326D01*
X183101000Y-86126661D01*
X183101000Y-87213339D01*
X183096535Y-87258674D01*
X183085101Y-87296367D01*
X183066534Y-87331103D01*
X183041548Y-87361548D01*
X183011103Y-87386534D01*
X182976367Y-87405101D01*
X182938674Y-87416535D01*
X182893339Y-87421000D01*
X182056661Y-87421000D01*
X182011326Y-87416535D01*
X181973633Y-87405101D01*
X181938897Y-87386534D01*
X181908452Y-87361548D01*
X181883466Y-87331103D01*
X181864899Y-87296367D01*
X181853465Y-87258674D01*
X181849000Y-87213339D01*
X181849000Y-86126661D01*
X181853465Y-86081326D01*
X181864899Y-86043633D01*
X181883466Y-86008897D01*
X181908452Y-85978452D01*
X181938897Y-85953466D01*
X181973633Y-85934899D01*
X182011326Y-85923465D01*
X182056661Y-85919000D01*
X182893339Y-85919000D01*
X182938674Y-85923465D01*
G37*
G36*
X184988674Y-85923465D02*
G01*
X185026367Y-85934899D01*
X185061103Y-85953466D01*
X185091548Y-85978452D01*
X185116534Y-86008897D01*
X185135101Y-86043633D01*
X185146535Y-86081326D01*
X185151000Y-86126661D01*
X185151000Y-87213339D01*
X185146535Y-87258674D01*
X185135101Y-87296367D01*
X185116534Y-87331103D01*
X185091548Y-87361548D01*
X185061103Y-87386534D01*
X185026367Y-87405101D01*
X184988674Y-87416535D01*
X184943339Y-87421000D01*
X184106661Y-87421000D01*
X184061326Y-87416535D01*
X184023633Y-87405101D01*
X183988897Y-87386534D01*
X183958452Y-87361548D01*
X183933466Y-87331103D01*
X183914899Y-87296367D01*
X183903465Y-87258674D01*
X183899000Y-87213339D01*
X183899000Y-86126661D01*
X183903465Y-86081326D01*
X183914899Y-86043633D01*
X183933466Y-86008897D01*
X183958452Y-85978452D01*
X183988897Y-85953466D01*
X184023633Y-85934899D01*
X184061326Y-85923465D01*
X184106661Y-85919000D01*
X184943339Y-85919000D01*
X184988674Y-85923465D01*
G37*
G36*
X189560674Y-85923465D02*
G01*
X189598367Y-85934899D01*
X189633103Y-85953466D01*
X189663548Y-85978452D01*
X189688534Y-86008897D01*
X189707101Y-86043633D01*
X189718535Y-86081326D01*
X189723000Y-86126661D01*
X189723000Y-87213339D01*
X189718535Y-87258674D01*
X189707101Y-87296367D01*
X189688534Y-87331103D01*
X189663548Y-87361548D01*
X189633103Y-87386534D01*
X189598367Y-87405101D01*
X189560674Y-87416535D01*
X189515339Y-87421000D01*
X188678661Y-87421000D01*
X188633326Y-87416535D01*
X188595633Y-87405101D01*
X188560897Y-87386534D01*
X188530452Y-87361548D01*
X188505466Y-87331103D01*
X188486899Y-87296367D01*
X188475465Y-87258674D01*
X188471000Y-87213339D01*
X188471000Y-86126661D01*
X188475465Y-86081326D01*
X188486899Y-86043633D01*
X188505466Y-86008897D01*
X188530452Y-85978452D01*
X188560897Y-85953466D01*
X188595633Y-85934899D01*
X188633326Y-85923465D01*
X188678661Y-85919000D01*
X189515339Y-85919000D01*
X189560674Y-85923465D01*
G37*
G36*
X187510674Y-85923465D02*
G01*
X187548367Y-85934899D01*
X187583103Y-85953466D01*
X187613548Y-85978452D01*
X187638534Y-86008897D01*
X187657101Y-86043633D01*
X187668535Y-86081326D01*
X187673000Y-86126661D01*
X187673000Y-87213339D01*
X187668535Y-87258674D01*
X187657101Y-87296367D01*
X187638534Y-87331103D01*
X187613548Y-87361548D01*
X187583103Y-87386534D01*
X187548367Y-87405101D01*
X187510674Y-87416535D01*
X187465339Y-87421000D01*
X186628661Y-87421000D01*
X186583326Y-87416535D01*
X186545633Y-87405101D01*
X186510897Y-87386534D01*
X186480452Y-87361548D01*
X186455466Y-87331103D01*
X186436899Y-87296367D01*
X186425465Y-87258674D01*
X186421000Y-87213339D01*
X186421000Y-86126661D01*
X186425465Y-86081326D01*
X186436899Y-86043633D01*
X186455466Y-86008897D01*
X186480452Y-85978452D01*
X186510897Y-85953466D01*
X186545633Y-85934899D01*
X186583326Y-85923465D01*
X186628661Y-85919000D01*
X187465339Y-85919000D01*
X187510674Y-85923465D01*
G37*
G36*
X137125928Y-86321764D02*
G01*
X137147009Y-86328160D01*
X137166445Y-86338548D01*
X137183476Y-86352524D01*
X137197452Y-86369555D01*
X137207840Y-86388991D01*
X137214236Y-86410072D01*
X137217000Y-86438140D01*
X137217000Y-86901860D01*
X137214236Y-86929928D01*
X137207840Y-86951009D01*
X137197452Y-86970445D01*
X137183476Y-86987476D01*
X137166445Y-87001452D01*
X137147009Y-87011840D01*
X137125928Y-87018236D01*
X137097860Y-87021000D01*
X135284140Y-87021000D01*
X135256072Y-87018236D01*
X135234991Y-87011840D01*
X135215555Y-87001452D01*
X135198524Y-86987476D01*
X135184548Y-86970445D01*
X135174160Y-86951009D01*
X135167764Y-86929928D01*
X135165000Y-86901860D01*
X135165000Y-86438140D01*
X135167764Y-86410072D01*
X135174160Y-86388991D01*
X135184548Y-86369555D01*
X135198524Y-86352524D01*
X135215555Y-86338548D01*
X135234991Y-86328160D01*
X135256072Y-86321764D01*
X135284140Y-86319000D01*
X137097860Y-86319000D01*
X137125928Y-86321764D01*
G37*
G36*
X132175928Y-86321764D02*
G01*
X132197009Y-86328160D01*
X132216445Y-86338548D01*
X132233476Y-86352524D01*
X132247452Y-86369555D01*
X132257840Y-86388991D01*
X132264236Y-86410072D01*
X132267000Y-86438140D01*
X132267000Y-86901860D01*
X132264236Y-86929928D01*
X132257840Y-86951009D01*
X132247452Y-86970445D01*
X132233476Y-86987476D01*
X132216445Y-87001452D01*
X132197009Y-87011840D01*
X132175928Y-87018236D01*
X132147860Y-87021000D01*
X130334140Y-87021000D01*
X130306072Y-87018236D01*
X130284991Y-87011840D01*
X130265555Y-87001452D01*
X130248524Y-86987476D01*
X130234548Y-86970445D01*
X130224160Y-86951009D01*
X130217764Y-86929928D01*
X130215000Y-86901860D01*
X130215000Y-86438140D01*
X130217764Y-86410072D01*
X130224160Y-86388991D01*
X130234548Y-86369555D01*
X130248524Y-86352524D01*
X130265555Y-86338548D01*
X130284991Y-86328160D01*
X130306072Y-86321764D01*
X130334140Y-86319000D01*
X132147860Y-86319000D01*
X132175928Y-86321764D01*
G37*
G36*
X140520674Y-84653465D02*
G01*
X140558367Y-84664899D01*
X140593103Y-84683466D01*
X140623548Y-84708452D01*
X140648534Y-84738897D01*
X140667101Y-84773633D01*
X140678535Y-84811326D01*
X140683000Y-84856661D01*
X140683000Y-85943339D01*
X140678535Y-85988674D01*
X140667101Y-86026367D01*
X140648534Y-86061103D01*
X140623548Y-86091548D01*
X140593103Y-86116534D01*
X140558367Y-86135101D01*
X140520674Y-86146535D01*
X140475339Y-86151000D01*
X139638661Y-86151000D01*
X139593326Y-86146535D01*
X139555633Y-86135101D01*
X139520897Y-86116534D01*
X139490452Y-86091548D01*
X139465466Y-86061103D01*
X139446899Y-86026367D01*
X139435465Y-85988674D01*
X139431000Y-85943339D01*
X139431000Y-84856661D01*
X139435465Y-84811326D01*
X139446899Y-84773633D01*
X139465466Y-84738897D01*
X139490452Y-84708452D01*
X139520897Y-84683466D01*
X139555633Y-84664899D01*
X139593326Y-84653465D01*
X139638661Y-84649000D01*
X140475339Y-84649000D01*
X140520674Y-84653465D01*
G37*
G36*
X142570674Y-84653465D02*
G01*
X142608367Y-84664899D01*
X142643103Y-84683466D01*
X142673548Y-84708452D01*
X142698534Y-84738897D01*
X142717101Y-84773633D01*
X142728535Y-84811326D01*
X142733000Y-84856661D01*
X142733000Y-85943339D01*
X142728535Y-85988674D01*
X142717101Y-86026367D01*
X142698534Y-86061103D01*
X142673548Y-86091548D01*
X142643103Y-86116534D01*
X142608367Y-86135101D01*
X142570674Y-86146535D01*
X142525339Y-86151000D01*
X141688661Y-86151000D01*
X141643326Y-86146535D01*
X141605633Y-86135101D01*
X141570897Y-86116534D01*
X141540452Y-86091548D01*
X141515466Y-86061103D01*
X141496899Y-86026367D01*
X141485465Y-85988674D01*
X141481000Y-85943339D01*
X141481000Y-84856661D01*
X141485465Y-84811326D01*
X141496899Y-84773633D01*
X141515466Y-84738897D01*
X141540452Y-84708452D01*
X141570897Y-84683466D01*
X141605633Y-84664899D01*
X141643326Y-84653465D01*
X141688661Y-84649000D01*
X142525339Y-84649000D01*
X142570674Y-84653465D01*
G37*
G36*
X166388721Y-84870174D02*
G01*
X166488995Y-84911709D01*
X166512387Y-84927339D01*
X166579242Y-84972010D01*
X166655990Y-85048758D01*
X166682966Y-85089131D01*
X166716291Y-85139005D01*
X166757826Y-85239279D01*
X166779000Y-85345730D01*
X166779000Y-85454270D01*
X166757826Y-85560721D01*
X166716291Y-85660995D01*
X166716290Y-85660996D01*
X166655990Y-85751242D01*
X166579242Y-85827990D01*
X166533812Y-85858345D01*
X166488995Y-85888291D01*
X166388721Y-85929826D01*
X166282270Y-85951000D01*
X166173730Y-85951000D01*
X166067279Y-85929826D01*
X165967005Y-85888291D01*
X165922188Y-85858345D01*
X165876758Y-85827990D01*
X165800010Y-85751242D01*
X165739710Y-85660996D01*
X165739709Y-85660995D01*
X165698174Y-85560721D01*
X165677000Y-85454270D01*
X165677000Y-85345730D01*
X165698174Y-85239279D01*
X165739709Y-85139005D01*
X165773034Y-85089131D01*
X165800010Y-85048758D01*
X165876758Y-84972010D01*
X165943613Y-84927339D01*
X165967005Y-84911709D01*
X166067279Y-84870174D01*
X166173730Y-84849000D01*
X166282270Y-84849000D01*
X166388721Y-84870174D01*
G37*
G36*
X137125928Y-85051764D02*
G01*
X137147009Y-85058160D01*
X137166445Y-85068548D01*
X137183476Y-85082524D01*
X137197452Y-85099555D01*
X137207840Y-85118991D01*
X137214236Y-85140072D01*
X137217000Y-85168140D01*
X137217000Y-85631860D01*
X137214236Y-85659928D01*
X137207840Y-85681009D01*
X137197452Y-85700445D01*
X137183476Y-85717476D01*
X137166445Y-85731452D01*
X137147009Y-85741840D01*
X137125928Y-85748236D01*
X137097860Y-85751000D01*
X135284140Y-85751000D01*
X135256072Y-85748236D01*
X135234991Y-85741840D01*
X135215555Y-85731452D01*
X135198524Y-85717476D01*
X135184548Y-85700445D01*
X135174160Y-85681009D01*
X135167764Y-85659928D01*
X135165000Y-85631860D01*
X135165000Y-85168140D01*
X135167764Y-85140072D01*
X135174160Y-85118991D01*
X135184548Y-85099555D01*
X135198524Y-85082524D01*
X135215555Y-85068548D01*
X135234991Y-85058160D01*
X135256072Y-85051764D01*
X135284140Y-85049000D01*
X137097860Y-85049000D01*
X137125928Y-85051764D01*
G37*
G36*
X132175928Y-85051764D02*
G01*
X132197009Y-85058160D01*
X132216445Y-85068548D01*
X132233476Y-85082524D01*
X132247452Y-85099555D01*
X132257840Y-85118991D01*
X132264236Y-85140072D01*
X132267000Y-85168140D01*
X132267000Y-85631860D01*
X132264236Y-85659928D01*
X132257840Y-85681009D01*
X132247452Y-85700445D01*
X132233476Y-85717476D01*
X132216445Y-85731452D01*
X132197009Y-85741840D01*
X132175928Y-85748236D01*
X132147860Y-85751000D01*
X130334140Y-85751000D01*
X130306072Y-85748236D01*
X130284991Y-85741840D01*
X130265555Y-85731452D01*
X130248524Y-85717476D01*
X130234548Y-85700445D01*
X130224160Y-85681009D01*
X130217764Y-85659928D01*
X130215000Y-85631860D01*
X130215000Y-85168140D01*
X130217764Y-85140072D01*
X130224160Y-85118991D01*
X130234548Y-85099555D01*
X130248524Y-85082524D01*
X130265555Y-85068548D01*
X130284991Y-85058160D01*
X130306072Y-85051764D01*
X130334140Y-85049000D01*
X132147860Y-85049000D01*
X132175928Y-85051764D01*
G37*
G36*
X187510674Y-83637465D02*
G01*
X187548367Y-83648899D01*
X187583103Y-83667466D01*
X187613548Y-83692452D01*
X187638534Y-83722897D01*
X187657101Y-83757633D01*
X187668535Y-83795326D01*
X187673000Y-83840661D01*
X187673000Y-84927339D01*
X187668535Y-84972674D01*
X187657101Y-85010367D01*
X187638534Y-85045103D01*
X187613548Y-85075548D01*
X187583103Y-85100534D01*
X187548367Y-85119101D01*
X187510674Y-85130535D01*
X187465339Y-85135000D01*
X186628661Y-85135000D01*
X186583326Y-85130535D01*
X186545633Y-85119101D01*
X186510897Y-85100534D01*
X186480452Y-85075548D01*
X186455466Y-85045103D01*
X186436899Y-85010367D01*
X186425465Y-84972674D01*
X186421000Y-84927339D01*
X186421000Y-83840661D01*
X186425465Y-83795326D01*
X186436899Y-83757633D01*
X186455466Y-83722897D01*
X186480452Y-83692452D01*
X186510897Y-83667466D01*
X186545633Y-83648899D01*
X186583326Y-83637465D01*
X186628661Y-83633000D01*
X187465339Y-83633000D01*
X187510674Y-83637465D01*
G37*
G36*
X184988674Y-83637465D02*
G01*
X185026367Y-83648899D01*
X185061103Y-83667466D01*
X185091548Y-83692452D01*
X185116534Y-83722897D01*
X185135101Y-83757633D01*
X185146535Y-83795326D01*
X185151000Y-83840661D01*
X185151000Y-84927339D01*
X185146535Y-84972674D01*
X185135101Y-85010367D01*
X185116534Y-85045103D01*
X185091548Y-85075548D01*
X185061103Y-85100534D01*
X185026367Y-85119101D01*
X184988674Y-85130535D01*
X184943339Y-85135000D01*
X184106661Y-85135000D01*
X184061326Y-85130535D01*
X184023633Y-85119101D01*
X183988897Y-85100534D01*
X183958452Y-85075548D01*
X183933466Y-85045103D01*
X183914899Y-85010367D01*
X183903465Y-84972674D01*
X183899000Y-84927339D01*
X183899000Y-83840661D01*
X183903465Y-83795326D01*
X183914899Y-83757633D01*
X183933466Y-83722897D01*
X183958452Y-83692452D01*
X183988897Y-83667466D01*
X184023633Y-83648899D01*
X184061326Y-83637465D01*
X184106661Y-83633000D01*
X184943339Y-83633000D01*
X184988674Y-83637465D01*
G37*
G36*
X189560674Y-83637465D02*
G01*
X189598367Y-83648899D01*
X189633103Y-83667466D01*
X189663548Y-83692452D01*
X189688534Y-83722897D01*
X189707101Y-83757633D01*
X189718535Y-83795326D01*
X189723000Y-83840661D01*
X189723000Y-84927339D01*
X189718535Y-84972674D01*
X189707101Y-85010367D01*
X189688534Y-85045103D01*
X189663548Y-85075548D01*
X189633103Y-85100534D01*
X189598367Y-85119101D01*
X189560674Y-85130535D01*
X189515339Y-85135000D01*
X188678661Y-85135000D01*
X188633326Y-85130535D01*
X188595633Y-85119101D01*
X188560897Y-85100534D01*
X188530452Y-85075548D01*
X188505466Y-85045103D01*
X188486899Y-85010367D01*
X188475465Y-84972674D01*
X188471000Y-84927339D01*
X188471000Y-83840661D01*
X188475465Y-83795326D01*
X188486899Y-83757633D01*
X188505466Y-83722897D01*
X188530452Y-83692452D01*
X188560897Y-83667466D01*
X188595633Y-83648899D01*
X188633326Y-83637465D01*
X188678661Y-83633000D01*
X189515339Y-83633000D01*
X189560674Y-83637465D01*
G37*
G36*
X182938674Y-83637465D02*
G01*
X182976367Y-83648899D01*
X183011103Y-83667466D01*
X183041548Y-83692452D01*
X183066534Y-83722897D01*
X183085101Y-83757633D01*
X183096535Y-83795326D01*
X183101000Y-83840661D01*
X183101000Y-84927339D01*
X183096535Y-84972674D01*
X183085101Y-85010367D01*
X183066534Y-85045103D01*
X183041548Y-85075548D01*
X183011103Y-85100534D01*
X182976367Y-85119101D01*
X182938674Y-85130535D01*
X182893339Y-85135000D01*
X182056661Y-85135000D01*
X182011326Y-85130535D01*
X181973633Y-85119101D01*
X181938897Y-85100534D01*
X181908452Y-85075548D01*
X181883466Y-85045103D01*
X181864899Y-85010367D01*
X181853465Y-84972674D01*
X181849000Y-84927339D01*
X181849000Y-83840661D01*
X181853465Y-83795326D01*
X181864899Y-83757633D01*
X181883466Y-83722897D01*
X181908452Y-83692452D01*
X181938897Y-83667466D01*
X181973633Y-83648899D01*
X182011326Y-83637465D01*
X182056661Y-83633000D01*
X182893339Y-83633000D01*
X182938674Y-83637465D01*
G37*
G36*
X132175928Y-83781764D02*
G01*
X132197009Y-83788160D01*
X132216445Y-83798548D01*
X132233476Y-83812524D01*
X132247452Y-83829555D01*
X132257840Y-83848991D01*
X132264236Y-83870072D01*
X132267000Y-83898140D01*
X132267000Y-84361860D01*
X132264236Y-84389928D01*
X132257840Y-84411009D01*
X132247452Y-84430445D01*
X132233476Y-84447476D01*
X132216445Y-84461452D01*
X132197009Y-84471840D01*
X132175928Y-84478236D01*
X132147860Y-84481000D01*
X130334140Y-84481000D01*
X130306072Y-84478236D01*
X130284991Y-84471840D01*
X130265555Y-84461452D01*
X130248524Y-84447476D01*
X130234548Y-84430445D01*
X130224160Y-84411009D01*
X130217764Y-84389928D01*
X130215000Y-84361860D01*
X130215000Y-83898140D01*
X130217764Y-83870072D01*
X130224160Y-83848991D01*
X130234548Y-83829555D01*
X130248524Y-83812524D01*
X130265555Y-83798548D01*
X130284991Y-83788160D01*
X130306072Y-83781764D01*
X130334140Y-83779000D01*
X132147860Y-83779000D01*
X132175928Y-83781764D01*
G37*
G36*
X137125928Y-83781764D02*
G01*
X137147009Y-83788160D01*
X137166445Y-83798548D01*
X137183476Y-83812524D01*
X137197452Y-83829555D01*
X137207840Y-83848991D01*
X137214236Y-83870072D01*
X137217000Y-83898140D01*
X137217000Y-84361860D01*
X137214236Y-84389928D01*
X137207840Y-84411009D01*
X137197452Y-84430445D01*
X137183476Y-84447476D01*
X137166445Y-84461452D01*
X137147009Y-84471840D01*
X137125928Y-84478236D01*
X137097860Y-84481000D01*
X135284140Y-84481000D01*
X135256072Y-84478236D01*
X135234991Y-84471840D01*
X135215555Y-84461452D01*
X135198524Y-84447476D01*
X135184548Y-84430445D01*
X135174160Y-84411009D01*
X135167764Y-84389928D01*
X135165000Y-84361860D01*
X135165000Y-83898140D01*
X135167764Y-83870072D01*
X135174160Y-83848991D01*
X135184548Y-83829555D01*
X135198524Y-83812524D01*
X135215555Y-83798548D01*
X135234991Y-83788160D01*
X135256072Y-83781764D01*
X135284140Y-83779000D01*
X137097860Y-83779000D01*
X137125928Y-83781764D01*
G37*
G36*
X140520674Y-82113465D02*
G01*
X140558367Y-82124899D01*
X140593103Y-82143466D01*
X140623548Y-82168452D01*
X140648534Y-82198897D01*
X140667101Y-82233633D01*
X140678535Y-82271326D01*
X140683000Y-82316661D01*
X140683000Y-83403339D01*
X140678535Y-83448674D01*
X140667101Y-83486367D01*
X140648534Y-83521103D01*
X140623548Y-83551548D01*
X140593103Y-83576534D01*
X140558367Y-83595101D01*
X140520674Y-83606535D01*
X140475339Y-83611000D01*
X139638661Y-83611000D01*
X139593326Y-83606535D01*
X139555633Y-83595101D01*
X139520897Y-83576534D01*
X139490452Y-83551548D01*
X139465466Y-83521103D01*
X139446899Y-83486367D01*
X139435465Y-83448674D01*
X139431000Y-83403339D01*
X139431000Y-82316661D01*
X139435465Y-82271326D01*
X139446899Y-82233633D01*
X139465466Y-82198897D01*
X139490452Y-82168452D01*
X139520897Y-82143466D01*
X139555633Y-82124899D01*
X139593326Y-82113465D01*
X139638661Y-82109000D01*
X140475339Y-82109000D01*
X140520674Y-82113465D01*
G37*
G36*
X142570674Y-82113465D02*
G01*
X142608367Y-82124899D01*
X142643103Y-82143466D01*
X142673548Y-82168452D01*
X142698534Y-82198897D01*
X142717101Y-82233633D01*
X142728535Y-82271326D01*
X142733000Y-82316661D01*
X142733000Y-83403339D01*
X142728535Y-83448674D01*
X142717101Y-83486367D01*
X142698534Y-83521103D01*
X142673548Y-83551548D01*
X142643103Y-83576534D01*
X142608367Y-83595101D01*
X142570674Y-83606535D01*
X142525339Y-83611000D01*
X141688661Y-83611000D01*
X141643326Y-83606535D01*
X141605633Y-83595101D01*
X141570897Y-83576534D01*
X141540452Y-83551548D01*
X141515466Y-83521103D01*
X141496899Y-83486367D01*
X141485465Y-83448674D01*
X141481000Y-83403339D01*
X141481000Y-82316661D01*
X141485465Y-82271326D01*
X141496899Y-82233633D01*
X141515466Y-82198897D01*
X141540452Y-82168452D01*
X141570897Y-82143466D01*
X141605633Y-82124899D01*
X141643326Y-82113465D01*
X141688661Y-82109000D01*
X142525339Y-82109000D01*
X142570674Y-82113465D01*
G37*
G36*
X137125928Y-82511764D02*
G01*
X137147009Y-82518160D01*
X137166445Y-82528548D01*
X137183476Y-82542524D01*
X137197452Y-82559555D01*
X137207840Y-82578991D01*
X137214236Y-82600072D01*
X137217000Y-82628140D01*
X137217000Y-83091860D01*
X137214236Y-83119928D01*
X137207840Y-83141009D01*
X137197452Y-83160445D01*
X137183476Y-83177476D01*
X137166445Y-83191452D01*
X137147009Y-83201840D01*
X137125928Y-83208236D01*
X137097860Y-83211000D01*
X135284140Y-83211000D01*
X135256072Y-83208236D01*
X135234991Y-83201840D01*
X135215555Y-83191452D01*
X135198524Y-83177476D01*
X135184548Y-83160445D01*
X135174160Y-83141009D01*
X135167764Y-83119928D01*
X135165000Y-83091860D01*
X135165000Y-82628140D01*
X135167764Y-82600072D01*
X135174160Y-82578991D01*
X135184548Y-82559555D01*
X135198524Y-82542524D01*
X135215555Y-82528548D01*
X135234991Y-82518160D01*
X135256072Y-82511764D01*
X135284140Y-82509000D01*
X137097860Y-82509000D01*
X137125928Y-82511764D01*
G37*
G36*
X132175928Y-82511764D02*
G01*
X132197009Y-82518160D01*
X132216445Y-82528548D01*
X132233476Y-82542524D01*
X132247452Y-82559555D01*
X132257840Y-82578991D01*
X132264236Y-82600072D01*
X132267000Y-82628140D01*
X132267000Y-83091860D01*
X132264236Y-83119928D01*
X132257840Y-83141009D01*
X132247452Y-83160445D01*
X132233476Y-83177476D01*
X132216445Y-83191452D01*
X132197009Y-83201840D01*
X132175928Y-83208236D01*
X132147860Y-83211000D01*
X130334140Y-83211000D01*
X130306072Y-83208236D01*
X130284991Y-83201840D01*
X130265555Y-83191452D01*
X130248524Y-83177476D01*
X130234548Y-83160445D01*
X130224160Y-83141009D01*
X130217764Y-83119928D01*
X130215000Y-83091860D01*
X130215000Y-82628140D01*
X130217764Y-82600072D01*
X130224160Y-82578991D01*
X130234548Y-82559555D01*
X130248524Y-82542524D01*
X130265555Y-82528548D01*
X130284991Y-82518160D01*
X130306072Y-82511764D01*
X130334140Y-82509000D01*
X132147860Y-82509000D01*
X132175928Y-82511764D01*
G37*
G36*
X159784721Y-80806174D02*
G01*
X159884995Y-80847709D01*
X159891894Y-80852319D01*
X159975242Y-80908010D01*
X160051990Y-80984758D01*
X160051991Y-80984760D01*
X160112291Y-81075005D01*
X160153826Y-81175279D01*
X160175000Y-81281730D01*
X160175000Y-81390270D01*
X160153826Y-81496721D01*
X160112291Y-81596995D01*
X160112290Y-81596996D01*
X160051990Y-81687242D01*
X159975242Y-81763990D01*
X159929812Y-81794345D01*
X159884995Y-81824291D01*
X159784721Y-81865826D01*
X159678270Y-81887000D01*
X159569730Y-81887000D01*
X159463279Y-81865826D01*
X159363005Y-81824291D01*
X159318188Y-81794345D01*
X159272758Y-81763990D01*
X159196010Y-81687242D01*
X159135710Y-81596996D01*
X159135709Y-81596995D01*
X159094174Y-81496721D01*
X159073000Y-81390270D01*
X159073000Y-81281730D01*
X159094174Y-81175279D01*
X159135709Y-81075005D01*
X159196009Y-80984760D01*
X159196010Y-80984758D01*
X159272758Y-80908010D01*
X159356106Y-80852319D01*
X159363005Y-80847709D01*
X159463279Y-80806174D01*
X159569730Y-80785000D01*
X159678270Y-80785000D01*
X159784721Y-80806174D01*
G37*
G36*
X136093674Y-79827465D02*
G01*
X136131367Y-79838899D01*
X136166103Y-79857466D01*
X136196548Y-79882452D01*
X136221534Y-79912897D01*
X136240101Y-79947633D01*
X136251535Y-79985326D01*
X136256000Y-80030661D01*
X136256000Y-81117339D01*
X136251535Y-81162674D01*
X136240101Y-81200367D01*
X136221534Y-81235103D01*
X136196548Y-81265548D01*
X136166103Y-81290534D01*
X136131367Y-81309101D01*
X136093674Y-81320535D01*
X136048339Y-81325000D01*
X135211661Y-81325000D01*
X135166326Y-81320535D01*
X135128633Y-81309101D01*
X135093897Y-81290534D01*
X135063452Y-81265548D01*
X135038466Y-81235103D01*
X135019899Y-81200367D01*
X135008465Y-81162674D01*
X135004000Y-81117339D01*
X135004000Y-80030661D01*
X135008465Y-79985326D01*
X135019899Y-79947633D01*
X135038466Y-79912897D01*
X135063452Y-79882452D01*
X135093897Y-79857466D01*
X135128633Y-79838899D01*
X135166326Y-79827465D01*
X135211661Y-79823000D01*
X136048339Y-79823000D01*
X136093674Y-79827465D01*
G37*
G36*
X134043674Y-79827465D02*
G01*
X134081367Y-79838899D01*
X134116103Y-79857466D01*
X134146548Y-79882452D01*
X134171534Y-79912897D01*
X134190101Y-79947633D01*
X134201535Y-79985326D01*
X134206000Y-80030661D01*
X134206000Y-81117339D01*
X134201535Y-81162674D01*
X134190101Y-81200367D01*
X134171534Y-81235103D01*
X134146548Y-81265548D01*
X134116103Y-81290534D01*
X134081367Y-81309101D01*
X134043674Y-81320535D01*
X133998339Y-81325000D01*
X133161661Y-81325000D01*
X133116326Y-81320535D01*
X133078633Y-81309101D01*
X133043897Y-81290534D01*
X133013452Y-81265548D01*
X132988466Y-81235103D01*
X132969899Y-81200367D01*
X132958465Y-81162674D01*
X132954000Y-81117339D01*
X132954000Y-80030661D01*
X132958465Y-79985326D01*
X132969899Y-79947633D01*
X132988466Y-79912897D01*
X133013452Y-79882452D01*
X133043897Y-79857466D01*
X133078633Y-79838899D01*
X133116326Y-79827465D01*
X133161661Y-79823000D01*
X133998339Y-79823000D01*
X134043674Y-79827465D01*
G37*
G36*
X176987674Y-79573465D02*
G01*
X177025367Y-79584899D01*
X177060103Y-79603466D01*
X177090548Y-79628452D01*
X177115534Y-79658897D01*
X177134101Y-79693633D01*
X177145535Y-79731326D01*
X177150000Y-79776661D01*
X177150000Y-80863339D01*
X177145535Y-80908674D01*
X177134101Y-80946367D01*
X177115534Y-80981103D01*
X177090548Y-81011548D01*
X177060103Y-81036534D01*
X177025367Y-81055101D01*
X176987674Y-81066535D01*
X176942339Y-81071000D01*
X176105661Y-81071000D01*
X176060326Y-81066535D01*
X176022633Y-81055101D01*
X175987897Y-81036534D01*
X175957452Y-81011548D01*
X175932466Y-80981103D01*
X175913899Y-80946367D01*
X175902465Y-80908674D01*
X175898000Y-80863339D01*
X175898000Y-79776661D01*
X175902465Y-79731326D01*
X175913899Y-79693633D01*
X175932466Y-79658897D01*
X175957452Y-79628452D01*
X175987897Y-79603466D01*
X176022633Y-79584899D01*
X176060326Y-79573465D01*
X176105661Y-79569000D01*
X176942339Y-79569000D01*
X176987674Y-79573465D01*
G37*
G36*
X174938148Y-79573454D02*
G01*
X174975728Y-79584854D01*
X175010364Y-79603367D01*
X175040720Y-79628280D01*
X175065633Y-79658636D01*
X175084146Y-79693272D01*
X175095546Y-79730852D01*
X175100000Y-79776075D01*
X175100000Y-80863925D01*
X175095546Y-80909148D01*
X175084146Y-80946728D01*
X175065633Y-80981364D01*
X175040720Y-81011720D01*
X175010364Y-81036633D01*
X174975728Y-81055146D01*
X174938148Y-81066546D01*
X174892925Y-81071000D01*
X174055075Y-81071000D01*
X174009852Y-81066546D01*
X173972272Y-81055146D01*
X173937636Y-81036633D01*
X173907280Y-81011720D01*
X173882367Y-80981364D01*
X173863854Y-80946728D01*
X173852454Y-80909148D01*
X173848000Y-80863925D01*
X173848000Y-79776075D01*
X173852454Y-79730852D01*
X173863854Y-79693272D01*
X173882367Y-79658636D01*
X173907280Y-79628280D01*
X173937636Y-79603367D01*
X173972272Y-79584854D01*
X174009852Y-79573454D01*
X174055075Y-79569000D01*
X174892925Y-79569000D01*
X174938148Y-79573454D01*
G37*
G36*
X174937674Y-77541465D02*
G01*
X174975367Y-77552899D01*
X175010103Y-77571466D01*
X175040548Y-77596452D01*
X175065534Y-77626897D01*
X175084101Y-77661633D01*
X175095535Y-77699326D01*
X175100000Y-77744661D01*
X175100000Y-78831339D01*
X175095535Y-78876674D01*
X175084101Y-78914367D01*
X175065534Y-78949103D01*
X175040548Y-78979548D01*
X175010103Y-79004534D01*
X174975367Y-79023101D01*
X174937674Y-79034535D01*
X174892339Y-79039000D01*
X174055661Y-79039000D01*
X174010326Y-79034535D01*
X173972633Y-79023101D01*
X173937897Y-79004534D01*
X173907452Y-78979548D01*
X173882466Y-78949103D01*
X173863899Y-78914367D01*
X173852465Y-78876674D01*
X173848000Y-78831339D01*
X173848000Y-77744661D01*
X173852465Y-77699326D01*
X173863899Y-77661633D01*
X173882466Y-77626897D01*
X173907452Y-77596452D01*
X173937897Y-77571466D01*
X173972633Y-77552899D01*
X174010326Y-77541465D01*
X174055661Y-77537000D01*
X174892339Y-77537000D01*
X174937674Y-77541465D01*
G37*
G36*
X176987674Y-77541465D02*
G01*
X177025367Y-77552899D01*
X177060103Y-77571466D01*
X177090548Y-77596452D01*
X177115534Y-77626897D01*
X177134101Y-77661633D01*
X177145535Y-77699326D01*
X177150000Y-77744661D01*
X177150000Y-78831339D01*
X177145535Y-78876674D01*
X177134101Y-78914367D01*
X177115534Y-78949103D01*
X177090548Y-78979548D01*
X177060103Y-79004534D01*
X177025367Y-79023101D01*
X176987674Y-79034535D01*
X176942339Y-79039000D01*
X176105661Y-79039000D01*
X176060326Y-79034535D01*
X176022633Y-79023101D01*
X175987897Y-79004534D01*
X175957452Y-78979548D01*
X175932466Y-78949103D01*
X175913899Y-78914367D01*
X175902465Y-78876674D01*
X175898000Y-78831339D01*
X175898000Y-77744661D01*
X175902465Y-77699326D01*
X175913899Y-77661633D01*
X175932466Y-77626897D01*
X175957452Y-77596452D01*
X175987897Y-77571466D01*
X176022633Y-77552899D01*
X176060326Y-77541465D01*
X176105661Y-77537000D01*
X176942339Y-77537000D01*
X176987674Y-77541465D01*
G37*
G36*
X137030000Y-78427000D02*
G01*
X135228000Y-78427000D01*
X135228000Y-76625000D01*
X137030000Y-76625000D01*
X137030000Y-78427000D01*
G37*
G36*
X133702512Y-76629927D02*
G01*
X133851812Y-76659624D01*
X134015784Y-76727544D01*
X134163354Y-76826147D01*
X134288853Y-76951646D01*
X134387456Y-77099216D01*
X134455376Y-77263188D01*
X134490000Y-77437259D01*
X134490000Y-77614741D01*
X134455376Y-77788812D01*
X134387456Y-77952784D01*
X134288853Y-78100354D01*
X134163354Y-78225853D01*
X134015784Y-78324456D01*
X133851812Y-78392376D01*
X133702512Y-78422073D01*
X133677742Y-78427000D01*
X133500258Y-78427000D01*
X133475488Y-78422073D01*
X133326188Y-78392376D01*
X133162216Y-78324456D01*
X133014646Y-78225853D01*
X132889147Y-78100354D01*
X132790544Y-77952784D01*
X132722624Y-77788812D01*
X132688000Y-77614741D01*
X132688000Y-77437259D01*
X132722624Y-77263188D01*
X132790544Y-77099216D01*
X132889147Y-76951646D01*
X133014646Y-76826147D01*
X133162216Y-76727544D01*
X133326188Y-76659624D01*
X133475488Y-76629927D01*
X133500258Y-76625000D01*
X133677742Y-76625000D01*
X133702512Y-76629927D01*
G37*
G36*
X131950000Y-78427000D02*
G01*
X130148000Y-78427000D01*
X130148000Y-76625000D01*
X131950000Y-76625000D01*
X131950000Y-78427000D01*
G37*
G36*
X163516674Y-75509465D02*
G01*
X163554367Y-75520899D01*
X163589103Y-75539466D01*
X163619548Y-75564452D01*
X163644534Y-75594897D01*
X163663101Y-75629633D01*
X163674535Y-75667326D01*
X163679000Y-75712661D01*
X163679000Y-76799339D01*
X163674535Y-76844674D01*
X163663101Y-76882367D01*
X163644534Y-76917103D01*
X163619548Y-76947548D01*
X163589103Y-76972534D01*
X163554367Y-76991101D01*
X163516674Y-77002535D01*
X163471339Y-77007000D01*
X162634661Y-77007000D01*
X162589326Y-77002535D01*
X162551633Y-76991101D01*
X162516897Y-76972534D01*
X162486452Y-76947548D01*
X162461466Y-76917103D01*
X162442899Y-76882367D01*
X162431465Y-76844674D01*
X162427000Y-76799339D01*
X162427000Y-75712661D01*
X162431465Y-75667326D01*
X162442899Y-75629633D01*
X162461466Y-75594897D01*
X162486452Y-75564452D01*
X162516897Y-75539466D01*
X162551633Y-75520899D01*
X162589326Y-75509465D01*
X162634661Y-75505000D01*
X163471339Y-75505000D01*
X163516674Y-75509465D01*
G37*
G36*
X165566674Y-75509465D02*
G01*
X165604367Y-75520899D01*
X165639103Y-75539466D01*
X165669548Y-75564452D01*
X165694534Y-75594897D01*
X165713101Y-75629633D01*
X165724535Y-75667326D01*
X165729000Y-75712661D01*
X165729000Y-76799339D01*
X165724535Y-76844674D01*
X165713101Y-76882367D01*
X165694534Y-76917103D01*
X165669548Y-76947548D01*
X165639103Y-76972534D01*
X165604367Y-76991101D01*
X165566674Y-77002535D01*
X165521339Y-77007000D01*
X164684661Y-77007000D01*
X164639326Y-77002535D01*
X164601633Y-76991101D01*
X164566897Y-76972534D01*
X164536452Y-76947548D01*
X164511466Y-76917103D01*
X164492899Y-76882367D01*
X164481465Y-76844674D01*
X164477000Y-76799339D01*
X164477000Y-75712661D01*
X164481465Y-75667326D01*
X164492899Y-75629633D01*
X164511466Y-75594897D01*
X164536452Y-75564452D01*
X164566897Y-75539466D01*
X164601633Y-75520899D01*
X164639326Y-75509465D01*
X164684661Y-75505000D01*
X165521339Y-75505000D01*
X165566674Y-75509465D01*
G37*
G36*
X175559000Y-76563000D02*
G01*
X173457000Y-76563000D01*
X173457000Y-74961000D01*
X175559000Y-74961000D01*
X175559000Y-76563000D01*
G37*
G36*
X181859000Y-75413000D02*
G01*
X179757000Y-75413000D01*
X179757000Y-71511000D01*
X181859000Y-71511000D01*
X181859000Y-75413000D01*
G37*
G36*
X161204000Y-75397000D02*
G01*
X158552000Y-75397000D01*
X158552000Y-74235000D01*
X161204000Y-74235000D01*
X161204000Y-75397000D01*
G37*
G36*
X175559000Y-74263000D02*
G01*
X173457000Y-74263000D01*
X173457000Y-72661000D01*
X175559000Y-72661000D01*
X175559000Y-74263000D01*
G37*
G36*
X161204000Y-73197000D02*
G01*
X158552000Y-73197000D01*
X158552000Y-72035000D01*
X161204000Y-72035000D01*
X161204000Y-73197000D01*
G37*
G36*
X175559000Y-71963000D02*
G01*
X173457000Y-71963000D01*
X173457000Y-70361000D01*
X175559000Y-70361000D01*
X175559000Y-71963000D01*
G37*
G36*
X164356721Y-70646174D02*
G01*
X164456995Y-70687709D01*
X164480387Y-70703339D01*
X164547242Y-70748010D01*
X164623990Y-70824758D01*
X164623991Y-70824760D01*
X164684291Y-70915005D01*
X164725826Y-71015279D01*
X164747000Y-71121730D01*
X164747000Y-71230270D01*
X164725826Y-71336721D01*
X164684291Y-71436995D01*
X164684290Y-71436996D01*
X164623990Y-71527242D01*
X164547242Y-71603990D01*
X164501812Y-71634345D01*
X164456995Y-71664291D01*
X164356721Y-71705826D01*
X164250270Y-71727000D01*
X164141730Y-71727000D01*
X164035279Y-71705826D01*
X163935005Y-71664291D01*
X163890188Y-71634345D01*
X163844758Y-71603990D01*
X163768010Y-71527242D01*
X163707710Y-71436996D01*
X163707709Y-71436995D01*
X163666174Y-71336721D01*
X163645000Y-71230270D01*
X163645000Y-71121730D01*
X163666174Y-71015279D01*
X163707709Y-70915005D01*
X163768009Y-70824760D01*
X163768010Y-70824758D01*
X163844758Y-70748010D01*
X163911613Y-70703339D01*
X163935005Y-70687709D01*
X164035279Y-70646174D01*
X164141730Y-70625000D01*
X164250270Y-70625000D01*
X164356721Y-70646174D01*
G37*
G36*
X172404674Y-70436465D02*
G01*
X172442367Y-70447899D01*
X172477103Y-70466466D01*
X172507548Y-70491452D01*
X172532534Y-70521897D01*
X172551101Y-70556633D01*
X172562535Y-70594326D01*
X172567000Y-70639661D01*
X172567000Y-71476339D01*
X172562535Y-71521674D01*
X172551101Y-71559367D01*
X172532534Y-71594103D01*
X172507548Y-71624548D01*
X172477103Y-71649534D01*
X172442367Y-71668101D01*
X172404674Y-71679535D01*
X172359339Y-71684000D01*
X171272661Y-71684000D01*
X171227326Y-71679535D01*
X171189633Y-71668101D01*
X171154897Y-71649534D01*
X171124452Y-71624548D01*
X171099466Y-71594103D01*
X171080899Y-71559367D01*
X171069465Y-71521674D01*
X171065000Y-71476339D01*
X171065000Y-70639661D01*
X171069465Y-70594326D01*
X171080899Y-70556633D01*
X171099466Y-70521897D01*
X171124452Y-70491452D01*
X171154897Y-70466466D01*
X171189633Y-70447899D01*
X171227326Y-70436465D01*
X171272661Y-70432000D01*
X172359339Y-70432000D01*
X172404674Y-70436465D01*
G37*
G36*
X170118674Y-70436465D02*
G01*
X170156367Y-70447899D01*
X170191103Y-70466466D01*
X170221548Y-70491452D01*
X170246534Y-70521897D01*
X170265101Y-70556633D01*
X170276535Y-70594326D01*
X170281000Y-70639661D01*
X170281000Y-71476339D01*
X170276535Y-71521674D01*
X170265101Y-71559367D01*
X170246534Y-71594103D01*
X170221548Y-71624548D01*
X170191103Y-71649534D01*
X170156367Y-71668101D01*
X170118674Y-71679535D01*
X170073339Y-71684000D01*
X168986661Y-71684000D01*
X168941326Y-71679535D01*
X168903633Y-71668101D01*
X168868897Y-71649534D01*
X168838452Y-71624548D01*
X168813466Y-71594103D01*
X168794899Y-71559367D01*
X168783465Y-71521674D01*
X168779000Y-71476339D01*
X168779000Y-70639661D01*
X168783465Y-70594326D01*
X168794899Y-70556633D01*
X168813466Y-70521897D01*
X168838452Y-70491452D01*
X168868897Y-70466466D01*
X168903633Y-70447899D01*
X168941326Y-70436465D01*
X168986661Y-70432000D01*
X170073339Y-70432000D01*
X170118674Y-70436465D01*
G37*
G36*
X157048674Y-69413465D02*
G01*
X157086367Y-69424899D01*
X157121103Y-69443466D01*
X157151548Y-69468452D01*
X157176534Y-69498897D01*
X157195101Y-69533633D01*
X157206535Y-69571326D01*
X157211000Y-69616661D01*
X157211000Y-70703339D01*
X157206535Y-70748674D01*
X157195101Y-70786367D01*
X157176534Y-70821103D01*
X157151548Y-70851548D01*
X157121103Y-70876534D01*
X157086367Y-70895101D01*
X157048674Y-70906535D01*
X157003339Y-70911000D01*
X156166661Y-70911000D01*
X156121326Y-70906535D01*
X156083633Y-70895101D01*
X156048897Y-70876534D01*
X156018452Y-70851548D01*
X155993466Y-70821103D01*
X155974899Y-70786367D01*
X155963465Y-70748674D01*
X155959000Y-70703339D01*
X155959000Y-69616661D01*
X155963465Y-69571326D01*
X155974899Y-69533633D01*
X155993466Y-69498897D01*
X156018452Y-69468452D01*
X156048897Y-69443466D01*
X156083633Y-69424899D01*
X156121326Y-69413465D01*
X156166661Y-69409000D01*
X157003339Y-69409000D01*
X157048674Y-69413465D01*
G37*
G36*
X154998674Y-69413465D02*
G01*
X155036367Y-69424899D01*
X155071103Y-69443466D01*
X155101548Y-69468452D01*
X155126534Y-69498897D01*
X155145101Y-69533633D01*
X155156535Y-69571326D01*
X155161000Y-69616661D01*
X155161000Y-70703339D01*
X155156535Y-70748674D01*
X155145101Y-70786367D01*
X155126534Y-70821103D01*
X155101548Y-70851548D01*
X155071103Y-70876534D01*
X155036367Y-70895101D01*
X154998674Y-70906535D01*
X154953339Y-70911000D01*
X154116661Y-70911000D01*
X154071326Y-70906535D01*
X154033633Y-70895101D01*
X153998897Y-70876534D01*
X153968452Y-70851548D01*
X153943466Y-70821103D01*
X153924899Y-70786367D01*
X153913465Y-70748674D01*
X153909000Y-70703339D01*
X153909000Y-69616661D01*
X153913465Y-69571326D01*
X153924899Y-69533633D01*
X153943466Y-69498897D01*
X153968452Y-69468452D01*
X153998897Y-69443466D01*
X154033633Y-69424899D01*
X154071326Y-69413465D01*
X154116661Y-69409000D01*
X154953339Y-69409000D01*
X154998674Y-69413465D01*
G37*
G36*
X172404674Y-68386465D02*
G01*
X172442367Y-68397899D01*
X172477103Y-68416466D01*
X172507548Y-68441452D01*
X172532534Y-68471897D01*
X172551101Y-68506633D01*
X172562535Y-68544326D01*
X172567000Y-68589661D01*
X172567000Y-69426339D01*
X172562535Y-69471674D01*
X172551101Y-69509367D01*
X172532534Y-69544103D01*
X172507548Y-69574548D01*
X172477103Y-69599534D01*
X172442367Y-69618101D01*
X172404674Y-69629535D01*
X172359339Y-69634000D01*
X171272661Y-69634000D01*
X171227326Y-69629535D01*
X171189633Y-69618101D01*
X171154897Y-69599534D01*
X171124452Y-69574548D01*
X171099466Y-69544103D01*
X171080899Y-69509367D01*
X171069465Y-69471674D01*
X171065000Y-69426339D01*
X171065000Y-68589661D01*
X171069465Y-68544326D01*
X171080899Y-68506633D01*
X171099466Y-68471897D01*
X171124452Y-68441452D01*
X171154897Y-68416466D01*
X171189633Y-68397899D01*
X171227326Y-68386465D01*
X171272661Y-68382000D01*
X172359339Y-68382000D01*
X172404674Y-68386465D01*
G37*
G36*
X170118674Y-68386465D02*
G01*
X170156367Y-68397899D01*
X170191103Y-68416466D01*
X170221548Y-68441452D01*
X170246534Y-68471897D01*
X170265101Y-68506633D01*
X170276535Y-68544326D01*
X170281000Y-68589661D01*
X170281000Y-69426339D01*
X170276535Y-69471674D01*
X170265101Y-69509367D01*
X170246534Y-69544103D01*
X170221548Y-69574548D01*
X170191103Y-69599534D01*
X170156367Y-69618101D01*
X170118674Y-69629535D01*
X170073339Y-69634000D01*
X168986661Y-69634000D01*
X168941326Y-69629535D01*
X168903633Y-69618101D01*
X168868897Y-69599534D01*
X168838452Y-69574548D01*
X168813466Y-69544103D01*
X168794899Y-69509367D01*
X168783465Y-69471674D01*
X168779000Y-69426339D01*
X168779000Y-68589661D01*
X168783465Y-68544326D01*
X168794899Y-68506633D01*
X168813466Y-68471897D01*
X168838452Y-68441452D01*
X168868897Y-68416466D01*
X168903633Y-68397899D01*
X168941326Y-68386465D01*
X168986661Y-68382000D01*
X170073339Y-68382000D01*
X170118674Y-68386465D01*
G37*
G36*
X178834721Y-67598174D02*
G01*
X178934995Y-67639709D01*
X178934996Y-67639710D01*
X179025242Y-67700010D01*
X179101990Y-67776758D01*
X179101991Y-67776760D01*
X179162291Y-67867005D01*
X179203826Y-67967279D01*
X179225000Y-68073730D01*
X179225000Y-68182270D01*
X179203826Y-68288721D01*
X179162291Y-68388995D01*
X179143935Y-68416466D01*
X179101990Y-68479242D01*
X179025242Y-68555990D01*
X178979812Y-68586345D01*
X178934995Y-68616291D01*
X178834721Y-68657826D01*
X178728270Y-68679000D01*
X178619730Y-68679000D01*
X178513279Y-68657826D01*
X178413005Y-68616291D01*
X178368188Y-68586345D01*
X178322758Y-68555990D01*
X178246010Y-68479242D01*
X178204065Y-68416466D01*
X178185709Y-68388995D01*
X178144174Y-68288721D01*
X178123000Y-68182270D01*
X178123000Y-68073730D01*
X178144174Y-67967279D01*
X178185709Y-67867005D01*
X178246009Y-67776760D01*
X178246010Y-67776758D01*
X178322758Y-67700010D01*
X178413004Y-67639710D01*
X178413005Y-67639709D01*
X178513279Y-67598174D01*
X178619730Y-67577000D01*
X178728270Y-67577000D01*
X178834721Y-67598174D01*
G37*
G36*
X161901000Y-68251000D02*
G01*
X158099000Y-68251000D01*
X158099000Y-66149000D01*
X161901000Y-66149000D01*
X161901000Y-68251000D01*
G37*
G36*
X165501000Y-68001000D02*
G01*
X163399000Y-68001000D01*
X163399000Y-66199000D01*
X165501000Y-66199000D01*
X165501000Y-68001000D01*
G37*
G36*
X156601000Y-68001000D02*
G01*
X154499000Y-68001000D01*
X154499000Y-66199000D01*
X156601000Y-66199000D01*
X156601000Y-68001000D01*
G37*
G36*
X162360721Y-63970174D02*
G01*
X162460995Y-64011709D01*
X162460996Y-64011710D01*
X162551242Y-64072010D01*
X162627990Y-64148758D01*
X162627991Y-64148760D01*
X162688291Y-64239005D01*
X162729826Y-64339279D01*
X162751000Y-64445730D01*
X162751000Y-64554270D01*
X162729826Y-64660721D01*
X162688291Y-64760995D01*
X162688290Y-64760996D01*
X162627990Y-64851242D01*
X162551242Y-64927990D01*
X162505812Y-64958345D01*
X162460995Y-64988291D01*
X162360721Y-65029826D01*
X162254270Y-65051000D01*
X162145730Y-65051000D01*
X162039279Y-65029826D01*
X161939005Y-64988291D01*
X161894188Y-64958345D01*
X161848758Y-64927990D01*
X161772010Y-64851242D01*
X161711710Y-64760996D01*
X161711709Y-64760995D01*
X161670174Y-64660721D01*
X161649000Y-64554270D01*
X161649000Y-64445730D01*
X161670174Y-64339279D01*
X161711709Y-64239005D01*
X161772009Y-64148760D01*
X161772010Y-64148758D01*
X161848758Y-64072010D01*
X161939004Y-64011710D01*
X161939005Y-64011709D01*
X162039279Y-63970174D01*
X162145730Y-63949000D01*
X162254270Y-63949000D01*
X162360721Y-63970174D01*
G37*
G36*
X157960721Y-63970174D02*
G01*
X158060995Y-64011709D01*
X158060996Y-64011710D01*
X158151242Y-64072010D01*
X158227990Y-64148758D01*
X158227991Y-64148760D01*
X158288291Y-64239005D01*
X158329826Y-64339279D01*
X158351000Y-64445730D01*
X158351000Y-64554270D01*
X158329826Y-64660721D01*
X158288291Y-64760995D01*
X158288290Y-64760996D01*
X158227990Y-64851242D01*
X158151242Y-64927990D01*
X158105812Y-64958345D01*
X158060995Y-64988291D01*
X157960721Y-65029826D01*
X157854270Y-65051000D01*
X157745730Y-65051000D01*
X157639279Y-65029826D01*
X157539005Y-64988291D01*
X157494188Y-64958345D01*
X157448758Y-64927990D01*
X157372010Y-64851242D01*
X157311710Y-64760996D01*
X157311709Y-64760995D01*
X157270174Y-64660721D01*
X157249000Y-64554270D01*
X157249000Y-64445730D01*
X157270174Y-64339279D01*
X157311709Y-64239005D01*
X157372009Y-64148760D01*
X157372010Y-64148758D01*
X157448758Y-64072010D01*
X157539004Y-64011710D01*
X157539005Y-64011709D01*
X157639279Y-63970174D01*
X157745730Y-63949000D01*
X157854270Y-63949000D01*
X157960721Y-63970174D01*
G37*
G36*
X151889000Y-63695000D02*
G01*
X150087000Y-63695000D01*
X150087000Y-61893000D01*
X151889000Y-61893000D01*
X151889000Y-63695000D01*
G37*
G36*
X140941512Y-61897927D02*
G01*
X141090812Y-61927624D01*
X141254784Y-61995544D01*
X141402354Y-62094147D01*
X141527853Y-62219646D01*
X141626456Y-62367216D01*
X141694376Y-62531188D01*
X141729000Y-62705259D01*
X141729000Y-62882741D01*
X141694376Y-63056812D01*
X141626456Y-63220784D01*
X141527853Y-63368354D01*
X141402354Y-63493853D01*
X141254784Y-63592456D01*
X141090812Y-63660376D01*
X140941512Y-63690073D01*
X140916742Y-63695000D01*
X140739258Y-63695000D01*
X140714488Y-63690073D01*
X140565188Y-63660376D01*
X140401216Y-63592456D01*
X140253646Y-63493853D01*
X140128147Y-63368354D01*
X140029544Y-63220784D01*
X139961624Y-63056812D01*
X139927000Y-62882741D01*
X139927000Y-62705259D01*
X139961624Y-62531188D01*
X140029544Y-62367216D01*
X140128147Y-62219646D01*
X140253646Y-62094147D01*
X140401216Y-61995544D01*
X140565188Y-61927624D01*
X140714488Y-61897927D01*
X140739258Y-61893000D01*
X140916742Y-61893000D01*
X140941512Y-61897927D01*
G37*
G36*
X138401512Y-61897927D02*
G01*
X138550812Y-61927624D01*
X138714784Y-61995544D01*
X138862354Y-62094147D01*
X138987853Y-62219646D01*
X139086456Y-62367216D01*
X139154376Y-62531188D01*
X139189000Y-62705259D01*
X139189000Y-62882741D01*
X139154376Y-63056812D01*
X139086456Y-63220784D01*
X138987853Y-63368354D01*
X138862354Y-63493853D01*
X138714784Y-63592456D01*
X138550812Y-63660376D01*
X138401512Y-63690073D01*
X138376742Y-63695000D01*
X138199258Y-63695000D01*
X138174488Y-63690073D01*
X138025188Y-63660376D01*
X137861216Y-63592456D01*
X137713646Y-63493853D01*
X137588147Y-63368354D01*
X137489544Y-63220784D01*
X137421624Y-63056812D01*
X137387000Y-62882741D01*
X137387000Y-62705259D01*
X137421624Y-62531188D01*
X137489544Y-62367216D01*
X137588147Y-62219646D01*
X137713646Y-62094147D01*
X137861216Y-61995544D01*
X138025188Y-61927624D01*
X138174488Y-61897927D01*
X138199258Y-61893000D01*
X138376742Y-61893000D01*
X138401512Y-61897927D01*
G37*
G36*
X146021512Y-61897927D02*
G01*
X146170812Y-61927624D01*
X146334784Y-61995544D01*
X146482354Y-62094147D01*
X146607853Y-62219646D01*
X146706456Y-62367216D01*
X146774376Y-62531188D01*
X146809000Y-62705259D01*
X146809000Y-62882741D01*
X146774376Y-63056812D01*
X146706456Y-63220784D01*
X146607853Y-63368354D01*
X146482354Y-63493853D01*
X146334784Y-63592456D01*
X146170812Y-63660376D01*
X146021512Y-63690073D01*
X145996742Y-63695000D01*
X145819258Y-63695000D01*
X145794488Y-63690073D01*
X145645188Y-63660376D01*
X145481216Y-63592456D01*
X145333646Y-63493853D01*
X145208147Y-63368354D01*
X145109544Y-63220784D01*
X145041624Y-63056812D01*
X145007000Y-62882741D01*
X145007000Y-62705259D01*
X145041624Y-62531188D01*
X145109544Y-62367216D01*
X145208147Y-62219646D01*
X145333646Y-62094147D01*
X145481216Y-61995544D01*
X145645188Y-61927624D01*
X145794488Y-61897927D01*
X145819258Y-61893000D01*
X145996742Y-61893000D01*
X146021512Y-61897927D01*
G37*
G36*
X148561512Y-61897927D02*
G01*
X148710812Y-61927624D01*
X148874784Y-61995544D01*
X149022354Y-62094147D01*
X149147853Y-62219646D01*
X149246456Y-62367216D01*
X149314376Y-62531188D01*
X149349000Y-62705259D01*
X149349000Y-62882741D01*
X149314376Y-63056812D01*
X149246456Y-63220784D01*
X149147853Y-63368354D01*
X149022354Y-63493853D01*
X148874784Y-63592456D01*
X148710812Y-63660376D01*
X148561512Y-63690073D01*
X148536742Y-63695000D01*
X148359258Y-63695000D01*
X148334488Y-63690073D01*
X148185188Y-63660376D01*
X148021216Y-63592456D01*
X147873646Y-63493853D01*
X147748147Y-63368354D01*
X147649544Y-63220784D01*
X147581624Y-63056812D01*
X147547000Y-62882741D01*
X147547000Y-62705259D01*
X147581624Y-62531188D01*
X147649544Y-62367216D01*
X147748147Y-62219646D01*
X147873646Y-62094147D01*
X148021216Y-61995544D01*
X148185188Y-61927624D01*
X148334488Y-61897927D01*
X148359258Y-61893000D01*
X148536742Y-61893000D01*
X148561512Y-61897927D01*
G37*
G36*
X143481512Y-61897927D02*
G01*
X143630812Y-61927624D01*
X143794784Y-61995544D01*
X143942354Y-62094147D01*
X144067853Y-62219646D01*
X144166456Y-62367216D01*
X144234376Y-62531188D01*
X144269000Y-62705259D01*
X144269000Y-62882741D01*
X144234376Y-63056812D01*
X144166456Y-63220784D01*
X144067853Y-63368354D01*
X143942354Y-63493853D01*
X143794784Y-63592456D01*
X143630812Y-63660376D01*
X143481512Y-63690073D01*
X143456742Y-63695000D01*
X143279258Y-63695000D01*
X143254488Y-63690073D01*
X143105188Y-63660376D01*
X142941216Y-63592456D01*
X142793646Y-63493853D01*
X142668147Y-63368354D01*
X142569544Y-63220784D01*
X142501624Y-63056812D01*
X142467000Y-62882741D01*
X142467000Y-62705259D01*
X142501624Y-62531188D01*
X142569544Y-62367216D01*
X142668147Y-62219646D01*
X142793646Y-62094147D01*
X142941216Y-61995544D01*
X143105188Y-61927624D01*
X143254488Y-61897927D01*
X143279258Y-61893000D01*
X143456742Y-61893000D01*
X143481512Y-61897927D01*
G37*
G36*
X173707512Y-61643927D02*
G01*
X173856812Y-61673624D01*
X174020784Y-61741544D01*
X174168354Y-61840147D01*
X174293853Y-61965646D01*
X174392456Y-62113216D01*
X174460376Y-62277188D01*
X174495000Y-62451259D01*
X174495000Y-62628741D01*
X174460376Y-62802812D01*
X174392456Y-62966784D01*
X174293853Y-63114354D01*
X174168354Y-63239853D01*
X174020784Y-63338456D01*
X173856812Y-63406376D01*
X173707512Y-63436073D01*
X173682742Y-63441000D01*
X173505258Y-63441000D01*
X173480488Y-63436073D01*
X173331188Y-63406376D01*
X173167216Y-63338456D01*
X173019646Y-63239853D01*
X172894147Y-63114354D01*
X172795544Y-62966784D01*
X172727624Y-62802812D01*
X172693000Y-62628741D01*
X172693000Y-62451259D01*
X172727624Y-62277188D01*
X172795544Y-62113216D01*
X172894147Y-61965646D01*
X173019646Y-61840147D01*
X173167216Y-61741544D01*
X173331188Y-61673624D01*
X173480488Y-61643927D01*
X173505258Y-61639000D01*
X173682742Y-61639000D01*
X173707512Y-61643927D01*
G37*
G36*
X176247512Y-61643927D02*
G01*
X176396812Y-61673624D01*
X176560784Y-61741544D01*
X176708354Y-61840147D01*
X176833853Y-61965646D01*
X176932456Y-62113216D01*
X177000376Y-62277188D01*
X177035000Y-62451259D01*
X177035000Y-62628741D01*
X177000376Y-62802812D01*
X176932456Y-62966784D01*
X176833853Y-63114354D01*
X176708354Y-63239853D01*
X176560784Y-63338456D01*
X176396812Y-63406376D01*
X176247512Y-63436073D01*
X176222742Y-63441000D01*
X176045258Y-63441000D01*
X176020488Y-63436073D01*
X175871188Y-63406376D01*
X175707216Y-63338456D01*
X175559646Y-63239853D01*
X175434147Y-63114354D01*
X175335544Y-62966784D01*
X175267624Y-62802812D01*
X175233000Y-62628741D01*
X175233000Y-62451259D01*
X175267624Y-62277188D01*
X175335544Y-62113216D01*
X175434147Y-61965646D01*
X175559646Y-61840147D01*
X175707216Y-61741544D01*
X175871188Y-61673624D01*
X176020488Y-61643927D01*
X176045258Y-61639000D01*
X176222742Y-61639000D01*
X176247512Y-61643927D01*
G37*
G36*
X179575000Y-63441000D02*
G01*
X177773000Y-63441000D01*
X177773000Y-61639000D01*
X179575000Y-61639000D01*
X179575000Y-63441000D01*
G37*
G36*
X171167512Y-61643927D02*
G01*
X171316812Y-61673624D01*
X171480784Y-61741544D01*
X171628354Y-61840147D01*
X171753853Y-61965646D01*
X171852456Y-62113216D01*
X171920376Y-62277188D01*
X171955000Y-62451259D01*
X171955000Y-62628741D01*
X171920376Y-62802812D01*
X171852456Y-62966784D01*
X171753853Y-63114354D01*
X171628354Y-63239853D01*
X171480784Y-63338456D01*
X171316812Y-63406376D01*
X171167512Y-63436073D01*
X171142742Y-63441000D01*
X170965258Y-63441000D01*
X170940488Y-63436073D01*
X170791188Y-63406376D01*
X170627216Y-63338456D01*
X170479646Y-63239853D01*
X170354147Y-63114354D01*
X170255544Y-62966784D01*
X170187624Y-62802812D01*
X170153000Y-62628741D01*
X170153000Y-62451259D01*
X170187624Y-62277188D01*
X170255544Y-62113216D01*
X170354147Y-61965646D01*
X170479646Y-61840147D01*
X170627216Y-61741544D01*
X170791188Y-61673624D01*
X170940488Y-61643927D01*
X170965258Y-61639000D01*
X171142742Y-61639000D01*
X171167512Y-61643927D01*
G37*
G36*
X165501000Y-62551000D02*
G01*
X163399000Y-62551000D01*
X163399000Y-60749000D01*
X165501000Y-60749000D01*
X165501000Y-62551000D01*
G37*
G36*
X156601000Y-62551000D02*
G01*
X154499000Y-62551000D01*
X154499000Y-60749000D01*
X156601000Y-60749000D01*
X156601000Y-62551000D01*
G37*
M02*
