G04 #@! TF.GenerationSoftware,KiCad,Pcbnew,(5.1.5)-2*
G04 #@! TF.CreationDate,2021-02-28T22:06:59+01:00*
G04 #@! TF.ProjectId,USB_TO_I2C,5553425f-544f-45f4-9932-432e6b696361,rev?*
G04 #@! TF.SameCoordinates,Original*
G04 #@! TF.FileFunction,Legend,Top*
G04 #@! TF.FilePolarity,Positive*
%FSLAX46Y46*%
G04 Gerber Fmt 4.6, Leading zero omitted, Abs format (unit mm)*
G04 Created by KiCad (PCBNEW (5.1.5)-2) date 2021-02-28 22:06:59*
%MOMM*%
%LPD*%
G04 APERTURE LIST*
%ADD10C,0.150000*%
%ADD11C,0.120000*%
%ADD12C,0.250000*%
%ADD13C,0.200000*%
%ADD14C,0.010000*%
G04 APERTURE END LIST*
D10*
X130896952Y-74801904D02*
X131392190Y-74801904D01*
X131125523Y-75106666D01*
X131239809Y-75106666D01*
X131316000Y-75144761D01*
X131354095Y-75182857D01*
X131392190Y-75259047D01*
X131392190Y-75449523D01*
X131354095Y-75525714D01*
X131316000Y-75563809D01*
X131239809Y-75601904D01*
X131011238Y-75601904D01*
X130935047Y-75563809D01*
X130896952Y-75525714D01*
X131620761Y-74801904D02*
X131887428Y-75601904D01*
X132154095Y-74801904D01*
X132344571Y-74801904D02*
X132839809Y-74801904D01*
X132573142Y-75106666D01*
X132687428Y-75106666D01*
X132763619Y-75144761D01*
X132801714Y-75182857D01*
X132839809Y-75259047D01*
X132839809Y-75449523D01*
X132801714Y-75525714D01*
X132763619Y-75563809D01*
X132687428Y-75601904D01*
X132458857Y-75601904D01*
X132382666Y-75563809D01*
X132344571Y-75525714D01*
X133792190Y-75297142D02*
X134401714Y-75297142D01*
X135773142Y-74801904D02*
X135392190Y-74801904D01*
X135354095Y-75182857D01*
X135392190Y-75144761D01*
X135468380Y-75106666D01*
X135658857Y-75106666D01*
X135735047Y-75144761D01*
X135773142Y-75182857D01*
X135811238Y-75259047D01*
X135811238Y-75449523D01*
X135773142Y-75525714D01*
X135735047Y-75563809D01*
X135658857Y-75601904D01*
X135468380Y-75601904D01*
X135392190Y-75563809D01*
X135354095Y-75525714D01*
X136039809Y-74801904D02*
X136306476Y-75601904D01*
X136573142Y-74801904D01*
X138065714Y-126338380D02*
X138103809Y-126376476D01*
X138141904Y-126490761D01*
X138141904Y-126566952D01*
X138103809Y-126681238D01*
X138027619Y-126757428D01*
X137951428Y-126795523D01*
X137799047Y-126833619D01*
X137684761Y-126833619D01*
X137532380Y-126795523D01*
X137456190Y-126757428D01*
X137380000Y-126681238D01*
X137341904Y-126566952D01*
X137341904Y-126490761D01*
X137380000Y-126376476D01*
X137418095Y-126338380D01*
X138141904Y-125995523D02*
X137341904Y-125995523D01*
X137722857Y-125995523D02*
X137722857Y-125538380D01*
X138141904Y-125538380D02*
X137341904Y-125538380D01*
X138141904Y-124738380D02*
X138141904Y-125195523D01*
X138141904Y-124966952D02*
X137341904Y-124966952D01*
X137456190Y-125043142D01*
X137532380Y-125119333D01*
X137570476Y-125195523D01*
X134840000Y-126395523D02*
X134801904Y-126471714D01*
X134801904Y-126586000D01*
X134840000Y-126700285D01*
X134916190Y-126776476D01*
X134992380Y-126814571D01*
X135144761Y-126852666D01*
X135259047Y-126852666D01*
X135411428Y-126814571D01*
X135487619Y-126776476D01*
X135563809Y-126700285D01*
X135601904Y-126586000D01*
X135601904Y-126509809D01*
X135563809Y-126395523D01*
X135525714Y-126357428D01*
X135259047Y-126357428D01*
X135259047Y-126509809D01*
X135601904Y-126014571D02*
X134801904Y-126014571D01*
X135601904Y-125557428D01*
X134801904Y-125557428D01*
X135601904Y-125176476D02*
X134801904Y-125176476D01*
X134801904Y-124986000D01*
X134840000Y-124871714D01*
X134916190Y-124795523D01*
X134992380Y-124757428D01*
X135144761Y-124719333D01*
X135259047Y-124719333D01*
X135411428Y-124757428D01*
X135487619Y-124795523D01*
X135563809Y-124871714D01*
X135601904Y-124986000D01*
X135601904Y-125176476D01*
X132300000Y-126395523D02*
X132261904Y-126471714D01*
X132261904Y-126586000D01*
X132300000Y-126700285D01*
X132376190Y-126776476D01*
X132452380Y-126814571D01*
X132604761Y-126852666D01*
X132719047Y-126852666D01*
X132871428Y-126814571D01*
X132947619Y-126776476D01*
X133023809Y-126700285D01*
X133061904Y-126586000D01*
X133061904Y-126509809D01*
X133023809Y-126395523D01*
X132985714Y-126357428D01*
X132719047Y-126357428D01*
X132719047Y-126509809D01*
X133061904Y-126014571D02*
X132261904Y-126014571D01*
X133061904Y-125557428D01*
X132261904Y-125557428D01*
X133061904Y-125176476D02*
X132261904Y-125176476D01*
X132261904Y-124986000D01*
X132300000Y-124871714D01*
X132376190Y-124795523D01*
X132452380Y-124757428D01*
X132604761Y-124719333D01*
X132719047Y-124719333D01*
X132871428Y-124757428D01*
X132947619Y-124795523D01*
X133023809Y-124871714D01*
X133061904Y-124986000D01*
X133061904Y-125176476D01*
X130445714Y-126338380D02*
X130483809Y-126376476D01*
X130521904Y-126490761D01*
X130521904Y-126566952D01*
X130483809Y-126681238D01*
X130407619Y-126757428D01*
X130331428Y-126795523D01*
X130179047Y-126833619D01*
X130064761Y-126833619D01*
X129912380Y-126795523D01*
X129836190Y-126757428D01*
X129760000Y-126681238D01*
X129721904Y-126566952D01*
X129721904Y-126490761D01*
X129760000Y-126376476D01*
X129798095Y-126338380D01*
X130521904Y-125995523D02*
X129721904Y-125995523D01*
X130102857Y-125995523D02*
X130102857Y-125538380D01*
X130521904Y-125538380D02*
X129721904Y-125538380D01*
X129798095Y-125195523D02*
X129760000Y-125157428D01*
X129721904Y-125081238D01*
X129721904Y-124890761D01*
X129760000Y-124814571D01*
X129798095Y-124776476D01*
X129874285Y-124738380D01*
X129950476Y-124738380D01*
X130064761Y-124776476D01*
X130521904Y-125233619D01*
X130521904Y-124738380D01*
D11*
X136510000Y-87940000D02*
G75*
G03X136510000Y-87940000I-254000J0D01*
G01*
D10*
X173194000Y-65689523D02*
X173155904Y-65765714D01*
X173155904Y-65880000D01*
X173194000Y-65994285D01*
X173270190Y-66070476D01*
X173346380Y-66108571D01*
X173498761Y-66146666D01*
X173613047Y-66146666D01*
X173765428Y-66108571D01*
X173841619Y-66070476D01*
X173917809Y-65994285D01*
X173955904Y-65880000D01*
X173955904Y-65803809D01*
X173917809Y-65689523D01*
X173879714Y-65651428D01*
X173613047Y-65651428D01*
X173613047Y-65803809D01*
X173955904Y-65308571D02*
X173155904Y-65308571D01*
X173955904Y-64851428D01*
X173155904Y-64851428D01*
X173955904Y-64470476D02*
X173155904Y-64470476D01*
X173155904Y-64280000D01*
X173194000Y-64165714D01*
X173270190Y-64089523D01*
X173346380Y-64051428D01*
X173498761Y-64013333D01*
X173613047Y-64013333D01*
X173765428Y-64051428D01*
X173841619Y-64089523D01*
X173917809Y-64165714D01*
X173955904Y-64280000D01*
X173955904Y-64470476D01*
X170654000Y-65689523D02*
X170615904Y-65765714D01*
X170615904Y-65880000D01*
X170654000Y-65994285D01*
X170730190Y-66070476D01*
X170806380Y-66108571D01*
X170958761Y-66146666D01*
X171073047Y-66146666D01*
X171225428Y-66108571D01*
X171301619Y-66070476D01*
X171377809Y-65994285D01*
X171415904Y-65880000D01*
X171415904Y-65803809D01*
X171377809Y-65689523D01*
X171339714Y-65651428D01*
X171073047Y-65651428D01*
X171073047Y-65803809D01*
X171415904Y-65308571D02*
X170615904Y-65308571D01*
X171415904Y-64851428D01*
X170615904Y-64851428D01*
X171415904Y-64470476D02*
X170615904Y-64470476D01*
X170615904Y-64280000D01*
X170654000Y-64165714D01*
X170730190Y-64089523D01*
X170806380Y-64051428D01*
X170958761Y-64013333D01*
X171073047Y-64013333D01*
X171225428Y-64051428D01*
X171301619Y-64089523D01*
X171377809Y-64165714D01*
X171415904Y-64280000D01*
X171415904Y-64470476D01*
X175981619Y-64641904D02*
X175600666Y-64641904D01*
X175562571Y-65022857D01*
X175600666Y-64984761D01*
X175676857Y-64946666D01*
X175867333Y-64946666D01*
X175943523Y-64984761D01*
X175981619Y-65022857D01*
X176019714Y-65099047D01*
X176019714Y-65289523D01*
X175981619Y-65365714D01*
X175943523Y-65403809D01*
X175867333Y-65441904D01*
X175676857Y-65441904D01*
X175600666Y-65403809D01*
X175562571Y-65365714D01*
X176248285Y-64641904D02*
X176514952Y-65441904D01*
X176781619Y-64641904D01*
X178235904Y-66578476D02*
X178235904Y-66083238D01*
X178540666Y-66349904D01*
X178540666Y-66235619D01*
X178578761Y-66159428D01*
X178616857Y-66121333D01*
X178693047Y-66083238D01*
X178883523Y-66083238D01*
X178959714Y-66121333D01*
X178997809Y-66159428D01*
X179035904Y-66235619D01*
X179035904Y-66464190D01*
X178997809Y-66540380D01*
X178959714Y-66578476D01*
X178235904Y-65854666D02*
X179035904Y-65588000D01*
X178235904Y-65321333D01*
X178235904Y-65130857D02*
X178235904Y-64635619D01*
X178540666Y-64902285D01*
X178540666Y-64788000D01*
X178578761Y-64711809D01*
X178616857Y-64673714D01*
X178693047Y-64635619D01*
X178883523Y-64635619D01*
X178959714Y-64673714D01*
X178997809Y-64711809D01*
X179035904Y-64788000D01*
X179035904Y-65016571D01*
X178997809Y-65092761D01*
X178959714Y-65130857D01*
D12*
X126969270Y-72596761D02*
X127106175Y-72644380D01*
X127344270Y-72644380D01*
X127445461Y-72596761D01*
X127499032Y-72549142D01*
X127558556Y-72453904D01*
X127570461Y-72358666D01*
X127534747Y-72263428D01*
X127493080Y-72215809D01*
X127403794Y-72168190D01*
X127219270Y-72120571D01*
X127129985Y-72072952D01*
X127088318Y-72025333D01*
X127052604Y-71930095D01*
X127064508Y-71834857D01*
X127124032Y-71739619D01*
X127177604Y-71692000D01*
X127278794Y-71644380D01*
X127516889Y-71644380D01*
X127653794Y-71692000D01*
X127945461Y-71644380D02*
X128516889Y-71644380D01*
X128106175Y-72644380D02*
X128231175Y-71644380D01*
X128725223Y-72644380D02*
X128850223Y-71644380D01*
X129094270Y-72358666D01*
X129516889Y-71644380D01*
X129391889Y-72644380D01*
X129897842Y-71644380D02*
X130516889Y-71644380D01*
X130135937Y-72025333D01*
X130278794Y-72025333D01*
X130368080Y-72072952D01*
X130409747Y-72120571D01*
X130445461Y-72215809D01*
X130415699Y-72453904D01*
X130356175Y-72549142D01*
X130302604Y-72596761D01*
X130201413Y-72644380D01*
X129915699Y-72644380D01*
X129826413Y-72596761D01*
X129784747Y-72549142D01*
X130885937Y-71739619D02*
X130939508Y-71692000D01*
X131040699Y-71644380D01*
X131278794Y-71644380D01*
X131368080Y-71692000D01*
X131409747Y-71739619D01*
X131445461Y-71834857D01*
X131433556Y-71930095D01*
X131368080Y-72072952D01*
X130725223Y-72644380D01*
X131344270Y-72644380D01*
X132534747Y-72644380D02*
X132659747Y-71644380D01*
X132903794Y-72358666D01*
X133326413Y-71644380D01*
X133201413Y-72644380D01*
X133802604Y-71644380D02*
X133701413Y-72453904D01*
X133737127Y-72549142D01*
X133778794Y-72596761D01*
X133868080Y-72644380D01*
X134058556Y-72644380D01*
X134159747Y-72596761D01*
X134213318Y-72549142D01*
X134272842Y-72453904D01*
X134374032Y-71644380D01*
X135201413Y-72644380D02*
X134725223Y-72644380D01*
X134850223Y-71644380D01*
X135516889Y-71644380D02*
X136088318Y-71644380D01*
X135677604Y-72644380D02*
X135802604Y-71644380D01*
X136296651Y-72644380D02*
X136421651Y-71644380D01*
X136772842Y-72644380D02*
X136897842Y-71644380D01*
X137278794Y-71644380D01*
X137368080Y-71692000D01*
X137409747Y-71739619D01*
X137445461Y-71834857D01*
X137427604Y-71977714D01*
X137368080Y-72072952D01*
X137314508Y-72120571D01*
X137213318Y-72168190D01*
X136832366Y-72168190D01*
X138344270Y-72644380D02*
X138070461Y-72168190D01*
X137772842Y-72644380D02*
X137897842Y-71644380D01*
X138278794Y-71644380D01*
X138368080Y-71692000D01*
X138409747Y-71739619D01*
X138445461Y-71834857D01*
X138427604Y-71977714D01*
X138368080Y-72072952D01*
X138314508Y-72120571D01*
X138213318Y-72168190D01*
X137832366Y-72168190D01*
X139088318Y-71644380D02*
X139278794Y-71644380D01*
X139368080Y-71692000D01*
X139451413Y-71787238D01*
X139475223Y-71977714D01*
X139433556Y-72311047D01*
X139362127Y-72501523D01*
X139254985Y-72596761D01*
X139153794Y-72644380D01*
X138963318Y-72644380D01*
X138874032Y-72596761D01*
X138790699Y-72501523D01*
X138766889Y-72311047D01*
X138808556Y-71977714D01*
X138879985Y-71787238D01*
X138987127Y-71692000D01*
X139088318Y-71644380D01*
X139802604Y-71644380D02*
X140374032Y-71644380D01*
X139963318Y-72644380D02*
X140088318Y-71644380D01*
X140897842Y-71644380D02*
X141088318Y-71644380D01*
X141177604Y-71692000D01*
X141260937Y-71787238D01*
X141284747Y-71977714D01*
X141243080Y-72311047D01*
X141171651Y-72501523D01*
X141064508Y-72596761D01*
X140963318Y-72644380D01*
X140772842Y-72644380D01*
X140683556Y-72596761D01*
X140600223Y-72501523D01*
X140576413Y-72311047D01*
X140618080Y-71977714D01*
X140689508Y-71787238D01*
X140796651Y-71692000D01*
X140897842Y-71644380D01*
X142213318Y-72549142D02*
X142159747Y-72596761D01*
X142010937Y-72644380D01*
X141915699Y-72644380D01*
X141778794Y-72596761D01*
X141695461Y-72501523D01*
X141659747Y-72406285D01*
X141635937Y-72215809D01*
X141653794Y-72072952D01*
X141725223Y-71882476D01*
X141784747Y-71787238D01*
X141891889Y-71692000D01*
X142040699Y-71644380D01*
X142135937Y-71644380D01*
X142272842Y-71692000D01*
X142314508Y-71739619D01*
X142945461Y-71644380D02*
X143135937Y-71644380D01*
X143225223Y-71692000D01*
X143308556Y-71787238D01*
X143332366Y-71977714D01*
X143290699Y-72311047D01*
X143219270Y-72501523D01*
X143112127Y-72596761D01*
X143010937Y-72644380D01*
X142820461Y-72644380D01*
X142731175Y-72596761D01*
X142647842Y-72501523D01*
X142624032Y-72311047D01*
X142665699Y-71977714D01*
X142737127Y-71787238D01*
X142844270Y-71692000D01*
X142945461Y-71644380D01*
X144153794Y-72644380D02*
X143677604Y-72644380D01*
X143802604Y-71644380D01*
D10*
X184033714Y-133169428D02*
X184033714Y-132569428D01*
X184033714Y-132855142D02*
X184376571Y-132855142D01*
X184376571Y-133169428D02*
X184376571Y-132569428D01*
X184605142Y-132569428D02*
X184748000Y-133169428D01*
X184862285Y-132740857D01*
X184976571Y-133169428D01*
X185119428Y-132569428D01*
X186148000Y-133169428D02*
X185948000Y-132883714D01*
X185805142Y-133169428D02*
X185805142Y-132569428D01*
X186033714Y-132569428D01*
X186090857Y-132598000D01*
X186119428Y-132626571D01*
X186148000Y-132683714D01*
X186148000Y-132769428D01*
X186119428Y-132826571D01*
X186090857Y-132855142D01*
X186033714Y-132883714D01*
X185805142Y-132883714D01*
X186405142Y-132855142D02*
X186605142Y-132855142D01*
X186690857Y-133169428D02*
X186405142Y-133169428D01*
X186405142Y-132569428D01*
X186690857Y-132569428D01*
X186862285Y-132569428D02*
X187062285Y-133169428D01*
X187262285Y-132569428D01*
X188233714Y-133169428D02*
X187890857Y-133169428D01*
X188062285Y-133169428D02*
X188062285Y-132569428D01*
X188005142Y-132655142D01*
X187948000Y-132712285D01*
X187890857Y-132740857D01*
X188490857Y-133112285D02*
X188519428Y-133140857D01*
X188490857Y-133169428D01*
X188462285Y-133140857D01*
X188490857Y-133112285D01*
X188490857Y-133169428D01*
X188890857Y-132569428D02*
X188948000Y-132569428D01*
X189005142Y-132598000D01*
X189033714Y-132626571D01*
X189062285Y-132683714D01*
X189090857Y-132798000D01*
X189090857Y-132940857D01*
X189062285Y-133055142D01*
X189033714Y-133112285D01*
X189005142Y-133140857D01*
X188948000Y-133169428D01*
X188890857Y-133169428D01*
X188833714Y-133140857D01*
X188805142Y-133112285D01*
X188776571Y-133055142D01*
X188748000Y-132940857D01*
X188748000Y-132798000D01*
X188776571Y-132683714D01*
X188805142Y-132626571D01*
X188833714Y-132598000D01*
X188890857Y-132569428D01*
D13*
X129369226Y-133259904D02*
X129469226Y-132459904D01*
X129659702Y-132459904D01*
X129769226Y-132498000D01*
X129835892Y-132574190D01*
X129864464Y-132650380D01*
X129883511Y-132802761D01*
X129869226Y-132917047D01*
X129812083Y-133069428D01*
X129764464Y-133145619D01*
X129678750Y-133221809D01*
X129559702Y-133259904D01*
X129369226Y-133259904D01*
X130478750Y-133221809D02*
X130397797Y-133259904D01*
X130245416Y-133259904D01*
X130173988Y-133221809D01*
X130145416Y-133145619D01*
X130183511Y-132840857D01*
X130231130Y-132764666D01*
X130312083Y-132726571D01*
X130464464Y-132726571D01*
X130535892Y-132764666D01*
X130564464Y-132840857D01*
X130554940Y-132917047D01*
X130164464Y-132993238D01*
X130821607Y-133221809D02*
X130893035Y-133259904D01*
X131045416Y-133259904D01*
X131126369Y-133221809D01*
X131173988Y-133145619D01*
X131178750Y-133107523D01*
X131150178Y-133031333D01*
X131078750Y-132993238D01*
X130964464Y-132993238D01*
X130893035Y-132955142D01*
X130864464Y-132878952D01*
X130869226Y-132840857D01*
X130916845Y-132764666D01*
X130997797Y-132726571D01*
X131112083Y-132726571D01*
X131183511Y-132764666D01*
X131502559Y-133259904D02*
X131569226Y-132726571D01*
X131602559Y-132459904D02*
X131559702Y-132498000D01*
X131593035Y-132536095D01*
X131635892Y-132498000D01*
X131602559Y-132459904D01*
X131593035Y-132536095D01*
X132293035Y-132726571D02*
X132212083Y-133374190D01*
X132164464Y-133450380D01*
X132121607Y-133488476D01*
X132040654Y-133526571D01*
X131926369Y-133526571D01*
X131854940Y-133488476D01*
X132231130Y-133221809D02*
X132150178Y-133259904D01*
X131997797Y-133259904D01*
X131926369Y-133221809D01*
X131893035Y-133183714D01*
X131864464Y-133107523D01*
X131893035Y-132878952D01*
X131940654Y-132802761D01*
X131983511Y-132764666D01*
X132064464Y-132726571D01*
X132216845Y-132726571D01*
X132288273Y-132764666D01*
X132673988Y-132726571D02*
X132607321Y-133259904D01*
X132664464Y-132802761D02*
X132707321Y-132764666D01*
X132788273Y-132726571D01*
X132902559Y-132726571D01*
X132973988Y-132764666D01*
X133002559Y-132840857D01*
X132950178Y-133259904D01*
X133640654Y-133221809D02*
X133559702Y-133259904D01*
X133407321Y-133259904D01*
X133335892Y-133221809D01*
X133307321Y-133145619D01*
X133345416Y-132840857D01*
X133393035Y-132764666D01*
X133473988Y-132726571D01*
X133626369Y-132726571D01*
X133697797Y-132764666D01*
X133726369Y-132840857D01*
X133716845Y-132917047D01*
X133326369Y-132993238D01*
X134359702Y-133259904D02*
X134459702Y-132459904D01*
X134364464Y-133221809D02*
X134283511Y-133259904D01*
X134131130Y-133259904D01*
X134059702Y-133221809D01*
X134026369Y-133183714D01*
X133997797Y-133107523D01*
X134026369Y-132878952D01*
X134073988Y-132802761D01*
X134116845Y-132764666D01*
X134197797Y-132726571D01*
X134350178Y-132726571D01*
X134421607Y-132764666D01*
X135350178Y-133259904D02*
X135450178Y-132459904D01*
X135412083Y-132764666D02*
X135493035Y-132726571D01*
X135645416Y-132726571D01*
X135716845Y-132764666D01*
X135750178Y-132802761D01*
X135778750Y-132878952D01*
X135750178Y-133107523D01*
X135702559Y-133183714D01*
X135659702Y-133221809D01*
X135578750Y-133259904D01*
X135426369Y-133259904D01*
X135354940Y-133221809D01*
X136064464Y-132726571D02*
X136188273Y-133259904D01*
X136445416Y-132726571D02*
X136188273Y-133259904D01*
X136088273Y-133450380D01*
X136045416Y-133488476D01*
X135964464Y-133526571D01*
X137345416Y-132840857D02*
X137612083Y-132840857D01*
X137673988Y-133259904D02*
X137293035Y-133259904D01*
X137393035Y-132459904D01*
X137773988Y-132459904D01*
X137983511Y-133221809D02*
X138093035Y-133259904D01*
X138283511Y-133259904D01*
X138364464Y-133221809D01*
X138407321Y-133183714D01*
X138454940Y-133107523D01*
X138464464Y-133031333D01*
X138435892Y-132955142D01*
X138402559Y-132917047D01*
X138331130Y-132878952D01*
X138183511Y-132840857D01*
X138112083Y-132802761D01*
X138078750Y-132764666D01*
X138050178Y-132688476D01*
X138059702Y-132612285D01*
X138107321Y-132536095D01*
X138150178Y-132498000D01*
X138231130Y-132459904D01*
X138421607Y-132459904D01*
X138531130Y-132498000D01*
D11*
X162164000Y-72700000D02*
G75*
G03X162164000Y-72700000I-254000J0D01*
G01*
X145400000Y-120706000D02*
G75*
G03X145400000Y-120706000I-254000J0D01*
G01*
X152512000Y-100640000D02*
G75*
G03X152512000Y-100640000I-254000J0D01*
G01*
D13*
X136000000Y-66000000D02*
X133000000Y-66000000D01*
X136000000Y-63000000D02*
X136000000Y-66000000D01*
X184000000Y-66000000D02*
X187000000Y-66000000D01*
X184000000Y-63000000D02*
X184000000Y-66000000D01*
X184000000Y-134000000D02*
X187000000Y-134000000D01*
X184000000Y-137000000D02*
X184000000Y-134000000D01*
X136000000Y-134000000D02*
X136000000Y-137000000D01*
X133000000Y-134000000D02*
X136000000Y-134000000D01*
D10*
X179505904Y-137444476D02*
X179505904Y-136949238D01*
X179810666Y-137215904D01*
X179810666Y-137101619D01*
X179848761Y-137025428D01*
X179886857Y-136987333D01*
X179963047Y-136949238D01*
X180153523Y-136949238D01*
X180229714Y-136987333D01*
X180267809Y-137025428D01*
X180305904Y-137101619D01*
X180305904Y-137330190D01*
X180267809Y-137406380D01*
X180229714Y-137444476D01*
X179505904Y-136720666D02*
X180305904Y-136454000D01*
X179505904Y-136187333D01*
X179505904Y-135996857D02*
X179505904Y-135501619D01*
X179810666Y-135768285D01*
X179810666Y-135654000D01*
X179848761Y-135577809D01*
X179886857Y-135539714D01*
X179963047Y-135501619D01*
X180153523Y-135501619D01*
X180229714Y-135539714D01*
X180267809Y-135577809D01*
X180305904Y-135654000D01*
X180305904Y-135882571D01*
X180267809Y-135958761D01*
X180229714Y-135996857D01*
X177004000Y-137063523D02*
X176965904Y-137139714D01*
X176965904Y-137254000D01*
X177004000Y-137368285D01*
X177080190Y-137444476D01*
X177156380Y-137482571D01*
X177308761Y-137520666D01*
X177423047Y-137520666D01*
X177575428Y-137482571D01*
X177651619Y-137444476D01*
X177727809Y-137368285D01*
X177765904Y-137254000D01*
X177765904Y-137177809D01*
X177727809Y-137063523D01*
X177689714Y-137025428D01*
X177423047Y-137025428D01*
X177423047Y-137177809D01*
X177765904Y-136682571D02*
X176965904Y-136682571D01*
X177765904Y-136225428D01*
X176965904Y-136225428D01*
X177765904Y-135844476D02*
X176965904Y-135844476D01*
X176965904Y-135654000D01*
X177004000Y-135539714D01*
X177080190Y-135463523D01*
X177156380Y-135425428D01*
X177308761Y-135387333D01*
X177423047Y-135387333D01*
X177575428Y-135425428D01*
X177651619Y-135463523D01*
X177727809Y-135539714D01*
X177765904Y-135654000D01*
X177765904Y-135844476D01*
X175187809Y-137406380D02*
X175225904Y-137292095D01*
X175225904Y-137101619D01*
X175187809Y-137025428D01*
X175149714Y-136987333D01*
X175073523Y-136949238D01*
X174997333Y-136949238D01*
X174921142Y-136987333D01*
X174883047Y-137025428D01*
X174844952Y-137101619D01*
X174806857Y-137254000D01*
X174768761Y-137330190D01*
X174730666Y-137368285D01*
X174654476Y-137406380D01*
X174578285Y-137406380D01*
X174502095Y-137368285D01*
X174464000Y-137330190D01*
X174425904Y-137254000D01*
X174425904Y-137063523D01*
X174464000Y-136949238D01*
X175149714Y-136149238D02*
X175187809Y-136187333D01*
X175225904Y-136301619D01*
X175225904Y-136377809D01*
X175187809Y-136492095D01*
X175111619Y-136568285D01*
X175035428Y-136606380D01*
X174883047Y-136644476D01*
X174768761Y-136644476D01*
X174616380Y-136606380D01*
X174540190Y-136568285D01*
X174464000Y-136492095D01*
X174425904Y-136377809D01*
X174425904Y-136301619D01*
X174464000Y-136187333D01*
X174502095Y-136149238D01*
X175225904Y-135425428D02*
X175225904Y-135806380D01*
X174425904Y-135806380D01*
X172647809Y-137425428D02*
X172685904Y-137311142D01*
X172685904Y-137120666D01*
X172647809Y-137044476D01*
X172609714Y-137006380D01*
X172533523Y-136968285D01*
X172457333Y-136968285D01*
X172381142Y-137006380D01*
X172343047Y-137044476D01*
X172304952Y-137120666D01*
X172266857Y-137273047D01*
X172228761Y-137349238D01*
X172190666Y-137387333D01*
X172114476Y-137425428D01*
X172038285Y-137425428D01*
X171962095Y-137387333D01*
X171924000Y-137349238D01*
X171885904Y-137273047D01*
X171885904Y-137082571D01*
X171924000Y-136968285D01*
X172685904Y-136625428D02*
X171885904Y-136625428D01*
X171885904Y-136434952D01*
X171924000Y-136320666D01*
X172000190Y-136244476D01*
X172076380Y-136206380D01*
X172228761Y-136168285D01*
X172343047Y-136168285D01*
X172495428Y-136206380D01*
X172571619Y-136244476D01*
X172647809Y-136320666D01*
X172685904Y-136434952D01*
X172685904Y-136625428D01*
X172457333Y-135863523D02*
X172457333Y-135482571D01*
X172685904Y-135939714D02*
X171885904Y-135673047D01*
X172685904Y-135406380D01*
X165319904Y-136841333D02*
X164938952Y-137108000D01*
X165319904Y-137298476D02*
X164519904Y-137298476D01*
X164519904Y-136993714D01*
X164558000Y-136917523D01*
X164596095Y-136879428D01*
X164672285Y-136841333D01*
X164786571Y-136841333D01*
X164862761Y-136879428D01*
X164900857Y-136917523D01*
X164938952Y-136993714D01*
X164938952Y-137298476D01*
X164519904Y-136574666D02*
X165319904Y-136041333D01*
X164519904Y-136041333D02*
X165319904Y-136574666D01*
X161979904Y-137317523D02*
X161979904Y-136860380D01*
X162779904Y-137088952D02*
X161979904Y-137088952D01*
X161979904Y-136669904D02*
X162779904Y-136136571D01*
X161979904Y-136136571D02*
X162779904Y-136669904D01*
X160239904Y-136892095D02*
X159858952Y-137158761D01*
X160239904Y-137349238D02*
X159439904Y-137349238D01*
X159439904Y-137044476D01*
X159478000Y-136968285D01*
X159516095Y-136930190D01*
X159592285Y-136892095D01*
X159706571Y-136892095D01*
X159782761Y-136930190D01*
X159820857Y-136968285D01*
X159858952Y-137044476D01*
X159858952Y-137349238D01*
X159439904Y-136663523D02*
X159439904Y-136206380D01*
X160239904Y-136434952D02*
X159439904Y-136434952D01*
X160201809Y-135977809D02*
X160239904Y-135863523D01*
X160239904Y-135673047D01*
X160201809Y-135596857D01*
X160163714Y-135558761D01*
X160087523Y-135520666D01*
X160011333Y-135520666D01*
X159935142Y-135558761D01*
X159897047Y-135596857D01*
X159858952Y-135673047D01*
X159820857Y-135825428D01*
X159782761Y-135901619D01*
X159744666Y-135939714D01*
X159668476Y-135977809D01*
X159592285Y-135977809D01*
X159516095Y-135939714D01*
X159478000Y-135901619D01*
X159439904Y-135825428D01*
X159439904Y-135634952D01*
X159478000Y-135520666D01*
X157623714Y-136892095D02*
X157661809Y-136930190D01*
X157699904Y-137044476D01*
X157699904Y-137120666D01*
X157661809Y-137234952D01*
X157585619Y-137311142D01*
X157509428Y-137349238D01*
X157357047Y-137387333D01*
X157242761Y-137387333D01*
X157090380Y-137349238D01*
X157014190Y-137311142D01*
X156938000Y-137234952D01*
X156899904Y-137120666D01*
X156899904Y-137044476D01*
X156938000Y-136930190D01*
X156976095Y-136892095D01*
X156899904Y-136663523D02*
X156899904Y-136206380D01*
X157699904Y-136434952D02*
X156899904Y-136434952D01*
X157661809Y-135977809D02*
X157699904Y-135863523D01*
X157699904Y-135673047D01*
X157661809Y-135596857D01*
X157623714Y-135558761D01*
X157547523Y-135520666D01*
X157471333Y-135520666D01*
X157395142Y-135558761D01*
X157357047Y-135596857D01*
X157318952Y-135673047D01*
X157280857Y-135825428D01*
X157242761Y-135901619D01*
X157204666Y-135939714D01*
X157128476Y-135977809D01*
X157052285Y-135977809D01*
X156976095Y-135939714D01*
X156938000Y-135901619D01*
X156899904Y-135825428D01*
X156899904Y-135634952D01*
X156938000Y-135520666D01*
X150333904Y-137444476D02*
X149533904Y-137444476D01*
X150333904Y-136987333D01*
X149533904Y-136987333D01*
X150295809Y-136644476D02*
X150333904Y-136530190D01*
X150333904Y-136339714D01*
X150295809Y-136263523D01*
X150257714Y-136225428D01*
X150181523Y-136187333D01*
X150105333Y-136187333D01*
X150029142Y-136225428D01*
X149991047Y-136263523D01*
X149952952Y-136339714D01*
X149914857Y-136492095D01*
X149876761Y-136568285D01*
X149838666Y-136606380D01*
X149762476Y-136644476D01*
X149686285Y-136644476D01*
X149610095Y-136606380D01*
X149572000Y-136568285D01*
X149533904Y-136492095D01*
X149533904Y-136301619D01*
X149572000Y-136187333D01*
X150295809Y-135882571D02*
X150333904Y-135768285D01*
X150333904Y-135577809D01*
X150295809Y-135501619D01*
X150257714Y-135463523D01*
X150181523Y-135425428D01*
X150105333Y-135425428D01*
X150029142Y-135463523D01*
X149991047Y-135501619D01*
X149952952Y-135577809D01*
X149914857Y-135730190D01*
X149876761Y-135806380D01*
X149838666Y-135844476D01*
X149762476Y-135882571D01*
X149686285Y-135882571D01*
X149610095Y-135844476D01*
X149572000Y-135806380D01*
X149533904Y-135730190D01*
X149533904Y-135539714D01*
X149572000Y-135425428D01*
X147755809Y-137482571D02*
X147793904Y-137368285D01*
X147793904Y-137177809D01*
X147755809Y-137101619D01*
X147717714Y-137063523D01*
X147641523Y-137025428D01*
X147565333Y-137025428D01*
X147489142Y-137063523D01*
X147451047Y-137101619D01*
X147412952Y-137177809D01*
X147374857Y-137330190D01*
X147336761Y-137406380D01*
X147298666Y-137444476D01*
X147222476Y-137482571D01*
X147146285Y-137482571D01*
X147070095Y-137444476D01*
X147032000Y-137406380D01*
X146993904Y-137330190D01*
X146993904Y-137139714D01*
X147032000Y-137025428D01*
X147717714Y-136225428D02*
X147755809Y-136263523D01*
X147793904Y-136377809D01*
X147793904Y-136454000D01*
X147755809Y-136568285D01*
X147679619Y-136644476D01*
X147603428Y-136682571D01*
X147451047Y-136720666D01*
X147336761Y-136720666D01*
X147184380Y-136682571D01*
X147108190Y-136644476D01*
X147032000Y-136568285D01*
X146993904Y-136454000D01*
X146993904Y-136377809D01*
X147032000Y-136263523D01*
X147070095Y-136225428D01*
X147793904Y-135882571D02*
X146993904Y-135882571D01*
X147793904Y-135425428D02*
X147336761Y-135768285D01*
X146993904Y-135425428D02*
X147451047Y-135882571D01*
X142713904Y-137457142D02*
X141913904Y-137457142D01*
X142485333Y-137190476D01*
X141913904Y-136923809D01*
X142713904Y-136923809D01*
X141913904Y-136390476D02*
X141913904Y-136238095D01*
X141952000Y-136161904D01*
X142028190Y-136085714D01*
X142180571Y-136047619D01*
X142447238Y-136047619D01*
X142599619Y-136085714D01*
X142675809Y-136161904D01*
X142713904Y-136238095D01*
X142713904Y-136390476D01*
X142675809Y-136466666D01*
X142599619Y-136542857D01*
X142447238Y-136580952D01*
X142180571Y-136580952D01*
X142028190Y-136542857D01*
X141952000Y-136466666D01*
X141913904Y-136390476D01*
X142675809Y-135742857D02*
X142713904Y-135628571D01*
X142713904Y-135438095D01*
X142675809Y-135361904D01*
X142637714Y-135323809D01*
X142561523Y-135285714D01*
X142485333Y-135285714D01*
X142409142Y-135323809D01*
X142371047Y-135361904D01*
X142332952Y-135438095D01*
X142294857Y-135590476D01*
X142256761Y-135666666D01*
X142218666Y-135704761D01*
X142142476Y-135742857D01*
X142066285Y-135742857D01*
X141990095Y-135704761D01*
X141952000Y-135666666D01*
X141913904Y-135590476D01*
X141913904Y-135400000D01*
X141952000Y-135285714D01*
X142713904Y-134942857D02*
X141913904Y-134942857D01*
X145253904Y-137457142D02*
X144453904Y-137457142D01*
X145025333Y-137190476D01*
X144453904Y-136923809D01*
X145253904Y-136923809D01*
X145253904Y-136542857D02*
X144453904Y-136542857D01*
X145215809Y-136200000D02*
X145253904Y-136085714D01*
X145253904Y-135895238D01*
X145215809Y-135819047D01*
X145177714Y-135780952D01*
X145101523Y-135742857D01*
X145025333Y-135742857D01*
X144949142Y-135780952D01*
X144911047Y-135819047D01*
X144872952Y-135895238D01*
X144834857Y-136047619D01*
X144796761Y-136123809D01*
X144758666Y-136161904D01*
X144682476Y-136200000D01*
X144606285Y-136200000D01*
X144530095Y-136161904D01*
X144492000Y-136123809D01*
X144453904Y-136047619D01*
X144453904Y-135857142D01*
X144492000Y-135742857D01*
X144453904Y-135247619D02*
X144453904Y-135095238D01*
X144492000Y-135019047D01*
X144568190Y-134942857D01*
X144720571Y-134904761D01*
X144987238Y-134904761D01*
X145139619Y-134942857D01*
X145215809Y-135019047D01*
X145253904Y-135095238D01*
X145253904Y-135247619D01*
X145215809Y-135323809D01*
X145139619Y-135400000D01*
X144987238Y-135438095D01*
X144720571Y-135438095D01*
X144568190Y-135400000D01*
X144492000Y-135323809D01*
X144453904Y-135247619D01*
X146208000Y-66400857D02*
X146236571Y-66343714D01*
X146236571Y-66258000D01*
X146208000Y-66172285D01*
X146150857Y-66115142D01*
X146093714Y-66086571D01*
X145979428Y-66058000D01*
X145893714Y-66058000D01*
X145779428Y-66086571D01*
X145722285Y-66115142D01*
X145665142Y-66172285D01*
X145636571Y-66258000D01*
X145636571Y-66315142D01*
X145665142Y-66400857D01*
X145693714Y-66429428D01*
X145893714Y-66429428D01*
X145893714Y-66315142D01*
X145636571Y-66686571D02*
X146236571Y-66686571D01*
X145636571Y-67029428D01*
X146236571Y-67029428D01*
X145636571Y-67315142D02*
X146236571Y-67315142D01*
X146236571Y-67458000D01*
X146208000Y-67543714D01*
X146150857Y-67600857D01*
X146093714Y-67629428D01*
X145979428Y-67658000D01*
X145893714Y-67658000D01*
X145779428Y-67629428D01*
X145722285Y-67600857D01*
X145665142Y-67543714D01*
X145636571Y-67458000D01*
X145636571Y-67315142D01*
X148205142Y-66008857D02*
X148176571Y-66094571D01*
X148176571Y-66237428D01*
X148205142Y-66294571D01*
X148233714Y-66323142D01*
X148290857Y-66351714D01*
X148348000Y-66351714D01*
X148405142Y-66323142D01*
X148433714Y-66294571D01*
X148462285Y-66237428D01*
X148490857Y-66123142D01*
X148519428Y-66066000D01*
X148548000Y-66037428D01*
X148605142Y-66008857D01*
X148662285Y-66008857D01*
X148719428Y-66037428D01*
X148748000Y-66066000D01*
X148776571Y-66123142D01*
X148776571Y-66266000D01*
X148748000Y-66351714D01*
X148776571Y-66551714D02*
X148176571Y-66694571D01*
X148605142Y-66808857D01*
X148176571Y-66923142D01*
X148776571Y-67066000D01*
X148233714Y-67637428D02*
X148205142Y-67608857D01*
X148176571Y-67523142D01*
X148176571Y-67466000D01*
X148205142Y-67380285D01*
X148262285Y-67323142D01*
X148319428Y-67294571D01*
X148433714Y-67266000D01*
X148519428Y-67266000D01*
X148633714Y-67294571D01*
X148690857Y-67323142D01*
X148748000Y-67380285D01*
X148776571Y-67466000D01*
X148776571Y-67523142D01*
X148748000Y-67608857D01*
X148719428Y-67637428D01*
X148176571Y-68180285D02*
X148176571Y-67894571D01*
X148776571Y-67894571D01*
X148176571Y-68380285D02*
X148776571Y-68380285D01*
X148176571Y-68723142D02*
X148519428Y-68466000D01*
X148776571Y-68723142D02*
X148433714Y-68380285D01*
X144118857Y-68637428D02*
X144147428Y-68551714D01*
X144147428Y-68408857D01*
X144118857Y-68351714D01*
X144090285Y-68323142D01*
X144033142Y-68294571D01*
X143976000Y-68294571D01*
X143918857Y-68323142D01*
X143890285Y-68351714D01*
X143861714Y-68408857D01*
X143833142Y-68523142D01*
X143804571Y-68580285D01*
X143776000Y-68608857D01*
X143718857Y-68637428D01*
X143661714Y-68637428D01*
X143604571Y-68608857D01*
X143576000Y-68580285D01*
X143547428Y-68523142D01*
X143547428Y-68380285D01*
X143576000Y-68294571D01*
X143547428Y-68094571D02*
X144147428Y-67951714D01*
X143718857Y-67837428D01*
X144147428Y-67723142D01*
X143547428Y-67580285D01*
X144147428Y-67351714D02*
X143547428Y-67351714D01*
X143547428Y-67208857D01*
X143576000Y-67123142D01*
X143633142Y-67066000D01*
X143690285Y-67037428D01*
X143804571Y-67008857D01*
X143890285Y-67008857D01*
X144004571Y-67037428D01*
X144061714Y-67066000D01*
X144118857Y-67123142D01*
X144147428Y-67208857D01*
X144147428Y-67351714D01*
X144147428Y-66751714D02*
X143547428Y-66751714D01*
X143547428Y-66351714D02*
X143547428Y-66237428D01*
X143576000Y-66180285D01*
X143633142Y-66123142D01*
X143747428Y-66094571D01*
X143947428Y-66094571D01*
X144061714Y-66123142D01*
X144118857Y-66180285D01*
X144147428Y-66237428D01*
X144147428Y-66351714D01*
X144118857Y-66408857D01*
X144061714Y-66466000D01*
X143947428Y-66494571D01*
X143747428Y-66494571D01*
X143633142Y-66466000D01*
X143576000Y-66408857D01*
X143547428Y-66351714D01*
X137791142Y-66029428D02*
X137762571Y-66115142D01*
X137762571Y-66258000D01*
X137791142Y-66315142D01*
X137819714Y-66343714D01*
X137876857Y-66372285D01*
X137934000Y-66372285D01*
X137991142Y-66343714D01*
X138019714Y-66315142D01*
X138048285Y-66258000D01*
X138076857Y-66143714D01*
X138105428Y-66086571D01*
X138134000Y-66058000D01*
X138191142Y-66029428D01*
X138248285Y-66029428D01*
X138305428Y-66058000D01*
X138334000Y-66086571D01*
X138362571Y-66143714D01*
X138362571Y-66286571D01*
X138334000Y-66372285D01*
X138362571Y-66572285D02*
X137762571Y-66715142D01*
X138191142Y-66829428D01*
X137762571Y-66943714D01*
X138362571Y-67086571D01*
X138362571Y-67429428D02*
X138362571Y-67543714D01*
X138334000Y-67600857D01*
X138276857Y-67658000D01*
X138162571Y-67686571D01*
X137962571Y-67686571D01*
X137848285Y-67658000D01*
X137791142Y-67600857D01*
X137762571Y-67543714D01*
X137762571Y-67429428D01*
X137791142Y-67372285D01*
X137848285Y-67315142D01*
X137962571Y-67286571D01*
X138162571Y-67286571D01*
X138276857Y-67315142D01*
X138334000Y-67372285D01*
X138362571Y-67429428D01*
X140556571Y-67396285D02*
X141156571Y-67396285D01*
X140556571Y-67739142D01*
X141156571Y-67739142D01*
X140556571Y-68367714D02*
X140842285Y-68167714D01*
X140556571Y-68024857D02*
X141156571Y-68024857D01*
X141156571Y-68253428D01*
X141128000Y-68310571D01*
X141099428Y-68339142D01*
X141042285Y-68367714D01*
X140956571Y-68367714D01*
X140899428Y-68339142D01*
X140870857Y-68310571D01*
X140842285Y-68253428D01*
X140842285Y-68024857D01*
X140585142Y-68596285D02*
X140556571Y-68682000D01*
X140556571Y-68824857D01*
X140585142Y-68882000D01*
X140613714Y-68910571D01*
X140670857Y-68939142D01*
X140728000Y-68939142D01*
X140785142Y-68910571D01*
X140813714Y-68882000D01*
X140842285Y-68824857D01*
X140870857Y-68710571D01*
X140899428Y-68653428D01*
X140928000Y-68624857D01*
X140985142Y-68596285D01*
X141042285Y-68596285D01*
X141099428Y-68624857D01*
X141128000Y-68653428D01*
X141156571Y-68710571D01*
X141156571Y-68853428D01*
X141128000Y-68939142D01*
X141156571Y-69110571D02*
X141156571Y-69453428D01*
X140556571Y-69282000D02*
X141156571Y-69282000D01*
X151316571Y-66115142D02*
X151316571Y-66486571D01*
X151088000Y-66286571D01*
X151088000Y-66372285D01*
X151059428Y-66429428D01*
X151030857Y-66458000D01*
X150973714Y-66486571D01*
X150830857Y-66486571D01*
X150773714Y-66458000D01*
X150745142Y-66429428D01*
X150716571Y-66372285D01*
X150716571Y-66200857D01*
X150745142Y-66143714D01*
X150773714Y-66115142D01*
X151316571Y-66658000D02*
X150716571Y-66858000D01*
X151316571Y-67058000D01*
X151316571Y-67200857D02*
X151316571Y-67572285D01*
X151088000Y-67372285D01*
X151088000Y-67458000D01*
X151059428Y-67515142D01*
X151030857Y-67543714D01*
X150973714Y-67572285D01*
X150830857Y-67572285D01*
X150773714Y-67543714D01*
X150745142Y-67515142D01*
X150716571Y-67458000D01*
X150716571Y-67286571D01*
X150745142Y-67229428D01*
X150773714Y-67200857D01*
D11*
X140820748Y-86110000D02*
X141343252Y-86110000D01*
X140820748Y-84690000D02*
X141343252Y-84690000D01*
X140820748Y-83570000D02*
X141343252Y-83570000D01*
X140820748Y-82150000D02*
X141343252Y-82150000D01*
X134343748Y-81284000D02*
X134866252Y-81284000D01*
X134343748Y-79864000D02*
X134866252Y-79864000D01*
X182999252Y-127362000D02*
X182476748Y-127362000D01*
X182999252Y-128782000D02*
X182476748Y-128782000D01*
D14*
G36*
X172234043Y-120077835D02*
G01*
X172257065Y-120115245D01*
X172292534Y-120174514D01*
X172338996Y-120253118D01*
X172394996Y-120348538D01*
X172459081Y-120458250D01*
X172529796Y-120579734D01*
X172605687Y-120710468D01*
X172685299Y-120847930D01*
X172767178Y-120989598D01*
X172849870Y-121132951D01*
X172931921Y-121275467D01*
X173011876Y-121414624D01*
X173088281Y-121547901D01*
X173159682Y-121672776D01*
X173224624Y-121786727D01*
X173281653Y-121887233D01*
X173329315Y-121971772D01*
X173366155Y-122037822D01*
X173390720Y-122082862D01*
X173401554Y-122104370D01*
X173401951Y-122105714D01*
X173388501Y-122123965D01*
X173351114Y-122151882D01*
X173294235Y-122186725D01*
X173222312Y-122225754D01*
X173147015Y-122262843D01*
X173044560Y-122307817D01*
X172936817Y-122348226D01*
X172820073Y-122384969D01*
X172690618Y-122418942D01*
X172544740Y-122451044D01*
X172378726Y-122482173D01*
X172188866Y-122513227D01*
X171992469Y-122542145D01*
X171821834Y-122567800D01*
X171678545Y-122593198D01*
X171559008Y-122619602D01*
X171459630Y-122648273D01*
X171376818Y-122680473D01*
X171306978Y-122717465D01*
X171246518Y-122760512D01*
X171191845Y-122810875D01*
X171174214Y-122829583D01*
X171136000Y-122873139D01*
X171107732Y-122908682D01*
X171094618Y-122929583D01*
X171094268Y-122931297D01*
X171089680Y-122941806D01*
X171073758Y-122941924D01*
X171043266Y-122930254D01*
X170994968Y-122905396D01*
X170925627Y-122865952D01*
X170877439Y-122837587D01*
X170805583Y-122793247D01*
X170749742Y-122755279D01*
X170713667Y-122726416D01*
X170701113Y-122709388D01*
X170701121Y-122709264D01*
X170708906Y-122693037D01*
X170730892Y-122652400D01*
X170765803Y-122589567D01*
X170812363Y-122506752D01*
X170869295Y-122406172D01*
X170935323Y-122290040D01*
X171009172Y-122160571D01*
X171089564Y-122019980D01*
X171175224Y-121870482D01*
X171264876Y-121714292D01*
X171357243Y-121553624D01*
X171451049Y-121390693D01*
X171545018Y-121227713D01*
X171637874Y-121066900D01*
X171728340Y-120910468D01*
X171815141Y-120760633D01*
X171897000Y-120619608D01*
X171972641Y-120489609D01*
X172040787Y-120372849D01*
X172100163Y-120271545D01*
X172149493Y-120187911D01*
X172187500Y-120124162D01*
X172212907Y-120082511D01*
X172224440Y-120065175D01*
X172224923Y-120064805D01*
X172234043Y-120077835D01*
G37*
X172234043Y-120077835D02*
X172257065Y-120115245D01*
X172292534Y-120174514D01*
X172338996Y-120253118D01*
X172394996Y-120348538D01*
X172459081Y-120458250D01*
X172529796Y-120579734D01*
X172605687Y-120710468D01*
X172685299Y-120847930D01*
X172767178Y-120989598D01*
X172849870Y-121132951D01*
X172931921Y-121275467D01*
X173011876Y-121414624D01*
X173088281Y-121547901D01*
X173159682Y-121672776D01*
X173224624Y-121786727D01*
X173281653Y-121887233D01*
X173329315Y-121971772D01*
X173366155Y-122037822D01*
X173390720Y-122082862D01*
X173401554Y-122104370D01*
X173401951Y-122105714D01*
X173388501Y-122123965D01*
X173351114Y-122151882D01*
X173294235Y-122186725D01*
X173222312Y-122225754D01*
X173147015Y-122262843D01*
X173044560Y-122307817D01*
X172936817Y-122348226D01*
X172820073Y-122384969D01*
X172690618Y-122418942D01*
X172544740Y-122451044D01*
X172378726Y-122482173D01*
X172188866Y-122513227D01*
X171992469Y-122542145D01*
X171821834Y-122567800D01*
X171678545Y-122593198D01*
X171559008Y-122619602D01*
X171459630Y-122648273D01*
X171376818Y-122680473D01*
X171306978Y-122717465D01*
X171246518Y-122760512D01*
X171191845Y-122810875D01*
X171174214Y-122829583D01*
X171136000Y-122873139D01*
X171107732Y-122908682D01*
X171094618Y-122929583D01*
X171094268Y-122931297D01*
X171089680Y-122941806D01*
X171073758Y-122941924D01*
X171043266Y-122930254D01*
X170994968Y-122905396D01*
X170925627Y-122865952D01*
X170877439Y-122837587D01*
X170805583Y-122793247D01*
X170749742Y-122755279D01*
X170713667Y-122726416D01*
X170701113Y-122709388D01*
X170701121Y-122709264D01*
X170708906Y-122693037D01*
X170730892Y-122652400D01*
X170765803Y-122589567D01*
X170812363Y-122506752D01*
X170869295Y-122406172D01*
X170935323Y-122290040D01*
X171009172Y-122160571D01*
X171089564Y-122019980D01*
X171175224Y-121870482D01*
X171264876Y-121714292D01*
X171357243Y-121553624D01*
X171451049Y-121390693D01*
X171545018Y-121227713D01*
X171637874Y-121066900D01*
X171728340Y-120910468D01*
X171815141Y-120760633D01*
X171897000Y-120619608D01*
X171972641Y-120489609D01*
X172040787Y-120372849D01*
X172100163Y-120271545D01*
X172149493Y-120187911D01*
X172187500Y-120124162D01*
X172212907Y-120082511D01*
X172224440Y-120065175D01*
X172224923Y-120064805D01*
X172234043Y-120077835D01*
G36*
X174057528Y-123226619D02*
G01*
X174068908Y-123245693D01*
X174094488Y-123289421D01*
X174133002Y-123355619D01*
X174183186Y-123442102D01*
X174243775Y-123546685D01*
X174313503Y-123667183D01*
X174391107Y-123801412D01*
X174475320Y-123947187D01*
X174564879Y-124102323D01*
X174656998Y-124262000D01*
X174751076Y-124425117D01*
X174841402Y-124581709D01*
X174926665Y-124729506D01*
X175005557Y-124866240D01*
X175076769Y-124989642D01*
X175138991Y-125097444D01*
X175190913Y-125187377D01*
X175231228Y-125257173D01*
X175258624Y-125304564D01*
X175271507Y-125326786D01*
X175292507Y-125364330D01*
X175303925Y-125387831D01*
X175304551Y-125391920D01*
X175290636Y-125384242D01*
X175251941Y-125362203D01*
X175190487Y-125326971D01*
X175108298Y-125279711D01*
X175007396Y-125221589D01*
X174889805Y-125153771D01*
X174757546Y-125077424D01*
X174612642Y-124993714D01*
X174457117Y-124903806D01*
X174292992Y-124808867D01*
X174230549Y-124772732D01*
X174063487Y-124676083D01*
X173904074Y-124583938D01*
X173754355Y-124497475D01*
X173616376Y-124417871D01*
X173492185Y-124346305D01*
X173383827Y-124283955D01*
X173293348Y-124231998D01*
X173222796Y-124191613D01*
X173174215Y-124163978D01*
X173149654Y-124150272D01*
X173147085Y-124148974D01*
X173154569Y-124137220D01*
X173180614Y-124105795D01*
X173222559Y-124057594D01*
X173277746Y-123995510D01*
X173343517Y-123922439D01*
X173417212Y-123841276D01*
X173496173Y-123754916D01*
X173577740Y-123666253D01*
X173659254Y-123578182D01*
X173738057Y-123493599D01*
X173811490Y-123415397D01*
X173876893Y-123346472D01*
X173931608Y-123289719D01*
X173972977Y-123248032D01*
X173987164Y-123234363D01*
X174034180Y-123190201D01*
X174057528Y-123226619D01*
G37*
X174057528Y-123226619D02*
X174068908Y-123245693D01*
X174094488Y-123289421D01*
X174133002Y-123355619D01*
X174183186Y-123442102D01*
X174243775Y-123546685D01*
X174313503Y-123667183D01*
X174391107Y-123801412D01*
X174475320Y-123947187D01*
X174564879Y-124102323D01*
X174656998Y-124262000D01*
X174751076Y-124425117D01*
X174841402Y-124581709D01*
X174926665Y-124729506D01*
X175005557Y-124866240D01*
X175076769Y-124989642D01*
X175138991Y-125097444D01*
X175190913Y-125187377D01*
X175231228Y-125257173D01*
X175258624Y-125304564D01*
X175271507Y-125326786D01*
X175292507Y-125364330D01*
X175303925Y-125387831D01*
X175304551Y-125391920D01*
X175290636Y-125384242D01*
X175251941Y-125362203D01*
X175190487Y-125326971D01*
X175108298Y-125279711D01*
X175007396Y-125221589D01*
X174889805Y-125153771D01*
X174757546Y-125077424D01*
X174612642Y-124993714D01*
X174457117Y-124903806D01*
X174292992Y-124808867D01*
X174230549Y-124772732D01*
X174063487Y-124676083D01*
X173904074Y-124583938D01*
X173754355Y-124497475D01*
X173616376Y-124417871D01*
X173492185Y-124346305D01*
X173383827Y-124283955D01*
X173293348Y-124231998D01*
X173222796Y-124191613D01*
X173174215Y-124163978D01*
X173149654Y-124150272D01*
X173147085Y-124148974D01*
X173154569Y-124137220D01*
X173180614Y-124105795D01*
X173222559Y-124057594D01*
X173277746Y-123995510D01*
X173343517Y-123922439D01*
X173417212Y-123841276D01*
X173496173Y-123754916D01*
X173577740Y-123666253D01*
X173659254Y-123578182D01*
X173738057Y-123493599D01*
X173811490Y-123415397D01*
X173876893Y-123346472D01*
X173931608Y-123289719D01*
X173972977Y-123248032D01*
X173987164Y-123234363D01*
X174034180Y-123190201D01*
X174057528Y-123226619D01*
G36*
X170392094Y-123283158D02*
G01*
X170424619Y-123295736D01*
X170474193Y-123320712D01*
X170545374Y-123359876D01*
X170550916Y-123362988D01*
X170616474Y-123400476D01*
X170671798Y-123433319D01*
X170711455Y-123458205D01*
X170730012Y-123471820D01*
X170730531Y-123472487D01*
X170726048Y-123491390D01*
X170705486Y-123533605D01*
X170670183Y-123596832D01*
X170621480Y-123678772D01*
X170560718Y-123777122D01*
X170489236Y-123889585D01*
X170471445Y-123917165D01*
X170425093Y-123993699D01*
X170391342Y-124059556D01*
X170373153Y-124108782D01*
X170371286Y-124118507D01*
X170372115Y-124161312D01*
X170381394Y-124229209D01*
X170397968Y-124317843D01*
X170420680Y-124422859D01*
X170448373Y-124539902D01*
X170479890Y-124664616D01*
X170514075Y-124792645D01*
X170549771Y-124919634D01*
X170585821Y-125041228D01*
X170621068Y-125153072D01*
X170654356Y-125250810D01*
X170684528Y-125330087D01*
X170705561Y-125377122D01*
X170730337Y-125427225D01*
X170753730Y-125475168D01*
X170754997Y-125477793D01*
X170793699Y-125526220D01*
X170850184Y-125558828D01*
X170915939Y-125574454D01*
X170982451Y-125571937D01*
X171041205Y-125550114D01*
X171074258Y-125521382D01*
X171121859Y-125442583D01*
X171156739Y-125344378D01*
X171175877Y-125236779D01*
X171178588Y-125175780D01*
X171167670Y-125061935D01*
X171135624Y-124967660D01*
X171080726Y-124888379D01*
X171063607Y-124870733D01*
X171012661Y-124821235D01*
X171009163Y-124471362D01*
X171005664Y-124121489D01*
X171094818Y-123986531D01*
X171136654Y-123925445D01*
X171176945Y-123870493D01*
X171209943Y-123829336D01*
X171224126Y-123814192D01*
X171264281Y-123776810D01*
X171318665Y-123806098D01*
X171353039Y-123827084D01*
X171371846Y-123843378D01*
X171373049Y-123846307D01*
X171385903Y-123858728D01*
X171407896Y-123867977D01*
X171429150Y-123876313D01*
X171461694Y-123892149D01*
X171508322Y-123917033D01*
X171571829Y-123952509D01*
X171655008Y-124000123D01*
X171760653Y-124061422D01*
X171818062Y-124094932D01*
X171885594Y-124135071D01*
X171929885Y-124163659D01*
X171954855Y-124184039D01*
X171964423Y-124199553D01*
X171962508Y-124213546D01*
X171960911Y-124216796D01*
X171945376Y-124237266D01*
X171912136Y-124275665D01*
X171865062Y-124327696D01*
X171808028Y-124389066D01*
X171758700Y-124441090D01*
X171645030Y-124564567D01*
X171556105Y-124671591D01*
X171491134Y-124763240D01*
X171449321Y-124840588D01*
X171435217Y-124879866D01*
X171429392Y-124914249D01*
X171423375Y-124972899D01*
X171417696Y-125049117D01*
X171412884Y-125136202D01*
X171410619Y-125191268D01*
X171407459Y-125286464D01*
X171406069Y-125356062D01*
X171406858Y-125405409D01*
X171410235Y-125439854D01*
X171416608Y-125464743D01*
X171426387Y-125485425D01*
X171434067Y-125498053D01*
X171478421Y-125546726D01*
X171535574Y-125580645D01*
X171595708Y-125595438D01*
X171640773Y-125590086D01*
X171681576Y-125566930D01*
X171732724Y-125525462D01*
X171787042Y-125472912D01*
X171837357Y-125416516D01*
X171876494Y-125363505D01*
X171890905Y-125337889D01*
X171912491Y-125302814D01*
X171951753Y-125249389D01*
X172005102Y-125181789D01*
X172068952Y-125104190D01*
X172139715Y-125020768D01*
X172213804Y-124935698D01*
X172287632Y-124853155D01*
X172357611Y-124777316D01*
X172420155Y-124712356D01*
X172469260Y-124664669D01*
X172523779Y-124617032D01*
X172569642Y-124581908D01*
X172601811Y-124562949D01*
X172612489Y-124560864D01*
X172628853Y-124569274D01*
X172669671Y-124591846D01*
X172732586Y-124627224D01*
X172815244Y-124674054D01*
X172915289Y-124730981D01*
X173030366Y-124796649D01*
X173158119Y-124869703D01*
X173296194Y-124948788D01*
X173442234Y-125032548D01*
X173593884Y-125119629D01*
X173748790Y-125208676D01*
X173904595Y-125298332D01*
X174058944Y-125387243D01*
X174209482Y-125474054D01*
X174353854Y-125557409D01*
X174489704Y-125635954D01*
X174614677Y-125708333D01*
X174726417Y-125773190D01*
X174822570Y-125829171D01*
X174900779Y-125874920D01*
X174958689Y-125909083D01*
X174993946Y-125930304D01*
X175004165Y-125936963D01*
X174990402Y-125938280D01*
X174947104Y-125939559D01*
X174875714Y-125940796D01*
X174777673Y-125941983D01*
X174654422Y-125943115D01*
X174507403Y-125944186D01*
X174338057Y-125945189D01*
X174147826Y-125946119D01*
X173938151Y-125946968D01*
X173710473Y-125947732D01*
X173466235Y-125948403D01*
X173206877Y-125948976D01*
X172933841Y-125949444D01*
X172648568Y-125949802D01*
X172352500Y-125950042D01*
X172047079Y-125950159D01*
X171918924Y-125950171D01*
X168818970Y-125950171D01*
X169040053Y-125566847D01*
X169086856Y-125485680D01*
X169147102Y-125381166D01*
X169218778Y-125256801D01*
X169299869Y-125116082D01*
X169388362Y-124962503D01*
X169482240Y-124799562D01*
X169579491Y-124630754D01*
X169678100Y-124459575D01*
X169776053Y-124289521D01*
X169800825Y-124246512D01*
X169891152Y-124089857D01*
X169977289Y-123940803D01*
X170057942Y-123801568D01*
X170131816Y-123674371D01*
X170197617Y-123561432D01*
X170254050Y-123464968D01*
X170299821Y-123387200D01*
X170333635Y-123330346D01*
X170354198Y-123296625D01*
X170359953Y-123288040D01*
X170372058Y-123281189D01*
X170392094Y-123283158D01*
G37*
X170392094Y-123283158D02*
X170424619Y-123295736D01*
X170474193Y-123320712D01*
X170545374Y-123359876D01*
X170550916Y-123362988D01*
X170616474Y-123400476D01*
X170671798Y-123433319D01*
X170711455Y-123458205D01*
X170730012Y-123471820D01*
X170730531Y-123472487D01*
X170726048Y-123491390D01*
X170705486Y-123533605D01*
X170670183Y-123596832D01*
X170621480Y-123678772D01*
X170560718Y-123777122D01*
X170489236Y-123889585D01*
X170471445Y-123917165D01*
X170425093Y-123993699D01*
X170391342Y-124059556D01*
X170373153Y-124108782D01*
X170371286Y-124118507D01*
X170372115Y-124161312D01*
X170381394Y-124229209D01*
X170397968Y-124317843D01*
X170420680Y-124422859D01*
X170448373Y-124539902D01*
X170479890Y-124664616D01*
X170514075Y-124792645D01*
X170549771Y-124919634D01*
X170585821Y-125041228D01*
X170621068Y-125153072D01*
X170654356Y-125250810D01*
X170684528Y-125330087D01*
X170705561Y-125377122D01*
X170730337Y-125427225D01*
X170753730Y-125475168D01*
X170754997Y-125477793D01*
X170793699Y-125526220D01*
X170850184Y-125558828D01*
X170915939Y-125574454D01*
X170982451Y-125571937D01*
X171041205Y-125550114D01*
X171074258Y-125521382D01*
X171121859Y-125442583D01*
X171156739Y-125344378D01*
X171175877Y-125236779D01*
X171178588Y-125175780D01*
X171167670Y-125061935D01*
X171135624Y-124967660D01*
X171080726Y-124888379D01*
X171063607Y-124870733D01*
X171012661Y-124821235D01*
X171009163Y-124471362D01*
X171005664Y-124121489D01*
X171094818Y-123986531D01*
X171136654Y-123925445D01*
X171176945Y-123870493D01*
X171209943Y-123829336D01*
X171224126Y-123814192D01*
X171264281Y-123776810D01*
X171318665Y-123806098D01*
X171353039Y-123827084D01*
X171371846Y-123843378D01*
X171373049Y-123846307D01*
X171385903Y-123858728D01*
X171407896Y-123867977D01*
X171429150Y-123876313D01*
X171461694Y-123892149D01*
X171508322Y-123917033D01*
X171571829Y-123952509D01*
X171655008Y-124000123D01*
X171760653Y-124061422D01*
X171818062Y-124094932D01*
X171885594Y-124135071D01*
X171929885Y-124163659D01*
X171954855Y-124184039D01*
X171964423Y-124199553D01*
X171962508Y-124213546D01*
X171960911Y-124216796D01*
X171945376Y-124237266D01*
X171912136Y-124275665D01*
X171865062Y-124327696D01*
X171808028Y-124389066D01*
X171758700Y-124441090D01*
X171645030Y-124564567D01*
X171556105Y-124671591D01*
X171491134Y-124763240D01*
X171449321Y-124840588D01*
X171435217Y-124879866D01*
X171429392Y-124914249D01*
X171423375Y-124972899D01*
X171417696Y-125049117D01*
X171412884Y-125136202D01*
X171410619Y-125191268D01*
X171407459Y-125286464D01*
X171406069Y-125356062D01*
X171406858Y-125405409D01*
X171410235Y-125439854D01*
X171416608Y-125464743D01*
X171426387Y-125485425D01*
X171434067Y-125498053D01*
X171478421Y-125546726D01*
X171535574Y-125580645D01*
X171595708Y-125595438D01*
X171640773Y-125590086D01*
X171681576Y-125566930D01*
X171732724Y-125525462D01*
X171787042Y-125472912D01*
X171837357Y-125416516D01*
X171876494Y-125363505D01*
X171890905Y-125337889D01*
X171912491Y-125302814D01*
X171951753Y-125249389D01*
X172005102Y-125181789D01*
X172068952Y-125104190D01*
X172139715Y-125020768D01*
X172213804Y-124935698D01*
X172287632Y-124853155D01*
X172357611Y-124777316D01*
X172420155Y-124712356D01*
X172469260Y-124664669D01*
X172523779Y-124617032D01*
X172569642Y-124581908D01*
X172601811Y-124562949D01*
X172612489Y-124560864D01*
X172628853Y-124569274D01*
X172669671Y-124591846D01*
X172732586Y-124627224D01*
X172815244Y-124674054D01*
X172915289Y-124730981D01*
X173030366Y-124796649D01*
X173158119Y-124869703D01*
X173296194Y-124948788D01*
X173442234Y-125032548D01*
X173593884Y-125119629D01*
X173748790Y-125208676D01*
X173904595Y-125298332D01*
X174058944Y-125387243D01*
X174209482Y-125474054D01*
X174353854Y-125557409D01*
X174489704Y-125635954D01*
X174614677Y-125708333D01*
X174726417Y-125773190D01*
X174822570Y-125829171D01*
X174900779Y-125874920D01*
X174958689Y-125909083D01*
X174993946Y-125930304D01*
X175004165Y-125936963D01*
X174990402Y-125938280D01*
X174947104Y-125939559D01*
X174875714Y-125940796D01*
X174777673Y-125941983D01*
X174654422Y-125943115D01*
X174507403Y-125944186D01*
X174338057Y-125945189D01*
X174147826Y-125946119D01*
X173938151Y-125946968D01*
X173710473Y-125947732D01*
X173466235Y-125948403D01*
X173206877Y-125948976D01*
X172933841Y-125949444D01*
X172648568Y-125949802D01*
X172352500Y-125950042D01*
X172047079Y-125950159D01*
X171918924Y-125950171D01*
X168818970Y-125950171D01*
X169040053Y-125566847D01*
X169086856Y-125485680D01*
X169147102Y-125381166D01*
X169218778Y-125256801D01*
X169299869Y-125116082D01*
X169388362Y-124962503D01*
X169482240Y-124799562D01*
X169579491Y-124630754D01*
X169678100Y-124459575D01*
X169776053Y-124289521D01*
X169800825Y-124246512D01*
X169891152Y-124089857D01*
X169977289Y-123940803D01*
X170057942Y-123801568D01*
X170131816Y-123674371D01*
X170197617Y-123561432D01*
X170254050Y-123464968D01*
X170299821Y-123387200D01*
X170333635Y-123330346D01*
X170354198Y-123296625D01*
X170359953Y-123288040D01*
X170372058Y-123281189D01*
X170392094Y-123283158D01*
D11*
X182476748Y-130814000D02*
X182999252Y-130814000D01*
X182476748Y-129394000D02*
X182999252Y-129394000D01*
X188333252Y-90532000D02*
X187810748Y-90532000D01*
X188333252Y-91952000D02*
X187810748Y-91952000D01*
X188333252Y-83674000D02*
X187810748Y-83674000D01*
X188333252Y-85094000D02*
X187810748Y-85094000D01*
X188333252Y-92818000D02*
X187810748Y-92818000D01*
X188333252Y-94238000D02*
X187810748Y-94238000D01*
X188324252Y-88246000D02*
X187801748Y-88246000D01*
X188324252Y-89666000D02*
X187801748Y-89666000D01*
X183761252Y-83674000D02*
X183238748Y-83674000D01*
X183761252Y-85094000D02*
X183238748Y-85094000D01*
X183761252Y-92818000D02*
X183238748Y-92818000D01*
X183761252Y-94238000D02*
X183238748Y-94238000D01*
X183761252Y-90532000D02*
X183238748Y-90532000D01*
X183761252Y-91952000D02*
X183238748Y-91952000D01*
X183761252Y-88246000D02*
X183238748Y-88246000D01*
X183761252Y-89666000D02*
X183238748Y-89666000D01*
X183761252Y-85960000D02*
X183238748Y-85960000D01*
X183761252Y-87380000D02*
X183238748Y-87380000D01*
X188333252Y-85960000D02*
X187810748Y-85960000D01*
X188333252Y-87380000D02*
X187810748Y-87380000D01*
X163910000Y-62760000D02*
X163910000Y-65990000D01*
X163190000Y-67910000D02*
X162110000Y-67910000D01*
X157890000Y-67910000D02*
X156810000Y-67910000D01*
X156090000Y-62760000D02*
X156090000Y-65990000D01*
X162110000Y-67910000D02*
X162110000Y-68340000D01*
X170240000Y-70294252D02*
X170240000Y-69771748D01*
X168820000Y-70294252D02*
X168820000Y-69771748D01*
X165790000Y-126047252D02*
X165790000Y-125524748D01*
X164370000Y-126047252D02*
X164370000Y-125524748D01*
X160710000Y-126047252D02*
X160710000Y-125524748D01*
X159290000Y-126047252D02*
X159290000Y-125524748D01*
X163250000Y-126047252D02*
X163250000Y-125524748D01*
X161830000Y-126047252D02*
X161830000Y-125524748D01*
X158170000Y-126047252D02*
X158170000Y-125524748D01*
X156750000Y-126047252D02*
X156750000Y-125524748D01*
X150790000Y-126047252D02*
X150790000Y-125524748D01*
X149370000Y-126047252D02*
X149370000Y-125524748D01*
X148250000Y-126047252D02*
X148250000Y-125524748D01*
X146830000Y-126047252D02*
X146830000Y-125524748D01*
X145710000Y-126047252D02*
X145710000Y-125524748D01*
X144290000Y-126047252D02*
X144290000Y-125524748D01*
X143170000Y-126047252D02*
X143170000Y-125524748D01*
X141750000Y-126047252D02*
X141750000Y-125524748D01*
X155821252Y-69450000D02*
X155298748Y-69450000D01*
X155821252Y-70870000D02*
X155298748Y-70870000D01*
X164339252Y-75546000D02*
X163816748Y-75546000D01*
X164339252Y-76966000D02*
X163816748Y-76966000D01*
X153445120Y-100671751D02*
X152497597Y-101619275D01*
X152773369Y-100000000D02*
X153445120Y-100671751D01*
X153445120Y-99328249D02*
X152773369Y-100000000D01*
X160000000Y-92773369D02*
X160671751Y-93445120D01*
X159328249Y-93445120D02*
X160000000Y-92773369D01*
X160000000Y-107226631D02*
X159328249Y-106554880D01*
X160671751Y-106554880D02*
X160000000Y-107226631D01*
X167226631Y-100000000D02*
X166554880Y-99328249D01*
X166554880Y-100671751D02*
X167226631Y-100000000D01*
X149217252Y-93580000D02*
X148694748Y-93580000D01*
X149217252Y-95000000D02*
X148694748Y-95000000D01*
X149217252Y-91294000D02*
X148694748Y-91294000D01*
X149217252Y-92714000D02*
X148694748Y-92714000D01*
X185270748Y-121670000D02*
X185793252Y-121670000D01*
X185270748Y-120250000D02*
X185793252Y-120250000D01*
X185270748Y-119638000D02*
X185793252Y-119638000D01*
X185270748Y-118218000D02*
X185793252Y-118218000D01*
X185261748Y-117606000D02*
X185784252Y-117606000D01*
X185261748Y-116186000D02*
X185784252Y-116186000D01*
X185261748Y-115574000D02*
X185784252Y-115574000D01*
X185261748Y-114154000D02*
X185784252Y-114154000D01*
X190365252Y-120250000D02*
X189842748Y-120250000D01*
X190365252Y-121670000D02*
X189842748Y-121670000D01*
X190356252Y-118218000D02*
X189833748Y-118218000D01*
X190356252Y-119638000D02*
X189833748Y-119638000D01*
X190374252Y-116186000D02*
X189851748Y-116186000D01*
X190374252Y-117606000D02*
X189851748Y-117606000D01*
X190374252Y-114154000D02*
X189851748Y-114154000D01*
X190374252Y-115574000D02*
X189851748Y-115574000D01*
X149262000Y-97838748D02*
X149262000Y-98361252D01*
X150682000Y-97838748D02*
X150682000Y-98361252D01*
X163382000Y-89979252D02*
X163382000Y-89456748D01*
X161962000Y-89979252D02*
X161962000Y-89456748D01*
X170101313Y-99294779D02*
X170470779Y-98925313D01*
X169097221Y-98290687D02*
X169466687Y-97921221D01*
X163994000Y-107998748D02*
X163994000Y-108521252D01*
X165414000Y-107998748D02*
X165414000Y-108521252D01*
X175237748Y-81030000D02*
X175760252Y-81030000D01*
X175237748Y-79610000D02*
X175760252Y-79610000D01*
X175237748Y-78998000D02*
X175760252Y-78998000D01*
X175237748Y-77578000D02*
X175760252Y-77578000D01*
X172526000Y-70294252D02*
X172526000Y-69771748D01*
X171106000Y-70294252D02*
X171106000Y-69771748D01*
D10*
X141860000Y-118377142D02*
X142060000Y-118377142D01*
X142145714Y-118691428D02*
X141860000Y-118691428D01*
X141860000Y-118091428D01*
X142145714Y-118091428D01*
X142374285Y-118662857D02*
X142460000Y-118691428D01*
X142602857Y-118691428D01*
X142660000Y-118662857D01*
X142688571Y-118634285D01*
X142717142Y-118577142D01*
X142717142Y-118520000D01*
X142688571Y-118462857D01*
X142660000Y-118434285D01*
X142602857Y-118405714D01*
X142488571Y-118377142D01*
X142431428Y-118348571D01*
X142402857Y-118320000D01*
X142374285Y-118262857D01*
X142374285Y-118205714D01*
X142402857Y-118148571D01*
X142431428Y-118120000D01*
X142488571Y-118091428D01*
X142631428Y-118091428D01*
X142717142Y-118120000D01*
X142974285Y-118691428D02*
X142974285Y-118091428D01*
X143117142Y-118091428D01*
X143202857Y-118120000D01*
X143260000Y-118177142D01*
X143288571Y-118234285D01*
X143317142Y-118348571D01*
X143317142Y-118434285D01*
X143288571Y-118548571D01*
X143260000Y-118605714D01*
X143202857Y-118662857D01*
X143117142Y-118691428D01*
X142974285Y-118691428D01*
X143545714Y-118148571D02*
X143574285Y-118120000D01*
X143631428Y-118091428D01*
X143774285Y-118091428D01*
X143831428Y-118120000D01*
X143860000Y-118148571D01*
X143888571Y-118205714D01*
X143888571Y-118262857D01*
X143860000Y-118348571D01*
X143517142Y-118691428D01*
X143888571Y-118691428D01*
X157422142Y-74716000D02*
X157422142Y-74516000D01*
X157736428Y-74430285D02*
X157736428Y-74716000D01*
X157136428Y-74716000D01*
X157136428Y-74430285D01*
X157707857Y-74201714D02*
X157736428Y-74116000D01*
X157736428Y-73973142D01*
X157707857Y-73916000D01*
X157679285Y-73887428D01*
X157622142Y-73858857D01*
X157565000Y-73858857D01*
X157507857Y-73887428D01*
X157479285Y-73916000D01*
X157450714Y-73973142D01*
X157422142Y-74087428D01*
X157393571Y-74144571D01*
X157365000Y-74173142D01*
X157307857Y-74201714D01*
X157250714Y-74201714D01*
X157193571Y-74173142D01*
X157165000Y-74144571D01*
X157136428Y-74087428D01*
X157136428Y-73944571D01*
X157165000Y-73858857D01*
X157736428Y-73601714D02*
X157136428Y-73601714D01*
X157136428Y-73458857D01*
X157165000Y-73373142D01*
X157222142Y-73316000D01*
X157279285Y-73287428D01*
X157393571Y-73258857D01*
X157479285Y-73258857D01*
X157593571Y-73287428D01*
X157650714Y-73316000D01*
X157707857Y-73373142D01*
X157736428Y-73458857D01*
X157736428Y-73601714D01*
X157736428Y-72687428D02*
X157736428Y-73030285D01*
X157736428Y-72858857D02*
X157136428Y-72858857D01*
X157222142Y-72916000D01*
X157279285Y-72973142D01*
X157307857Y-73030285D01*
X133258857Y-85833428D02*
X133258857Y-86319142D01*
X133287428Y-86376285D01*
X133316000Y-86404857D01*
X133373142Y-86433428D01*
X133487428Y-86433428D01*
X133544571Y-86404857D01*
X133573142Y-86376285D01*
X133601714Y-86319142D01*
X133601714Y-85833428D01*
X133830285Y-85833428D02*
X134201714Y-85833428D01*
X134001714Y-86062000D01*
X134087428Y-86062000D01*
X134144571Y-86090571D01*
X134173142Y-86119142D01*
X134201714Y-86176285D01*
X134201714Y-86319142D01*
X134173142Y-86376285D01*
X134144571Y-86404857D01*
X134087428Y-86433428D01*
X133916000Y-86433428D01*
X133858857Y-86404857D01*
X133830285Y-86376285D01*
X143998285Y-85671428D02*
X143798285Y-85385714D01*
X143655428Y-85671428D02*
X143655428Y-85071428D01*
X143884000Y-85071428D01*
X143941142Y-85100000D01*
X143969714Y-85128571D01*
X143998285Y-85185714D01*
X143998285Y-85271428D01*
X143969714Y-85328571D01*
X143941142Y-85357142D01*
X143884000Y-85385714D01*
X143655428Y-85385714D01*
X144226857Y-85128571D02*
X144255428Y-85100000D01*
X144312571Y-85071428D01*
X144455428Y-85071428D01*
X144512571Y-85100000D01*
X144541142Y-85128571D01*
X144569714Y-85185714D01*
X144569714Y-85242857D01*
X144541142Y-85328571D01*
X144198285Y-85671428D01*
X144569714Y-85671428D01*
X144769714Y-85071428D02*
X145141142Y-85071428D01*
X144941142Y-85300000D01*
X145026857Y-85300000D01*
X145084000Y-85328571D01*
X145112571Y-85357142D01*
X145141142Y-85414285D01*
X145141142Y-85557142D01*
X145112571Y-85614285D01*
X145084000Y-85642857D01*
X145026857Y-85671428D01*
X144855428Y-85671428D01*
X144798285Y-85642857D01*
X144769714Y-85614285D01*
X143998285Y-83131428D02*
X143798285Y-82845714D01*
X143655428Y-83131428D02*
X143655428Y-82531428D01*
X143884000Y-82531428D01*
X143941142Y-82560000D01*
X143969714Y-82588571D01*
X143998285Y-82645714D01*
X143998285Y-82731428D01*
X143969714Y-82788571D01*
X143941142Y-82817142D01*
X143884000Y-82845714D01*
X143655428Y-82845714D01*
X144226857Y-82588571D02*
X144255428Y-82560000D01*
X144312571Y-82531428D01*
X144455428Y-82531428D01*
X144512571Y-82560000D01*
X144541142Y-82588571D01*
X144569714Y-82645714D01*
X144569714Y-82702857D01*
X144541142Y-82788571D01*
X144198285Y-83131428D01*
X144569714Y-83131428D01*
X144798285Y-82588571D02*
X144826857Y-82560000D01*
X144884000Y-82531428D01*
X145026857Y-82531428D01*
X145084000Y-82560000D01*
X145112571Y-82588571D01*
X145141142Y-82645714D01*
X145141142Y-82702857D01*
X145112571Y-82788571D01*
X144769714Y-83131428D01*
X145141142Y-83131428D01*
X137013285Y-80788285D02*
X136984714Y-80816857D01*
X136899000Y-80845428D01*
X136841857Y-80845428D01*
X136756142Y-80816857D01*
X136699000Y-80759714D01*
X136670428Y-80702571D01*
X136641857Y-80588285D01*
X136641857Y-80502571D01*
X136670428Y-80388285D01*
X136699000Y-80331142D01*
X136756142Y-80274000D01*
X136841857Y-80245428D01*
X136899000Y-80245428D01*
X136984714Y-80274000D01*
X137013285Y-80302571D01*
X137584714Y-80845428D02*
X137241857Y-80845428D01*
X137413285Y-80845428D02*
X137413285Y-80245428D01*
X137356142Y-80331142D01*
X137299000Y-80388285D01*
X137241857Y-80416857D01*
X137956142Y-80245428D02*
X138013285Y-80245428D01*
X138070428Y-80274000D01*
X138099000Y-80302571D01*
X138127571Y-80359714D01*
X138156142Y-80474000D01*
X138156142Y-80616857D01*
X138127571Y-80731142D01*
X138099000Y-80788285D01*
X138070428Y-80816857D01*
X138013285Y-80845428D01*
X137956142Y-80845428D01*
X137899000Y-80816857D01*
X137870428Y-80788285D01*
X137841857Y-80731142D01*
X137813285Y-80616857D01*
X137813285Y-80474000D01*
X137841857Y-80359714D01*
X137870428Y-80302571D01*
X137899000Y-80274000D01*
X137956142Y-80245428D01*
X185400285Y-128343428D02*
X185200285Y-128057714D01*
X185057428Y-128343428D02*
X185057428Y-127743428D01*
X185286000Y-127743428D01*
X185343142Y-127772000D01*
X185371714Y-127800571D01*
X185400285Y-127857714D01*
X185400285Y-127943428D01*
X185371714Y-128000571D01*
X185343142Y-128029142D01*
X185286000Y-128057714D01*
X185057428Y-128057714D01*
X185628857Y-127800571D02*
X185657428Y-127772000D01*
X185714571Y-127743428D01*
X185857428Y-127743428D01*
X185914571Y-127772000D01*
X185943142Y-127800571D01*
X185971714Y-127857714D01*
X185971714Y-127914857D01*
X185943142Y-128000571D01*
X185600285Y-128343428D01*
X185971714Y-128343428D01*
X186543142Y-128343428D02*
X186200285Y-128343428D01*
X186371714Y-128343428D02*
X186371714Y-127743428D01*
X186314571Y-127829142D01*
X186257428Y-127886285D01*
X186200285Y-127914857D01*
X150227714Y-106753428D02*
X150227714Y-106153428D01*
X150227714Y-106439142D02*
X150570571Y-106439142D01*
X150570571Y-106753428D02*
X150570571Y-106153428D01*
X150827714Y-106724857D02*
X150913428Y-106753428D01*
X151056285Y-106753428D01*
X151113428Y-106724857D01*
X151142000Y-106696285D01*
X151170571Y-106639142D01*
X151170571Y-106582000D01*
X151142000Y-106524857D01*
X151113428Y-106496285D01*
X151056285Y-106467714D01*
X150942000Y-106439142D01*
X150884857Y-106410571D01*
X150856285Y-106382000D01*
X150827714Y-106324857D01*
X150827714Y-106267714D01*
X150856285Y-106210571D01*
X150884857Y-106182000D01*
X150942000Y-106153428D01*
X151084857Y-106153428D01*
X151170571Y-106182000D01*
X151427714Y-106439142D02*
X151627714Y-106439142D01*
X151713428Y-106753428D02*
X151427714Y-106753428D01*
X151427714Y-106153428D01*
X151713428Y-106153428D01*
X152284857Y-106753428D02*
X151942000Y-106753428D01*
X152113428Y-106753428D02*
X152113428Y-106153428D01*
X152056285Y-106239142D01*
X151999142Y-106296285D01*
X151942000Y-106324857D01*
X146058857Y-105335285D02*
X146030285Y-105363857D01*
X145944571Y-105392428D01*
X145887428Y-105392428D01*
X145801714Y-105363857D01*
X145744571Y-105306714D01*
X145716000Y-105249571D01*
X145687428Y-105135285D01*
X145687428Y-105049571D01*
X145716000Y-104935285D01*
X145744571Y-104878142D01*
X145801714Y-104821000D01*
X145887428Y-104792428D01*
X145944571Y-104792428D01*
X146030285Y-104821000D01*
X146058857Y-104849571D01*
X146516000Y-105078142D02*
X146316000Y-105078142D01*
X146316000Y-105392428D02*
X146316000Y-104792428D01*
X146601714Y-104792428D01*
X146801714Y-104849571D02*
X146830285Y-104821000D01*
X146887428Y-104792428D01*
X147030285Y-104792428D01*
X147087428Y-104821000D01*
X147116000Y-104849571D01*
X147144571Y-104906714D01*
X147144571Y-104963857D01*
X147116000Y-105049571D01*
X146773142Y-105392428D01*
X147144571Y-105392428D01*
X146058857Y-103485285D02*
X146030285Y-103513857D01*
X145944571Y-103542428D01*
X145887428Y-103542428D01*
X145801714Y-103513857D01*
X145744571Y-103456714D01*
X145716000Y-103399571D01*
X145687428Y-103285285D01*
X145687428Y-103199571D01*
X145716000Y-103085285D01*
X145744571Y-103028142D01*
X145801714Y-102971000D01*
X145887428Y-102942428D01*
X145944571Y-102942428D01*
X146030285Y-102971000D01*
X146058857Y-102999571D01*
X146516000Y-103228142D02*
X146316000Y-103228142D01*
X146316000Y-103542428D02*
X146316000Y-102942428D01*
X146601714Y-102942428D01*
X147144571Y-103542428D02*
X146801714Y-103542428D01*
X146973142Y-103542428D02*
X146973142Y-102942428D01*
X146916000Y-103028142D01*
X146858857Y-103085285D01*
X146801714Y-103113857D01*
X182788857Y-73260428D02*
X182788857Y-73746142D01*
X182817428Y-73803285D01*
X182846000Y-73831857D01*
X182903142Y-73860428D01*
X183017428Y-73860428D01*
X183074571Y-73831857D01*
X183103142Y-73803285D01*
X183131714Y-73746142D01*
X183131714Y-73260428D01*
X183731714Y-73860428D02*
X183388857Y-73860428D01*
X183560285Y-73860428D02*
X183560285Y-73260428D01*
X183503142Y-73346142D01*
X183446000Y-73403285D01*
X183388857Y-73431857D01*
X185432000Y-130318285D02*
X185403428Y-130346857D01*
X185317714Y-130375428D01*
X185260571Y-130375428D01*
X185174857Y-130346857D01*
X185117714Y-130289714D01*
X185089142Y-130232571D01*
X185060571Y-130118285D01*
X185060571Y-130032571D01*
X185089142Y-129918285D01*
X185117714Y-129861142D01*
X185174857Y-129804000D01*
X185260571Y-129775428D01*
X185317714Y-129775428D01*
X185403428Y-129804000D01*
X185432000Y-129832571D01*
X185717714Y-130375428D02*
X185832000Y-130375428D01*
X185889142Y-130346857D01*
X185917714Y-130318285D01*
X185974857Y-130232571D01*
X186003428Y-130118285D01*
X186003428Y-129889714D01*
X185974857Y-129832571D01*
X185946285Y-129804000D01*
X185889142Y-129775428D01*
X185774857Y-129775428D01*
X185717714Y-129804000D01*
X185689142Y-129832571D01*
X185660571Y-129889714D01*
X185660571Y-130032571D01*
X185689142Y-130089714D01*
X185717714Y-130118285D01*
X185774857Y-130146857D01*
X185889142Y-130146857D01*
X185946285Y-130118285D01*
X185974857Y-130089714D01*
X186003428Y-130032571D01*
X190377142Y-90913428D02*
X190720000Y-90913428D01*
X190548571Y-91513428D02*
X190548571Y-90913428D01*
X190862857Y-90913428D02*
X191262857Y-91513428D01*
X191262857Y-90913428D02*
X190862857Y-91513428D01*
X191805714Y-91513428D02*
X191462857Y-91513428D01*
X191634285Y-91513428D02*
X191634285Y-90913428D01*
X191577142Y-90999142D01*
X191520000Y-91056285D01*
X191462857Y-91084857D01*
X190318571Y-84055428D02*
X190661428Y-84055428D01*
X190490000Y-84655428D02*
X190490000Y-84055428D01*
X190861428Y-84655428D02*
X190861428Y-84055428D01*
X191147142Y-84655428D02*
X191147142Y-84055428D01*
X191347142Y-84484000D01*
X191547142Y-84055428D01*
X191547142Y-84655428D01*
X191832857Y-84341142D02*
X192032857Y-84341142D01*
X192118571Y-84655428D02*
X191832857Y-84655428D01*
X191832857Y-84055428D01*
X192118571Y-84055428D01*
X192490000Y-84055428D02*
X192604285Y-84055428D01*
X192661428Y-84084000D01*
X192718571Y-84141142D01*
X192747142Y-84255428D01*
X192747142Y-84455428D01*
X192718571Y-84569714D01*
X192661428Y-84626857D01*
X192604285Y-84655428D01*
X192490000Y-84655428D01*
X192432857Y-84626857D01*
X192375714Y-84569714D01*
X192347142Y-84455428D01*
X192347142Y-84255428D01*
X192375714Y-84141142D01*
X192432857Y-84084000D01*
X192490000Y-84055428D01*
X193004285Y-84055428D02*
X193004285Y-84541142D01*
X193032857Y-84598285D01*
X193061428Y-84626857D01*
X193118571Y-84655428D01*
X193232857Y-84655428D01*
X193290000Y-84626857D01*
X193318571Y-84598285D01*
X193347142Y-84541142D01*
X193347142Y-84055428D01*
X193547142Y-84055428D02*
X193890000Y-84055428D01*
X193718571Y-84655428D02*
X193718571Y-84055428D01*
X194404285Y-84655428D02*
X194061428Y-84655428D01*
X194232857Y-84655428D02*
X194232857Y-84055428D01*
X194175714Y-84141142D01*
X194118571Y-84198285D01*
X194061428Y-84226857D01*
X190532857Y-93770857D02*
X190618571Y-93799428D01*
X190761428Y-93799428D01*
X190818571Y-93770857D01*
X190847142Y-93742285D01*
X190875714Y-93685142D01*
X190875714Y-93628000D01*
X190847142Y-93570857D01*
X190818571Y-93542285D01*
X190761428Y-93513714D01*
X190647142Y-93485142D01*
X190590000Y-93456571D01*
X190561428Y-93428000D01*
X190532857Y-93370857D01*
X190532857Y-93313714D01*
X190561428Y-93256571D01*
X190590000Y-93228000D01*
X190647142Y-93199428D01*
X190790000Y-93199428D01*
X190875714Y-93228000D01*
X191047142Y-93199428D02*
X191390000Y-93199428D01*
X191218571Y-93799428D02*
X191218571Y-93199428D01*
X191590000Y-93799428D02*
X191590000Y-93199428D01*
X191932857Y-93799428D01*
X191932857Y-93199428D01*
X192218571Y-93799428D02*
X192218571Y-93199428D01*
X192361428Y-93199428D01*
X192447142Y-93228000D01*
X192504285Y-93285142D01*
X192532857Y-93342285D01*
X192561428Y-93456571D01*
X192561428Y-93542285D01*
X192532857Y-93656571D01*
X192504285Y-93713714D01*
X192447142Y-93770857D01*
X192361428Y-93799428D01*
X192218571Y-93799428D01*
X193018571Y-93485142D02*
X193104285Y-93513714D01*
X193132857Y-93542285D01*
X193161428Y-93599428D01*
X193161428Y-93685142D01*
X193132857Y-93742285D01*
X193104285Y-93770857D01*
X193047142Y-93799428D01*
X192818571Y-93799428D01*
X192818571Y-93199428D01*
X193018571Y-93199428D01*
X193075714Y-93228000D01*
X193104285Y-93256571D01*
X193132857Y-93313714D01*
X193132857Y-93370857D01*
X193104285Y-93428000D01*
X193075714Y-93456571D01*
X193018571Y-93485142D01*
X192818571Y-93485142D01*
X193532857Y-93513714D02*
X193532857Y-93799428D01*
X193332857Y-93199428D02*
X193532857Y-93513714D01*
X193732857Y-93199428D01*
X194247142Y-93799428D02*
X193904285Y-93799428D01*
X194075714Y-93799428D02*
X194075714Y-93199428D01*
X194018571Y-93285142D01*
X193961428Y-93342285D01*
X193904285Y-93370857D01*
X190734285Y-89227428D02*
X190534285Y-88941714D01*
X190391428Y-89227428D02*
X190391428Y-88627428D01*
X190620000Y-88627428D01*
X190677142Y-88656000D01*
X190705714Y-88684571D01*
X190734285Y-88741714D01*
X190734285Y-88827428D01*
X190705714Y-88884571D01*
X190677142Y-88913142D01*
X190620000Y-88941714D01*
X190391428Y-88941714D01*
X190934285Y-88627428D02*
X191334285Y-89227428D01*
X191334285Y-88627428D02*
X190934285Y-89227428D01*
X191877142Y-89227428D02*
X191534285Y-89227428D01*
X191705714Y-89227428D02*
X191705714Y-88627428D01*
X191648571Y-88713142D01*
X191591428Y-88770285D01*
X191534285Y-88798857D01*
X179050285Y-84655428D02*
X178850285Y-84369714D01*
X178707428Y-84655428D02*
X178707428Y-84055428D01*
X178936000Y-84055428D01*
X178993142Y-84084000D01*
X179021714Y-84112571D01*
X179050285Y-84169714D01*
X179050285Y-84255428D01*
X179021714Y-84312571D01*
X178993142Y-84341142D01*
X178936000Y-84369714D01*
X178707428Y-84369714D01*
X179278857Y-84112571D02*
X179307428Y-84084000D01*
X179364571Y-84055428D01*
X179507428Y-84055428D01*
X179564571Y-84084000D01*
X179593142Y-84112571D01*
X179621714Y-84169714D01*
X179621714Y-84226857D01*
X179593142Y-84312571D01*
X179250285Y-84655428D01*
X179621714Y-84655428D01*
X179993142Y-84055428D02*
X180050285Y-84055428D01*
X180107428Y-84084000D01*
X180136000Y-84112571D01*
X180164571Y-84169714D01*
X180193142Y-84284000D01*
X180193142Y-84426857D01*
X180164571Y-84541142D01*
X180136000Y-84598285D01*
X180107428Y-84626857D01*
X180050285Y-84655428D01*
X179993142Y-84655428D01*
X179936000Y-84626857D01*
X179907428Y-84598285D01*
X179878857Y-84541142D01*
X179850285Y-84426857D01*
X179850285Y-84284000D01*
X179878857Y-84169714D01*
X179907428Y-84112571D01*
X179936000Y-84084000D01*
X179993142Y-84055428D01*
X179050285Y-93799428D02*
X178850285Y-93513714D01*
X178707428Y-93799428D02*
X178707428Y-93199428D01*
X178936000Y-93199428D01*
X178993142Y-93228000D01*
X179021714Y-93256571D01*
X179050285Y-93313714D01*
X179050285Y-93399428D01*
X179021714Y-93456571D01*
X178993142Y-93485142D01*
X178936000Y-93513714D01*
X178707428Y-93513714D01*
X179621714Y-93799428D02*
X179278857Y-93799428D01*
X179450285Y-93799428D02*
X179450285Y-93199428D01*
X179393142Y-93285142D01*
X179336000Y-93342285D01*
X179278857Y-93370857D01*
X179907428Y-93799428D02*
X180021714Y-93799428D01*
X180078857Y-93770857D01*
X180107428Y-93742285D01*
X180164571Y-93656571D01*
X180193142Y-93542285D01*
X180193142Y-93313714D01*
X180164571Y-93256571D01*
X180136000Y-93228000D01*
X180078857Y-93199428D01*
X179964571Y-93199428D01*
X179907428Y-93228000D01*
X179878857Y-93256571D01*
X179850285Y-93313714D01*
X179850285Y-93456571D01*
X179878857Y-93513714D01*
X179907428Y-93542285D01*
X179964571Y-93570857D01*
X180078857Y-93570857D01*
X180136000Y-93542285D01*
X180164571Y-93513714D01*
X180193142Y-93456571D01*
X179050285Y-91513428D02*
X178850285Y-91227714D01*
X178707428Y-91513428D02*
X178707428Y-90913428D01*
X178936000Y-90913428D01*
X178993142Y-90942000D01*
X179021714Y-90970571D01*
X179050285Y-91027714D01*
X179050285Y-91113428D01*
X179021714Y-91170571D01*
X178993142Y-91199142D01*
X178936000Y-91227714D01*
X178707428Y-91227714D01*
X179621714Y-91513428D02*
X179278857Y-91513428D01*
X179450285Y-91513428D02*
X179450285Y-90913428D01*
X179393142Y-90999142D01*
X179336000Y-91056285D01*
X179278857Y-91084857D01*
X179964571Y-91170571D02*
X179907428Y-91142000D01*
X179878857Y-91113428D01*
X179850285Y-91056285D01*
X179850285Y-91027714D01*
X179878857Y-90970571D01*
X179907428Y-90942000D01*
X179964571Y-90913428D01*
X180078857Y-90913428D01*
X180136000Y-90942000D01*
X180164571Y-90970571D01*
X180193142Y-91027714D01*
X180193142Y-91056285D01*
X180164571Y-91113428D01*
X180136000Y-91142000D01*
X180078857Y-91170571D01*
X179964571Y-91170571D01*
X179907428Y-91199142D01*
X179878857Y-91227714D01*
X179850285Y-91284857D01*
X179850285Y-91399142D01*
X179878857Y-91456285D01*
X179907428Y-91484857D01*
X179964571Y-91513428D01*
X180078857Y-91513428D01*
X180136000Y-91484857D01*
X180164571Y-91456285D01*
X180193142Y-91399142D01*
X180193142Y-91284857D01*
X180164571Y-91227714D01*
X180136000Y-91199142D01*
X180078857Y-91170571D01*
X179050285Y-89227428D02*
X178850285Y-88941714D01*
X178707428Y-89227428D02*
X178707428Y-88627428D01*
X178936000Y-88627428D01*
X178993142Y-88656000D01*
X179021714Y-88684571D01*
X179050285Y-88741714D01*
X179050285Y-88827428D01*
X179021714Y-88884571D01*
X178993142Y-88913142D01*
X178936000Y-88941714D01*
X178707428Y-88941714D01*
X179621714Y-89227428D02*
X179278857Y-89227428D01*
X179450285Y-89227428D02*
X179450285Y-88627428D01*
X179393142Y-88713142D01*
X179336000Y-88770285D01*
X179278857Y-88798857D01*
X179821714Y-88627428D02*
X180221714Y-88627428D01*
X179964571Y-89227428D01*
X179050285Y-86941428D02*
X178850285Y-86655714D01*
X178707428Y-86941428D02*
X178707428Y-86341428D01*
X178936000Y-86341428D01*
X178993142Y-86370000D01*
X179021714Y-86398571D01*
X179050285Y-86455714D01*
X179050285Y-86541428D01*
X179021714Y-86598571D01*
X178993142Y-86627142D01*
X178936000Y-86655714D01*
X178707428Y-86655714D01*
X179621714Y-86941428D02*
X179278857Y-86941428D01*
X179450285Y-86941428D02*
X179450285Y-86341428D01*
X179393142Y-86427142D01*
X179336000Y-86484285D01*
X179278857Y-86512857D01*
X180136000Y-86341428D02*
X180021714Y-86341428D01*
X179964571Y-86370000D01*
X179936000Y-86398571D01*
X179878857Y-86484285D01*
X179850285Y-86598571D01*
X179850285Y-86827142D01*
X179878857Y-86884285D01*
X179907428Y-86912857D01*
X179964571Y-86941428D01*
X180078857Y-86941428D01*
X180136000Y-86912857D01*
X180164571Y-86884285D01*
X180193142Y-86827142D01*
X180193142Y-86684285D01*
X180164571Y-86627142D01*
X180136000Y-86598571D01*
X180078857Y-86570000D01*
X179964571Y-86570000D01*
X179907428Y-86598571D01*
X179878857Y-86627142D01*
X179850285Y-86684285D01*
X190507428Y-86627142D02*
X190707428Y-86627142D01*
X190793142Y-86941428D02*
X190507428Y-86941428D01*
X190507428Y-86341428D01*
X190793142Y-86341428D01*
X191393142Y-86941428D02*
X191193142Y-86655714D01*
X191050285Y-86941428D02*
X191050285Y-86341428D01*
X191278857Y-86341428D01*
X191336000Y-86370000D01*
X191364571Y-86398571D01*
X191393142Y-86455714D01*
X191393142Y-86541428D01*
X191364571Y-86598571D01*
X191336000Y-86627142D01*
X191278857Y-86655714D01*
X191050285Y-86655714D01*
X191993142Y-86941428D02*
X191793142Y-86655714D01*
X191650285Y-86941428D02*
X191650285Y-86341428D01*
X191878857Y-86341428D01*
X191936000Y-86370000D01*
X191964571Y-86398571D01*
X191993142Y-86455714D01*
X191993142Y-86541428D01*
X191964571Y-86598571D01*
X191936000Y-86627142D01*
X191878857Y-86655714D01*
X191650285Y-86655714D01*
X192364571Y-86341428D02*
X192478857Y-86341428D01*
X192536000Y-86370000D01*
X192593142Y-86427142D01*
X192621714Y-86541428D01*
X192621714Y-86741428D01*
X192593142Y-86855714D01*
X192536000Y-86912857D01*
X192478857Y-86941428D01*
X192364571Y-86941428D01*
X192307428Y-86912857D01*
X192250285Y-86855714D01*
X192221714Y-86741428D01*
X192221714Y-86541428D01*
X192250285Y-86427142D01*
X192307428Y-86370000D01*
X192364571Y-86341428D01*
X193221714Y-86941428D02*
X193021714Y-86655714D01*
X192878857Y-86941428D02*
X192878857Y-86341428D01*
X193107428Y-86341428D01*
X193164571Y-86370000D01*
X193193142Y-86398571D01*
X193221714Y-86455714D01*
X193221714Y-86541428D01*
X193193142Y-86598571D01*
X193164571Y-86627142D01*
X193107428Y-86655714D01*
X192878857Y-86655714D01*
X193793142Y-86941428D02*
X193450285Y-86941428D01*
X193621714Y-86941428D02*
X193621714Y-86341428D01*
X193564571Y-86427142D01*
X193507428Y-86484285D01*
X193450285Y-86512857D01*
X158957142Y-62465428D02*
X158957142Y-62951142D01*
X158985714Y-63008285D01*
X159014285Y-63036857D01*
X159071428Y-63065428D01*
X159185714Y-63065428D01*
X159242857Y-63036857D01*
X159271428Y-63008285D01*
X159300000Y-62951142D01*
X159300000Y-62465428D01*
X159557142Y-63036857D02*
X159642857Y-63065428D01*
X159785714Y-63065428D01*
X159842857Y-63036857D01*
X159871428Y-63008285D01*
X159900000Y-62951142D01*
X159900000Y-62894000D01*
X159871428Y-62836857D01*
X159842857Y-62808285D01*
X159785714Y-62779714D01*
X159671428Y-62751142D01*
X159614285Y-62722571D01*
X159585714Y-62694000D01*
X159557142Y-62636857D01*
X159557142Y-62579714D01*
X159585714Y-62522571D01*
X159614285Y-62494000D01*
X159671428Y-62465428D01*
X159814285Y-62465428D01*
X159900000Y-62494000D01*
X160357142Y-62751142D02*
X160442857Y-62779714D01*
X160471428Y-62808285D01*
X160500000Y-62865428D01*
X160500000Y-62951142D01*
X160471428Y-63008285D01*
X160442857Y-63036857D01*
X160385714Y-63065428D01*
X160157142Y-63065428D01*
X160157142Y-62465428D01*
X160357142Y-62465428D01*
X160414285Y-62494000D01*
X160442857Y-62522571D01*
X160471428Y-62579714D01*
X160471428Y-62636857D01*
X160442857Y-62694000D01*
X160414285Y-62722571D01*
X160357142Y-62751142D01*
X160157142Y-62751142D01*
X161071428Y-63065428D02*
X160728571Y-63065428D01*
X160900000Y-63065428D02*
X160900000Y-62465428D01*
X160842857Y-62551142D01*
X160785714Y-62608285D01*
X160728571Y-62636857D01*
X167652000Y-70374285D02*
X167623428Y-70402857D01*
X167537714Y-70431428D01*
X167480571Y-70431428D01*
X167394857Y-70402857D01*
X167337714Y-70345714D01*
X167309142Y-70288571D01*
X167280571Y-70174285D01*
X167280571Y-70088571D01*
X167309142Y-69974285D01*
X167337714Y-69917142D01*
X167394857Y-69860000D01*
X167480571Y-69831428D01*
X167537714Y-69831428D01*
X167623428Y-69860000D01*
X167652000Y-69888571D01*
X168023428Y-69831428D02*
X168080571Y-69831428D01*
X168137714Y-69860000D01*
X168166285Y-69888571D01*
X168194857Y-69945714D01*
X168223428Y-70060000D01*
X168223428Y-70202857D01*
X168194857Y-70317142D01*
X168166285Y-70374285D01*
X168137714Y-70402857D01*
X168080571Y-70431428D01*
X168023428Y-70431428D01*
X167966285Y-70402857D01*
X167937714Y-70374285D01*
X167909142Y-70317142D01*
X167880571Y-70202857D01*
X167880571Y-70060000D01*
X167909142Y-69945714D01*
X167937714Y-69888571D01*
X167966285Y-69860000D01*
X168023428Y-69831428D01*
X165351428Y-121853714D02*
X165065714Y-122053714D01*
X165351428Y-122196571D02*
X164751428Y-122196571D01*
X164751428Y-121968000D01*
X164780000Y-121910857D01*
X164808571Y-121882285D01*
X164865714Y-121853714D01*
X164951428Y-121853714D01*
X165008571Y-121882285D01*
X165037142Y-121910857D01*
X165065714Y-121968000D01*
X165065714Y-122196571D01*
X165351428Y-121282285D02*
X165351428Y-121625142D01*
X165351428Y-121453714D02*
X164751428Y-121453714D01*
X164837142Y-121510857D01*
X164894285Y-121568000D01*
X164922857Y-121625142D01*
X164751428Y-120739428D02*
X164751428Y-121025142D01*
X165037142Y-121053714D01*
X165008571Y-121025142D01*
X164980000Y-120968000D01*
X164980000Y-120825142D01*
X165008571Y-120768000D01*
X165037142Y-120739428D01*
X165094285Y-120710857D01*
X165237142Y-120710857D01*
X165294285Y-120739428D01*
X165322857Y-120768000D01*
X165351428Y-120825142D01*
X165351428Y-120968000D01*
X165322857Y-121025142D01*
X165294285Y-121053714D01*
X160271428Y-121853714D02*
X159985714Y-122053714D01*
X160271428Y-122196571D02*
X159671428Y-122196571D01*
X159671428Y-121968000D01*
X159700000Y-121910857D01*
X159728571Y-121882285D01*
X159785714Y-121853714D01*
X159871428Y-121853714D01*
X159928571Y-121882285D01*
X159957142Y-121910857D01*
X159985714Y-121968000D01*
X159985714Y-122196571D01*
X160271428Y-121282285D02*
X160271428Y-121625142D01*
X160271428Y-121453714D02*
X159671428Y-121453714D01*
X159757142Y-121510857D01*
X159814285Y-121568000D01*
X159842857Y-121625142D01*
X159871428Y-120768000D02*
X160271428Y-120768000D01*
X159642857Y-120910857D02*
X160071428Y-121053714D01*
X160071428Y-120682285D01*
X162811428Y-121853714D02*
X162525714Y-122053714D01*
X162811428Y-122196571D02*
X162211428Y-122196571D01*
X162211428Y-121968000D01*
X162240000Y-121910857D01*
X162268571Y-121882285D01*
X162325714Y-121853714D01*
X162411428Y-121853714D01*
X162468571Y-121882285D01*
X162497142Y-121910857D01*
X162525714Y-121968000D01*
X162525714Y-122196571D01*
X162811428Y-121282285D02*
X162811428Y-121625142D01*
X162811428Y-121453714D02*
X162211428Y-121453714D01*
X162297142Y-121510857D01*
X162354285Y-121568000D01*
X162382857Y-121625142D01*
X162211428Y-121082285D02*
X162211428Y-120710857D01*
X162440000Y-120910857D01*
X162440000Y-120825142D01*
X162468571Y-120768000D01*
X162497142Y-120739428D01*
X162554285Y-120710857D01*
X162697142Y-120710857D01*
X162754285Y-120739428D01*
X162782857Y-120768000D01*
X162811428Y-120825142D01*
X162811428Y-120996571D01*
X162782857Y-121053714D01*
X162754285Y-121082285D01*
X157731428Y-121853714D02*
X157445714Y-122053714D01*
X157731428Y-122196571D02*
X157131428Y-122196571D01*
X157131428Y-121968000D01*
X157160000Y-121910857D01*
X157188571Y-121882285D01*
X157245714Y-121853714D01*
X157331428Y-121853714D01*
X157388571Y-121882285D01*
X157417142Y-121910857D01*
X157445714Y-121968000D01*
X157445714Y-122196571D01*
X157731428Y-121282285D02*
X157731428Y-121625142D01*
X157731428Y-121453714D02*
X157131428Y-121453714D01*
X157217142Y-121510857D01*
X157274285Y-121568000D01*
X157302857Y-121625142D01*
X157188571Y-121053714D02*
X157160000Y-121025142D01*
X157131428Y-120968000D01*
X157131428Y-120825142D01*
X157160000Y-120768000D01*
X157188571Y-120739428D01*
X157245714Y-120710857D01*
X157302857Y-120710857D01*
X157388571Y-120739428D01*
X157731428Y-121082285D01*
X157731428Y-120710857D01*
X152021428Y-126171714D02*
X151735714Y-126371714D01*
X152021428Y-126514571D02*
X151421428Y-126514571D01*
X151421428Y-126286000D01*
X151450000Y-126228857D01*
X151478571Y-126200285D01*
X151535714Y-126171714D01*
X151621428Y-126171714D01*
X151678571Y-126200285D01*
X151707142Y-126228857D01*
X151735714Y-126286000D01*
X151735714Y-126514571D01*
X152021428Y-125600285D02*
X152021428Y-125943142D01*
X152021428Y-125771714D02*
X151421428Y-125771714D01*
X151507142Y-125828857D01*
X151564285Y-125886000D01*
X151592857Y-125943142D01*
X152021428Y-125028857D02*
X152021428Y-125371714D01*
X152021428Y-125200285D02*
X151421428Y-125200285D01*
X151507142Y-125257428D01*
X151564285Y-125314571D01*
X151592857Y-125371714D01*
X147703428Y-121853714D02*
X147417714Y-122053714D01*
X147703428Y-122196571D02*
X147103428Y-122196571D01*
X147103428Y-121968000D01*
X147132000Y-121910857D01*
X147160571Y-121882285D01*
X147217714Y-121853714D01*
X147303428Y-121853714D01*
X147360571Y-121882285D01*
X147389142Y-121910857D01*
X147417714Y-121968000D01*
X147417714Y-122196571D01*
X147703428Y-121282285D02*
X147703428Y-121625142D01*
X147703428Y-121453714D02*
X147103428Y-121453714D01*
X147189142Y-121510857D01*
X147246285Y-121568000D01*
X147274857Y-121625142D01*
X147103428Y-120910857D02*
X147103428Y-120853714D01*
X147132000Y-120796571D01*
X147160571Y-120768000D01*
X147217714Y-120739428D01*
X147332000Y-120710857D01*
X147474857Y-120710857D01*
X147589142Y-120739428D01*
X147646285Y-120768000D01*
X147674857Y-120796571D01*
X147703428Y-120853714D01*
X147703428Y-120910857D01*
X147674857Y-120968000D01*
X147646285Y-120996571D01*
X147589142Y-121025142D01*
X147474857Y-121053714D01*
X147332000Y-121053714D01*
X147217714Y-121025142D01*
X147160571Y-120996571D01*
X147132000Y-120968000D01*
X147103428Y-120910857D01*
X145271428Y-122076000D02*
X144985714Y-122276000D01*
X145271428Y-122418857D02*
X144671428Y-122418857D01*
X144671428Y-122190285D01*
X144700000Y-122133142D01*
X144728571Y-122104571D01*
X144785714Y-122076000D01*
X144871428Y-122076000D01*
X144928571Y-122104571D01*
X144957142Y-122133142D01*
X144985714Y-122190285D01*
X144985714Y-122418857D01*
X145271428Y-121790285D02*
X145271428Y-121676000D01*
X145242857Y-121618857D01*
X145214285Y-121590285D01*
X145128571Y-121533142D01*
X145014285Y-121504571D01*
X144785714Y-121504571D01*
X144728571Y-121533142D01*
X144700000Y-121561714D01*
X144671428Y-121618857D01*
X144671428Y-121733142D01*
X144700000Y-121790285D01*
X144728571Y-121818857D01*
X144785714Y-121847428D01*
X144928571Y-121847428D01*
X144985714Y-121818857D01*
X145014285Y-121790285D01*
X145042857Y-121733142D01*
X145042857Y-121618857D01*
X145014285Y-121561714D01*
X144985714Y-121533142D01*
X144928571Y-121504571D01*
X141099428Y-125886000D02*
X140813714Y-126086000D01*
X141099428Y-126228857D02*
X140499428Y-126228857D01*
X140499428Y-126000285D01*
X140528000Y-125943142D01*
X140556571Y-125914571D01*
X140613714Y-125886000D01*
X140699428Y-125886000D01*
X140756571Y-125914571D01*
X140785142Y-125943142D01*
X140813714Y-126000285D01*
X140813714Y-126228857D01*
X140756571Y-125543142D02*
X140728000Y-125600285D01*
X140699428Y-125628857D01*
X140642285Y-125657428D01*
X140613714Y-125657428D01*
X140556571Y-125628857D01*
X140528000Y-125600285D01*
X140499428Y-125543142D01*
X140499428Y-125428857D01*
X140528000Y-125371714D01*
X140556571Y-125343142D01*
X140613714Y-125314571D01*
X140642285Y-125314571D01*
X140699428Y-125343142D01*
X140728000Y-125371714D01*
X140756571Y-125428857D01*
X140756571Y-125543142D01*
X140785142Y-125600285D01*
X140813714Y-125628857D01*
X140870857Y-125657428D01*
X140985142Y-125657428D01*
X141042285Y-125628857D01*
X141070857Y-125600285D01*
X141099428Y-125543142D01*
X141099428Y-125428857D01*
X141070857Y-125371714D01*
X141042285Y-125343142D01*
X140985142Y-125314571D01*
X140870857Y-125314571D01*
X140813714Y-125343142D01*
X140785142Y-125371714D01*
X140756571Y-125428857D01*
X152666000Y-70431428D02*
X152466000Y-70145714D01*
X152323142Y-70431428D02*
X152323142Y-69831428D01*
X152551714Y-69831428D01*
X152608857Y-69860000D01*
X152637428Y-69888571D01*
X152666000Y-69945714D01*
X152666000Y-70031428D01*
X152637428Y-70088571D01*
X152608857Y-70117142D01*
X152551714Y-70145714D01*
X152323142Y-70145714D01*
X153237428Y-70431428D02*
X152894571Y-70431428D01*
X153066000Y-70431428D02*
X153066000Y-69831428D01*
X153008857Y-69917142D01*
X152951714Y-69974285D01*
X152894571Y-70002857D01*
X167026000Y-76597285D02*
X166997428Y-76625857D01*
X166911714Y-76654428D01*
X166854571Y-76654428D01*
X166768857Y-76625857D01*
X166711714Y-76568714D01*
X166683142Y-76511571D01*
X166654571Y-76397285D01*
X166654571Y-76311571D01*
X166683142Y-76197285D01*
X166711714Y-76140142D01*
X166768857Y-76083000D01*
X166854571Y-76054428D01*
X166911714Y-76054428D01*
X166997428Y-76083000D01*
X167026000Y-76111571D01*
X167597428Y-76654428D02*
X167254571Y-76654428D01*
X167426000Y-76654428D02*
X167426000Y-76054428D01*
X167368857Y-76140142D01*
X167311714Y-76197285D01*
X167254571Y-76225857D01*
X146466857Y-89897428D02*
X146466857Y-90383142D01*
X146495428Y-90440285D01*
X146524000Y-90468857D01*
X146581142Y-90497428D01*
X146695428Y-90497428D01*
X146752571Y-90468857D01*
X146781142Y-90440285D01*
X146809714Y-90383142D01*
X146809714Y-89897428D01*
X147066857Y-89954571D02*
X147095428Y-89926000D01*
X147152571Y-89897428D01*
X147295428Y-89897428D01*
X147352571Y-89926000D01*
X147381142Y-89954571D01*
X147409714Y-90011714D01*
X147409714Y-90068857D01*
X147381142Y-90154571D01*
X147038285Y-90497428D01*
X147409714Y-90497428D01*
X145808000Y-94561428D02*
X145608000Y-94275714D01*
X145465142Y-94561428D02*
X145465142Y-93961428D01*
X145693714Y-93961428D01*
X145750857Y-93990000D01*
X145779428Y-94018571D01*
X145808000Y-94075714D01*
X145808000Y-94161428D01*
X145779428Y-94218571D01*
X145750857Y-94247142D01*
X145693714Y-94275714D01*
X145465142Y-94275714D01*
X146008000Y-93961428D02*
X146408000Y-93961428D01*
X146150857Y-94561428D01*
X145808000Y-92275428D02*
X145608000Y-91989714D01*
X145465142Y-92275428D02*
X145465142Y-91675428D01*
X145693714Y-91675428D01*
X145750857Y-91704000D01*
X145779428Y-91732571D01*
X145808000Y-91789714D01*
X145808000Y-91875428D01*
X145779428Y-91932571D01*
X145750857Y-91961142D01*
X145693714Y-91989714D01*
X145465142Y-91989714D01*
X146322285Y-91675428D02*
X146208000Y-91675428D01*
X146150857Y-91704000D01*
X146122285Y-91732571D01*
X146065142Y-91818285D01*
X146036571Y-91932571D01*
X146036571Y-92161142D01*
X146065142Y-92218285D01*
X146093714Y-92246857D01*
X146150857Y-92275428D01*
X146265142Y-92275428D01*
X146322285Y-92246857D01*
X146350857Y-92218285D01*
X146379428Y-92161142D01*
X146379428Y-92018285D01*
X146350857Y-91961142D01*
X146322285Y-91932571D01*
X146265142Y-91904000D01*
X146150857Y-91904000D01*
X146093714Y-91932571D01*
X146065142Y-91961142D01*
X146036571Y-92018285D01*
X181368000Y-121231428D02*
X181168000Y-120945714D01*
X181025142Y-121231428D02*
X181025142Y-120631428D01*
X181253714Y-120631428D01*
X181310857Y-120660000D01*
X181339428Y-120688571D01*
X181368000Y-120745714D01*
X181368000Y-120831428D01*
X181339428Y-120888571D01*
X181310857Y-120917142D01*
X181253714Y-120945714D01*
X181025142Y-120945714D01*
X181910857Y-120631428D02*
X181625142Y-120631428D01*
X181596571Y-120917142D01*
X181625142Y-120888571D01*
X181682285Y-120860000D01*
X181825142Y-120860000D01*
X181882285Y-120888571D01*
X181910857Y-120917142D01*
X181939428Y-120974285D01*
X181939428Y-121117142D01*
X181910857Y-121174285D01*
X181882285Y-121202857D01*
X181825142Y-121231428D01*
X181682285Y-121231428D01*
X181625142Y-121202857D01*
X181596571Y-121174285D01*
X181368000Y-119199428D02*
X181168000Y-118913714D01*
X181025142Y-119199428D02*
X181025142Y-118599428D01*
X181253714Y-118599428D01*
X181310857Y-118628000D01*
X181339428Y-118656571D01*
X181368000Y-118713714D01*
X181368000Y-118799428D01*
X181339428Y-118856571D01*
X181310857Y-118885142D01*
X181253714Y-118913714D01*
X181025142Y-118913714D01*
X181882285Y-118799428D02*
X181882285Y-119199428D01*
X181739428Y-118570857D02*
X181596571Y-118999428D01*
X181968000Y-118999428D01*
X181368000Y-117167428D02*
X181168000Y-116881714D01*
X181025142Y-117167428D02*
X181025142Y-116567428D01*
X181253714Y-116567428D01*
X181310857Y-116596000D01*
X181339428Y-116624571D01*
X181368000Y-116681714D01*
X181368000Y-116767428D01*
X181339428Y-116824571D01*
X181310857Y-116853142D01*
X181253714Y-116881714D01*
X181025142Y-116881714D01*
X181568000Y-116567428D02*
X181939428Y-116567428D01*
X181739428Y-116796000D01*
X181825142Y-116796000D01*
X181882285Y-116824571D01*
X181910857Y-116853142D01*
X181939428Y-116910285D01*
X181939428Y-117053142D01*
X181910857Y-117110285D01*
X181882285Y-117138857D01*
X181825142Y-117167428D01*
X181653714Y-117167428D01*
X181596571Y-117138857D01*
X181568000Y-117110285D01*
X181368000Y-115135428D02*
X181168000Y-114849714D01*
X181025142Y-115135428D02*
X181025142Y-114535428D01*
X181253714Y-114535428D01*
X181310857Y-114564000D01*
X181339428Y-114592571D01*
X181368000Y-114649714D01*
X181368000Y-114735428D01*
X181339428Y-114792571D01*
X181310857Y-114821142D01*
X181253714Y-114849714D01*
X181025142Y-114849714D01*
X181596571Y-114592571D02*
X181625142Y-114564000D01*
X181682285Y-114535428D01*
X181825142Y-114535428D01*
X181882285Y-114564000D01*
X181910857Y-114592571D01*
X181939428Y-114649714D01*
X181939428Y-114706857D01*
X181910857Y-114792571D01*
X181568000Y-115135428D01*
X181939428Y-115135428D01*
X192377428Y-121202857D02*
X192463142Y-121231428D01*
X192606000Y-121231428D01*
X192663142Y-121202857D01*
X192691714Y-121174285D01*
X192720285Y-121117142D01*
X192720285Y-121060000D01*
X192691714Y-121002857D01*
X192663142Y-120974285D01*
X192606000Y-120945714D01*
X192491714Y-120917142D01*
X192434571Y-120888571D01*
X192406000Y-120860000D01*
X192377428Y-120802857D01*
X192377428Y-120745714D01*
X192406000Y-120688571D01*
X192434571Y-120660000D01*
X192491714Y-120631428D01*
X192634571Y-120631428D01*
X192720285Y-120660000D01*
X192977428Y-120917142D02*
X193177428Y-120917142D01*
X193263142Y-121231428D02*
X192977428Y-121231428D01*
X192977428Y-120631428D01*
X193263142Y-120631428D01*
X193863142Y-121231428D02*
X193663142Y-120945714D01*
X193520285Y-121231428D02*
X193520285Y-120631428D01*
X193748857Y-120631428D01*
X193806000Y-120660000D01*
X193834571Y-120688571D01*
X193863142Y-120745714D01*
X193863142Y-120831428D01*
X193834571Y-120888571D01*
X193806000Y-120917142D01*
X193748857Y-120945714D01*
X193520285Y-120945714D01*
X194434571Y-121231428D02*
X194091714Y-121231428D01*
X194263142Y-121231428D02*
X194263142Y-120631428D01*
X194206000Y-120717142D01*
X194148857Y-120774285D01*
X194091714Y-120802857D01*
X192506000Y-119170857D02*
X192591714Y-119199428D01*
X192734571Y-119199428D01*
X192791714Y-119170857D01*
X192820285Y-119142285D01*
X192848857Y-119085142D01*
X192848857Y-119028000D01*
X192820285Y-118970857D01*
X192791714Y-118942285D01*
X192734571Y-118913714D01*
X192620285Y-118885142D01*
X192563142Y-118856571D01*
X192534571Y-118828000D01*
X192506000Y-118770857D01*
X192506000Y-118713714D01*
X192534571Y-118656571D01*
X192563142Y-118628000D01*
X192620285Y-118599428D01*
X192763142Y-118599428D01*
X192848857Y-118628000D01*
X193106000Y-119199428D02*
X193106000Y-118599428D01*
X193334571Y-118599428D01*
X193391714Y-118628000D01*
X193420285Y-118656571D01*
X193448857Y-118713714D01*
X193448857Y-118799428D01*
X193420285Y-118856571D01*
X193391714Y-118885142D01*
X193334571Y-118913714D01*
X193106000Y-118913714D01*
X193706000Y-119199428D02*
X193706000Y-118599428D01*
X194306000Y-119199428D02*
X193963142Y-119199428D01*
X194134571Y-119199428D02*
X194134571Y-118599428D01*
X194077428Y-118685142D01*
X194020285Y-118742285D01*
X193963142Y-118770857D01*
X192534571Y-117167428D02*
X192534571Y-116567428D01*
X192791714Y-116624571D02*
X192820285Y-116596000D01*
X192877428Y-116567428D01*
X193020285Y-116567428D01*
X193077428Y-116596000D01*
X193106000Y-116624571D01*
X193134571Y-116681714D01*
X193134571Y-116738857D01*
X193106000Y-116824571D01*
X192763142Y-117167428D01*
X193134571Y-117167428D01*
X193734571Y-117110285D02*
X193706000Y-117138857D01*
X193620285Y-117167428D01*
X193563142Y-117167428D01*
X193477428Y-117138857D01*
X193420285Y-117081714D01*
X193391714Y-117024571D01*
X193363142Y-116910285D01*
X193363142Y-116824571D01*
X193391714Y-116710285D01*
X193420285Y-116653142D01*
X193477428Y-116596000D01*
X193563142Y-116567428D01*
X193620285Y-116567428D01*
X193706000Y-116596000D01*
X193734571Y-116624571D01*
X194306000Y-117167428D02*
X193963142Y-117167428D01*
X194134571Y-117167428D02*
X194134571Y-116567428D01*
X194077428Y-116653142D01*
X194020285Y-116710285D01*
X193963142Y-116738857D01*
X192617142Y-114535428D02*
X192617142Y-115021142D01*
X192645714Y-115078285D01*
X192674285Y-115106857D01*
X192731428Y-115135428D01*
X192845714Y-115135428D01*
X192902857Y-115106857D01*
X192931428Y-115078285D01*
X192960000Y-115021142D01*
X192960000Y-114535428D01*
X193217142Y-115106857D02*
X193302857Y-115135428D01*
X193445714Y-115135428D01*
X193502857Y-115106857D01*
X193531428Y-115078285D01*
X193560000Y-115021142D01*
X193560000Y-114964000D01*
X193531428Y-114906857D01*
X193502857Y-114878285D01*
X193445714Y-114849714D01*
X193331428Y-114821142D01*
X193274285Y-114792571D01*
X193245714Y-114764000D01*
X193217142Y-114706857D01*
X193217142Y-114649714D01*
X193245714Y-114592571D01*
X193274285Y-114564000D01*
X193331428Y-114535428D01*
X193474285Y-114535428D01*
X193560000Y-114564000D01*
X194017142Y-114821142D02*
X194102857Y-114849714D01*
X194131428Y-114878285D01*
X194160000Y-114935428D01*
X194160000Y-115021142D01*
X194131428Y-115078285D01*
X194102857Y-115106857D01*
X194045714Y-115135428D01*
X193817142Y-115135428D01*
X193817142Y-114535428D01*
X194017142Y-114535428D01*
X194074285Y-114564000D01*
X194102857Y-114592571D01*
X194131428Y-114649714D01*
X194131428Y-114706857D01*
X194102857Y-114764000D01*
X194074285Y-114792571D01*
X194017142Y-114821142D01*
X193817142Y-114821142D01*
X194388571Y-114592571D02*
X194417142Y-114564000D01*
X194474285Y-114535428D01*
X194617142Y-114535428D01*
X194674285Y-114564000D01*
X194702857Y-114592571D01*
X194731428Y-114649714D01*
X194731428Y-114706857D01*
X194702857Y-114792571D01*
X194360000Y-115135428D01*
X194731428Y-115135428D01*
X147840000Y-98314285D02*
X147811428Y-98342857D01*
X147725714Y-98371428D01*
X147668571Y-98371428D01*
X147582857Y-98342857D01*
X147525714Y-98285714D01*
X147497142Y-98228571D01*
X147468571Y-98114285D01*
X147468571Y-98028571D01*
X147497142Y-97914285D01*
X147525714Y-97857142D01*
X147582857Y-97800000D01*
X147668571Y-97771428D01*
X147725714Y-97771428D01*
X147811428Y-97800000D01*
X147840000Y-97828571D01*
X148182857Y-98028571D02*
X148125714Y-98000000D01*
X148097142Y-97971428D01*
X148068571Y-97914285D01*
X148068571Y-97885714D01*
X148097142Y-97828571D01*
X148125714Y-97800000D01*
X148182857Y-97771428D01*
X148297142Y-97771428D01*
X148354285Y-97800000D01*
X148382857Y-97828571D01*
X148411428Y-97885714D01*
X148411428Y-97914285D01*
X148382857Y-97971428D01*
X148354285Y-98000000D01*
X148297142Y-98028571D01*
X148182857Y-98028571D01*
X148125714Y-98057142D01*
X148097142Y-98085714D01*
X148068571Y-98142857D01*
X148068571Y-98257142D01*
X148097142Y-98314285D01*
X148125714Y-98342857D01*
X148182857Y-98371428D01*
X148297142Y-98371428D01*
X148354285Y-98342857D01*
X148382857Y-98314285D01*
X148411428Y-98257142D01*
X148411428Y-98142857D01*
X148382857Y-98085714D01*
X148354285Y-98057142D01*
X148297142Y-98028571D01*
X162572000Y-87392285D02*
X162543428Y-87420857D01*
X162457714Y-87449428D01*
X162400571Y-87449428D01*
X162314857Y-87420857D01*
X162257714Y-87363714D01*
X162229142Y-87306571D01*
X162200571Y-87192285D01*
X162200571Y-87106571D01*
X162229142Y-86992285D01*
X162257714Y-86935142D01*
X162314857Y-86878000D01*
X162400571Y-86849428D01*
X162457714Y-86849428D01*
X162543428Y-86878000D01*
X162572000Y-86906571D01*
X162772000Y-86849428D02*
X163172000Y-86849428D01*
X162914857Y-87449428D01*
X170954000Y-100092285D02*
X170925428Y-100120857D01*
X170839714Y-100149428D01*
X170782571Y-100149428D01*
X170696857Y-100120857D01*
X170639714Y-100063714D01*
X170611142Y-100006571D01*
X170582571Y-99892285D01*
X170582571Y-99806571D01*
X170611142Y-99692285D01*
X170639714Y-99635142D01*
X170696857Y-99578000D01*
X170782571Y-99549428D01*
X170839714Y-99549428D01*
X170925428Y-99578000D01*
X170954000Y-99606571D01*
X171468285Y-99549428D02*
X171354000Y-99549428D01*
X171296857Y-99578000D01*
X171268285Y-99606571D01*
X171211142Y-99692285D01*
X171182571Y-99806571D01*
X171182571Y-100035142D01*
X171211142Y-100092285D01*
X171239714Y-100120857D01*
X171296857Y-100149428D01*
X171411142Y-100149428D01*
X171468285Y-100120857D01*
X171496857Y-100092285D01*
X171525428Y-100035142D01*
X171525428Y-99892285D01*
X171496857Y-99835142D01*
X171468285Y-99806571D01*
X171411142Y-99778000D01*
X171296857Y-99778000D01*
X171239714Y-99806571D01*
X171211142Y-99835142D01*
X171182571Y-99892285D01*
X164604000Y-111014285D02*
X164575428Y-111042857D01*
X164489714Y-111071428D01*
X164432571Y-111071428D01*
X164346857Y-111042857D01*
X164289714Y-110985714D01*
X164261142Y-110928571D01*
X164232571Y-110814285D01*
X164232571Y-110728571D01*
X164261142Y-110614285D01*
X164289714Y-110557142D01*
X164346857Y-110500000D01*
X164432571Y-110471428D01*
X164489714Y-110471428D01*
X164575428Y-110500000D01*
X164604000Y-110528571D01*
X165146857Y-110471428D02*
X164861142Y-110471428D01*
X164832571Y-110757142D01*
X164861142Y-110728571D01*
X164918285Y-110700000D01*
X165061142Y-110700000D01*
X165118285Y-110728571D01*
X165146857Y-110757142D01*
X165175428Y-110814285D01*
X165175428Y-110957142D01*
X165146857Y-111014285D01*
X165118285Y-111042857D01*
X165061142Y-111071428D01*
X164918285Y-111071428D01*
X164861142Y-111042857D01*
X164832571Y-111014285D01*
X178320000Y-80534285D02*
X178291428Y-80562857D01*
X178205714Y-80591428D01*
X178148571Y-80591428D01*
X178062857Y-80562857D01*
X178005714Y-80505714D01*
X177977142Y-80448571D01*
X177948571Y-80334285D01*
X177948571Y-80248571D01*
X177977142Y-80134285D01*
X178005714Y-80077142D01*
X178062857Y-80020000D01*
X178148571Y-79991428D01*
X178205714Y-79991428D01*
X178291428Y-80020000D01*
X178320000Y-80048571D01*
X178834285Y-80191428D02*
X178834285Y-80591428D01*
X178691428Y-79962857D02*
X178548571Y-80391428D01*
X178920000Y-80391428D01*
X178320000Y-78502285D02*
X178291428Y-78530857D01*
X178205714Y-78559428D01*
X178148571Y-78559428D01*
X178062857Y-78530857D01*
X178005714Y-78473714D01*
X177977142Y-78416571D01*
X177948571Y-78302285D01*
X177948571Y-78216571D01*
X177977142Y-78102285D01*
X178005714Y-78045142D01*
X178062857Y-77988000D01*
X178148571Y-77959428D01*
X178205714Y-77959428D01*
X178291428Y-77988000D01*
X178320000Y-78016571D01*
X178520000Y-77959428D02*
X178891428Y-77959428D01*
X178691428Y-78188000D01*
X178777142Y-78188000D01*
X178834285Y-78216571D01*
X178862857Y-78245142D01*
X178891428Y-78302285D01*
X178891428Y-78445142D01*
X178862857Y-78502285D01*
X178834285Y-78530857D01*
X178777142Y-78559428D01*
X178605714Y-78559428D01*
X178548571Y-78530857D01*
X178520000Y-78502285D01*
X171716000Y-67698285D02*
X171687428Y-67726857D01*
X171601714Y-67755428D01*
X171544571Y-67755428D01*
X171458857Y-67726857D01*
X171401714Y-67669714D01*
X171373142Y-67612571D01*
X171344571Y-67498285D01*
X171344571Y-67412571D01*
X171373142Y-67298285D01*
X171401714Y-67241142D01*
X171458857Y-67184000D01*
X171544571Y-67155428D01*
X171601714Y-67155428D01*
X171687428Y-67184000D01*
X171716000Y-67212571D01*
X171944571Y-67212571D02*
X171973142Y-67184000D01*
X172030285Y-67155428D01*
X172173142Y-67155428D01*
X172230285Y-67184000D01*
X172258857Y-67212571D01*
X172287428Y-67269714D01*
X172287428Y-67326857D01*
X172258857Y-67412571D01*
X171916000Y-67755428D01*
X172287428Y-67755428D01*
M02*
