G04 #@! TF.GenerationSoftware,KiCad,Pcbnew,(5.1.5)-2*
G04 #@! TF.CreationDate,2021-02-28T22:06:59+01:00*
G04 #@! TF.ProjectId,USB_TO_I2C,5553425f-544f-45f4-9932-432e6b696361,rev?*
G04 #@! TF.SameCoordinates,Original*
G04 #@! TF.FileFunction,Soldermask,Bot*
G04 #@! TF.FilePolarity,Negative*
%FSLAX46Y46*%
G04 Gerber Fmt 4.6, Leading zero omitted, Abs format (unit mm)*
G04 Created by KiCad (PCBNEW (5.1.5)-2) date 2021-02-28 22:06:59*
%MOMM*%
%LPD*%
G04 APERTURE LIST*
%ADD10C,0.100000*%
G04 APERTURE END LIST*
D10*
G36*
X200000000Y-65000000D02*
G01*
X200000000Y-135000000D01*
X195000000Y-140000000D01*
X185000000Y-140000000D01*
X185000000Y-135000000D01*
X189948223Y-135000000D01*
X189972609Y-134997598D01*
X189996058Y-134990485D01*
X190017669Y-134978934D01*
X190036611Y-134963389D01*
X194963389Y-130036611D01*
X194978934Y-130017669D01*
X194990485Y-129996058D01*
X194997598Y-129972609D01*
X195000000Y-129948223D01*
X195000000Y-70051777D01*
X194997598Y-70027391D01*
X194990485Y-70003942D01*
X194978934Y-69982331D01*
X194963389Y-69963389D01*
X190036611Y-65036611D01*
X190017669Y-65021066D01*
X189996058Y-65009515D01*
X189972609Y-65002402D01*
X189948223Y-65000000D01*
X185000000Y-65000000D01*
X185000000Y-60000000D01*
X195000000Y-60000000D01*
X200000000Y-65000000D01*
G37*
G36*
X135000000Y-65000000D02*
G01*
X130051777Y-65000000D01*
X130027391Y-65002402D01*
X130003942Y-65009515D01*
X129982331Y-65021066D01*
X129963389Y-65036611D01*
X125036611Y-69963389D01*
X125021066Y-69982331D01*
X125009515Y-70003942D01*
X125002402Y-70027391D01*
X125000000Y-70051777D01*
X125000000Y-129948223D01*
X125002402Y-129972609D01*
X125009515Y-129996058D01*
X125021066Y-130017669D01*
X125036611Y-130036611D01*
X129963389Y-134963389D01*
X129982331Y-134978934D01*
X130003942Y-134990485D01*
X130027391Y-134997598D01*
X130051777Y-135000000D01*
X135000000Y-135000000D01*
X135000000Y-140000000D01*
X125000000Y-140000000D01*
X120000000Y-135000000D01*
X120000000Y-65000000D01*
X125000000Y-60000000D01*
X135000000Y-60000000D01*
X135000000Y-65000000D01*
G37*
G36*
X145113512Y-131747927D02*
G01*
X145262812Y-131777624D01*
X145426784Y-131845544D01*
X145574354Y-131944147D01*
X145699853Y-132069646D01*
X145798456Y-132217216D01*
X145866376Y-132381188D01*
X145901000Y-132555259D01*
X145901000Y-132732741D01*
X145866376Y-132906812D01*
X145798456Y-133070784D01*
X145699853Y-133218354D01*
X145574354Y-133343853D01*
X145426784Y-133442456D01*
X145262812Y-133510376D01*
X145113512Y-133540073D01*
X145088742Y-133545000D01*
X144911258Y-133545000D01*
X144886488Y-133540073D01*
X144737188Y-133510376D01*
X144573216Y-133442456D01*
X144425646Y-133343853D01*
X144300147Y-133218354D01*
X144201544Y-133070784D01*
X144133624Y-132906812D01*
X144099000Y-132732741D01*
X144099000Y-132555259D01*
X144133624Y-132381188D01*
X144201544Y-132217216D01*
X144300147Y-132069646D01*
X144425646Y-131944147D01*
X144573216Y-131845544D01*
X144737188Y-131777624D01*
X144886488Y-131747927D01*
X144911258Y-131743000D01*
X145088742Y-131743000D01*
X145113512Y-131747927D01*
G37*
G36*
X150981000Y-133545000D02*
G01*
X149179000Y-133545000D01*
X149179000Y-131743000D01*
X150981000Y-131743000D01*
X150981000Y-133545000D01*
G37*
G36*
X147653512Y-131747927D02*
G01*
X147802812Y-131777624D01*
X147966784Y-131845544D01*
X148114354Y-131944147D01*
X148239853Y-132069646D01*
X148338456Y-132217216D01*
X148406376Y-132381188D01*
X148441000Y-132555259D01*
X148441000Y-132732741D01*
X148406376Y-132906812D01*
X148338456Y-133070784D01*
X148239853Y-133218354D01*
X148114354Y-133343853D01*
X147966784Y-133442456D01*
X147802812Y-133510376D01*
X147653512Y-133540073D01*
X147628742Y-133545000D01*
X147451258Y-133545000D01*
X147426488Y-133540073D01*
X147277188Y-133510376D01*
X147113216Y-133442456D01*
X146965646Y-133343853D01*
X146840147Y-133218354D01*
X146741544Y-133070784D01*
X146673624Y-132906812D01*
X146639000Y-132732741D01*
X146639000Y-132555259D01*
X146673624Y-132381188D01*
X146741544Y-132217216D01*
X146840147Y-132069646D01*
X146965646Y-131944147D01*
X147113216Y-131845544D01*
X147277188Y-131777624D01*
X147426488Y-131747927D01*
X147451258Y-131743000D01*
X147628742Y-131743000D01*
X147653512Y-131747927D01*
G37*
G36*
X142573512Y-131747927D02*
G01*
X142722812Y-131777624D01*
X142886784Y-131845544D01*
X143034354Y-131944147D01*
X143159853Y-132069646D01*
X143258456Y-132217216D01*
X143326376Y-132381188D01*
X143361000Y-132555259D01*
X143361000Y-132732741D01*
X143326376Y-132906812D01*
X143258456Y-133070784D01*
X143159853Y-133218354D01*
X143034354Y-133343853D01*
X142886784Y-133442456D01*
X142722812Y-133510376D01*
X142573512Y-133540073D01*
X142548742Y-133545000D01*
X142371258Y-133545000D01*
X142346488Y-133540073D01*
X142197188Y-133510376D01*
X142033216Y-133442456D01*
X141885646Y-133343853D01*
X141760147Y-133218354D01*
X141661544Y-133070784D01*
X141593624Y-132906812D01*
X141559000Y-132732741D01*
X141559000Y-132555259D01*
X141593624Y-132381188D01*
X141661544Y-132217216D01*
X141760147Y-132069646D01*
X141885646Y-131944147D01*
X142033216Y-131845544D01*
X142197188Y-131777624D01*
X142346488Y-131747927D01*
X142371258Y-131743000D01*
X142548742Y-131743000D01*
X142573512Y-131747927D01*
G37*
G36*
X162653512Y-131493927D02*
G01*
X162802812Y-131523624D01*
X162966784Y-131591544D01*
X163114354Y-131690147D01*
X163239853Y-131815646D01*
X163338456Y-131963216D01*
X163406376Y-132127188D01*
X163441000Y-132301259D01*
X163441000Y-132478741D01*
X163406376Y-132652812D01*
X163338456Y-132816784D01*
X163239853Y-132964354D01*
X163114354Y-133089853D01*
X162966784Y-133188456D01*
X162802812Y-133256376D01*
X162653512Y-133286073D01*
X162628742Y-133291000D01*
X162451258Y-133291000D01*
X162426488Y-133286073D01*
X162277188Y-133256376D01*
X162113216Y-133188456D01*
X161965646Y-133089853D01*
X161840147Y-132964354D01*
X161741544Y-132816784D01*
X161673624Y-132652812D01*
X161639000Y-132478741D01*
X161639000Y-132301259D01*
X161673624Y-132127188D01*
X161741544Y-131963216D01*
X161840147Y-131815646D01*
X161965646Y-131690147D01*
X162113216Y-131591544D01*
X162277188Y-131523624D01*
X162426488Y-131493927D01*
X162451258Y-131489000D01*
X162628742Y-131489000D01*
X162653512Y-131493927D01*
G37*
G36*
X180981000Y-133291000D02*
G01*
X179179000Y-133291000D01*
X179179000Y-131489000D01*
X180981000Y-131489000D01*
X180981000Y-133291000D01*
G37*
G36*
X177653512Y-131493927D02*
G01*
X177802812Y-131523624D01*
X177966784Y-131591544D01*
X178114354Y-131690147D01*
X178239853Y-131815646D01*
X178338456Y-131963216D01*
X178406376Y-132127188D01*
X178441000Y-132301259D01*
X178441000Y-132478741D01*
X178406376Y-132652812D01*
X178338456Y-132816784D01*
X178239853Y-132964354D01*
X178114354Y-133089853D01*
X177966784Y-133188456D01*
X177802812Y-133256376D01*
X177653512Y-133286073D01*
X177628742Y-133291000D01*
X177451258Y-133291000D01*
X177426488Y-133286073D01*
X177277188Y-133256376D01*
X177113216Y-133188456D01*
X176965646Y-133089853D01*
X176840147Y-132964354D01*
X176741544Y-132816784D01*
X176673624Y-132652812D01*
X176639000Y-132478741D01*
X176639000Y-132301259D01*
X176673624Y-132127188D01*
X176741544Y-131963216D01*
X176840147Y-131815646D01*
X176965646Y-131690147D01*
X177113216Y-131591544D01*
X177277188Y-131523624D01*
X177426488Y-131493927D01*
X177451258Y-131489000D01*
X177628742Y-131489000D01*
X177653512Y-131493927D01*
G37*
G36*
X175113512Y-131493927D02*
G01*
X175262812Y-131523624D01*
X175426784Y-131591544D01*
X175574354Y-131690147D01*
X175699853Y-131815646D01*
X175798456Y-131963216D01*
X175866376Y-132127188D01*
X175901000Y-132301259D01*
X175901000Y-132478741D01*
X175866376Y-132652812D01*
X175798456Y-132816784D01*
X175699853Y-132964354D01*
X175574354Y-133089853D01*
X175426784Y-133188456D01*
X175262812Y-133256376D01*
X175113512Y-133286073D01*
X175088742Y-133291000D01*
X174911258Y-133291000D01*
X174886488Y-133286073D01*
X174737188Y-133256376D01*
X174573216Y-133188456D01*
X174425646Y-133089853D01*
X174300147Y-132964354D01*
X174201544Y-132816784D01*
X174133624Y-132652812D01*
X174099000Y-132478741D01*
X174099000Y-132301259D01*
X174133624Y-132127188D01*
X174201544Y-131963216D01*
X174300147Y-131815646D01*
X174425646Y-131690147D01*
X174573216Y-131591544D01*
X174737188Y-131523624D01*
X174886488Y-131493927D01*
X174911258Y-131489000D01*
X175088742Y-131489000D01*
X175113512Y-131493927D01*
G37*
G36*
X172573512Y-131493927D02*
G01*
X172722812Y-131523624D01*
X172886784Y-131591544D01*
X173034354Y-131690147D01*
X173159853Y-131815646D01*
X173258456Y-131963216D01*
X173326376Y-132127188D01*
X173361000Y-132301259D01*
X173361000Y-132478741D01*
X173326376Y-132652812D01*
X173258456Y-132816784D01*
X173159853Y-132964354D01*
X173034354Y-133089853D01*
X172886784Y-133188456D01*
X172722812Y-133256376D01*
X172573512Y-133286073D01*
X172548742Y-133291000D01*
X172371258Y-133291000D01*
X172346488Y-133286073D01*
X172197188Y-133256376D01*
X172033216Y-133188456D01*
X171885646Y-133089853D01*
X171760147Y-132964354D01*
X171661544Y-132816784D01*
X171593624Y-132652812D01*
X171559000Y-132478741D01*
X171559000Y-132301259D01*
X171593624Y-132127188D01*
X171661544Y-131963216D01*
X171760147Y-131815646D01*
X171885646Y-131690147D01*
X172033216Y-131591544D01*
X172197188Y-131523624D01*
X172346488Y-131493927D01*
X172371258Y-131489000D01*
X172548742Y-131489000D01*
X172573512Y-131493927D01*
G37*
G36*
X165981000Y-133291000D02*
G01*
X164179000Y-133291000D01*
X164179000Y-131489000D01*
X165981000Y-131489000D01*
X165981000Y-133291000D01*
G37*
G36*
X160113512Y-131493927D02*
G01*
X160262812Y-131523624D01*
X160426784Y-131591544D01*
X160574354Y-131690147D01*
X160699853Y-131815646D01*
X160798456Y-131963216D01*
X160866376Y-132127188D01*
X160901000Y-132301259D01*
X160901000Y-132478741D01*
X160866376Y-132652812D01*
X160798456Y-132816784D01*
X160699853Y-132964354D01*
X160574354Y-133089853D01*
X160426784Y-133188456D01*
X160262812Y-133256376D01*
X160113512Y-133286073D01*
X160088742Y-133291000D01*
X159911258Y-133291000D01*
X159886488Y-133286073D01*
X159737188Y-133256376D01*
X159573216Y-133188456D01*
X159425646Y-133089853D01*
X159300147Y-132964354D01*
X159201544Y-132816784D01*
X159133624Y-132652812D01*
X159099000Y-132478741D01*
X159099000Y-132301259D01*
X159133624Y-132127188D01*
X159201544Y-131963216D01*
X159300147Y-131815646D01*
X159425646Y-131690147D01*
X159573216Y-131591544D01*
X159737188Y-131523624D01*
X159886488Y-131493927D01*
X159911258Y-131489000D01*
X160088742Y-131489000D01*
X160113512Y-131493927D01*
G37*
G36*
X157573512Y-131493927D02*
G01*
X157722812Y-131523624D01*
X157886784Y-131591544D01*
X158034354Y-131690147D01*
X158159853Y-131815646D01*
X158258456Y-131963216D01*
X158326376Y-132127188D01*
X158361000Y-132301259D01*
X158361000Y-132478741D01*
X158326376Y-132652812D01*
X158258456Y-132816784D01*
X158159853Y-132964354D01*
X158034354Y-133089853D01*
X157886784Y-133188456D01*
X157722812Y-133256376D01*
X157573512Y-133286073D01*
X157548742Y-133291000D01*
X157371258Y-133291000D01*
X157346488Y-133286073D01*
X157197188Y-133256376D01*
X157033216Y-133188456D01*
X156885646Y-133089853D01*
X156760147Y-132964354D01*
X156661544Y-132816784D01*
X156593624Y-132652812D01*
X156559000Y-132478741D01*
X156559000Y-132301259D01*
X156593624Y-132127188D01*
X156661544Y-131963216D01*
X156760147Y-131815646D01*
X156885646Y-131690147D01*
X157033216Y-131591544D01*
X157197188Y-131523624D01*
X157346488Y-131493927D01*
X157371258Y-131489000D01*
X157548742Y-131489000D01*
X157573512Y-131493927D01*
G37*
G36*
X132813512Y-128191927D02*
G01*
X132962812Y-128221624D01*
X133126784Y-128289544D01*
X133274354Y-128388147D01*
X133399853Y-128513646D01*
X133498456Y-128661216D01*
X133566376Y-128825188D01*
X133601000Y-128999259D01*
X133601000Y-129176741D01*
X133566376Y-129350812D01*
X133498456Y-129514784D01*
X133399853Y-129662354D01*
X133274354Y-129787853D01*
X133126784Y-129886456D01*
X132962812Y-129954376D01*
X132813512Y-129984073D01*
X132788742Y-129989000D01*
X132611258Y-129989000D01*
X132586488Y-129984073D01*
X132437188Y-129954376D01*
X132273216Y-129886456D01*
X132125646Y-129787853D01*
X132000147Y-129662354D01*
X131901544Y-129514784D01*
X131833624Y-129350812D01*
X131799000Y-129176741D01*
X131799000Y-128999259D01*
X131833624Y-128825188D01*
X131901544Y-128661216D01*
X132000147Y-128513646D01*
X132125646Y-128388147D01*
X132273216Y-128289544D01*
X132437188Y-128221624D01*
X132586488Y-128191927D01*
X132611258Y-128187000D01*
X132788742Y-128187000D01*
X132813512Y-128191927D01*
G37*
G36*
X131061000Y-129989000D02*
G01*
X129259000Y-129989000D01*
X129259000Y-128187000D01*
X131061000Y-128187000D01*
X131061000Y-129989000D01*
G37*
G36*
X138681000Y-129989000D02*
G01*
X136879000Y-129989000D01*
X136879000Y-128187000D01*
X138681000Y-128187000D01*
X138681000Y-129989000D01*
G37*
G36*
X135353512Y-128191927D02*
G01*
X135502812Y-128221624D01*
X135666784Y-128289544D01*
X135814354Y-128388147D01*
X135939853Y-128513646D01*
X136038456Y-128661216D01*
X136106376Y-128825188D01*
X136141000Y-128999259D01*
X136141000Y-129176741D01*
X136106376Y-129350812D01*
X136038456Y-129514784D01*
X135939853Y-129662354D01*
X135814354Y-129787853D01*
X135666784Y-129886456D01*
X135502812Y-129954376D01*
X135353512Y-129984073D01*
X135328742Y-129989000D01*
X135151258Y-129989000D01*
X135126488Y-129984073D01*
X134977188Y-129954376D01*
X134813216Y-129886456D01*
X134665646Y-129787853D01*
X134540147Y-129662354D01*
X134441544Y-129514784D01*
X134373624Y-129350812D01*
X134339000Y-129176741D01*
X134339000Y-128999259D01*
X134373624Y-128825188D01*
X134441544Y-128661216D01*
X134540147Y-128513646D01*
X134665646Y-128388147D01*
X134813216Y-128289544D01*
X134977188Y-128221624D01*
X135126488Y-128191927D01*
X135151258Y-128187000D01*
X135328742Y-128187000D01*
X135353512Y-128191927D01*
G37*
G36*
X133702512Y-76629927D02*
G01*
X133851812Y-76659624D01*
X134015784Y-76727544D01*
X134163354Y-76826147D01*
X134288853Y-76951646D01*
X134387456Y-77099216D01*
X134455376Y-77263188D01*
X134490000Y-77437259D01*
X134490000Y-77614741D01*
X134455376Y-77788812D01*
X134387456Y-77952784D01*
X134288853Y-78100354D01*
X134163354Y-78225853D01*
X134015784Y-78324456D01*
X133851812Y-78392376D01*
X133702512Y-78422073D01*
X133677742Y-78427000D01*
X133500258Y-78427000D01*
X133475488Y-78422073D01*
X133326188Y-78392376D01*
X133162216Y-78324456D01*
X133014646Y-78225853D01*
X132889147Y-78100354D01*
X132790544Y-77952784D01*
X132722624Y-77788812D01*
X132688000Y-77614741D01*
X132688000Y-77437259D01*
X132722624Y-77263188D01*
X132790544Y-77099216D01*
X132889147Y-76951646D01*
X133014646Y-76826147D01*
X133162216Y-76727544D01*
X133326188Y-76659624D01*
X133475488Y-76629927D01*
X133500258Y-76625000D01*
X133677742Y-76625000D01*
X133702512Y-76629927D01*
G37*
G36*
X137030000Y-78427000D02*
G01*
X135228000Y-78427000D01*
X135228000Y-76625000D01*
X137030000Y-76625000D01*
X137030000Y-78427000D01*
G37*
G36*
X131950000Y-78427000D02*
G01*
X130148000Y-78427000D01*
X130148000Y-76625000D01*
X131950000Y-76625000D01*
X131950000Y-78427000D01*
G37*
G36*
X157960721Y-63970174D02*
G01*
X158060995Y-64011709D01*
X158060996Y-64011710D01*
X158151242Y-64072010D01*
X158227990Y-64148758D01*
X158227991Y-64148760D01*
X158288291Y-64239005D01*
X158329826Y-64339279D01*
X158351000Y-64445730D01*
X158351000Y-64554270D01*
X158329826Y-64660721D01*
X158288291Y-64760995D01*
X158288290Y-64760996D01*
X158227990Y-64851242D01*
X158151242Y-64927990D01*
X158105812Y-64958345D01*
X158060995Y-64988291D01*
X157960721Y-65029826D01*
X157854270Y-65051000D01*
X157745730Y-65051000D01*
X157639279Y-65029826D01*
X157539005Y-64988291D01*
X157494188Y-64958345D01*
X157448758Y-64927990D01*
X157372010Y-64851242D01*
X157311710Y-64760996D01*
X157311709Y-64760995D01*
X157270174Y-64660721D01*
X157249000Y-64554270D01*
X157249000Y-64445730D01*
X157270174Y-64339279D01*
X157311709Y-64239005D01*
X157372009Y-64148760D01*
X157372010Y-64148758D01*
X157448758Y-64072010D01*
X157539004Y-64011710D01*
X157539005Y-64011709D01*
X157639279Y-63970174D01*
X157745730Y-63949000D01*
X157854270Y-63949000D01*
X157960721Y-63970174D01*
G37*
G36*
X162360721Y-63970174D02*
G01*
X162460995Y-64011709D01*
X162460996Y-64011710D01*
X162551242Y-64072010D01*
X162627990Y-64148758D01*
X162627991Y-64148760D01*
X162688291Y-64239005D01*
X162729826Y-64339279D01*
X162751000Y-64445730D01*
X162751000Y-64554270D01*
X162729826Y-64660721D01*
X162688291Y-64760995D01*
X162688290Y-64760996D01*
X162627990Y-64851242D01*
X162551242Y-64927990D01*
X162505812Y-64958345D01*
X162460995Y-64988291D01*
X162360721Y-65029826D01*
X162254270Y-65051000D01*
X162145730Y-65051000D01*
X162039279Y-65029826D01*
X161939005Y-64988291D01*
X161894188Y-64958345D01*
X161848758Y-64927990D01*
X161772010Y-64851242D01*
X161711710Y-64760996D01*
X161711709Y-64760995D01*
X161670174Y-64660721D01*
X161649000Y-64554270D01*
X161649000Y-64445730D01*
X161670174Y-64339279D01*
X161711709Y-64239005D01*
X161772009Y-64148760D01*
X161772010Y-64148758D01*
X161848758Y-64072010D01*
X161939004Y-64011710D01*
X161939005Y-64011709D01*
X162039279Y-63970174D01*
X162145730Y-63949000D01*
X162254270Y-63949000D01*
X162360721Y-63970174D01*
G37*
G36*
X140941512Y-61897927D02*
G01*
X141090812Y-61927624D01*
X141254784Y-61995544D01*
X141402354Y-62094147D01*
X141527853Y-62219646D01*
X141626456Y-62367216D01*
X141694376Y-62531188D01*
X141729000Y-62705259D01*
X141729000Y-62882741D01*
X141694376Y-63056812D01*
X141626456Y-63220784D01*
X141527853Y-63368354D01*
X141402354Y-63493853D01*
X141254784Y-63592456D01*
X141090812Y-63660376D01*
X140941512Y-63690073D01*
X140916742Y-63695000D01*
X140739258Y-63695000D01*
X140714488Y-63690073D01*
X140565188Y-63660376D01*
X140401216Y-63592456D01*
X140253646Y-63493853D01*
X140128147Y-63368354D01*
X140029544Y-63220784D01*
X139961624Y-63056812D01*
X139927000Y-62882741D01*
X139927000Y-62705259D01*
X139961624Y-62531188D01*
X140029544Y-62367216D01*
X140128147Y-62219646D01*
X140253646Y-62094147D01*
X140401216Y-61995544D01*
X140565188Y-61927624D01*
X140714488Y-61897927D01*
X140739258Y-61893000D01*
X140916742Y-61893000D01*
X140941512Y-61897927D01*
G37*
G36*
X151889000Y-63695000D02*
G01*
X150087000Y-63695000D01*
X150087000Y-61893000D01*
X151889000Y-61893000D01*
X151889000Y-63695000D01*
G37*
G36*
X148561512Y-61897927D02*
G01*
X148710812Y-61927624D01*
X148874784Y-61995544D01*
X149022354Y-62094147D01*
X149147853Y-62219646D01*
X149246456Y-62367216D01*
X149314376Y-62531188D01*
X149349000Y-62705259D01*
X149349000Y-62882741D01*
X149314376Y-63056812D01*
X149246456Y-63220784D01*
X149147853Y-63368354D01*
X149022354Y-63493853D01*
X148874784Y-63592456D01*
X148710812Y-63660376D01*
X148561512Y-63690073D01*
X148536742Y-63695000D01*
X148359258Y-63695000D01*
X148334488Y-63690073D01*
X148185188Y-63660376D01*
X148021216Y-63592456D01*
X147873646Y-63493853D01*
X147748147Y-63368354D01*
X147649544Y-63220784D01*
X147581624Y-63056812D01*
X147547000Y-62882741D01*
X147547000Y-62705259D01*
X147581624Y-62531188D01*
X147649544Y-62367216D01*
X147748147Y-62219646D01*
X147873646Y-62094147D01*
X148021216Y-61995544D01*
X148185188Y-61927624D01*
X148334488Y-61897927D01*
X148359258Y-61893000D01*
X148536742Y-61893000D01*
X148561512Y-61897927D01*
G37*
G36*
X146021512Y-61897927D02*
G01*
X146170812Y-61927624D01*
X146334784Y-61995544D01*
X146482354Y-62094147D01*
X146607853Y-62219646D01*
X146706456Y-62367216D01*
X146774376Y-62531188D01*
X146809000Y-62705259D01*
X146809000Y-62882741D01*
X146774376Y-63056812D01*
X146706456Y-63220784D01*
X146607853Y-63368354D01*
X146482354Y-63493853D01*
X146334784Y-63592456D01*
X146170812Y-63660376D01*
X146021512Y-63690073D01*
X145996742Y-63695000D01*
X145819258Y-63695000D01*
X145794488Y-63690073D01*
X145645188Y-63660376D01*
X145481216Y-63592456D01*
X145333646Y-63493853D01*
X145208147Y-63368354D01*
X145109544Y-63220784D01*
X145041624Y-63056812D01*
X145007000Y-62882741D01*
X145007000Y-62705259D01*
X145041624Y-62531188D01*
X145109544Y-62367216D01*
X145208147Y-62219646D01*
X145333646Y-62094147D01*
X145481216Y-61995544D01*
X145645188Y-61927624D01*
X145794488Y-61897927D01*
X145819258Y-61893000D01*
X145996742Y-61893000D01*
X146021512Y-61897927D01*
G37*
G36*
X138401512Y-61897927D02*
G01*
X138550812Y-61927624D01*
X138714784Y-61995544D01*
X138862354Y-62094147D01*
X138987853Y-62219646D01*
X139086456Y-62367216D01*
X139154376Y-62531188D01*
X139189000Y-62705259D01*
X139189000Y-62882741D01*
X139154376Y-63056812D01*
X139086456Y-63220784D01*
X138987853Y-63368354D01*
X138862354Y-63493853D01*
X138714784Y-63592456D01*
X138550812Y-63660376D01*
X138401512Y-63690073D01*
X138376742Y-63695000D01*
X138199258Y-63695000D01*
X138174488Y-63690073D01*
X138025188Y-63660376D01*
X137861216Y-63592456D01*
X137713646Y-63493853D01*
X137588147Y-63368354D01*
X137489544Y-63220784D01*
X137421624Y-63056812D01*
X137387000Y-62882741D01*
X137387000Y-62705259D01*
X137421624Y-62531188D01*
X137489544Y-62367216D01*
X137588147Y-62219646D01*
X137713646Y-62094147D01*
X137861216Y-61995544D01*
X138025188Y-61927624D01*
X138174488Y-61897927D01*
X138199258Y-61893000D01*
X138376742Y-61893000D01*
X138401512Y-61897927D01*
G37*
G36*
X143481512Y-61897927D02*
G01*
X143630812Y-61927624D01*
X143794784Y-61995544D01*
X143942354Y-62094147D01*
X144067853Y-62219646D01*
X144166456Y-62367216D01*
X144234376Y-62531188D01*
X144269000Y-62705259D01*
X144269000Y-62882741D01*
X144234376Y-63056812D01*
X144166456Y-63220784D01*
X144067853Y-63368354D01*
X143942354Y-63493853D01*
X143794784Y-63592456D01*
X143630812Y-63660376D01*
X143481512Y-63690073D01*
X143456742Y-63695000D01*
X143279258Y-63695000D01*
X143254488Y-63690073D01*
X143105188Y-63660376D01*
X142941216Y-63592456D01*
X142793646Y-63493853D01*
X142668147Y-63368354D01*
X142569544Y-63220784D01*
X142501624Y-63056812D01*
X142467000Y-62882741D01*
X142467000Y-62705259D01*
X142501624Y-62531188D01*
X142569544Y-62367216D01*
X142668147Y-62219646D01*
X142793646Y-62094147D01*
X142941216Y-61995544D01*
X143105188Y-61927624D01*
X143254488Y-61897927D01*
X143279258Y-61893000D01*
X143456742Y-61893000D01*
X143481512Y-61897927D01*
G37*
G36*
X179575000Y-63441000D02*
G01*
X177773000Y-63441000D01*
X177773000Y-61639000D01*
X179575000Y-61639000D01*
X179575000Y-63441000D01*
G37*
G36*
X176247512Y-61643927D02*
G01*
X176396812Y-61673624D01*
X176560784Y-61741544D01*
X176708354Y-61840147D01*
X176833853Y-61965646D01*
X176932456Y-62113216D01*
X177000376Y-62277188D01*
X177035000Y-62451259D01*
X177035000Y-62628741D01*
X177000376Y-62802812D01*
X176932456Y-62966784D01*
X176833853Y-63114354D01*
X176708354Y-63239853D01*
X176560784Y-63338456D01*
X176396812Y-63406376D01*
X176247512Y-63436073D01*
X176222742Y-63441000D01*
X176045258Y-63441000D01*
X176020488Y-63436073D01*
X175871188Y-63406376D01*
X175707216Y-63338456D01*
X175559646Y-63239853D01*
X175434147Y-63114354D01*
X175335544Y-62966784D01*
X175267624Y-62802812D01*
X175233000Y-62628741D01*
X175233000Y-62451259D01*
X175267624Y-62277188D01*
X175335544Y-62113216D01*
X175434147Y-61965646D01*
X175559646Y-61840147D01*
X175707216Y-61741544D01*
X175871188Y-61673624D01*
X176020488Y-61643927D01*
X176045258Y-61639000D01*
X176222742Y-61639000D01*
X176247512Y-61643927D01*
G37*
G36*
X173707512Y-61643927D02*
G01*
X173856812Y-61673624D01*
X174020784Y-61741544D01*
X174168354Y-61840147D01*
X174293853Y-61965646D01*
X174392456Y-62113216D01*
X174460376Y-62277188D01*
X174495000Y-62451259D01*
X174495000Y-62628741D01*
X174460376Y-62802812D01*
X174392456Y-62966784D01*
X174293853Y-63114354D01*
X174168354Y-63239853D01*
X174020784Y-63338456D01*
X173856812Y-63406376D01*
X173707512Y-63436073D01*
X173682742Y-63441000D01*
X173505258Y-63441000D01*
X173480488Y-63436073D01*
X173331188Y-63406376D01*
X173167216Y-63338456D01*
X173019646Y-63239853D01*
X172894147Y-63114354D01*
X172795544Y-62966784D01*
X172727624Y-62802812D01*
X172693000Y-62628741D01*
X172693000Y-62451259D01*
X172727624Y-62277188D01*
X172795544Y-62113216D01*
X172894147Y-61965646D01*
X173019646Y-61840147D01*
X173167216Y-61741544D01*
X173331188Y-61673624D01*
X173480488Y-61643927D01*
X173505258Y-61639000D01*
X173682742Y-61639000D01*
X173707512Y-61643927D01*
G37*
G36*
X171167512Y-61643927D02*
G01*
X171316812Y-61673624D01*
X171480784Y-61741544D01*
X171628354Y-61840147D01*
X171753853Y-61965646D01*
X171852456Y-62113216D01*
X171920376Y-62277188D01*
X171955000Y-62451259D01*
X171955000Y-62628741D01*
X171920376Y-62802812D01*
X171852456Y-62966784D01*
X171753853Y-63114354D01*
X171628354Y-63239853D01*
X171480784Y-63338456D01*
X171316812Y-63406376D01*
X171167512Y-63436073D01*
X171142742Y-63441000D01*
X170965258Y-63441000D01*
X170940488Y-63436073D01*
X170791188Y-63406376D01*
X170627216Y-63338456D01*
X170479646Y-63239853D01*
X170354147Y-63114354D01*
X170255544Y-62966784D01*
X170187624Y-62802812D01*
X170153000Y-62628741D01*
X170153000Y-62451259D01*
X170187624Y-62277188D01*
X170255544Y-62113216D01*
X170354147Y-61965646D01*
X170479646Y-61840147D01*
X170627216Y-61741544D01*
X170791188Y-61673624D01*
X170940488Y-61643927D01*
X170965258Y-61639000D01*
X171142742Y-61639000D01*
X171167512Y-61643927D01*
G37*
M02*
