M48
; DRILL file {KiCad (5.1.5)-2} date 27/12/2021 14:55:17
; FORMAT={3:3/ absolute / metric / suppress leading zeros}
; #@! TF.CreationDate,2021-12-27T14:55:17+01:00
; #@! TF.GenerationSoftware,Kicad,Pcbnew,(5.1.5)-2
; #@! TF.FileFunction,Plated,1,2,PTH
FMAT,2
METRIC,TZ
T1C0.400
T2C1.000
%
G90
G05
T1
X122540Y-65080
X122540Y-70160
X122540Y-75240
X122540Y-80320
X122540Y-85400
X122540Y-90480
X122540Y-95560
X122540Y-100640
X122540Y-105720
X122540Y-110800
X122540Y-115880
X122540Y-120960
X122540Y-126040
X122540Y-131120
X127620Y-62540
X127620Y-70160
X127620Y-75240
X127620Y-137216
X129144Y-82860
X129144Y-85400
X132700Y-70160
X132700Y-90480
X132700Y-95560
X132700Y-100640
X132700Y-105720
X132700Y-110800
X132700Y-115880
X132700Y-120960
X132700Y-131374
X132700Y-137216
X133716Y-84892
X135240Y-131374
X137780Y-70160
X137780Y-90480
X137780Y-95560
X137780Y-100640
X137780Y-105720
X137780Y-110800
X137780Y-115880
X137780Y-120960
X137780Y-126040
X138542Y-82860
X138542Y-85400
X140828Y-66604
X142098Y-80066
X142460Y-123246
X142860Y-70160
X142860Y-90480
X142860Y-95560
X142860Y-100640
X142860Y-105720
X142860Y-110800
X144384Y-84130
X145000Y-123246
X145400Y-102926
X146416Y-71430
X146416Y-76256
X147540Y-123246
X147931Y-95569
X147940Y-85400
X147940Y-90480
X147940Y-99116
X148194Y-108514
X149210Y-106736
X149718Y-65334
X149972Y-76256
X150080Y-123246
X150988Y-65334
X150988Y-71430
X151750Y-96068
X153020Y-75240
X153020Y-80320
X153020Y-88448
X153020Y-90226
X154544Y-72192
X154798Y-99878
X155306Y-93020
X155560Y-64318
X156322Y-101402
X156322Y-111308
X157338Y-110038
X157460Y-123246
X158100Y-80320
X158100Y-85400
X158354Y-111054
X158862Y-61270
X159624Y-92258
X159878Y-71303
X159878Y-76256
X159878Y-94798
X159878Y-105466
X159878Y-108006
X160000Y-123246
X160386Y-99878
X160386Y-100894
X160386Y-101910
X160386Y-102926
X160894Y-98354
X161148Y-90734
X161402Y-61270
X161402Y-116642
X161656Y-76256
X161910Y-97338
X162164Y-71176
X162540Y-123246
X162672Y-109022
X162926Y-108006
X163434Y-92258
X163688Y-87432
X164450Y-64318
X164450Y-69398
X164450Y-85654
X164958Y-78288
X165080Y-123246
X165212Y-100386
X165466Y-105720
X165466Y-114356
X166736Y-105466
X167752Y-92000
X167752Y-104704
X168006Y-86416
X168768Y-98100
X169276Y-93274
X169530Y-66858
X170292Y-94290
X170292Y-98100
X171308Y-95306
X171308Y-97338
X172324Y-75762
X172324Y-96322
X172324Y-106228
X172324Y-111562
X172460Y-128444
X173594Y-66858
X174474Y-81844
X175000Y-128444
X175880Y-95560
X176388Y-123500
X177150Y-72446
X177540Y-130104
X177540Y-134930
X178166Y-76002
X180452Y-95560
X180960Y-69652
X180960Y-77018
X180960Y-84384
X180960Y-86670
X180960Y-88956
X180960Y-91242
X180960Y-93528
X182484Y-104450
X182484Y-106990
X182992Y-114864
X182992Y-116896
X182992Y-118928
X182992Y-120960
X184262Y-125532
X184516Y-73462
X186040Y-70160
X186040Y-75240
X186040Y-80320
X186040Y-137216
X189088Y-82098
X189088Y-95814
X191120Y-62540
X191120Y-70160
X191120Y-75240
X191120Y-80320
X191120Y-85400
X191120Y-90226
X191120Y-95560
X191120Y-100640
X191120Y-105720
X191120Y-112832
X191120Y-122992
X191120Y-128580
X191120Y-137216
X193406Y-115880
X193406Y-119944
X197724Y-70160
X197724Y-75240
X197724Y-80320
X197724Y-85400
X197724Y-90480
X197724Y-95560
X197724Y-100640
X197724Y-105720
X197724Y-110800
X197724Y-115880
X197724Y-120960
X197724Y-126040
X197724Y-131120
T2
X172460Y-132390
X175000Y-132390
X177540Y-132390
X180080Y-132390
X157460Y-132390
X160000Y-132390
X162540Y-132390
X165080Y-132390
X131049Y-77526
X133589Y-77526
X136129Y-77526
X130160Y-129088
X132700Y-129088
X135240Y-129088
X137780Y-129088
X142460Y-132644
X145000Y-132644
X147540Y-132644
X150080Y-132644
X171054Y-62540
X173594Y-62540
X176134Y-62540
X178674Y-62540
X138288Y-62794
X140828Y-62794
X143368Y-62794
X145908Y-62794
X148448Y-62794
X150988Y-62794
T0
M30
