G04 #@! TF.GenerationSoftware,KiCad,Pcbnew,(5.1.5)-2*
G04 #@! TF.CreationDate,2021-12-27T14:55:15+01:00*
G04 #@! TF.ProjectId,STM32_MULTIPROTOCOL,53544d33-325f-44d5-954c-544950524f54,rev?*
G04 #@! TF.SameCoordinates,Original*
G04 #@! TF.FileFunction,Legend,Bot*
G04 #@! TF.FilePolarity,Positive*
%FSLAX46Y46*%
G04 Gerber Fmt 4.6, Leading zero omitted, Abs format (unit mm)*
G04 Created by KiCad (PCBNEW (5.1.5)-2) date 2021-12-27 14:55:15*
%MOMM*%
%LPD*%
G04 APERTURE LIST*
%ADD10C,0.200000*%
%ADD11C,0.010000*%
G04 APERTURE END LIST*
D10*
X184000000Y-66000000D02*
X187000000Y-66000000D01*
X184000000Y-63000000D02*
X184000000Y-66000000D01*
X136000000Y-66000000D02*
X133000000Y-66000000D01*
X136000000Y-63000000D02*
X136000000Y-66000000D01*
X136000000Y-134000000D02*
X136000000Y-137000000D01*
X133000000Y-134000000D02*
X136000000Y-134000000D01*
X184000000Y-134000000D02*
X187000000Y-134000000D01*
X184000000Y-137000000D02*
X184000000Y-134000000D01*
D11*
G36*
X172159957Y-120077835D02*
G01*
X172136935Y-120115245D01*
X172101466Y-120174514D01*
X172055004Y-120253118D01*
X171999004Y-120348538D01*
X171934919Y-120458250D01*
X171864204Y-120579734D01*
X171788313Y-120710468D01*
X171708701Y-120847930D01*
X171626822Y-120989598D01*
X171544130Y-121132951D01*
X171462079Y-121275467D01*
X171382124Y-121414624D01*
X171305719Y-121547901D01*
X171234318Y-121672776D01*
X171169376Y-121786727D01*
X171112347Y-121887233D01*
X171064685Y-121971772D01*
X171027845Y-122037822D01*
X171003280Y-122082862D01*
X170992446Y-122104370D01*
X170992049Y-122105714D01*
X171005499Y-122123965D01*
X171042886Y-122151882D01*
X171099765Y-122186725D01*
X171171688Y-122225754D01*
X171246985Y-122262843D01*
X171349440Y-122307817D01*
X171457183Y-122348226D01*
X171573927Y-122384969D01*
X171703382Y-122418942D01*
X171849260Y-122451044D01*
X172015274Y-122482173D01*
X172205134Y-122513227D01*
X172401531Y-122542145D01*
X172572166Y-122567800D01*
X172715455Y-122593198D01*
X172834992Y-122619602D01*
X172934370Y-122648273D01*
X173017182Y-122680473D01*
X173087022Y-122717465D01*
X173147482Y-122760512D01*
X173202155Y-122810875D01*
X173219786Y-122829583D01*
X173258000Y-122873139D01*
X173286268Y-122908682D01*
X173299382Y-122929583D01*
X173299732Y-122931297D01*
X173304320Y-122941806D01*
X173320242Y-122941924D01*
X173350734Y-122930254D01*
X173399032Y-122905396D01*
X173468373Y-122865952D01*
X173516561Y-122837587D01*
X173588417Y-122793247D01*
X173644258Y-122755279D01*
X173680333Y-122726416D01*
X173692887Y-122709388D01*
X173692879Y-122709264D01*
X173685094Y-122693037D01*
X173663108Y-122652400D01*
X173628197Y-122589567D01*
X173581637Y-122506752D01*
X173524705Y-122406172D01*
X173458677Y-122290040D01*
X173384828Y-122160571D01*
X173304436Y-122019980D01*
X173218776Y-121870482D01*
X173129124Y-121714292D01*
X173036757Y-121553624D01*
X172942951Y-121390693D01*
X172848982Y-121227713D01*
X172756126Y-121066900D01*
X172665660Y-120910468D01*
X172578859Y-120760633D01*
X172497000Y-120619608D01*
X172421359Y-120489609D01*
X172353213Y-120372849D01*
X172293837Y-120271545D01*
X172244507Y-120187911D01*
X172206500Y-120124162D01*
X172181093Y-120082511D01*
X172169560Y-120065175D01*
X172169077Y-120064805D01*
X172159957Y-120077835D01*
G37*
X172159957Y-120077835D02*
X172136935Y-120115245D01*
X172101466Y-120174514D01*
X172055004Y-120253118D01*
X171999004Y-120348538D01*
X171934919Y-120458250D01*
X171864204Y-120579734D01*
X171788313Y-120710468D01*
X171708701Y-120847930D01*
X171626822Y-120989598D01*
X171544130Y-121132951D01*
X171462079Y-121275467D01*
X171382124Y-121414624D01*
X171305719Y-121547901D01*
X171234318Y-121672776D01*
X171169376Y-121786727D01*
X171112347Y-121887233D01*
X171064685Y-121971772D01*
X171027845Y-122037822D01*
X171003280Y-122082862D01*
X170992446Y-122104370D01*
X170992049Y-122105714D01*
X171005499Y-122123965D01*
X171042886Y-122151882D01*
X171099765Y-122186725D01*
X171171688Y-122225754D01*
X171246985Y-122262843D01*
X171349440Y-122307817D01*
X171457183Y-122348226D01*
X171573927Y-122384969D01*
X171703382Y-122418942D01*
X171849260Y-122451044D01*
X172015274Y-122482173D01*
X172205134Y-122513227D01*
X172401531Y-122542145D01*
X172572166Y-122567800D01*
X172715455Y-122593198D01*
X172834992Y-122619602D01*
X172934370Y-122648273D01*
X173017182Y-122680473D01*
X173087022Y-122717465D01*
X173147482Y-122760512D01*
X173202155Y-122810875D01*
X173219786Y-122829583D01*
X173258000Y-122873139D01*
X173286268Y-122908682D01*
X173299382Y-122929583D01*
X173299732Y-122931297D01*
X173304320Y-122941806D01*
X173320242Y-122941924D01*
X173350734Y-122930254D01*
X173399032Y-122905396D01*
X173468373Y-122865952D01*
X173516561Y-122837587D01*
X173588417Y-122793247D01*
X173644258Y-122755279D01*
X173680333Y-122726416D01*
X173692887Y-122709388D01*
X173692879Y-122709264D01*
X173685094Y-122693037D01*
X173663108Y-122652400D01*
X173628197Y-122589567D01*
X173581637Y-122506752D01*
X173524705Y-122406172D01*
X173458677Y-122290040D01*
X173384828Y-122160571D01*
X173304436Y-122019980D01*
X173218776Y-121870482D01*
X173129124Y-121714292D01*
X173036757Y-121553624D01*
X172942951Y-121390693D01*
X172848982Y-121227713D01*
X172756126Y-121066900D01*
X172665660Y-120910468D01*
X172578859Y-120760633D01*
X172497000Y-120619608D01*
X172421359Y-120489609D01*
X172353213Y-120372849D01*
X172293837Y-120271545D01*
X172244507Y-120187911D01*
X172206500Y-120124162D01*
X172181093Y-120082511D01*
X172169560Y-120065175D01*
X172169077Y-120064805D01*
X172159957Y-120077835D01*
G36*
X170336472Y-123226619D02*
G01*
X170325092Y-123245693D01*
X170299512Y-123289421D01*
X170260998Y-123355619D01*
X170210814Y-123442102D01*
X170150225Y-123546685D01*
X170080497Y-123667183D01*
X170002893Y-123801412D01*
X169918680Y-123947187D01*
X169829121Y-124102323D01*
X169737002Y-124262000D01*
X169642924Y-124425117D01*
X169552598Y-124581709D01*
X169467335Y-124729506D01*
X169388443Y-124866240D01*
X169317231Y-124989642D01*
X169255009Y-125097444D01*
X169203087Y-125187377D01*
X169162772Y-125257173D01*
X169135376Y-125304564D01*
X169122493Y-125326786D01*
X169101493Y-125364330D01*
X169090075Y-125387831D01*
X169089449Y-125391920D01*
X169103364Y-125384242D01*
X169142059Y-125362203D01*
X169203513Y-125326971D01*
X169285702Y-125279711D01*
X169386604Y-125221589D01*
X169504195Y-125153771D01*
X169636454Y-125077424D01*
X169781358Y-124993714D01*
X169936883Y-124903806D01*
X170101008Y-124808867D01*
X170163451Y-124772732D01*
X170330513Y-124676083D01*
X170489926Y-124583938D01*
X170639645Y-124497475D01*
X170777624Y-124417871D01*
X170901815Y-124346305D01*
X171010173Y-124283955D01*
X171100652Y-124231998D01*
X171171204Y-124191613D01*
X171219785Y-124163978D01*
X171244346Y-124150272D01*
X171246915Y-124148974D01*
X171239431Y-124137220D01*
X171213386Y-124105795D01*
X171171441Y-124057594D01*
X171116254Y-123995510D01*
X171050483Y-123922439D01*
X170976788Y-123841276D01*
X170897827Y-123754916D01*
X170816260Y-123666253D01*
X170734746Y-123578182D01*
X170655943Y-123493599D01*
X170582510Y-123415397D01*
X170517107Y-123346472D01*
X170462392Y-123289719D01*
X170421023Y-123248032D01*
X170406836Y-123234363D01*
X170359820Y-123190201D01*
X170336472Y-123226619D01*
G37*
X170336472Y-123226619D02*
X170325092Y-123245693D01*
X170299512Y-123289421D01*
X170260998Y-123355619D01*
X170210814Y-123442102D01*
X170150225Y-123546685D01*
X170080497Y-123667183D01*
X170002893Y-123801412D01*
X169918680Y-123947187D01*
X169829121Y-124102323D01*
X169737002Y-124262000D01*
X169642924Y-124425117D01*
X169552598Y-124581709D01*
X169467335Y-124729506D01*
X169388443Y-124866240D01*
X169317231Y-124989642D01*
X169255009Y-125097444D01*
X169203087Y-125187377D01*
X169162772Y-125257173D01*
X169135376Y-125304564D01*
X169122493Y-125326786D01*
X169101493Y-125364330D01*
X169090075Y-125387831D01*
X169089449Y-125391920D01*
X169103364Y-125384242D01*
X169142059Y-125362203D01*
X169203513Y-125326971D01*
X169285702Y-125279711D01*
X169386604Y-125221589D01*
X169504195Y-125153771D01*
X169636454Y-125077424D01*
X169781358Y-124993714D01*
X169936883Y-124903806D01*
X170101008Y-124808867D01*
X170163451Y-124772732D01*
X170330513Y-124676083D01*
X170489926Y-124583938D01*
X170639645Y-124497475D01*
X170777624Y-124417871D01*
X170901815Y-124346305D01*
X171010173Y-124283955D01*
X171100652Y-124231998D01*
X171171204Y-124191613D01*
X171219785Y-124163978D01*
X171244346Y-124150272D01*
X171246915Y-124148974D01*
X171239431Y-124137220D01*
X171213386Y-124105795D01*
X171171441Y-124057594D01*
X171116254Y-123995510D01*
X171050483Y-123922439D01*
X170976788Y-123841276D01*
X170897827Y-123754916D01*
X170816260Y-123666253D01*
X170734746Y-123578182D01*
X170655943Y-123493599D01*
X170582510Y-123415397D01*
X170517107Y-123346472D01*
X170462392Y-123289719D01*
X170421023Y-123248032D01*
X170406836Y-123234363D01*
X170359820Y-123190201D01*
X170336472Y-123226619D01*
G36*
X174001906Y-123283158D02*
G01*
X173969381Y-123295736D01*
X173919807Y-123320712D01*
X173848626Y-123359876D01*
X173843084Y-123362988D01*
X173777526Y-123400476D01*
X173722202Y-123433319D01*
X173682545Y-123458205D01*
X173663988Y-123471820D01*
X173663469Y-123472487D01*
X173667952Y-123491390D01*
X173688514Y-123533605D01*
X173723817Y-123596832D01*
X173772520Y-123678772D01*
X173833282Y-123777122D01*
X173904764Y-123889585D01*
X173922555Y-123917165D01*
X173968907Y-123993699D01*
X174002658Y-124059556D01*
X174020847Y-124108782D01*
X174022714Y-124118507D01*
X174021885Y-124161312D01*
X174012606Y-124229209D01*
X173996032Y-124317843D01*
X173973320Y-124422859D01*
X173945627Y-124539902D01*
X173914110Y-124664616D01*
X173879925Y-124792645D01*
X173844229Y-124919634D01*
X173808179Y-125041228D01*
X173772932Y-125153072D01*
X173739644Y-125250810D01*
X173709472Y-125330087D01*
X173688439Y-125377122D01*
X173663663Y-125427225D01*
X173640270Y-125475168D01*
X173639003Y-125477793D01*
X173600301Y-125526220D01*
X173543816Y-125558828D01*
X173478061Y-125574454D01*
X173411549Y-125571937D01*
X173352795Y-125550114D01*
X173319742Y-125521382D01*
X173272141Y-125442583D01*
X173237261Y-125344378D01*
X173218123Y-125236779D01*
X173215412Y-125175780D01*
X173226330Y-125061935D01*
X173258376Y-124967660D01*
X173313274Y-124888379D01*
X173330393Y-124870733D01*
X173381339Y-124821235D01*
X173384837Y-124471362D01*
X173388336Y-124121489D01*
X173299182Y-123986531D01*
X173257346Y-123925445D01*
X173217055Y-123870493D01*
X173184057Y-123829336D01*
X173169874Y-123814192D01*
X173129719Y-123776810D01*
X173075335Y-123806098D01*
X173040961Y-123827084D01*
X173022154Y-123843378D01*
X173020951Y-123846307D01*
X173008097Y-123858728D01*
X172986104Y-123867977D01*
X172964850Y-123876313D01*
X172932306Y-123892149D01*
X172885678Y-123917033D01*
X172822171Y-123952509D01*
X172738992Y-124000123D01*
X172633347Y-124061422D01*
X172575938Y-124094932D01*
X172508406Y-124135071D01*
X172464115Y-124163659D01*
X172439145Y-124184039D01*
X172429577Y-124199553D01*
X172431492Y-124213546D01*
X172433089Y-124216796D01*
X172448624Y-124237266D01*
X172481864Y-124275665D01*
X172528938Y-124327696D01*
X172585972Y-124389066D01*
X172635300Y-124441090D01*
X172748970Y-124564567D01*
X172837895Y-124671591D01*
X172902866Y-124763240D01*
X172944679Y-124840588D01*
X172958783Y-124879866D01*
X172964608Y-124914249D01*
X172970625Y-124972899D01*
X172976304Y-125049117D01*
X172981116Y-125136202D01*
X172983381Y-125191268D01*
X172986541Y-125286464D01*
X172987931Y-125356062D01*
X172987142Y-125405409D01*
X172983765Y-125439854D01*
X172977392Y-125464743D01*
X172967613Y-125485425D01*
X172959933Y-125498053D01*
X172915579Y-125546726D01*
X172858426Y-125580645D01*
X172798292Y-125595438D01*
X172753227Y-125590086D01*
X172712424Y-125566930D01*
X172661276Y-125525462D01*
X172606958Y-125472912D01*
X172556643Y-125416516D01*
X172517506Y-125363505D01*
X172503095Y-125337889D01*
X172481509Y-125302814D01*
X172442247Y-125249389D01*
X172388898Y-125181789D01*
X172325048Y-125104190D01*
X172254285Y-125020768D01*
X172180196Y-124935698D01*
X172106368Y-124853155D01*
X172036389Y-124777316D01*
X171973845Y-124712356D01*
X171924740Y-124664669D01*
X171870221Y-124617032D01*
X171824358Y-124581908D01*
X171792189Y-124562949D01*
X171781511Y-124560864D01*
X171765147Y-124569274D01*
X171724329Y-124591846D01*
X171661414Y-124627224D01*
X171578756Y-124674054D01*
X171478711Y-124730981D01*
X171363634Y-124796649D01*
X171235881Y-124869703D01*
X171097806Y-124948788D01*
X170951766Y-125032548D01*
X170800116Y-125119629D01*
X170645210Y-125208676D01*
X170489405Y-125298332D01*
X170335056Y-125387243D01*
X170184518Y-125474054D01*
X170040146Y-125557409D01*
X169904296Y-125635954D01*
X169779323Y-125708333D01*
X169667583Y-125773190D01*
X169571430Y-125829171D01*
X169493221Y-125874920D01*
X169435311Y-125909083D01*
X169400054Y-125930304D01*
X169389835Y-125936963D01*
X169403598Y-125938280D01*
X169446896Y-125939559D01*
X169518286Y-125940796D01*
X169616327Y-125941983D01*
X169739578Y-125943115D01*
X169886597Y-125944186D01*
X170055943Y-125945189D01*
X170246174Y-125946119D01*
X170455849Y-125946968D01*
X170683527Y-125947732D01*
X170927765Y-125948403D01*
X171187123Y-125948976D01*
X171460159Y-125949444D01*
X171745432Y-125949802D01*
X172041500Y-125950042D01*
X172346921Y-125950159D01*
X172475076Y-125950171D01*
X175575030Y-125950171D01*
X175353947Y-125566847D01*
X175307144Y-125485680D01*
X175246898Y-125381166D01*
X175175222Y-125256801D01*
X175094131Y-125116082D01*
X175005638Y-124962503D01*
X174911760Y-124799562D01*
X174814509Y-124630754D01*
X174715900Y-124459575D01*
X174617947Y-124289521D01*
X174593175Y-124246512D01*
X174502848Y-124089857D01*
X174416711Y-123940803D01*
X174336058Y-123801568D01*
X174262184Y-123674371D01*
X174196383Y-123561432D01*
X174139950Y-123464968D01*
X174094179Y-123387200D01*
X174060365Y-123330346D01*
X174039802Y-123296625D01*
X174034047Y-123288040D01*
X174021942Y-123281189D01*
X174001906Y-123283158D01*
G37*
X174001906Y-123283158D02*
X173969381Y-123295736D01*
X173919807Y-123320712D01*
X173848626Y-123359876D01*
X173843084Y-123362988D01*
X173777526Y-123400476D01*
X173722202Y-123433319D01*
X173682545Y-123458205D01*
X173663988Y-123471820D01*
X173663469Y-123472487D01*
X173667952Y-123491390D01*
X173688514Y-123533605D01*
X173723817Y-123596832D01*
X173772520Y-123678772D01*
X173833282Y-123777122D01*
X173904764Y-123889585D01*
X173922555Y-123917165D01*
X173968907Y-123993699D01*
X174002658Y-124059556D01*
X174020847Y-124108782D01*
X174022714Y-124118507D01*
X174021885Y-124161312D01*
X174012606Y-124229209D01*
X173996032Y-124317843D01*
X173973320Y-124422859D01*
X173945627Y-124539902D01*
X173914110Y-124664616D01*
X173879925Y-124792645D01*
X173844229Y-124919634D01*
X173808179Y-125041228D01*
X173772932Y-125153072D01*
X173739644Y-125250810D01*
X173709472Y-125330087D01*
X173688439Y-125377122D01*
X173663663Y-125427225D01*
X173640270Y-125475168D01*
X173639003Y-125477793D01*
X173600301Y-125526220D01*
X173543816Y-125558828D01*
X173478061Y-125574454D01*
X173411549Y-125571937D01*
X173352795Y-125550114D01*
X173319742Y-125521382D01*
X173272141Y-125442583D01*
X173237261Y-125344378D01*
X173218123Y-125236779D01*
X173215412Y-125175780D01*
X173226330Y-125061935D01*
X173258376Y-124967660D01*
X173313274Y-124888379D01*
X173330393Y-124870733D01*
X173381339Y-124821235D01*
X173384837Y-124471362D01*
X173388336Y-124121489D01*
X173299182Y-123986531D01*
X173257346Y-123925445D01*
X173217055Y-123870493D01*
X173184057Y-123829336D01*
X173169874Y-123814192D01*
X173129719Y-123776810D01*
X173075335Y-123806098D01*
X173040961Y-123827084D01*
X173022154Y-123843378D01*
X173020951Y-123846307D01*
X173008097Y-123858728D01*
X172986104Y-123867977D01*
X172964850Y-123876313D01*
X172932306Y-123892149D01*
X172885678Y-123917033D01*
X172822171Y-123952509D01*
X172738992Y-124000123D01*
X172633347Y-124061422D01*
X172575938Y-124094932D01*
X172508406Y-124135071D01*
X172464115Y-124163659D01*
X172439145Y-124184039D01*
X172429577Y-124199553D01*
X172431492Y-124213546D01*
X172433089Y-124216796D01*
X172448624Y-124237266D01*
X172481864Y-124275665D01*
X172528938Y-124327696D01*
X172585972Y-124389066D01*
X172635300Y-124441090D01*
X172748970Y-124564567D01*
X172837895Y-124671591D01*
X172902866Y-124763240D01*
X172944679Y-124840588D01*
X172958783Y-124879866D01*
X172964608Y-124914249D01*
X172970625Y-124972899D01*
X172976304Y-125049117D01*
X172981116Y-125136202D01*
X172983381Y-125191268D01*
X172986541Y-125286464D01*
X172987931Y-125356062D01*
X172987142Y-125405409D01*
X172983765Y-125439854D01*
X172977392Y-125464743D01*
X172967613Y-125485425D01*
X172959933Y-125498053D01*
X172915579Y-125546726D01*
X172858426Y-125580645D01*
X172798292Y-125595438D01*
X172753227Y-125590086D01*
X172712424Y-125566930D01*
X172661276Y-125525462D01*
X172606958Y-125472912D01*
X172556643Y-125416516D01*
X172517506Y-125363505D01*
X172503095Y-125337889D01*
X172481509Y-125302814D01*
X172442247Y-125249389D01*
X172388898Y-125181789D01*
X172325048Y-125104190D01*
X172254285Y-125020768D01*
X172180196Y-124935698D01*
X172106368Y-124853155D01*
X172036389Y-124777316D01*
X171973845Y-124712356D01*
X171924740Y-124664669D01*
X171870221Y-124617032D01*
X171824358Y-124581908D01*
X171792189Y-124562949D01*
X171781511Y-124560864D01*
X171765147Y-124569274D01*
X171724329Y-124591846D01*
X171661414Y-124627224D01*
X171578756Y-124674054D01*
X171478711Y-124730981D01*
X171363634Y-124796649D01*
X171235881Y-124869703D01*
X171097806Y-124948788D01*
X170951766Y-125032548D01*
X170800116Y-125119629D01*
X170645210Y-125208676D01*
X170489405Y-125298332D01*
X170335056Y-125387243D01*
X170184518Y-125474054D01*
X170040146Y-125557409D01*
X169904296Y-125635954D01*
X169779323Y-125708333D01*
X169667583Y-125773190D01*
X169571430Y-125829171D01*
X169493221Y-125874920D01*
X169435311Y-125909083D01*
X169400054Y-125930304D01*
X169389835Y-125936963D01*
X169403598Y-125938280D01*
X169446896Y-125939559D01*
X169518286Y-125940796D01*
X169616327Y-125941983D01*
X169739578Y-125943115D01*
X169886597Y-125944186D01*
X170055943Y-125945189D01*
X170246174Y-125946119D01*
X170455849Y-125946968D01*
X170683527Y-125947732D01*
X170927765Y-125948403D01*
X171187123Y-125948976D01*
X171460159Y-125949444D01*
X171745432Y-125949802D01*
X172041500Y-125950042D01*
X172346921Y-125950159D01*
X172475076Y-125950171D01*
X175575030Y-125950171D01*
X175353947Y-125566847D01*
X175307144Y-125485680D01*
X175246898Y-125381166D01*
X175175222Y-125256801D01*
X175094131Y-125116082D01*
X175005638Y-124962503D01*
X174911760Y-124799562D01*
X174814509Y-124630754D01*
X174715900Y-124459575D01*
X174617947Y-124289521D01*
X174593175Y-124246512D01*
X174502848Y-124089857D01*
X174416711Y-123940803D01*
X174336058Y-123801568D01*
X174262184Y-123674371D01*
X174196383Y-123561432D01*
X174139950Y-123464968D01*
X174094179Y-123387200D01*
X174060365Y-123330346D01*
X174039802Y-123296625D01*
X174034047Y-123288040D01*
X174021942Y-123281189D01*
X174001906Y-123283158D01*
M02*
